<svg width="18.000000" height="18.000000" viewBox="0 0 18 18" fill="none" xmlns="http://www.w3.org/2000/svg" xmlns:xlink="http://www.w3.org/1999/xlink">
	<desc>
			Created with Pixso.
	</desc>
	<defs/>
	<path id="path" d="M8.22217 12.8887L9.38873 12.8887L9.38873 11.7222L8.22217 11.7222L8.22217 12.8887ZM10.0113 9.23347C9.42761 9.62259 9.15564 10.0887 9.15564 10.5946L9.15564 10.9444L8.22177 10.9444L8.22177 10.5167C8.18286 9.81674 8.53305 9.19456 9.15521 8.72762C9.8548 8.2226 10.205 7.71674 10.1272 7.24979C10.0494 6.5502 9.66064 6.16109 8.92175 6.12218C8.0661 6.08327 7.52176 6.58913 7.32761 7.63892L6.2774 7.36653C6.58871 5.81129 7.56067 5.07239 9.11633 5.1113C10.4774 5.18912 11.1774 5.8502 11.3326 7.13347C11.3719 7.9113 10.9443 8.6113 10.0113 9.23347ZM9 2.77782C5.57782 2.77824 2.77823 5.57782 2.77823 9C2.77823 12.4226 5.57782 15.2226 9 15.2226C12.4222 15.2226 15.2217 12.4222 15.2217 9C15.2217 5.57782 12.4226 2.77782 9 2.77782ZM9 15.9996C5.15021 16 2 12.8498 2 9C2 5.15021 5.15021 2 9 2C12.8498 2 16 5.15021 16 9C16 12.8498 12.8498 15.9996 9 15.9996Z" fill-rule="nonzero" fill="#999999"/>
</svg>
