<svg width="18.000000" height="18.000000" viewBox="0 0 18 18" fill="none" xmlns="http://www.w3.org/2000/svg" xmlns:xlink="http://www.w3.org/1999/xlink">
	<desc>
			Created with Pixso.
	</desc>
	<defs/>
	<circle id="椭圆 33" cx="9.000000" cy="9.000000" r="7.000000" fill="#999999"/>
	<path id="path" d="M7.94476 12.7789L9.11127 12.7789L9.11127 11.6123L7.94476 11.6123L7.94476 12.7789ZM9.73389 9.12364C9.15021 9.51276 8.87823 9.97887 8.87823 10.4847L8.87823 10.8345L7.94437 10.8345L7.94437 10.4069C7.90543 9.70689 8.25565 9.08472 8.87784 8.61778C9.57739 8.11275 9.92761 7.6069 9.84979 7.13995C9.77197 6.44037 9.38324 6.05125 8.64435 6.01234C7.7887 5.97343 7.24435 6.47928 7.0502 7.52908L6 7.2567C6.31131 5.70146 7.28326 4.96255 8.8389 5.00146C10.2 5.07928 10.9 5.74037 11.0552 7.02364C11.0945 7.80145 10.6669 8.50146 9.73389 9.12364Z" fill-rule="nonzero" fill="#FFFFFF"/>
</svg>
