<svg width="20.000000" height="17.979004" viewBox="0 0 20 17.979" fill="none" xmlns="http://www.w3.org/2000/svg" xmlns:xlink="http://www.w3.org/1999/xlink">
	<desc>
			Created with Pixso.
	</desc>
	<path id="矢量 1054" d="M15.1763 2.99658L18 7.32495L10 15.9814L2 7.32495L4.82373 2.99658L15.1763 2.99658Z" stroke="#FFA904"/>
	<path id="专" d="M13.2944 7.56519L13.2944 6.96021L9.39502 6.96021C9.48584 6.63086 9.57715 6.29346 9.67578 5.96411L12.7456 5.96411L12.7456 5.36523L9.82812 5.36523C9.91943 5.04639 10.0029 4.7334 10.0791 4.43921L9.47852 4.43921C9.41699 4.7334 9.3335 5.04639 9.25 5.36523L7.31396 5.36523L7.31396 5.96411L9.08984 5.96411C8.99902 6.29346 8.89844 6.63086 8.7998 6.96021L6.70605 6.96021L6.70605 7.56519L8.625 7.56519C8.4502 8.1311 8.28271 8.66211 8.13037 9.08398L11.6636 9.08398C11.2378 9.57178 10.6743 10.1707 10.1631 10.7017C9.60693 10.4753 9.04346 10.2632 8.5415 10.1111L8.22168 10.5679C9.3877 10.9465 10.8862 11.6299 11.6265 12.134L11.9683 11.5947C11.6484 11.3848 11.2153 11.1646 10.7261 10.9382C11.4272 10.2056 12.1973 9.37012 12.7456 8.74658L12.3198 8.46045L12.2197 8.49341L8.9375 8.49341C9.02881 8.20728 9.11963 7.89453 9.21826 7.56519L13.2944 7.56519Z" fill-rule="nonzero" fill="#FFA904"/>
	<defs/>
</svg>
