<svg width="16.000000" height="16.000000" viewBox="0 0 16 16" fill="none" xmlns="http://www.w3.org/2000/svg" xmlns:xlink="http://www.w3.org/1999/xlink">
	<desc>
			Created with Pixso.
	</desc>
	<g clip-path="url(#clip73_350)">
		<path id="path" d="M13.4763 7.51807L3.6582 7.51807L6.83477 4.34149C7.03004 4.14618 7.03004 3.82965 6.83477 3.63434C6.6395 3.43909 6.32292 3.43909 6.12766 3.63434L2.11556 7.64648C1.9203 7.84174 1.9203 8.15833 2.11556 8.35358L6.12766 12.3657C6.2253 12.4633 6.35326 12.5121 6.48121 12.5121C6.60916 12.5121 6.73713 12.4633 6.83475 12.3657C7.03002 12.1704 7.03002 11.8538 6.83475 11.6586L3.65819 8.48199L13.4763 8.48199C13.7425 8.48199 13.9583 8.26617 13.9583 8C13.9583 7.73383 13.7425 7.51807 13.4763 7.51807Z" fill-rule="nonzero" fill="#666666"/>
	</g>
	<defs>
		<clipPath id="clip73_350">
			<rect id="左箭头" width="16.000000" height="16.000000" fill="white"/>
		</clipPath>
	</defs>
</svg>
