<svg width="16.000000" height="16.000000" viewBox="0 0 16 16" fill="none" xmlns="http://www.w3.org/2000/svg" xmlns:xlink="http://www.w3.org/1999/xlink">
	<desc>
			Created with Pixso.
	</desc>
	<defs/>
	<path id="path" d="M6.38236 7.62976L2.24336 7.62976C1.55786 7.62976 1 7.07166 1 6.38562L1 2.24414C1 1.55823 1.55769 1 2.24336 1L6.38236 1C7.06786 1 7.62572 1.55798 7.62572 2.24414L7.62572 6.38562C7.62572 7.07153 7.06803 7.62976 6.38236 7.62976ZM2.24336 2.01514C2.11708 2.01514 2.0143 2.11792 2.0143 2.24426L2.0143 6.38574C2.0143 6.51208 2.11708 6.61499 2.24336 6.61499L6.38236 6.61499C6.50864 6.61499 6.61143 6.51208 6.61143 6.38574L6.61143 2.24414C6.61143 2.1178 6.50864 2.01489 6.38236 2.01489L2.24336 2.01514ZM6.38236 15L2.24336 15C1.55786 15 1 14.442 1 13.7559L1 9.61438C1 8.92847 1.55769 8.37024 2.24336 8.37024L6.38236 8.37024C7.06786 8.37024 7.62572 8.92834 7.62572 9.61438L7.62572 13.7559C7.62572 14.4418 7.06803 15 6.38236 15ZM2.24336 9.38538C2.11708 9.38538 2.0143 9.48816 2.0143 9.6145L2.0143 13.7561C2.0143 13.8824 2.11708 13.9852 2.24336 13.9852L6.38236 13.9852C6.50864 13.9852 6.61143 13.8824 6.61143 13.7561L6.61143 9.6145C6.61143 9.48816 6.50864 9.38538 6.38236 9.38538L2.24336 9.38538ZM13.7566 15L9.61764 15C8.93214 15 8.37428 14.442 8.37428 13.7559L8.37428 9.61438C8.37428 8.92847 8.93197 8.37024 9.61764 8.37024L13.7566 8.37024C14.4421 8.37024 15 8.92834 15 9.61438L15 13.7559C15 14.4418 14.4423 15 13.7566 15ZM9.61764 9.38538C9.49136 9.38538 9.38857 9.48816 9.38857 9.6145L9.38857 13.7561C9.38857 13.8824 9.49136 13.9852 9.61764 13.9852L13.7566 13.9852C13.8829 13.9852 13.9857 13.8824 13.9857 13.7561L13.9857 9.6145C13.9857 9.48816 13.8829 9.38538 13.7566 9.38538L9.61764 9.38538ZM14.8803 1.82727C14.8803 1.547 14.6533 1.31982 14.3732 1.31982L11.1376 1.31982C10.8574 1.31982 10.6304 1.547 10.6304 1.82727C10.6304 2.10754 10.8574 2.33472 11.1376 2.33472L14.3732 2.33472C14.6533 2.33472 14.8803 2.10754 14.8803 1.82727ZM14.8803 4.31482C14.8803 4.03455 14.6533 3.80737 14.3732 3.80737L11.1376 3.80737C10.8574 3.80737 10.6304 4.03455 10.6304 4.31482C10.6304 4.59509 10.8574 4.82227 11.1376 4.82227L14.3732 4.82227C14.6533 4.82227 14.8803 4.59509 14.8803 4.31482ZM14.8803 6.80237C14.8803 6.52209 14.6533 6.29492 14.3732 6.29492L11.1376 6.29492C10.8574 6.29492 10.6304 6.52209 10.6304 6.80237C10.6304 7.08264 10.8574 7.30981 11.1376 7.30981L14.3732 7.30981C14.6533 7.30981 14.8803 7.08264 14.8803 6.80237ZM10.0634 1.82727C10.0634 1.547 9.83639 1.31982 9.55627 1.31982L8.88142 1.31982C8.60131 1.31982 8.37428 1.547 8.37428 1.82727C8.37428 2.10754 8.60131 2.33472 8.88142 2.33472L9.55627 2.33472C9.83639 2.33472 10.0634 2.10754 10.0634 1.82727ZM10.0634 4.31482C10.0634 4.03455 9.83639 3.80737 9.55627 3.80737L8.88142 3.80737C8.60131 3.80737 8.37428 4.03455 8.37428 4.31482C8.37428 4.59509 8.60131 4.82227 8.88142 4.82227L9.55627 4.82227C9.83639 4.82227 10.0634 4.59509 10.0634 4.31482ZM10.0634 6.80237C10.0634 6.52209 9.83639 6.29492 9.55627 6.29492L8.88142 6.29492C8.60131 6.29492 8.37428 6.52209 8.37428 6.80237C8.37428 7.08264 8.60131 7.30981 8.88142 7.30981L9.55627 7.30981C9.83639 7.30981 10.0634 7.08264 10.0634 6.80237Z" fill-rule="nonzero" fill="#9A9A9A"/>
</svg>
