<svg width="20.000000" height="17.979004" viewBox="0 0 20 17.979" fill="none" xmlns="http://www.w3.org/2000/svg" xmlns:xlink="http://www.w3.org/1999/xlink">
	<desc>
			Created with Pixso.
	</desc>
	<path id="矢量 1055" d="M15.1763 2.99658L18 7.32495L10 15.9814L2 7.32495L4.82373 2.99658L15.1763 2.99658Z" stroke="#9B7E48"/>
	<path id="企" d="M10.3154 8.78857L12.3594 8.78857L12.3594 8.28418L10.3154 8.28418L10.3154 6.55762L9.76953 6.55762L9.76953 10.6587L8.43896 10.6587L8.43896 7.87744L7.92236 7.87744L7.92236 10.6587L7.03076 10.6587L7.03076 11.1721L13.0181 11.1721L13.0181 10.6587L10.3154 10.6587L10.3154 8.78857ZM9.96826 4.43921C9.28076 5.58398 8.00732 6.61841 6.70605 7.17627C6.83887 7.31055 6.98779 7.50024 7.06543 7.6438C8.17822 7.11548 9.23193 6.2854 9.99609 5.31348C10.9014 6.4436 11.8794 7.09326 12.9541 7.65112C13.0249 7.48535 13.1733 7.2959 13.2944 7.17627C12.1973 6.6626 11.1641 6.02222 10.2793 4.92139C10.3364 4.83862 10.3931 4.76318 10.4414 4.68042L9.96826 4.43921Z" fill-rule="nonzero" fill="#9B7E48"/>
	<defs/>
</svg>
