
<svg width="15.295776" height="15.331787" viewBox="0 0 15.2958 15.3318" fill="none" xmlns="http://www.w3.org/2000/svg" xmlns:xlink="http://www.w3.org/1999/xlink">
    <desc>
        Created with Pixso.
    </desc>
    <path id="path" d="M7.64789 15.3318C3.4306 15.3318 0 11.8931 0 7.66589C0 3.43872 3.4306 0 7.64789 0C11.8651 0 15.2958 3.43872 15.2958 7.66589C15.2958 11.8931 11.8651 15.3318 7.64789 15.3318ZM7.64789 1.09509C4.03314 1.09509 1.09253 4.04272 1.09253 7.66589C1.09253 11.2892 4.03314 14.2367 7.64789 14.2367C11.2626 14.2367 14.2032 11.2892 14.2032 7.66589C14.2032 4.04272 11.2626 1.09509 7.64789 1.09509Z" fill-rule="nonzero" fill="#20A53A"/>
    <path id="path" d="M10.2552 7.44971C10.229 7.38782 10.1886 7.32214 10.1384 7.27124L7.42279 4.54163C7.20972 4.32751 6.86395 4.32642 6.65033 4.54053C6.43677 4.75403 6.43622 5.10071 6.64929 5.31482L8.97583 7.65344L6.63013 9.979C6.41547 10.1919 6.41382 10.538 6.62579 10.7532C6.7323 10.8616 6.87323 10.9159 7.01416 10.9159C7.15289 10.9159 7.29169 10.8628 7.39819 10.7576L10.134 8.04553C10.2962 7.88501 10.3367 7.64844 10.2552 7.44971Z" fill-rule="nonzero" fill="#20A53A"/>
    <defs/>
</svg>
