<svg width="16.000000" height="18.500153" viewBox="0 0 16 18.5002" fill="none" xmlns="http://www.w3.org/2000/svg" xmlns:xlink="http://www.w3.org/1999/xlink">
	<desc>
			Created with Pixso.
	</desc>
	<defs/>
	<rect id="矩形 967" x="0.500000" y="7.000153" rx="2.000000" width="15.000000" height="11.000000" stroke="#999999"/>
	<path id="矢量 1168" d="M3 7.37137L3 5.41208C3 4.08884 3.39539 2.74753 4.42841 1.92053C6.19806 0.503845 8.8089 -0.406525 11.293 1.94186C12.1799 2.78027 12.5 4.02518 12.5 5.24564L12.5 7.37137" stroke="#999999"/>
	<path id="矢量 1169 (边框)" d="M12.3546 13.5248C12.6102 13.2441 12.8331 12.9602 13.0234 12.673L13.1984 12.4088L12.9859 12.1703C11.9779 11.0388 10.9333 10.266 9.85205 9.85187C9.26068 9.62531 8.66766 9.50821 8.07312 9.50055C7.70343 9.49579 7.33313 9.53333 6.96222 9.61319C6.16559 9.7847 5.40417 10.1419 4.67792 10.6848C4.34271 10.9354 4.03461 11.2088 3.7536 11.5051C3.54492 11.7252 3.35114 11.9579 3.17236 12.2033L3.00012 12.4396L3.16608 12.6798C4.06464 13.981 5.04901 14.8681 6.11914 15.3412C6.59235 15.5504 7.07385 15.6765 7.56348 15.7196C8.05579 15.7629 8.5564 15.7222 9.06531 15.5976C9.89117 15.3954 10.6878 14.9863 11.4553 14.3704C11.7754 14.1135 12.0752 13.8316 12.3546 13.5248ZM12.0684 12.4799C11.9465 12.6426 11.8121 12.8048 11.6649 12.9664C11.4163 13.2393 11.1501 13.4897 10.866 13.7177C10.2045 14.2486 9.52802 14.5987 8.83673 14.768C8.43365 14.8667 8.03717 14.8989 7.64728 14.8645C7.26007 14.8304 6.87933 14.7306 6.50507 14.5651C5.65637 14.1899 4.85486 13.4866 4.10052 12.4551C4.20154 12.3294 4.3075 12.2079 4.41827 12.0903C4.66833 11.825 4.94318 11.5804 5.24274 11.3564C5.86133 10.894 6.50195 10.5915 7.16461 10.4488C7.44324 10.3888 7.72198 10.3586 8.00073 10.3581C8.5036 10.3572 9.00665 10.4532 9.50989 10.646C10.3756 10.9776 11.2285 11.5889 12.0684 12.4799Z" fill-rule="evenodd" fill="#999999"/>
	<path id="椭圆 523 (边框)" d="M6.27423 12.5684C6.27423 11.6216 7.08826 10.8541 8.09241 10.8541C9.09656 10.8541 9.91058 11.6216 9.91058 12.5684C9.91058 13.5152 9.09656 14.2827 8.09241 14.2827C7.08826 14.2827 6.27423 13.5152 6.27423 12.5684ZM8.09241 11.7113C8.01727 11.7113 7.94434 11.7195 7.87354 11.736C7.8277 11.7466 7.78284 11.7607 7.73883 11.7783C7.69122 11.7973 7.64594 11.8197 7.60297 11.8456C7.54797 11.8788 7.49689 11.9178 7.44958 11.9623C7.40234 12.0069 7.36108 12.0551 7.32587 12.1069C7.29834 12.1474 7.27454 12.1901 7.25439 12.235C7.23578 12.2765 7.22083 12.3188 7.20953 12.362C7.19208 12.4288 7.18335 12.4976 7.18335 12.5684C7.18335 12.6393 7.19208 12.708 7.20953 12.7748C7.22083 12.818 7.23578 12.8603 7.25439 12.9018C7.27454 12.9467 7.29834 12.9894 7.32587 13.0299C7.36108 13.0817 7.40234 13.1299 7.44958 13.1745C7.49689 13.2191 7.54797 13.258 7.60297 13.2912C7.64594 13.3171 7.69122 13.3395 7.73883 13.3586C7.78284 13.3761 7.8277 13.3902 7.87354 13.4008C7.94434 13.4173 8.01727 13.4256 8.09241 13.4256C8.16754 13.4256 8.24048 13.4173 8.31128 13.4008C8.35712 13.3902 8.40198 13.3761 8.44598 13.3586C8.49365 13.3395 8.53894 13.3171 8.58185 13.2912C8.63684 13.258 8.68799 13.2191 8.73523 13.1745C8.78253 13.1299 8.82373 13.0817 8.85895 13.0299C8.88647 12.9894 8.91028 12.9467 8.93042 12.9018C8.94904 12.8603 8.96399 12.818 8.97528 12.7748C8.9928 12.708 9.00153 12.6393 9.00153 12.5684C9.00153 12.4976 8.9928 12.4288 8.97528 12.362C8.96399 12.3188 8.94904 12.2765 8.93042 12.235C8.91028 12.1901 8.88647 12.1474 8.85895 12.1069C8.82373 12.0551 8.78253 12.0069 8.73523 11.9623C8.68799 11.9178 8.63684 11.8789 8.58185 11.8456C8.53894 11.8197 8.49365 11.7973 8.44598 11.7783C8.40198 11.7607 8.35712 11.7466 8.31128 11.736C8.24048 11.7195 8.16754 11.7113 8.09241 11.7113Z" fill-rule="evenodd" fill="#999999"/>
</svg>
