<svg width="20.000000" height="24.000000" viewBox="0 0 20 24" fill="none" xmlns="http://www.w3.org/2000/svg" xmlns:xlink="http://www.w3.org/1999/xlink">
	<desc>
			Created with Pixso.
	</desc>
	<defs/>
	<path id="path" d="M15.9508 18.4807C15.6039 18.4807 15.3313 18.7798 15.3313 19.1484C15.3313 19.3941 15.4552 19.6131 15.6436 19.7253L15.6436 20.8204C15.6436 21.0073 15.7823 21.1516 15.9558 21.1516C16.1293 21.1516 16.2681 21.0074 16.2681 20.8204L16.2681 19.7307C16.4514 19.6131 16.5803 19.3995 16.5803 19.1537C16.5703 18.7798 16.2977 18.4807 15.9508 18.4807ZM18.756 16.4775L18.4338 16.4775L18.4338 15.4839C18.4388 15.4519 18.4437 15.4198 18.4388 15.3824C18.29 14.0256 17.2988 13 15.9459 13C14.464 13 13.4629 14.2286 13.4629 15.735L13.4629 16.4722L14.0824 16.4722L14.0824 15.735C14.0824 14.5972 14.8109 13.6731 15.9459 13.6731C16.9668 13.6731 17.6954 14.4316 17.8143 15.4466L17.8143 16.4828L13.1407 16.4828C12.4568 16.4828 11.8918 17.0758 11.8918 17.8183L11.8918 21.8246C11.8918 22.5618 12.4568 23.1547 13.1407 23.1547L18.751 23.1547C19.4349 23.1547 19.9999 22.5511 19.9999 21.8246L19.9999 17.8183C20.0049 17.0758 19.4448 16.4775 18.756 16.4775ZM19.3755 21.8193C19.3755 22.1932 19.1029 22.487 18.756 22.487L13.1458 22.487C12.8038 22.487 12.5262 22.1932 12.5262 21.8246L12.5262 17.8076C12.5262 17.4444 12.8087 17.1399 13.1458 17.1399L18.756 17.1399C19.1029 17.1399 19.3755 17.4337 19.3755 17.8076L19.3755 21.8193Z" fill-rule="nonzero" fill="#999999"/>
	<path id="矢量 1168 (边框)" d="M5.4054 9.69315C5.1532 9.69315 4.95496 9.89624 4.95496 10.1547C4.95496 10.4132 5.1532 10.6163 5.4054 10.6163L13.964 10.6163C14.2162 10.6163 14.4144 10.4132 14.4144 10.1547C14.4144 9.89624 14.2162 9.69315 13.964 9.69315L5.4054 9.69315Z" fill-rule="evenodd" fill="#999999"/>
	<path id="矢量 1168 (边框)" d="M10.3604 5.53894C10.3604 5.28046 10.1621 5.07736 9.90991 5.07736C9.65759 5.07736 9.45947 5.28046 9.45947 5.53894L9.45947 14.3089C9.45947 14.5674 9.65759 14.7705 9.90991 14.7705C10.1621 14.7705 10.3604 14.5674 10.3604 14.3089L10.3604 5.53894Z" fill-rule="evenodd" fill="#999999"/>
	<path id="减去顶层" d="M10.0375 0.00143433C9.84741 -0.00576782 9.65649 0.0141602 9.46448 0.0612183L1.65967 1.97382C1.11572 2.10712 0.705566 2.35034 0.428955 2.70349C0.152344 3.0665 0 3.56143 0 4.15186L0 14.0627C0 14.2318 0.0175781 14.3925 0.0528564 14.5451C0.221313 15.2737 0.455566 15.9703 0.755493 16.6348C0.770874 16.669 0.786499 16.7031 0.802246 16.737C2.2229 19.7996 5.05469 22.1748 9.29736 23.8627C9.5022 23.9442 9.7063 23.9899 9.90991 24L9.90991 23.1007C9.80872 23.0919 9.70728 23.0673 9.60559 23.0268C5.50269 21.3945 2.80164 19.1107 1.5022 16.1753C1.26135 15.6162 1.03088 14.942 0.890747 14.3361C0.87146 14.2523 0.861694 14.1611 0.861694 14.0627L0.861694 4.15186C0.861694 3.79761 0.944702 3.51157 1.11072 3.29376C1.27661 3.08188 1.53113 2.92502 1.85754 2.84503L9.66235 0.932434C9.77747 0.904205 9.89209 0.892242 10.0061 0.896576C10.1202 0.900879 10.2336 0.921448 10.3466 0.958282L18.0529 3.47318C18.3546 3.57166 18.5809 3.72763 18.7318 3.94113C18.8827 4.15463 18.9581 4.42563 18.9581 4.75415L18.9581 13.8474L19.8198 13.8474L19.8198 4.75415C19.8198 4.2066 19.6941 3.75491 19.4426 3.39911C19.1912 3.04327 18.8141 2.78329 18.3112 2.6192L10.6049 0.104309C10.4166 0.0429077 10.2275 0.00860596 10.0375 0.00143433Z" fill-rule="evenodd" fill="#999999"/>
</svg>
