<svg width="20.000000" height="20.000000" viewBox="0 0 20 20" fill="none" xmlns="http://www.w3.org/2000/svg" xmlns:xlink="http://www.w3.org/1999/xlink">
	<desc>
			Created with Pixso.
	</desc>
	<defs/>
	<path id="path" d="M18.6924 0L1.30627 0C0.945312 0 0.637268 0.14566 0.382141 0.437012C0.127014 0.728363 -0.000366211 1.07996 0 1.49176L0 15.3935C0 16.218 0.585022 16.8868 1.30627 16.8868L18.6937 16.8868C19.415 16.8868 20 16.218 20 15.3935L20 1.49176C20.0007 1.07965 19.8735 0.727753 19.6183 0.436066C19.3632 0.144348 19.0536 0 18.6924 0ZM18.8635 15.0278C18.8635 15.3021 18.6684 15.5383 18.4172 15.5383L1.5694 15.5383C1.32227 15.5383 1.12195 15.3097 1.12195 15.0278L1.12195 1.85748C1.12195 1.58319 1.31702 1.34708 1.5694 1.34708L18.4172 1.34708C18.6577 1.34708 18.8635 1.56949 18.8635 1.85748L18.8635 15.0278ZM16.303 20L16.303 18.5714L3.75653 18.5714L3.75653 20L16.303 20Z" fill-rule="nonzero" fill="#999999"/>
	<path id="path" d="M13.801 12.5093C14.2681 13.205 13.314 13.0678 13.1545 13.4187C12.996 13.7581 13.1863 14.3116 12.6334 14.2743C12.2427 14.248 12.5541 13.6934 11.8729 13.3528C11.803 13.308 11.7324 13.2651 11.6608 13.224C11.3336 13.058 11.0034 12.8997 10.6701 12.7494C10.3552 12.6055 10.0403 12.6055 9.72552 12.7494C9.3847 12.9029 9.05237 13.064 8.7348 13.224C8.66992 13.2587 8.53058 13.3478 8.52271 13.3528C7.8418 13.6934 8.15393 14.248 7.76257 14.2743C7.20966 14.3128 7.39917 13.7574 7.24072 13.4187C7.07886 13.0674 6.12537 13.2042 6.59326 12.5093C6.7254 12.3132 6.97198 12.2297 7.20453 12.347C7.52795 12.5093 8.19897 12.2697 8.20276 12.2697C8.25922 12.262 8.31476 12.2492 8.36938 12.2313C8.51984 12.179 8.66974 12.1248 8.81915 12.069C8.85535 12.056 8.85535 12 8.81915 11.9855C8.53601 11.8811 8.25134 11.7823 7.96503 11.6891C7.83667 11.6488 7.70618 11.613 7.57507 11.5894C7.37115 11.5505 7.22333 11.5444 7.07507 11.6168C6.85004 11.7253 6.6308 12.0442 6.49048 11.6252C6.32037 11.1181 7.09967 10.9444 7.10449 10.5749C7.10992 10.205 7.09967 9.56305 7.61194 9.74783C8.03436 9.90134 7.75403 10.0716 7.97528 10.3501C8.04565 10.4404 8.13477 10.5124 8.23108 10.5634C8.72131 10.8286 9.21851 11.0762 9.72278 11.3063C10.026 11.4435 10.3648 11.4435 10.6674 11.3063C11.1717 11.0765 11.6689 10.8289 12.1591 10.5634C12.2557 10.5124 12.3441 10.4396 12.4152 10.3501C12.6358 10.0716 12.3568 9.90134 12.7785 9.74783C13.2894 9.56305 13.2802 10.205 13.2856 10.5749C13.2918 10.9436 14.0715 11.1181 13.9011 11.6252C13.76 12.0446 13.5404 11.725 13.3164 11.6168C13.1682 11.5444 13.0206 11.5505 12.8164 11.5894C12.6853 11.613 12.5549 11.6492 12.4258 11.6891C12.1396 11.7827 11.8549 11.8815 11.5717 11.9855C11.5368 11.9996 11.5368 12.0556 11.5717 12.069C11.723 12.125 11.8729 12.1787 12.0217 12.2313C12.0764 12.2488 12.1317 12.261 12.1884 12.2697C12.1918 12.2697 12.8632 12.5093 13.1863 12.347C13.4205 12.2293 13.6688 12.3124 13.801 12.5093ZM13.815 6.43658C13.6832 5.50287 13.2976 4.73221 12.6573 4.12573C11.9825 3.47583 11.1612 3.15125 10.1923 3.15125C9.22351 3.15125 8.40216 3.47314 7.72705 4.11353C7.08502 4.72839 6.70251 5.50247 6.57855 6.43582C6.55316 6.58075 6.53986 6.72702 6.53857 6.87466C6.54236 7.48801 6.72266 8.02438 7.08228 8.48495C7.2558 8.70523 7.45459 8.89215 7.67853 9.04572C7.90906 9.20496 8.17133 9.33829 8.46533 9.44574C8.55774 9.47891 8.60382 9.54965 8.60364 9.65793C8.60364 9.86285 8.66583 10.0328 8.78943 10.1722C8.91406 10.3105 9.06812 10.3878 9.25049 10.4019C9.2771 10.4042 9.30511 10.4057 9.33038 10.4057C9.45538 10.4057 9.55646 10.3783 9.63159 10.3257C9.6474 10.3263 9.70526 10.3169 9.71899 10.3257C9.84949 10.4194 9.99597 10.4659 10.1534 10.4659C10.2955 10.4659 10.4276 10.4271 10.5485 10.3448C10.5668 10.345 10.6415 10.3322 10.6578 10.3413C10.7295 10.3829 10.8217 10.4053 10.932 10.4053C11.14 10.4071 11.3185 10.3272 11.4678 10.1657C11.5928 10.0309 11.6536 9.85983 11.6536 9.65753C11.6533 9.57788 11.6876 9.52747 11.7564 9.50629C12.4141 9.29831 12.925 8.96609 13.2938 8.50745C13.6688 8.048 13.8539 7.50363 13.8539 6.87582C13.8539 6.73679 13.842 6.59201 13.815 6.43658ZM12.4169 7.53259C12.2251 7.76459 11.9877 7.87799 11.7048 7.87277C11.4299 7.87277 11.196 7.75925 11.002 7.53259C10.8087 7.30515 10.7117 7.03049 10.7117 6.70743C10.7117 6.38516 10.808 6.11087 11.002 5.88342C11.196 5.65677 11.4299 5.54324 11.7048 5.54324C11.9863 5.54324 12.2222 5.65677 12.4169 5.88342C12.6098 6.11124 12.7072 6.38516 12.7072 6.70743C12.7072 7.02972 12.6105 7.30554 12.4169 7.53259ZM10.2514 8.94669C10.0882 8.94669 9.96661 8.89905 9.88806 8.80573C9.83936 8.74335 9.81641 8.67084 9.81909 8.5882C9.81909 8.44992 9.86652 8.3139 9.96112 8.17563C10.0561 8.03925 10.1479 7.97031 10.2405 7.97031C10.3317 7.97031 10.4201 8.04535 10.5007 8.19885C10.582 8.35126 10.6243 8.49371 10.6243 8.63162C10.6243 8.84268 10.5 8.94669 10.2514 8.94669ZM8.68939 7.87277C8.41516 7.87277 8.1778 7.75925 7.98248 7.53259C7.78644 7.30515 7.68744 7.03049 7.68744 6.70743C7.68744 6.38516 7.78577 6.11087 7.98248 5.88342C8.17816 5.65677 8.41516 5.54324 8.68939 5.54324C8.96429 5.54324 9.20026 5.65677 9.3963 5.88342C9.59198 6.11124 9.69135 6.38516 9.69135 6.70743C9.69135 7.02859 9.59302 7.30478 9.3963 7.53259C9.20026 7.75925 8.96466 7.87277 8.68939 7.87277Z" fill-rule="nonzero" fill="#999999"/>
</svg>
