<svg width="14.000000" height="14.000000" viewBox="0 0 14 14" fill="none" xmlns="http://www.w3.org/2000/svg" xmlns:xlink="http://www.w3.org/1999/xlink">
	<desc>
			Created with Pixso.
	</desc>
	<defs/>
	<path id="合并" d="M8.51814 10.2971C8.51814 9.13452 9.45638 8.19208 10.6138 8.19208C11.7711 8.19208 12.7094 9.13452 12.7094 10.2971C12.7094 10.9715 12.3936 11.5718 11.9025 11.9571L13 13.6108L12.4188 14L11.285 12.2917C11.0743 12.3633 10.8485 12.402 10.6138 12.402C9.45638 12.402 8.51814 11.4596 8.51814 10.2971ZM9.21667 10.2971C9.21667 9.52203 9.84217 8.89374 10.6138 8.89374C11.3853 8.89374 12.0108 9.52203 12.0108 10.2971C12.0108 11.0721 11.3853 11.7004 10.6138 11.7004C9.84217 11.7004 9.21667 11.0721 9.21667 10.2971Z" clip-rule="evenodd" fill="#999999" fill-opacity="1.000000" fill-rule="evenodd"/>
	<path id="path" d="M5.92671 3.43036C6.05385 3.42828 6.15599 3.32745 6.15382 3.20587C6.15164 3.08423 6.04733 2.98651 5.92019 2.98755C5.79306 2.98859 5.68983 3.08838 5.69092 3.21002C5.69092 3.26825 5.71591 3.32538 5.75938 3.36591C5.80284 3.40753 5.86152 3.43036 5.92345 3.43036L5.92671 3.43036ZM4.43805 9.01355C4.38481 9.13519 4.41414 9.27655 4.51194 9.37012C4.60974 9.46362 4.75643 9.4917 4.88465 9.4408C5.01287 9.38983 5.09545 9.27032 5.09437 9.13831C5.09545 9.052 5.0596 8.96887 4.99657 8.90753C4.93246 8.84619 4.84553 8.81189 4.75534 8.81396C4.61626 8.81189 4.49129 8.89191 4.43805 9.01355ZM7.1622 7.99274L7.16872 7.99274L7.1622 7.99274ZM6.91771 5.87219C6.91662 5.02808 6.20163 4.34515 5.3193 4.34308C4.43696 4.34308 3.72088 5.02704 3.72088 5.87219C3.72088 6.71625 4.43588 7.40131 5.3193 7.40131C6.20271 7.40027 6.91771 6.71625 6.91771 5.87219Z" fill="#999999" fill-opacity="1.000000" fill-rule="nonzero"/>
	<path id="path" d="M7.32302 10.5031C7.16003 10.5219 6.99486 10.5322 6.82644 10.5322C5.41709 10.5291 4.10664 9.83575 3.3547 8.6944C2.60276 7.55304 2.51366 6.12372 3.1189 4.9054L3.43185 4.38464C4.53368 2.83887 6.62215 2.25049 8.42376 2.97711C10.1189 3.66113 11.1197 5.3316 10.9089 7.05304C11.1642 7.12268 11.4065 7.22455 11.6282 7.35345C11.6456 7.25262 11.6586 7.15179 11.6684 7.04987L12.1693 7.04987C12.3443 7.05927 12.5105 6.97504 12.6018 6.83057C12.692 6.6861 12.692 6.50623 12.6018 6.36279C12.5116 6.21936 12.3454 6.13409 12.1693 6.14343L11.663 6.1424C11.6141 5.66113 11.4869 5.19128 11.2859 4.74738L11.8933 4.41058L11.9053 4.40436C12.1302 4.27856 12.2052 4.00311 12.0748 3.789C11.9433 3.57379 11.6554 3.50208 11.4315 3.62683C11.4283 3.62579 11.4239 3.62579 11.4206 3.62683L10.8252 3.95428C10.5035 3.50726 10.1026 3.11749 9.64077 2.80353L9.95589 2.28064C10.0493 2.14136 10.0559 1.96362 9.97219 1.81812C9.88852 1.67255 9.7277 1.58313 9.55493 1.58527C9.38107 1.58734 9.22351 1.67981 9.14201 1.82642C9.14093 1.83057 9.14093 1.83472 9.14201 1.83783L8.83233 2.3576C8.33357 2.13928 7.79896 2.00415 7.25239 1.95947L7.25239 1.45428C7.25239 1.20374 7.0405 1 6.77754 1C6.51566 1 6.30269 1.2027 6.30269 1.45428L6.30269 1.9657C5.79198 2.01978 5.29322 2.15179 4.82706 2.35553L4.51086 1.83264C4.43045 1.6861 4.2718 1.59357 4.09794 1.59149C3.92408 1.58942 3.76435 1.67877 3.68068 1.82434C3.59701 1.96985 3.60245 2.14655 3.69698 2.28693L4.01319 2.80457C3.56007 3.11017 3.16563 3.48755 2.84616 3.92102L2.33002 3.62891C2.18441 3.53949 1.9986 3.53326 1.84648 3.61328C1.69435 3.69336 1.6009 3.84717 1.60307 4.01245C1.60525 4.17877 1.70196 4.32953 1.85517 4.40747L2.37783 4.69855C2.16268 5.15283 2.02794 5.63824 1.97687 6.13409L1.44877 6.13409C1.19668 6.14758 1 6.34613 1 6.58734C1 6.82849 1.19668 7.02704 1.44877 7.04053L1.98339 7.04053C2.02468 7.4917 2.13769 7.93555 2.31807 8.35449L1.74107 8.67462C1.58786 8.75159 1.49115 8.90332 1.48898 9.06964C1.4868 9.23596 1.58025 9.38879 1.73238 9.46881C1.8845 9.54883 2.06923 9.54364 2.21592 9.45325L2.76249 9.1424C3.03632 9.5426 3.37208 9.90021 3.75892 10.2037L3.38838 10.8212C3.2569 11.0374 3.33296 11.316 3.56007 11.4418C3.78608 11.5676 4.0773 11.4948 4.20878 11.2775L4.54889 10.7131C5.09871 10.9927 5.69853 11.1684 6.3179 11.2308L6.3179 11.7141L6.3092 11.7141C6.32224 11.9522 6.5287 12.1382 6.77754 12.1382C7.02637 12.1382 7.23174 11.9522 7.24586 11.7141L7.24586 11.238C7.37843 11.2277 7.511 11.211 7.6414 11.1902C7.50448 10.9781 7.39691 10.7474 7.32302 10.5031Z" fill="#999999" fill-opacity="1.000000" fill-rule="nonzero"/>
	<path id="path" d="M7.2187 9.95746C7.21218 9.88257 7.20892 9.8067 7.20892 9.7298C7.20892 9.14349 7.39908 8.59985 7.72289 8.15179C7.55773 8.04889 7.36431 7.9928 7.16546 7.9928C6.75037 7.99072 6.3744 8.22876 6.21358 8.5957C6.05276 8.96265 6.13861 9.38672 6.43199 9.66949C6.64171 9.87219 6.92966 9.97302 7.2187 9.95746ZM8.19557 4.20898C8.03801 4.20795 7.90979 4.32855 7.90762 4.47925C7.90545 4.63 8.03041 4.75366 8.18797 4.7558C8.34552 4.7558 8.47374 4.63312 8.47374 4.48236L8.47918 4.48236C8.48026 4.33167 8.35313 4.21002 8.19557 4.20898ZM9.2083 5.80151C8.74974 5.80566 8.38029 6.16327 8.38247 6.60193C8.38356 6.88153 8.53568 7.12585 8.76496 7.26721C9.12571 7.0863 9.52993 6.9751 9.96024 6.95325C10.0157 6.84619 10.0483 6.72565 10.0483 6.59778C10.0428 6.15704 9.66902 5.80255 9.2083 5.80151Z" fill="#999999" fill-opacity="1.000000" fill-rule="nonzero"/>
</svg>
