<svg width="14.000000" height="14.000000" viewBox="0 0 14 14" fill="none" xmlns="http://www.w3.org/2000/svg" xmlns:xlink="http://www.w3.org/1999/xlink">
	<desc>
			Created with Pixso.
	</desc>
	<defs/>
	<path id="path" d="M6.81982 3.2832C7.16984 3.54468 7.54699 3.73901 7.95129 3.86609C8.4776 4.03357 8.91228 4.08545 9.21316 4.09613C9.18697 4.47363 9.13196 5.06537 9.01678 5.83636C8.92034 6.48187 8.72786 7.04486 8.44462 7.51166C8.15231 7.99274 7.85297 8.22064 7.69989 8.31378C7.21699 8.6084 6.8484 8.62787 6.81982 8.62903C6.79125 8.63013 6.42266 8.60852 5.93964 8.31396C5.78694 8.22083 5.4872 7.99274 5.19491 7.51178C4.91166 7.04559 4.71918 6.48199 4.62275 5.83655C4.50769 5.06549 4.45255 4.47375 4.42637 4.09631C4.72723 4.08575 5.16191 4.03375 5.68824 3.86621C6.09258 3.73907 6.46978 3.54474 6.81982 3.2832ZM6.81982 2.71448C6.81982 2.71448 6.37999 3.17358 5.5791 3.42834C5.01954 3.60632 4.57605 3.64343 4.30325 3.64343C4.10776 3.64343 4 3.62439 4 3.62439C4 3.62439 4.00756 4.4516 4.22559 5.91217C4.45848 7.47211 5.18433 8.37036 5.7488 8.71429C6.35026 9.08112 6.80624 9.08398 6.81994 9.08398C6.83404 9.08398 7.2895 9.08112 7.89098 8.71429C8.45494 8.37036 9.1808 7.47198 9.41418 5.91217C9.6321 4.4516 9.63965 3.62439 9.63965 3.62439C9.63965 3.62439 9.53189 3.64343 9.3364 3.64343C9.0636 3.64343 8.62011 3.60632 8.06055 3.42834C7.25966 3.17358 6.81982 2.71448 6.81982 2.71448Z" fill="#999999" fill-opacity="1.000000" fill-rule="nonzero"/>
	<path id="path" d="M6.81983 3.16949L6.81983 5.89929L4.40283 5.89929L4.20558 3.91992L6.81983 3.16949ZM6.81983 5.89929L6.81983 8.84442L7.62549 8.62903L8.481 7.79022L8.94452 6.89081L9.23682 5.89929L6.81983 5.89929Z" fill="#999999" fill-opacity="1.000000" fill-rule="nonzero"/>
	<rect id="矩形 1185" x="1.500000" y="1.500000" rx="2.000000" width="11.000000" height="9.285714" stroke="#999999" stroke-opacity="1.000000" stroke-width="1.000000"/>
	<line id="直线 8" x1="7.000000" y1="11.285706" x2="7.000000" y2="13.000000" stroke="#999999" stroke-opacity="1.000000" stroke-width="1.000000"/>
	<path id="直线 9" d="M3.25 13L10.75 13" stroke="#999999" stroke-opacity="1.000000" stroke-width="1.000000" stroke-linecap="round"/>
</svg>
