<svg width="14.000000" height="14.000000" viewBox="0 0 14 14" fill="none" xmlns="http://www.w3.org/2000/svg" xmlns:xlink="http://www.w3.org/1999/xlink">
	<desc>
			Created with Pixso.
	</desc>
	<defs/>
	<path id="合并" d="M12.1469 4.82837C11.1078 5.57764 9.19056 6.08087 7 6.08087C4.80944 6.08087 2.89223 5.57764 1.85308 4.82837L1.85308 6.46289C2.42054 6.65497 3.03173 6.82581 3.68666 6.97546C4.63926 7.19305 5.57182 7.33716 6.48434 7.40759C7.57199 7.49164 8.58256 7.46619 9.51605 7.33136C10.498 7.18951 11.375 6.92877 12.1469 6.54913L12.1469 4.82837ZM12.9716 3.54053C12.9716 2.13873 10.295 1 7 1C3.70499 1 1.02844 2.13867 1.02844 3.54047L1.00079 11.1574C1.00079 11.2941 1.06743 11.4222 1.18012 11.4996C1.4423 11.6796 1.76307 11.8511 2.14241 12.0141C2.51621 12.1747 2.92947 12.3196 3.38219 12.4489C4.35451 12.7266 5.37262 12.8999 6.43653 12.9689C7.63234 13.0463 8.74773 12.9793 9.7827 12.7678C10.9776 12.5236 11.9929 12.0988 12.8287 11.4933C12.9362 11.4155 12.9992 11.2905 12.9992 11.1577L12.9716 3.54053ZM12.1185 3.54047C12.1185 4.4856 9.8243 5.25336 7 5.25336C4.1757 5.25336 1.88152 4.4856 1.88152 3.54047C1.88152 2.59528 4.1757 1.82751 7 1.82751C9.8243 1.82751 12.1185 2.59528 12.1185 3.54047ZM1.85308 8.91675L1.85308 7.33667C2.36763 7.50092 2.91363 7.64905 3.4911 7.78094C4.48581 8.00818 5.46099 8.15875 6.41662 8.23254C7.56898 8.32153 8.64401 8.29401 9.64171 8.14984C10.5564 8.0177 11.3914 7.78937 12.1469 7.46472L12.1469 9.08942C11.3766 9.46753 10.5007 9.72363 9.51939 9.85767C8.58835 9.98492 7.57822 10.0006 6.48897 9.90491C5.58147 9.82513 4.64864 9.67126 3.69048 9.44336C3.04359 9.28943 2.43112 9.11389 1.85308 8.91675ZM1.85308 9.79144L1.85308 10.9392C2.03418 11.0474 2.24579 11.1534 2.4879 11.2574C2.82768 11.4034 3.20608 11.536 3.62312 11.6551C4.53528 11.9156 5.49203 12.0783 6.49337 12.1431C7.61086 12.2156 8.64868 12.1538 9.60683 11.958C10.5972 11.7556 11.4439 11.4194 12.1469 10.9495L12.1469 10.0045C11.3909 10.3277 10.5547 10.5519 9.63837 10.6771C8.6422 10.8132 7.56675 10.8306 6.41199 10.7291C5.46189 10.6456 4.48699 10.4849 3.48728 10.2471C2.91769 10.1116 2.37296 9.95966 1.85308 9.79144Z" fill="#9A9A9A" fill-opacity="1.000000" fill-rule="evenodd"/>
</svg>
