<svg width="14.000000" height="14.000000" viewBox="0 0 14 14" fill="none" xmlns="http://www.w3.org/2000/svg" xmlns:xlink="http://www.w3.org/1999/xlink">
	<desc>
			Created with Pixso.
	</desc>
	<defs/>
	<path id="矢量 1206 (边框)" d="M2.0817 9.89734C2.31264 10.2532 2.58414 10.5838 2.89621 10.8893C3.06362 11.0531 3.32668 11.0531 3.49408 10.8892C3.66148 10.7254 3.66148 10.4679 3.49407 10.304C3.22241 10.0381 2.98664 9.75012 2.78677 9.43994C2.62856 9.1944 2.49284 8.935 2.3796 8.66168C2.35029 8.59094 2.32272 8.51984 2.29688 8.44836L3.9593 8.44836L3.9593 9.68976C3.9593 9.92145 4.14532 10.1035 4.38206 10.1035C4.61881 10.1035 4.80482 9.92145 4.80482 9.68976L4.80482 8.44836L6.49587 8.44836L6.49587 9.68976C6.49587 9.92145 6.68188 10.1035 6.91863 10.1035C7.15538 10.1035 7.34139 9.92145 7.34139 9.68976L7.34139 8.44836L9.03243 8.44836L9.03243 9.68976C9.03243 9.92145 9.21845 10.1035 9.45519 10.1035C9.69194 10.1035 9.87796 9.92145 9.87796 9.68976L9.87796 8.44836L11.8658 8.44836C11.8399 8.51984 11.8123 8.59094 11.783 8.66168C11.6698 8.935 11.5341 9.1944 11.3759 9.43994C11.176 9.75012 10.9402 10.0381 10.6686 10.304C10.5012 10.4679 10.5012 10.7254 10.6686 10.8892C10.836 11.0531 11.099 11.0531 11.2664 10.8893C11.5785 10.5838 11.85 10.2532 12.081 9.89728C12.27 9.60596 12.4319 9.29779 12.5666 8.97272C12.8555 8.27527 13 7.54871 13 6.79297C13 6.03723 12.8555 5.31067 12.5666 4.61328C12.4319 4.28815 12.27 3.97992 12.0809 3.68866C11.85 3.33276 11.5785 3.00214 11.2664 2.69672C10.9544 2.3913 10.6166 2.12561 10.253 1.89954C9.95538 1.71448 9.64046 1.55603 9.30828 1.42419C8.97242 1.29089 8.62994 1.18903 8.28084 1.11853C7.88933 1.03949 7.48949 1 7.08132 1C6.67316 1 6.27332 1.03949 5.88181 1.11853C5.53271 1.18903 5.19022 1.29089 4.85435 1.42419C4.52217 1.55603 4.20725 1.71448 3.9096 1.89954C3.54605 2.12561 3.20825 2.3913 2.89621 2.69672C2.58415 3.00214 2.31265 3.33276 2.08171 3.6886C1.89264 3.97992 1.73076 4.28815 1.59606 4.61328C1.45986 4.94202 1.35576 5.27722 1.28376 5.61896C1.20301 6.00214 1.16264 6.39349 1.16264 6.79297C1.16264 7.1925 1.20301 7.58386 1.28376 7.96704C1.35576 8.30872 1.45986 8.64398 1.59606 8.97272C1.73076 9.29779 1.89264 9.60602 2.0817 9.89734ZM12.0848 7.62079C12.1313 7.34961 12.1545 7.07367 12.1545 6.79297C12.1545 6.44733 12.1193 6.10876 12.0488 5.77747C12.0318 5.69769 12.0128 5.61829 11.9918 5.53931L11.9918 5.9657L9.87796 5.9657L9.87796 7.62079L12.0848 7.62079ZM9.03243 7.62079L9.03243 5.9657L7.34139 5.9657L7.34139 7.62079L9.03243 7.62079ZM6.49587 7.62079L6.49587 5.9657L4.80482 5.9657L4.80482 7.62079L6.49587 7.62079ZM3.9593 7.62079L3.9593 5.9657L2.07773 5.9657C2.03135 6.23669 2.00816 6.51251 2.00816 6.79297C2.00816 7.07367 2.03138 7.34961 2.07782 7.62079L3.9593 7.62079ZM2.29669 5.13806L3.9593 5.13806L3.9593 2.87781C3.79748 3.00201 3.6424 3.13672 3.49407 3.28192C3.22241 3.54779 2.98664 3.83582 2.78677 4.14606C2.62856 4.3916 2.49284 4.651 2.3796 4.92432C2.35023 4.99518 2.32259 5.06647 2.29669 5.13806ZM4.80482 2.35358L4.80482 5.13806L6.49587 5.13806L6.49587 1.85992C6.34372 1.87689 6.193 1.90063 6.04371 1.93103C5.74756 1.99133 5.45702 2.07806 5.17209 2.19116C5.04681 2.24084 4.92439 2.29504 4.80482 2.35358ZM7.34139 1.83386L7.34139 5.13806L9.03243 5.13806L9.03243 2.24164C8.7475 2.12854 8.41507 1.99133 8.11892 1.93103C7.8639 1.87909 7.60472 1.84668 7.34139 1.83386ZM9.87796 2.64801C10.1599 2.83069 10.4235 3.04199 10.6686 3.28192C11.1553 3.75824 11.5267 4.30573 11.783 4.92432C11.8124 4.99518 11.84 5.06647 11.8659 5.13806L9.87796 5.13806L9.87796 2.64801Z" fill="#999999" fill-opacity="1.000000" fill-rule="evenodd"/>
	<path id="合并" d="M9.45522 11.3448L5.22761 11.3448C4.90907 11.3448 4.63644 11.5096 4.49213 11.7586L1 11.7586L1 12.5862L4.49213 12.5862C4.63644 12.8352 4.90907 13 5.22761 13L9.45522 13C9.77377 13 10.0464 12.8352 10.1907 12.5862L12.8373 12.5862L12.8373 11.7586L10.1907 11.7586C10.0464 11.5096 9.77377 11.3448 9.45522 11.3448Z" clip-rule="evenodd" fill="#999999" fill-opacity="1.000000" fill-rule="evenodd"/>
</svg>
