<svg width="14.000000" height="14.000000" viewBox="0 0 14 14" fill="none" xmlns="http://www.w3.org/2000/svg" xmlns:xlink="http://www.w3.org/1999/xlink">
	<desc>
			Created with Pixso.
	</desc>
	<defs/>
	<path id="减去顶层" d="M1.73453 11.2099C0.755156 10.2341 0.755156 8.65283 1.73453 7.67712L2.80025 6.61743C3.12403 6.29468 3.51608 6.08984 3.92871 5.98041C3.96887 6.30914 4.05521 6.63293 4.18974 6.94171C3.94076 7.00714 3.70432 7.13055 3.51006 7.3244L2.44434 8.38409C1.85702 8.9696 1.85702 9.9184 2.44434 10.5039C3.03267 11.089 3.98644 11.089 4.57477 10.5039L5.63948 9.44373C6.10231 8.98309 6.19518 8.29913 5.92913 7.74255L4.92967 8.7373C4.7334 8.93262 4.41614 8.93262 4.21986 8.7373C4.02359 8.54193 4.02359 8.2262 4.21986 8.03082L5.31972 6.93567C4.67466 5.96594 4.78058 4.64648 5.63898 3.79163L6.70419 2.73145C7.68457 1.75616 9.27386 1.75616 10.2537 2.73145C11.0553 3.52917 11.2015 4.73273 10.6916 5.67847C10.3766 5.52692 10.0235 5.44141 9.65058 5.43982C10.1293 4.85101 10.0938 3.9856 9.54393 3.43787C8.9556 2.85284 8.00233 2.85284 7.414 3.43787L6.34879 4.49756C5.88596 4.95874 5.79309 5.6427 6.05914 6.19928L7.0591 5.20453C7.25537 5.00916 7.57313 5.00916 7.76941 5.20453C7.96568 5.3999 7.96569 5.71564 7.76941 5.91095L6.66855 7.0061C7.31411 7.97589 7.20819 9.29535 6.34929 10.1502L5.28458 11.2099C4.3042 12.1856 2.71491 12.1856 1.73453 11.2099Z" clip-rule="evenodd" fill="#999999" fill-opacity="1.000000" fill-rule="evenodd"/>
	<path id="合并" d="M7.65925 8.62775C7.65925 7.25507 8.77729 6.14233 10.1565 6.14233C11.5356 6.14233 12.6537 7.25507 12.6537 8.62775C12.6537 9.42407 12.2774 10.1329 11.6921 10.5878L13 12.5404L12.3074 13L10.9563 10.983C10.7052 11.0674 10.4362 11.1132 10.1565 11.1132C8.77729 11.1132 7.65925 10.0004 7.65925 8.62775ZM8.49165 8.62775C8.49165 7.71265 9.23701 6.97083 10.1565 6.97083C11.0759 6.97083 11.8213 7.71265 11.8213 8.62775C11.8213 9.54285 11.0759 10.2847 10.1565 10.2847C9.23701 10.2847 8.49165 9.54285 8.49165 8.62775Z" clip-rule="evenodd" fill="#999999" fill-opacity="1.000000" fill-rule="evenodd"/>
</svg>
