<svg width="22.000000" height="22.000000" viewBox="0 0 22 22" fill="none" xmlns="http://www.w3.org/2000/svg" xmlns:xlink="http://www.w3.org/1999/xlink">
	<desc>
			Created with Pixso.
	</desc>
	<path id="path" d="M11 0C4.95001 0 0 4.94995 0 11C0 17.05 4.95001 22 11 22C17.05 22 22 17.05 22 11C22 4.94995 17.05 0 11 0ZM11 20.625C5.70624 20.625 1.375 16.2937 1.375 11C1.375 5.7063 5.70624 1.375 11 1.375C16.2938 1.375 20.625 5.7063 20.625 11C20.625 16.2937 16.2938 20.625 11 20.625Z" fill-rule="evenodd" fill="#E6A23C"/>
	<path id="path" d="M11 8.9375C10.5875 8.9375 10.3125 9.2124 10.3125 9.625L10.3125 16.5C10.3125 16.8438 10.5875 17.1875 11 17.1875C11.4125 17.1875 11.6875 16.9126 11.6875 16.5L11.6875 9.625C11.6875 9.28125 11.4125 8.9375 11 8.9375ZM11 4.8125C10.5875 4.8125 10.3125 5.15625 10.3125 5.5L10.3125 6.875C10.3125 7.2876 10.5875 7.5625 11 7.5625C11.4125 7.5625 11.6875 7.21875 11.6875 6.875L11.6875 5.5C11.6875 5.0874 11.4125 4.8125 11 4.8125Z" fill-rule="evenodd" fill="#E6A23C"/>
	<defs/>
</svg>
