<svg width="14.000000" height="14.000000" viewBox="0 0 14 14" fill="none" xmlns="http://www.w3.org/2000/svg" xmlns:xlink="http://www.w3.org/1999/xlink">
	<desc>
			Created with Pixso.
	</desc>
	<defs/>
	<path id="矢量 1296 (边框)" d="M5.5 1L2 1C1.44775 1 1 1.44775 1 2L1 5.5C1 6.05225 1.44775 6.5 2 6.5L5.5 6.5C6.05225 6.5 6.5 6.05225 6.5 5.5L6.5 2C6.5 1.44775 6.05225 1 5.5 1ZM12 1L8.5 1C7.94775 1 7.5 1.44775 7.5 2L7.5 5.5C7.5 6.05225 7.94775 6.5 8.5 6.5L12 6.5C12.5522 6.5 13 6.05225 13 5.5L13 2C13 1.44775 12.5522 1 12 1ZM5.5 1.5L2 1.5C1.83331 1.5 1.70831 1.54163 1.625 1.625C1.54169 1.70837 1.5 1.83337 1.5 2L1.5 5.5C1.5 5.66663 1.54169 5.79163 1.625 5.875C1.70831 5.95837 1.83331 6 2 6L5.5 6C5.66669 6 5.79169 5.95837 5.875 5.875C5.95831 5.79163 6 5.66663 6 5.5L6 2C6 1.83337 5.95831 1.70837 5.875 1.625C5.79169 1.54163 5.66669 1.5 5.5 1.5ZM12 1.5L8.5 1.5C8.33331 1.5 8.20831 1.54163 8.125 1.625C8.04169 1.70837 8 1.83337 8 2L8 5.5C8 5.66663 8.04169 5.79163 8.125 5.875C8.20831 5.95837 8.33331 6 8.5 6L12 6C12.1667 6 12.2917 5.95837 12.375 5.875C12.4583 5.79163 12.5 5.66663 12.5 5.5L12.5 2C12.5 1.83337 12.4583 1.70837 12.375 1.625C12.2917 1.54163 12.1667 1.5 12 1.5ZM5.5 7.5L2 7.5C1.44775 7.5 1 7.94775 1 8.5L1 12C1 12.5522 1.44775 13 2 13L5.5 13C6.05225 13 6.5 12.5522 6.5 12L6.5 8.5C6.5 7.94775 6.05225 7.5 5.5 7.5ZM8.5 7.5L12 7.5C12.5522 7.5 13 7.94775 13 8.5L13 12C13 12.5522 12.5522 13 12 13L8.5 13C7.94775 13 7.5 12.5522 7.5 12L7.5 8.5C7.5 7.94775 7.94775 7.5 8.5 7.5ZM5.5 8L2 8C1.83331 8 1.70831 8.04163 1.625 8.125C1.54169 8.20837 1.5 8.33337 1.5 8.5L1.5 12C1.5 12.1666 1.54169 12.2916 1.625 12.375C1.70831 12.4584 1.83331 12.5 2 12.5L5.5 12.5C5.66669 12.5 5.79169 12.4584 5.875 12.375C5.95831 12.2916 6 12.1666 6 12L6 8.5C6 8.33337 5.95831 8.20837 5.875 8.125C5.79169 8.04163 5.66669 8 5.5 8ZM12 8L8.5 8C8.33331 8 8.20831 8.04163 8.125 8.125C8.04169 8.20837 8 8.33337 8 8.5L8 12C8 12.1666 8.04169 12.2916 8.125 12.375C8.20831 12.4584 8.33331 12.5 8.5 12.5L12 12.5C12.1667 12.5 12.2917 12.4584 12.375 12.375C12.4583 12.2916 12.5 12.1666 12.5 12L12.5 8.5C12.5 8.33337 12.4583 8.20837 12.375 8.125C12.2917 8.04163 12.1667 8 12 8Z" fill-rule="evenodd" fill="#666666"/>
</svg>
