<?xml version="1.0" standalone="no"?><!DOCTYPE svg PUBLIC "-//W3C//DTD SVG 1.1//EN" "http://www.w3.org/Graphics/SVG/1.1/DTD/svg11.dtd"><svg t="1700533639268" class="icon" viewBox="0 0 1024 1024" version="1.1" xmlns="http://www.w3.org/2000/svg" p-id="9510" width="30" height="30" xmlns:xlink="http://www.w3.org/1999/xlink"><path d="M860.374 120.716l-25.555-25.416c-17.677-17.697-48.791-17.757-66.587-0.04l-22.396 22.316-0.2-0.22-206.521 207.821 4.319 90.862 90.902 4.319 177.646-178.931 0.12 0.085 51.385-51.35c8.724-8.778 13.763-20.876 13.763-33.174 0.001-15.256-10.562-29.933-16.876-36.272z m-242.264 257.886l-35.519-1.72-1.72-35.633 164.844-165.929 37.273 37.178-164.878 166.104z m216.389-217.374l-22.436 22.416-37.233-37.153 22.321-22.216c3.074-3.1 5.599-3.139 8.714 0.02l25.555 25.396c2.12 2.119 4.559 6.398 4.879 7.278 0 1.56-0.68 3.12-1.8 4.259zM284.563 490.046h146.852c11.318 0 20.477-9.178 20.477-20.476 0-11.298-9.158-20.477-20.477-20.477h-146.852c-11.317 0-20.477 9.179-20.477 20.477 0.001 11.298 9.16 20.476 20.477 20.476zM705.124 599.725h-420.561c-11.317 0-20.477 9.158-20.477 20.476s9.159 20.456 20.477 20.456h420.561c11.317 0 20.477-9.138 20.477-20.456 0-11.317-9.16-20.476-20.477-20.476zM705.124 752.156h-420.561c-11.317 0-20.477 9.159-20.477 20.477 0 11.317 9.159 20.476 20.477 20.476h420.561c11.317 0 20.477-9.158 20.477-20.476s-9.16-20.477-20.477-20.477z" p-id="9511" fill="#969696"></path><path d="M822.462 377.122c-11.318 0-20.477 9.204-20.477 20.477v441.541c0 34.153-40.397 61.909-74.586 61.909h-477.75c-34.153 0-61.948-27.755-61.948-61.909v-654.276c0-34.154 27.8-61.908 61.989-61.908h313.42c11.318 0 20.477-9.178 20.477-20.476s-9.158-20.476-20.477-20.476h-313.42c-56.79 0-102.941 46.151-102.941 102.86V839.14c0 56.706 46.156 102.861 102.9 102.861h477.75c56.79 0 115.539-46.155 115.539-102.861v-441.541c0-11.273-9.199-20.477-20.476-20.477z" p-id="9512" fill="#969696"></path></svg>