<svg width="14.000244" height="14.000000" viewBox="0 0 14.0002 14" fill="none" xmlns="http://www.w3.org/2000/svg" xmlns:xlink="http://www.w3.org/1999/xlink">
	<desc>
			Created with Pixso.
	</desc>
	<defs/>
	<path id="path" d="M13.8484 5.73132C13.7791 5.63318 13.6929 5.55688 13.59 5.5022C13.4871 5.44763 13.3782 5.42065 13.2634 5.42102L12.3691 5.42102L12.3691 3.6842C12.3691 3.57959 12.3503 3.47888 12.3129 3.3822C12.2755 3.28552 12.2223 3.2002 12.1533 3.12622C12.0843 3.05225 12.0047 2.99512 11.9146 2.95508C11.8244 2.91492 11.7305 2.8949 11.6329 2.89478L6.36755 2.89478C6.32684 2.8949 6.29211 2.87939 6.26343 2.84851L4.75525 1.2312C4.61169 1.07642 4.43817 0.99939 4.23462 1L0.736267 1C0.638672 1.00012 0.5448 1.02026 0.454651 1.0603C0.364502 1.10046 0.284912 1.15747 0.215881 1.23145C0.146851 1.30554 0.093689 1.39087 0.0562744 1.48755C0.0188599 1.58411 0.00012207 1.68481 0 1.78943L0 12.2106C0.00012207 12.3152 0.0188599 12.4159 0.0562744 12.5125C0.093689 12.6091 0.146851 12.6945 0.215881 12.7686C0.284912 12.8425 0.364502 12.8995 0.454651 12.9397C0.5448 12.9797 0.638672 12.9999 0.736267 13L11.7372 13C11.818 12.9999 11.8966 12.9858 11.9731 12.958C12.0496 12.9302 12.1199 12.8899 12.184 12.8374C12.2482 12.7848 12.3028 12.7225 12.3479 12.6508C12.393 12.579 12.4263 12.5012 12.4476 12.4177L13.9736 6.41772C14.0042 6.29919 14.0084 6.17944 13.9864 6.05872C13.9644 5.93799 13.9184 5.82886 13.8484 5.73132ZM0.736267 1.63159L4.23462 1.63159C4.27533 1.63147 4.31 1.64685 4.33868 1.67786L5.84692 3.29504C5.99048 3.44983 6.164 3.52698 6.36755 3.52637L11.6329 3.52637C11.6736 3.52637 11.7083 3.54175 11.737 3.57251C11.7658 3.60339 11.7802 3.64062 11.7802 3.6842L11.7802 5.42102L2.39893 5.42102C2.31818 5.42126 2.23956 5.43518 2.16309 5.46301C2.08661 5.49084 2.0163 5.53113 1.95215 5.58374C1.888 5.63623 1.83337 5.69849 1.78827 5.77026C1.74316 5.84216 1.70996 5.9198 1.6886 6.0033L0.588989 10.3262L0.588989 1.78943C0.588989 1.74585 0.603394 1.70862 0.632141 1.67786C0.660889 1.64697 0.695618 1.63159 0.736267 1.63159ZM13.4053 6.25208L11.8793 12.2521C11.8596 12.3296 11.8122 12.3684 11.7372 12.3684L0.872864 12.3684C0.849915 12.3684 0.828125 12.3629 0.807556 12.3521C0.786987 12.3412 0.769775 12.3259 0.755859 12.3064C0.741943 12.2867 0.732788 12.2649 0.728394 12.2408C0.723999 12.2167 0.724792 12.1927 0.730835 12.1689L2.2569 6.16895C2.27661 6.09143 2.32397 6.05261 2.39893 6.05261L13.2634 6.05261C13.2863 6.05261 13.308 6.05811 13.3286 6.06897C13.3492 6.07996 13.3664 6.09521 13.3803 6.11475C13.3943 6.13428 13.4034 6.15613 13.4078 6.1803C13.4122 6.20435 13.4114 6.22839 13.4053 6.25208Z" fill-rule="nonzero" fill="#666666"/>
</svg>
