<svg width="14.000000" height="14.000000" viewBox="0 0 14 14" fill="none" xmlns="http://www.w3.org/2000/svg" xmlns:xlink="http://www.w3.org/1999/xlink">
	<desc>
			Created with Pixso.
	</desc>
	<defs/>
	<path id="path" d="M12.1667 14L1.83331 14C1.72284 13.9999 1.61664 13.9796 1.51459 13.9392C1.41254 13.8988 1.32245 13.8413 1.24432 13.7667C1.16626 13.6921 1.10602 13.6062 1.06366 13.5088C1.02136 13.4114 1.00012 13.3099 1 13.2046L1 0.79541C1.00012 0.690063 1.02136 0.588623 1.06366 0.491211C1.10602 0.393799 1.16626 0.307861 1.24432 0.233276C1.32245 0.158691 1.41254 0.101196 1.51459 0.060791C1.61664 0.0203857 1.72284 0.00012207 1.83331 0L9.12622 0C9.35663 -0.000610352 9.55304 0.0770264 9.71552 0.233032L12.7559 3.13513C12.9193 3.29028 13.0006 3.47778 13 3.69763L13 13.2046C12.9999 13.3099 12.9786 13.4114 12.9363 13.5088C12.894 13.6062 12.8337 13.6921 12.7557 13.7667C12.6776 13.8413 12.5875 13.8988 12.4854 13.9392C12.3834 13.9796 12.2772 13.9999 12.1667 14ZM1.83331 0.636353C1.78729 0.636353 1.74805 0.651855 1.71545 0.682983C1.68292 0.713989 1.66669 0.751465 1.66669 0.79541L1.66669 13.2046C1.66669 13.2485 1.68292 13.286 1.71545 13.317C1.74805 13.3481 1.78729 13.3636 1.83331 13.3636L12.1667 13.3636C12.2127 13.3636 12.252 13.3481 12.2845 13.317C12.3171 13.286 12.3333 13.2485 12.3333 13.2046L12.3333 3.81824L9.83331 3.81824C9.72284 3.81812 9.61664 3.79785 9.51459 3.75745C9.41254 3.71704 9.32245 3.65955 9.24432 3.58496C9.16626 3.51038 9.10602 3.42444 9.06366 3.32703C9.02136 3.22961 9.00012 3.12817 9 3.02271L9 0.636353L1.83331 0.636353ZM9.66669 1.0863L9.66669 3.02271C9.66669 3.06665 9.68292 3.10413 9.71545 3.13525C9.74805 3.16626 9.78729 3.18176 9.83331 3.18176L11.862 3.18176L9.66669 1.0863ZM10 10.8182L4 10.8182C3.95581 10.8182 3.91327 10.8101 3.87244 10.7939C3.8316 10.7778 3.79553 10.7549 3.76428 10.725C3.73303 10.6952 3.70898 10.6608 3.69202 10.6217C3.67511 10.5828 3.66669 10.5422 3.66669 10.5C3.66669 10.4578 3.67511 10.4172 3.69202 10.3783C3.70898 10.3392 3.73303 10.3048 3.76428 10.275C3.79553 10.2451 3.8316 10.2222 3.87244 10.2061C3.91327 10.1899 3.95581 10.1818 4 10.1818L10 10.1818C10.0442 10.1818 10.0867 10.1899 10.1276 10.2061C10.1684 10.2222 10.2045 10.2451 10.2357 10.275C10.267 10.3048 10.291 10.3392 10.308 10.3783C10.3249 10.4172 10.3333 10.4578 10.3333 10.5C10.3333 10.5422 10.3249 10.5828 10.308 10.6217C10.291 10.6608 10.267 10.6952 10.2357 10.725C10.2045 10.7549 10.1684 10.7778 10.1276 10.7939C10.0867 10.8101 10.0442 10.8182 10 10.8182ZM10 7.63635L4 7.63635C3.95581 7.63635 3.91327 7.6283 3.87244 7.61218C3.8316 7.59595 3.79553 7.573 3.76428 7.54321C3.73303 7.51331 3.70898 7.47888 3.69202 7.43994C3.67511 7.401 3.66669 7.36035 3.66669 7.31824C3.66669 7.276 3.67511 7.23535 3.69202 7.19641C3.70898 7.15747 3.73303 7.12305 3.76428 7.09314C3.79553 7.06335 3.8316 7.04041 3.87244 7.02417C3.91327 7.00806 3.95581 7 4 7L10 7C10.0442 7 10.0867 7.00806 10.1276 7.02417C10.1684 7.04041 10.2045 7.06335 10.2357 7.09314C10.267 7.12305 10.291 7.15747 10.308 7.19641C10.3249 7.23535 10.3333 7.276 10.3333 7.31824C10.3333 7.36035 10.3249 7.401 10.308 7.43994C10.291 7.47888 10.267 7.51331 10.2357 7.54321C10.2045 7.573 10.1684 7.59595 10.1276 7.61218C10.0867 7.6283 10.0442 7.63635 10 7.63635ZM6.66669 3.81824L4 3.81824C3.95581 3.81824 3.91327 3.81006 3.87244 3.79395C3.8316 3.77783 3.79553 3.75488 3.76428 3.72498C3.73303 3.69519 3.70898 3.66077 3.69202 3.6217C3.67511 3.58276 3.66669 3.54224 3.66669 3.5C3.66669 3.45776 3.67511 3.41724 3.69202 3.3783C3.70898 3.33923 3.73303 3.30481 3.76428 3.27502C3.79553 3.24512 3.8316 3.22217 3.87244 3.20605C3.91327 3.18994 3.95581 3.18176 4 3.18176L6.66669 3.18176C6.71088 3.18176 6.75342 3.18994 6.79425 3.20605C6.83508 3.22217 6.87109 3.24512 6.90234 3.27502C6.93359 3.30481 6.9577 3.33923 6.97461 3.3783C6.99152 3.41724 7 3.45776 7 3.5C7 3.54224 6.99152 3.58276 6.97461 3.6217C6.9577 3.66077 6.93359 3.69519 6.90234 3.72498C6.87109 3.75488 6.83508 3.77783 6.79425 3.79395C6.75342 3.81006 6.71088 3.81824 6.66669 3.81824Z" fill-rule="nonzero" fill="#666666"/>
</svg>
