<svg width="14.000000" height="14.000000" viewBox="0 0 14 14" fill="none" xmlns="http://www.w3.org/2000/svg" xmlns:xlink="http://www.w3.org/1999/xlink">
	<desc>
			Created with Pixso.
	</desc>
	<defs/>
	<path id="矩形 1106 (边框)" d="M13 3.11108C13 2.49744 12.5328 2 11.9565 2L2.04346 2C1.46716 2 1 2.49744 1 3.11108L1 10.8889C1 11.5026 1.46716 12 2.04346 12L11.9565 12C12.5328 12 13 11.5026 13 10.8889L13 3.11108ZM12.4783 3.11108C12.4783 2.80432 12.2447 2.55554 11.9565 2.55554L2.04346 2.55554C1.75531 2.55554 1.52173 2.80432 1.52173 3.11108L1.52173 10.8889C1.52173 11.1957 1.75531 11.4445 2.04346 11.4445L11.9565 11.4445C12.2447 11.4445 12.4783 11.1957 12.4783 10.8889L12.4783 3.11108Z" fill-rule="evenodd" fill="#666666"/>
	<path id="矢量 1296 (边框)" d="M3.88251 7.7428L1.34906 10.1251L1.52173 10.6112L3.88733 8.47949L5.92676 10.344L9.62402 6.28772L12.8128 9.78613L12.8128 9.12146L9.62402 5.49011L5.89423 9.58203L3.88251 7.7428Z" fill-rule="evenodd" fill="#666666"/>
	<path id="椭圆 27 (边框)" d="M3.08698 5.05554C3.08698 4.28845 3.67096 3.66663 4.3913 3.66663C5.11169 3.66663 5.69568 4.28845 5.69568 5.05554C5.69568 5.82263 5.11169 6.44446 4.3913 6.44446C3.67096 6.44446 3.08698 5.82263 3.08698 5.05554ZM4.3913 4.22217C4.32861 4.22217 4.26764 4.22974 4.20831 4.24487C4.16699 4.25537 4.12653 4.26953 4.08685 4.28748C4.04486 4.3064 4.005 4.32874 3.96729 4.35474C3.92096 4.3866 3.87787 4.42371 3.83795 4.46631C3.79803 4.50879 3.76312 4.55469 3.73315 4.604C3.7088 4.64417 3.68774 4.68665 3.66998 4.73132C3.6532 4.77356 3.63989 4.81665 3.63 4.86072C3.61578 4.92383 3.6087 4.98877 3.6087 5.05554C3.6087 5.12231 3.61578 5.18726 3.63 5.25037C3.63989 5.29431 3.6532 5.33752 3.66998 5.37976C3.68774 5.42444 3.7088 5.4668 3.73315 5.50696C3.76312 5.5564 3.79803 5.60229 3.83795 5.64478C3.87787 5.68726 3.92096 5.72449 3.96735 5.75635C4.00507 5.78223 4.04486 5.80469 4.08685 5.82361C4.12653 5.84143 4.16699 5.85559 4.20831 5.86621C4.26764 5.88135 4.32861 5.88879 4.3913 5.88879C4.45404 5.88879 4.51501 5.88135 4.57434 5.86621C4.6156 5.85559 4.65613 5.84143 4.6958 5.82361C4.73779 5.80469 4.77759 5.78223 4.81531 5.75635C4.86169 5.72449 4.90479 5.68726 4.9447 5.64478C4.98462 5.60229 5.01953 5.5564 5.0495 5.50696C5.07385 5.4668 5.09491 5.42444 5.11267 5.37976C5.12939 5.33752 5.14276 5.29431 5.15265 5.25037C5.16681 5.18726 5.17395 5.12231 5.17395 5.05554C5.17395 4.98877 5.16681 4.92383 5.15265 4.86072C5.14276 4.81665 5.12939 4.77356 5.11267 4.73132C5.09491 4.68665 5.07385 4.64417 5.0495 4.604C5.01953 4.55469 4.98462 4.50879 4.9447 4.46631C4.90479 4.42371 4.86169 4.3866 4.81531 4.35474C4.77759 4.32874 4.73779 4.3064 4.6958 4.28748C4.65613 4.26953 4.61566 4.25537 4.57434 4.24487C4.51501 4.22974 4.45404 4.22217 4.3913 4.22217Z" fill-rule="evenodd" fill="#666666"/>
</svg>
