<svg width="14.000000" height="14.000000" viewBox="0 0 14 14" fill="none" xmlns="http://www.w3.org/2000/svg" xmlns:xlink="http://www.w3.org/1999/xlink">
	<desc>
			Created with Pixso.
	</desc>
	<defs/>
	<path id="path" d="M10.2308 6.125L9.15356 10.5L7.89801 10.5L7.13513 7.6958C7.091 7.55078 7.05975 7.38452 7.04504 7.19873C7.03033 7.41064 7.00092 7.57678 6.95496 7.6958L6.14795 10.5L4.84644 10.5L3.76923 6.125L4.91266 6.125L5.47516 9.04822C5.48987 9.11499 5.50458 9.24048 5.51929 9.42627C5.51929 9.38708 5.52661 9.43274 5.54132 9.5647L5.56335 9.5647C5.57806 9.40503 5.60748 9.23389 5.65344 9.04822L6.41632 6.125L7.60571 6.125L8.41272 9.08728C8.41272 9.1134 8.42004 9.15405 8.43475 9.2063C8.46417 9.35291 8.47888 9.4718 8.47888 9.5647L8.50098 9.5647C8.53033 9.36597 8.55243 9.19971 8.56897 9.06775L9.10944 6.125L10.2308 6.125Z" fill-rule="nonzero" fill="#666666"/>
	<path id="合并" d="M8.19995 0L8.20001 0L8.20001 0L12.9999 4.375L13 4.375L13 13.1515C13 13.6201 12.6295 14 12.1724 14L1.82758 14C1.37054 14 1 13.6201 1 13.1515L1 0.848511C1 0.379883 1.37054 0 1.82758 0L8.19995 0ZM8.19995 0.424194L1.82758 0.424194C1.69312 0.424194 1.59137 0.457886 1.52246 0.525024C1.52069 0.526855 1.51898 0.528564 1.51721 0.530273C1.4483 0.600952 1.41382 0.707031 1.41382 0.848511L1.41382 13.1515C1.41382 13.293 1.4483 13.399 1.51721 13.4697C1.58618 13.5404 1.68964 13.5758 1.82758 13.5758L12.1724 13.5758C12.3104 13.5758 12.4138 13.5404 12.4828 13.4697C12.5517 13.399 12.5862 13.293 12.5862 13.1515L12.5862 4.375L8.19995 4.375L8.19995 0.424194Z" clip-rule="evenodd" fill-rule="evenodd" fill="#666666" fill-opacity="1.000000"/>
</svg>
