<svg width="12.000000" height="14.000000" viewBox="0 0 12 14" fill="none" xmlns="http://www.w3.org/2000/svg" xmlns:xlink="http://www.w3.org/1999/xlink">
	<desc>
			Created with Pixso.
	</desc>
	<path id="path" d="M6.5 0.0746002L11.5 2.46181C11.8 2.66074 12 2.95914 12 3.35702L12 6.24156C12 7.13676 11.8 7.9325 11.5 8.82771C11.2 9.62344 10.8 10.4192 10.3 11.1155C9.79999 11.8117 9.10001 12.508 8.39999 13.0053C7.70001 13.5027 6.89999 13.8011 6 14C5.10001 13.8011 4.29999 13.5027 3.60001 13.0053C2.89999 12.508 2.20001 11.8117 1.70001 11.1155C1.20001 10.4192 0.799988 9.72292 0.5 8.82771C0.200012 7.9325 0 7.0373 0 6.1421L0 3.35702C0 2.95914 0.200012 2.66074 0.5 2.46181L5.5 0.0746002C5.79999 -0.0248642 6.20001 -0.0248642 6.5 0.0746002ZM6 1.16874L1 3.45648L1 6.1421C1 6.93784 1.10001 7.6341 1.39999 8.42984C1.70001 9.12611 2 9.82238 2.5 10.4192C3.10001 11.2149 3.60001 11.7123 4.20001 12.1101C4.70001 12.4085 5.29999 12.7069 6 12.9059C6.70001 12.7069 7.29999 12.4085 7.79999 12.1101C8.29999 11.7123 8.89999 11.2149 9.5 10.4192C10 9.82238 10.3 9.22558 10.6 8.42984C10.9 7.6341 11 6.93784 11 6.1421L11 3.45648L6 1.16874Z" fill-rule="evenodd" fill="#999999"/>
	<path id="矢量 3" d="M3.2713 7.99991L2.56042 7.99991L1.99997 4.99991L2.59204 4.99991L2.82388 6.46378C2.867 6.77952 2.91394 7.1002 2.95706 7.4199L2.97333 7.4199C3.03177 7.1002 3.095 6.77556 3.15729 6.46378L3.49451 4.99991L3.98886 4.99991L4.32706 6.46378C4.38931 6.7716 4.44873 7.09624 4.51099 7.4199L4.5311 7.4199C4.57422 7.09624 4.61734 6.77556 4.66046 6.46378L4.88751 4.99991L5.44125 4.99991L4.90378 7.99991L4.18143 7.99991L3.85568 6.51624C3.80875 6.28068 3.76562 6.05006 3.73019 5.82241L3.71487 5.82241C3.67557 6.05006 3.63629 6.28068 3.58936 6.51624L3.2713 7.99991ZM7.44244 7.99991L8.05078 7.99991L7.1167 4.99991L6.43362 4.99991L5.5043 7.99991L6.09256 7.99991L6.2966 7.22987L7.23837 7.22987L7.44244 7.99991ZM8.97293 7.99991L8.39236 7.99991L8.39236 4.99991L10.182 4.99991L10.182 5.49876L8.97293 5.49876L8.97293 6.28068L10.0047 6.28068L10.0047 6.78348L8.97293 6.78348L8.97293 7.99991ZM6.42212 6.76368L6.50833 6.43508C6.59457 6.1233 6.68079 5.78183 6.75552 5.45422L6.77179 5.45422C6.85803 5.77787 6.93658 6.1233 7.02664 6.43508L7.11285 6.76368L6.42212 6.76368Z" fill-rule="evenodd" fill="#999999"/>
	<defs/>
</svg>
