<svg width="12.000000" height="14.000000" viewBox="0 0 12 14" fill="none" xmlns="http://www.w3.org/2000/svg" xmlns:xlink="http://www.w3.org/1999/xlink">
	<desc>
			Created with Pixso.
	</desc>
	<path id="path" d="M6.5 0.074585L11.5 2.46179C11.8 2.66077 12 2.95917 12 3.35699L12 6.24158C12 7.13678 11.8 7.9325 11.5 8.8277C11.2 9.62347 10.8 10.4192 10.3 11.1155C9.79999 11.8117 9.09998 12.508 8.40002 13.0053C7.70001 13.5027 6.90002 13.8011 6 14C5.09998 13.8011 4.29999 13.5027 3.59998 13.0053C2.90002 12.508 2.20001 11.8117 1.70001 11.1155C1.20001 10.4192 0.799988 9.7229 0.5 8.8277C0.200012 7.9325 0 7.03729 0 6.14209L0 3.35699C0 2.95917 0.200012 2.66077 0.5 2.46179L5.5 0.074585C5.79999 -0.0248413 6.20001 -0.0248413 6.5 0.074585ZM6 1.16876L1 3.45648L1 6.14209C1 6.93781 1.09998 7.63409 1.40002 8.42987C1.70001 9.1261 2 9.82239 2.5 10.4192C3.09998 11.2149 3.59998 11.7123 4.20001 12.1101C4.70001 12.4085 5.29999 12.7069 6 12.9059C6.70001 12.7069 7.29999 12.4085 7.79999 12.1101C8.29999 11.7123 8.90002 11.2149 9.5 10.4192C10 9.82239 10.3 9.22559 10.6 8.42987C10.9 7.63409 11 6.93781 11 6.14209L11 3.45648L6 1.16876Z" fill-rule="evenodd" fill="#20A53A"/>
	<path id="矢量 3" d="M3.27124 7.99994L2.56036 7.99994L1.99994 4.99994L2.59198 4.99994L2.82385 6.46381C2.86694 6.77954 2.91388 7.10022 2.95703 7.41992L2.97333 7.41992C3.03174 7.10022 3.09497 6.77557 3.15723 6.46381L3.49451 4.99994L3.98883 4.99994L4.32703 6.46381C4.38928 6.77161 4.44867 7.09625 4.51099 7.41992L4.53107 7.41992C4.57422 7.09625 4.61731 6.77557 4.6604 6.46381L4.88745 4.99994L5.44122 4.99994L4.90375 7.99994L4.1814 7.99994L3.85565 6.5163C3.80872 6.2807 3.76562 6.05011 3.73016 5.82245L3.71484 5.82245C3.67554 6.05011 3.63629 6.2807 3.58936 6.5163L3.27124 7.99994ZM7.44238 7.99994L8.05078 7.99994L7.11664 4.99994L6.43359 4.99994L5.50427 7.99994L6.09253 7.99994L6.29657 7.22992L7.23834 7.22992L7.44238 7.99994ZM8.9729 7.99994L8.39233 7.99994L8.39233 4.99994L10.1819 4.99994L10.1819 5.49878L8.9729 5.49878L8.9729 6.2807L10.0047 6.2807L10.0047 6.78351L8.9729 6.78351L8.9729 7.99994ZM6.42206 6.76373L6.5083 6.43512C6.59454 6.12335 6.68079 5.78186 6.75549 5.45422L6.77179 5.45422C6.85797 5.77789 6.93652 6.12335 7.02661 6.43512L7.11285 6.76373L6.42206 6.76373Z" fill-rule="evenodd" fill="#20A53A"/>
	<defs/>
</svg>
