<svg width="10.000000" height="10.000000" viewBox="0 0 10 10" fill="none" xmlns="http://www.w3.org/2000/svg" xmlns:xlink="http://www.w3.org/1999/xlink">
	<desc>
			Created with Pixso.
	</desc>
	<defs/>
	<path id="path" d="M5.04 7.52C5.09 7.52 5.14 7.51 5.2 7.51C5.69 7.45 6.11 7.13 6.27 6.69C6.23 6.67 6.16 6.6 6.13 6.64C6.13 6.64 5.94 6.93 5.17 7.03C5.06 7.04 4.95 7.05 4.84 7.05C4.3 7.05 4.06 6.86 4.06 6.86C4.02 6.88 3.92 6.91 3.95 6.95C4.18 7.3 4.6 7.52 5.04 7.52ZM9.17 3.13C8.72 1.34 6.98 0 4.92 0C2.81 0 1.05 1.41 0.66 3.28C0.28 3.34 0 3.65 0 4.02L0 5.51C0 5.92 0.36 6.26 0.8 6.26C1.06 6.26 1.28 6.15 1.43 5.98C1.78 6.85 2.51 7.56 3.43 7.93C3.45 7.93 3.55 7.84 3.56 7.85C3.34 7.7 2.57 6.95 2.41 5.9C2.33 5.44 2.71 4.98 3.15 4.91C3.85 4.79 4.55 4.65 5.25 4.53C5.69 4.46 6 4.23 6.19 3.85C6.26 3.69 6.31 3.51 6.32 3.33C6.35 3.33 6.46 3.27 6.48 3.3C6.75 3.67 7.32 4.48 7.4 5.34C7.49 6.33 7.44 7.01 6.62 7.7L6.65 7.81L6.62 7.7C7.45 7.28 8.18 6.66 8.47 5.82C8.61 5.99 8.78 6.1 9 6.14C8.65 7.6 7.24 8.51 5.49 8.65C5.36 8.37 5.14 8.23 4.83 8.24C4.43 8.24 4.11 8.53 4.11 8.88C4.11 9.24 4.43 9.53 4.83 9.53C5.16 9.54 5.39 9.39 5.51 9.08C7.53 8.93 9.15 7.82 9.49 6.1C9.79 5.98 10 5.71 10 5.39L10 3.89C10 3.47 9.62 3.13 9.17 3.13ZM8.42 3.56C7.89 2.24 6.53 1.3 4.92 1.3C3.32 1.3 1.96 2.24 1.43 3.54C1.73 1.95 3.13 0.65 4.92 0.65C6.71 0.65 8.19 1.86 8.5 3.44C8.47 3.48 8.44 3.52 8.42 3.56Z" fill="#20A53A" fill-opacity="1.000000" fill-rule="evenodd"/>
</svg>
