<svg xmlns="http://www.w3.org/2000/svg" xmlns:xlink="http://www.w3.org/1999/xlink" id="body_4" preserveAspectRatio="xMinYMin meet" viewBox="0 0 793 1123">
    <defs>
        <clipPath id="1">
            <path d="M0 842L0 0L0 0L595 0L595 0L595 842L595 842L0 842z" />
        </clipPath>
        <clipPath id="2">
            <path d="M0 0L595 0L595 0L595 842L595 842L0 842z" />
        </clipPath>
        <clipPath id="3">
            <path d="M-1638.4 0L2233.35 0L2233.35 0L2233.35 39.40002L2233.35 39.40002L-1638.4 39.40002z" />
        </clipPath><clipPath id="4"><path d="M0 0L595 0L595 0L595 842L595 842L0 842z" />
    </clipPath>
        <clipPath id="5"><path d="M0 0L595 0L595 0L595 842L595 842L0 842z" />
        </clipPath>
        <clipPath id="6"><path d="M28.8 38.84998L130.6 38.84998L130.6 38.84998L130.6 64.79999L130.6 64.79999L28.8 64.79999z" /></clipPath><clipPath id="7"><path d="M0 0L595 0L595 0L595 842L595 842L0 842z" /></clipPath><clipPath id="8"><path d="M29.15 70.34998L563.6 70.34998L563.6 70.34998L563.6 122.2L563.6 122.2L29.15 122.2z" /></clipPath><clipPath id="9"><path d="M0 0L595 0L595 0L595 842L595 842L0 842z" /></clipPath><clipPath id="10"><path d="M29.15 122.2L174.15 122.2L174.15 122.2L174.15 193.6L174.15 193.6L29.15 193.6z" /></clipPath><clipPath id="11"><path d="M0 0L595 0L595 0L595 842L595 842L0 842z" /></clipPath><clipPath id="12"><path d="M174.1 122.2L563.6 122.2L563.6 122.2L563.6 193.6L563.6 193.6L174.1 193.6z" /></clipPath><clipPath id="13"><path d="M0 0L595 0L595 0L595 842L595 842L0 842z" /></clipPath><clipPath id="14"><path d="M29.15 193.6L174.15 193.6L174.15 193.6L174.15 265.5L174.15 265.5L29.15 265.5z" /></clipPath><clipPath id="15"><path d="M0 0L595 0L595 0L595 842L595 842L0 842z" /></clipPath><clipPath id="16"><path d="M174.1 193.6L563.6 193.6L563.6 193.6L563.6 265.5L563.6 265.5L174.1 265.5z" /></clipPath><clipPath id="17"><path d="M0 0L595 0L595 0L595 842L595 842L0 842z" /></clipPath><clipPath id="18"><path d="M29.15 265.5L174.15 265.5L174.15 265.5L174.15 337.45L174.15 337.45L29.15 337.45z" /></clipPath><clipPath id="19"><path d="M0 0L595 0L595 0L595 842L595 842L0 842z" /></clipPath><clipPath id="20"><path d="M174.1 265.5L563.6 265.5L563.6 265.5L563.6 337.45L563.6 337.45L174.1 337.45z" /></clipPath><clipPath id="21"><path d="M0 0L595 0L595 0L595 842L595 842L0 842z" /></clipPath></defs><g transform="matrix(1.333333 0 0 1.333333 0 0)"><g><g clip-path="url(#1)"><g clip-path="url(#2)"><g clip-path="url(#3)"><g transform="matrix(0.8393296 0 0 0.84 0 -0.8399658)"><g transform="matrix(1 0 0 1 0 0)"><image x="0" y="0" xlink:href="img_11.png" width="716" height="47" /></g></g></g></g><g clip-path="url(#4)"><path transform="matrix(1 0 0 -1 0 842)" d="M28.8 803.12L28.8 777.2L28.8 777.2L130.56 777.2L130.56 777.2L130.56 803.12L130.56 803.12L28.8 803.12" stroke="none" fill="#EBF4FF" fill-rule="evenodd" /></g><g clip-path="url(#5)"><g clip-path="url(#6)"></g></g><g clip-path="url(#7)"><g clip-path="url(#8)"><path transform="matrix(1 0 0 -1 0 842)" d="M29.4 771L563.35 771L563.35 771L563.35 719.65L563.35 719.65L29.4 719.65z" stroke="none" fill="#EDEDED" fill-rule="evenodd" /></g></g><g clip-path="url(#9)"><g clip-path="url(#10)"></g></g><g clip-path="url(#11)"><g clip-path="url(#12)"></g></g><g clip-path="url(#13)"><g clip-path="url(#14)"></g></g><g clip-path="url(#15)"><g clip-path="url(#16)"></g></g><g clip-path="url(#17)"><g clip-path="url(#18)"><g transform="matrix(0.7285715 0 0 0.72 51 278.04)"><g transform="matrix(1 0 0 1 0 0)"><image x="0" y="0" xlink:href="img_15.png" width="14" height="16" /></g></g></g></g><g clip-path="url(#19)"><g clip-path="url(#20)"></g></g><g clip-path="url(#21)"><path transform="matrix(1 0 0 -1 0 842)" d="M28.79 771.29L563.91 771.29" stroke="#DDDDDD" stroke-width="0.72" fill="none" /><path transform="matrix(1 0 0 -1 0 842)" d="M29.51 719.68L563.19 719.68" stroke="#DDDDDD" stroke-width="0.24" fill="none" /><path transform="matrix(1 0 0 -1 0 842)" d="M29.15 771.65L29.15 504.6" stroke="#DDDDDD" stroke-width="0.72" fill="none" /><path transform="matrix(1 0 0 -1 0 842)" d="M563.55 770.93L563.55 504.6" stroke="#DDDDDD" stroke-width="0.72" fill="none" /></g></g></g></g></svg>
