<svg xmlns="http://www.w3.org/2000/svg" xmlns:xlink="http://www.w3.org/1999/xlink" id="body_3" preserveAspectRatio="xMinYMin meet" viewBox="0 0 793 1123"><defs><clipPath id="1"><path d="M0 842L0 0L0 0L595 0L595 0L595 842L595 842L0 842z" /></clipPath><clipPath id="2"><path d="M0 0L595 0L595 0L595 842L595 842L0 842z" /></clipPath><clipPath id="3"><path d="M-1638.4 0L2233.35 0L2233.35 0L2233.35 39.40002L2233.35 39.40002L-1638.4 39.40002z" /></clipPath><clipPath id="4"><path d="M0 0L595 0L595 0L595 842L595 842L0 842z" /></clipPath><clipPath id="5"><path d="M0 0L595 0L595 0L595 842L595 842L0 842z" /></clipPath><clipPath id="6"><path d="M28.8 304.35L566.45 304.35L566.45 304.35L566.45 400.3L566.45 400.3L28.8 400.3z" /></clipPath><clipPath id="7"><path d="M0 0L595 0L595 0L595 842L595 842L0 842z" /></clipPath><clipPath id="8"><path d="M0 0L595 0L595 0L595 842L595 842L0 842z" /></clipPath><clipPath id="9"><path d="M61.7 469.65L523.85 469.65L523.85 469.65L523.85 723.85L523.85 723.85L61.7 723.85z" /></clipPath><clipPath id="10"><path d="M72.4 471.25L270.5 471.25L270.5 471.25L270.5 507.4L270.5 507.4L72.4 507.4z" /></clipPath><clipPath id="11"><path d="M61.7 469.65L523.85 469.65L523.85 469.65L523.85 723.85L523.85 723.85L61.7 723.85z" /></clipPath><clipPath id="12"><path d="M270.45 471.25L315.95 471.25L315.95 471.25L315.95 507.4L315.95 507.4L270.45 507.4z" /></clipPath><clipPath id="13"><path d="M61.7 469.65L523.85 469.65L523.85 469.65L523.85 723.85L523.85 723.85L61.7 723.85z" /></clipPath><clipPath id="14"><path d="M315.9 471.25L513.4 471.25L513.4 471.25L513.4 507.4L513.4 507.4L315.9 507.4z" /></clipPath><clipPath id="15"><path d="M61.7 469.65L523.85 469.65L523.85 469.65L523.85 723.85L523.85 723.85L61.7 723.85z" /></clipPath><clipPath id="16"><path d="M72.4 507.4L270.5 507.4L270.5 507.4L270.5 614.65L270.5 614.65L72.4 614.65z" /></clipPath><clipPath id="17"><path d="M61.7 469.65L523.85 469.65L523.85 469.65L523.85 723.85L523.85 723.85L61.7 723.85z" /></clipPath><clipPath id="18"><path d="M270.45 507.4L315.95 507.4L315.95 507.4L315.95 614.65L315.95 614.65L270.45 614.65z" /></clipPath><clipPath id="19"><path d="M61.7 469.65L523.85 469.65L523.85 469.65L523.85 723.85L523.85 723.85L61.7 723.85z" /></clipPath><clipPath id="20"><path d="M315.9 507.4L513.4 507.4L513.4 507.4L513.4 614.65L513.4 614.65L315.9 614.65z" /></clipPath><clipPath id="21"><path d="M61.7 469.65L523.85 469.65L523.85 469.65L523.85 723.85L523.85 723.85L61.7 723.85z" /></clipPath><clipPath id="22"><path d="M72.4 614.65L270.5 614.65L270.5 614.65L270.5 722.3L270.5 722.3L72.4 722.3z" /></clipPath><clipPath id="23"><path d="M61.7 469.65L523.85 469.65L523.85 469.65L523.85 723.85L523.85 723.85L61.7 723.85z" /></clipPath><clipPath id="24"><path d="M270.45 614.65L315.95 614.65L315.95 614.65L315.95 722.3L315.95 722.3L270.45 722.3z" /></clipPath><clipPath id="25"><path d="M61.7 469.65L523.85 469.65L523.85 469.65L523.85 723.85L523.85 723.85L61.7 723.85z" /></clipPath><clipPath id="26"><path d="M315.9 614.65L513.4 614.65L513.4 614.65L513.4 722.3L513.4 722.3L315.9 722.3z" /></clipPath><clipPath id="27"><path d="M61.7 469.65L523.85 469.65L523.85 469.65L523.85 723.85L523.85 723.85L61.7 723.85z" /></clipPath><clipPath id="28"><path d="M0 0L595 0L595 0L595 842L595 842L0 842z" /></clipPath><clipPath id="29"><path d="M0 0L595 0L595 0L595 842L595 842L0 842z" /></clipPath><clipPath id="30"><path d="M60.65 159.05L171.65 159.05L171.65 159.05L171.65 257.15L171.65 257.15L60.65 257.15z" /></clipPath></defs><g transform="matrix(1.333333 0 0 1.333333 0 0)"><g><g clip-path="url(#1)"><g clip-path="url(#2)"><g clip-path="url(#3)"><g transform="matrix(0.8393296 0 0 0.84 0 -0.8399658)"><g transform="matrix(1 0 0 1 0 0)"><image x="0" y="0" xlink:href="img_11.png" width="716" height="47" /></g></g></g></g><g clip-path="url(#4)"><path transform="matrix(1 0 0 -1 0 842)" d="M28.8 537.68L28.8 441.68L28.8 441.68L566.4 441.68L566.4 441.68L566.4 537.68L566.4 537.68L28.8 537.68" stroke="none" fill="#F8F8F8" fill-rule="evenodd" /></g><g clip-path="url(#5)"><g clip-path="url(#6)"></g></g><g clip-path="url(#7)"></g><g clip-path="url(#8)"><g clip-path="url(#9)"><g clip-path="url(#10)"><path transform="matrix(1 0 0 -1 0 842)" d="M72.4 370.6L270.5 370.6L270.5 370.6L270.5 334.45L270.5 334.45L72.4 334.45z" stroke="none" fill="#EEEEEE" fill-rule="evenodd" /></g></g></g><g clip-path="url(#11)"><g clip-path="url(#12)"><path transform="matrix(1 0 0 -1 0 842)" d="M270.45 370.6L315.95 370.6L315.95 370.6L315.95 334.45L315.95 334.45L270.45 334.45z" stroke="none" fill="#EEEEEE" fill-rule="evenodd" /></g></g><g clip-path="url(#13)"><g clip-path="url(#14)"><path transform="matrix(1 0 0 -1 0 842)" d="M315.9 370.6L513.4 370.6L513.4 370.6L513.4 334.45L513.4 334.45L315.9 334.45z" stroke="none" fill="#EEEEEE" fill-rule="evenodd" /></g></g><g clip-path="url(#15)"><g clip-path="url(#16)"><g transform="matrix(0.6738462 0 0 0.6857144 86.52 562.3199)"><g transform="matrix(1 0 0 1 0 0)"><image x="0" y="0" xlink:href="img_12.png" width="13" height="14" /></g></g></g></g><g clip-path="url(#17)"><g clip-path="url(#18)"></g></g><g clip-path="url(#19)"><g clip-path="url(#20)"></g></g><g clip-path="url(#21)"><g clip-path="url(#22)"><g transform="matrix(0.6738462 0 0 0.7384616 84.96 669.72)"><g transform="matrix(1 0 0 1 0 0)"><image x="0" y="0" xlink:href="img_13.png" width="13" height="13" /></g></g></g></g><g clip-path="url(#23)"><g clip-path="url(#24)"></g></g><g clip-path="url(#25)"><g clip-path="url(#26)"></g></g><g clip-path="url(#27)"><path transform="matrix(1 0 0 -1 0 842)" d="M72.28 370.63L513.47 370.63" stroke="#DDDDDD" stroke-width="0.24" fill="none" /><path transform="matrix(1 0 0 -1 0 842)" d="M72.28 334.48L513.47 334.48" stroke="#DDDDDD" stroke-width="0.24" fill="none" /><path transform="matrix(1 0 0 -1 0 842)" d="M72.28 227.23L513.47 227.23" stroke="#DDDDDD" stroke-width="0.24" fill="none" /><path transform="matrix(1 0 0 -1 0 842)" d="M72.28 119.88L513.47 119.88" stroke="#DDDDDD" stroke-width="0.24" fill="none" /><path transform="matrix(1 0 0 -1 0 842)" d="M72.4 370.75L72.4 120" stroke="#DDDDDD" stroke-width="0.24" fill="none" /><path transform="matrix(1 0 0 -1 0 842)" d="M270.45 370.75L270.45 120" stroke="#DDDDDD" stroke-width="0.24" fill="none" /><path transform="matrix(1 0 0 -1 0 842)" d="M315.9 370.75L315.9 120" stroke="#DDDDDD" stroke-width="0.24" fill="none" /><path transform="matrix(1 0 0 -1 0 842)" d="M513.35 370.75L513.35 120" stroke="#DDDDDD" stroke-width="0.24" fill="none" /></g><g clip-path="url(#28)"><path transform="matrix(1 0 0 -1 0 842)" d="M33.24 635.36C 33.25 680.737 71.194 717.55 118 717.55C 164.806 717.55 202.75 680.737 202.75 635.325C 202.75 589.913 164.806 553.1 118 553.1C 71.194 553.1 33.25 589.913 33.24 635.36" stroke="none" fill="#DCE6F2" fill-rule="evenodd" /><path transform="matrix(1 0 0 -1 0 842)" d="M60.6 686.6L171.6 686.6L171.6 686.6L171.6 581.24L171.6 581.24L60.6 581.24z" stroke="none" fill="#DCE6F2" fill-rule="evenodd" /></g><g clip-path="url(#29)"><g clip-path="url(#30)"></g></g></g></g></g></svg>