<svg xmlns="http://www.w3.org/2000/svg" xmlns:xlink="http://www.w3.org/1999/xlink" id="body_6"
     preserveAspectRatio="xMinYMin meet" viewBox="0 0 793 1123">
    <defs>
        <clipPath id="1">
            <path d="M0 842L0 0L0 0L595 0L595 0L595 842L595 842L0 842z"/>
        </clipPath>
        <clipPath id="2">
            <path d="M0 0L595 0L595 0L595 842L595 842L0 842z"/>
        </clipPath>
        <clipPath id="3">
            <path d="M-1638.4 0L2233.35 0L2233.35 0L2233.35 39.40002L2233.35 39.40002L-1638.4 39.40002z"/>
        </clipPath>
        <clipPath id="4">
            <path d="M0 0L595 0L595 0L595 842L595 842L0 842z"/>
        </clipPath>
        <clipPath id="5">
            <path d="M0 0L595 0L595 0L595 842L595 842L0 842z"/>
        </clipPath>
        <clipPath id="6">
            <path d="M39.9 82.45001L64.7 82.45001L64.7 82.45001L64.7 111L64.7 111L39.9 111z"/>
        </clipPath>
        <clipPath id="7">
            <path d="M0 0L595 0L595 0L595 842L595 842L0 842z"/>
        </clipPath>
        <clipPath id="8">
            <path d="M64.65 82.45001L161.9 82.45001L161.9 82.45001L161.9 111L161.9 111L64.65 111z"/>
        </clipPath>
        <clipPath id="9">
            <path d="M0 0L595 0L595 0L595 842L595 842L0 842z"/>
        </clipPath>
        <clipPath id="10">
            <path d="M161.85 82.45001L468.55 82.45001L468.55 82.45001L468.55 111L468.55 111L161.85 111z"/>
        </clipPath>
        <clipPath id="11">
            <path d="M0 0L595 0L595 0L595 842L595 842L0 842z"/>
        </clipPath>
        <clipPath id="12">
            <path d="M468.5 82.45001L567.85 82.45001L567.85 82.45001L567.85 111L567.85 111L468.5 111z"/>
        </clipPath>
        <clipPath id="13">
            <path d="M0 0L595 0L595 0L595 842L595 842L0 842z"/>
        </clipPath>
        <clipPath id="14">
            <path d="M39.9 111L567.85 111L567.85 111L567.85 171.9L567.85 171.9L39.9 171.9z"/>
        </clipPath>
        <clipPath id="15">
            <path d="M0 0L595 0L595 0L595 842L595 842L0 842z"/>
        </clipPath>
        <clipPath id="16">
            <path d="M39.9 171.9L64.7 171.9L64.7 171.9L64.7 247.6L64.7 247.6L39.9 247.6z"/>
        </clipPath>
        <clipPath id="17">
            <path d="M0 0L595 0L595 0L595 842L595 842L0 842z"/>
        </clipPath>
        <clipPath id="18">
            <path d="M64.65 171.9L161.9 171.9L161.9 171.9L161.9 247.6L161.9 247.6L64.65 247.6z"/>
        </clipPath>
        <clipPath id="19">
            <path d="M0 0L595 0L595 0L595 842L595 842L0 842z"/>
        </clipPath>
        <clipPath id="20">
            <path d="M161.85 171.9L468.55 171.9L468.55 171.9L468.55 247.6L468.55 247.6L161.85 247.6z"/>
        </clipPath>
        <clipPath id="21">
            <path d="M0 0L595 0L595 0L595 842L595 842L0 842z"/>
        </clipPath>
        <clipPath id="22">
            <path d="M468.5 171.9L567.85 171.9L567.85 171.9L567.85 247.6L567.85 247.6L468.5 247.6z"/>
        </clipPath>
        <clipPath id="23">
            <path d="M0 0L595 0L595 0L595 842L595 842L0 842z"/>
        </clipPath>
        <clipPath id="24">
            <path d="M39.9 247.6L567.85 247.6L567.85 247.6L567.85 308.5L567.85 308.5L39.9 308.5z"/>
        </clipPath>
        <clipPath id="25">
            <path d="M0 0L595 0L595 0L595 842L595 842L0 842z"/>
        </clipPath>
        <clipPath id="26">
            <path d="M39.9 308.5L567.85 308.5L567.85 308.5L567.85 369.4L567.85 369.4L39.9 369.4z"/>
        </clipPath>
        <clipPath id="27">
            <path d="M0 0L595 0L595 0L595 842L595 842L0 842z"/>
        </clipPath>
        <clipPath id="28">
            <path d="M39.9 369.4L64.7 369.4L64.7 369.4L64.7 445.1L64.7 445.1L39.9 445.1z"/>
        </clipPath>
        <clipPath id="29">
            <path d="M0 0L595 0L595 0L595 842L595 842L0 842z"/>
        </clipPath>
        <clipPath id="30">
            <path d="M64.65 369.4L161.9 369.4L161.9 369.4L161.9 445.1L161.9 445.1L64.65 445.1z"/>
        </clipPath>
        <clipPath id="31">
            <path d="M0 0L595 0L595 0L595 842L595 842L0 842z"/>
        </clipPath>
        <clipPath id="32">
            <path d="M161.85 369.4L468.55 369.4L468.55 369.4L468.55 445.1L468.55 445.1L161.85 445.1z"/>
        </clipPath>
        <clipPath id="33">
            <path d="M0 0L595 0L595 0L595 842L595 842L0 842z"/>
        </clipPath>
        <clipPath id="34">
            <path d="M468.5 369.4L567.85 369.4L567.85 369.4L567.85 445.1L567.85 445.1L468.5 445.1z"/>
        </clipPath>
        <clipPath id="35">
            <path d="M0 0L595 0L595 0L595 842L595 842L0 842z"/>
        </clipPath>
        <clipPath id="36">
            <path d="M39.9 445.15L567.85 445.15L567.85 445.15L567.85 506.3L567.85 506.3L39.9 506.3z"/>
        </clipPath>
        <clipPath id="37">
            <path d="M0 0L595 0L595 0L595 842L595 842L0 842z"/>
        </clipPath>
        <clipPath id="38">
            <path d="M39.9 506.3L567.85 506.3L567.85 506.3L567.85 567.45L567.85 567.45L39.9 567.45z"/>
        </clipPath>
        <clipPath id="39">
            <path d="M0 0L595 0L595 0L595 842L595 842L0 842z"/>
        </clipPath>
        <clipPath id="40">
            <path d="M39.9 567.45L64.7 567.45L64.7 567.45L64.7 643.15L64.7 643.15L39.9 643.15z"/>
        </clipPath>
        <clipPath id="41">
            <path d="M0 0L595 0L595 0L595 842L595 842L0 842z"/>
        </clipPath>
        <clipPath id="42">
            <path d="M64.65 567.45L161.9 567.45L161.9 567.45L161.9 643.15L161.9 643.15L64.65 643.15z"/>
        </clipPath>
        <clipPath id="43">
            <path d="M0 0L595 0L595 0L595 842L595 842L0 842z"/>
        </clipPath>
        <clipPath id="44">
            <path d="M161.85 567.45L468.55 567.45L468.55 567.45L468.55 643.15L468.55 643.15L161.85 643.15z"/>
        </clipPath>
        <clipPath id="45">
            <path d="M0 0L595 0L595 0L595 842L595 842L0 842z"/>
        </clipPath>
        <clipPath id="46">
            <path d="M468.5 567.45L567.85 567.45L567.85 567.45L567.85 643.15L567.85 643.15L468.5 643.15z"/>
        </clipPath>
        <clipPath id="47">
            <path d="M0 0L595 0L595 0L595 842L595 842L0 842z"/>
        </clipPath>
        <clipPath id="48">
            <path d="M39.9 643.15L567.85 643.15L567.85 643.15L567.85 704.6L567.85 704.6L39.9 704.6z"/>
        </clipPath>
        <clipPath id="49">
            <path d="M0 0L595 0L595 0L595 842L595 842L0 842z"/>
        </clipPath>
    </defs>
    <g transform="matrix(1.333333 0 0 1.333333 0 0)">
        <g>
            <g clip-path="url(#1)">
                <g clip-path="url(#2)">
                    <g clip-path="url(#3)">
                        <g transform="matrix(0.8393296 0 0 0.84 0 -0.8399658)">
                            <g transform="matrix(1 0 0 1 0 0)">
                                <image x="0" y="0" xlink:href="img_11.png" width="716" height="47"/>
                            </g>
                        </g>
                    </g>
                </g>
            </g>
        </g>
    </g>
</svg>
