<svg xmlns="http://www.w3.org/2000/svg" xmlns:xlink="http://www.w3.org/1999/xlink" id="body_7"
     preserveAspectRatio="xMinYMin meet" viewBox="0 0 793 1123">
    <defs>
        <clipPath id="1">
            <path d="M0 842L0 0L0 0L595 0L595 0L595 842L595 842L0 842z"/>
        </clipPath>
        <clipPath id="2">
            <path d="M0 0L595 0L595 0L595 842L595 842L0 842z"/>
        </clipPath>
        <clipPath id="3">
            <path d="M-1638.4 0L2233.35 0L2233.35 0L2233.35 39.40002L2233.35 39.40002L-1638.4 39.40002z"/>
        </clipPath>
        <clipPath id="4">
            <path d="M0 0L595 0L595 0L595 842L595 842L0 842z"/>
        </clipPath>
        <clipPath id="5">
            <path d="M0 0L595 0L595 0L595 842L595 842L0 842z"/>
        </clipPath>
        <clipPath id="6">
            <path d="M39.15 112.7L64.3 112.7L64.3 112.7L64.3 141.25L64.3 141.25L39.15 141.25z"/>
        </clipPath>
        <clipPath id="7">
            <path d="M0 0L595 0L595 0L595 842L595 842L0 842z"/>
        </clipPath>
        <clipPath id="8">
            <path d="M64.25 112.7L162.2 112.7L162.2 112.7L162.2 141.25L162.2 141.25L64.25 141.25z"/>
        </clipPath>
        <clipPath id="9">
            <path d="M0 0L595 0L595 0L595 842L595 842L0 842z"/>
        </clipPath>
        <clipPath id="10">
            <path d="M162.15 112.7L470.55 112.7L470.55 112.7L470.55 141.25L470.55 141.25L162.15 141.25z"/>
        </clipPath>
        <clipPath id="11">
            <path d="M0 0L595 0L595 0L595 842L595 842L0 842z"/>
        </clipPath>
        <clipPath id="12">
            <path d="M470.5 112.7L554.95 112.7L554.95 112.7L554.95 141.25L554.95 141.25L470.5 141.25z"/>
        </clipPath>
        <clipPath id="13">
            <path d="M0 0L595 0L595 0L595 842L595 842L0 842z"/>
        </clipPath>
        <clipPath id="14">
            <path d="M39.15 141.25L554.95 141.25L554.95 141.25L554.95 202.15L554.95 202.15L39.15 202.15z"/>
        </clipPath>
        <clipPath id="15">
            <path d="M0 0L595 0L595 0L595 842L595 842L0 842z"/>
        </clipPath>
        <clipPath id="16">
            <path d="M39.15 202.15L64.3 202.15L64.3 202.15L64.3 277.85L64.3 277.85L39.15 277.85z"/>
        </clipPath>
        <clipPath id="17">
            <path d="M0 0L595 0L595 0L595 842L595 842L0 842z"/>
        </clipPath>
        <clipPath id="18">
            <path d="M64.25 202.15L162.2 202.15L162.2 202.15L162.2 277.85L162.2 277.85L64.25 277.85z"/>
        </clipPath>
        <clipPath id="19">
            <path d="M0 0L595 0L595 0L595 842L595 842L0 842z"/>
        </clipPath>
        <clipPath id="20">
            <path d="M162.15 202.15L470.55 202.15L470.55 202.15L470.55 277.85L470.55 277.85L162.15 277.85z"/>
        </clipPath>
        <clipPath id="21">
            <path d="M0 0L595 0L595 0L595 842L595 842L0 842z"/>
        </clipPath>
        <clipPath id="22">
            <path d="M470.5 202.15L554.95 202.15L554.95 202.15L554.95 277.85L554.95 277.85L470.5 277.85z"/>
        </clipPath>
        <clipPath id="23">
            <path d="M0 0L595 0L595 0L595 842L595 842L0 842z"/>
        </clipPath>
        <clipPath id="24">
            <path d="M39.15 277.9L554.95 277.9L554.95 277.9L554.95 338.8L554.95 338.8L39.15 338.8z"/>
        </clipPath>
        <clipPath id="25">
            <path d="M0 0L595 0L595 0L595 842L595 842L0 842z"/>
        </clipPath>
        <clipPath id="26">
            <path d="M39.15 338.8L554.95 338.8L554.95 338.8L554.95 399.7L554.95 399.7L39.15 399.7z"/>
        </clipPath>
        <clipPath id="27">
            <path d="M0 0L595 0L595 0L595 842L595 842L0 842z"/>
        </clipPath>
        <clipPath id="28">
            <path d="M39.15 399.7L64.3 399.7L64.3 399.7L64.3 475.4L64.3 475.4L39.15 475.4z"/>
        </clipPath>
        <clipPath id="29">
            <path d="M0 0L595 0L595 0L595 842L595 842L0 842z"/>
        </clipPath>
        <clipPath id="30">
            <path d="M64.25 399.7L162.2 399.7L162.2 399.7L162.2 475.4L162.2 475.4L64.25 475.4z"/>
        </clipPath>
        <clipPath id="31">
            <path d="M0 0L595 0L595 0L595 842L595 842L0 842z"/>
        </clipPath>
        <clipPath id="32">
            <path d="M162.15 399.7L470.55 399.7L470.55 399.7L470.55 475.4L470.55 475.4L162.15 475.4z"/>
        </clipPath>
        <clipPath id="33">
            <path d="M0 0L595 0L595 0L595 842L595 842L0 842z"/>
        </clipPath>
        <clipPath id="34">
            <path d="M470.5 399.7L554.95 399.7L554.95 399.7L554.95 475.4L554.95 475.4L470.5 475.4z"/>
        </clipPath>
        <clipPath id="35">
            <path d="M0 0L595 0L595 0L595 842L595 842L0 842z"/>
        </clipPath>
        <clipPath id="36">
            <path d="M39.15 475.4L554.95 475.4L554.95 475.4L554.95 536.85L554.95 536.85L39.15 536.85z"/>
        </clipPath>
        <clipPath id="37">
            <path d="M0 0L595 0L595 0L595 842L595 842L0 842z"/>
        </clipPath>
    </defs>
    <g transform="matrix(1.333333 0 0 1.333333 0 0)">
        <g>
            <g clip-path="url(#1)">
                <g clip-path="url(#2)">
                    <g clip-path="url(#3)">
                        <g transform="matrix(0.8393296 0 0 0.84 0 -0.8399658)">
                            <g transform="matrix(1 0 0 1 0 0)">
                                <image x="0" y="0" xlink:href="img_11.png" width="716" height="47"/>
                            </g>
                        </g>
                    </g>
                </g>
                <g clip-path="url(#4)"></g>
            </g>
        </g>
    </g>
</svg>
