<svg xmlns="http://www.w3.org/2000/svg" xmlns:xlink="http://www.w3.org/1999/xlink" id="body_8" preserveAspectRatio="xMinYMin meet" viewBox="0 0 793 1123"><defs><clipPath id="1"><path d="M0 842L0 0L0 0L595 0L595 0L595 842L595 842L0 842z" /></clipPath><clipPath id="2"><path d="M0 0L595 0L595 0L595 842L595 842L0 842z" /></clipPath><clipPath id="3"><path d="M-1638.4 0L2233.35 0L2233.35 0L2233.35 39.40002L2233.35 39.40002L-1638.4 39.40002z" /></clipPath><clipPath id="4"><path d="M0 0L595 0L595 0L595 842L595 842L0 842z" /></clipPath><clipPath id="5"><path d="M0 0L595 0L595 0L595 842L595 842L0 842z" /></clipPath><clipPath id="6"><path d="M28.9 103.25L89.15 103.25L89.15 103.25L89.15 139.45L89.15 139.45L28.9 139.45z" /></clipPath><clipPath id="7"><path d="M0 0L595 0L595 0L595 842L595 842L0 842z" /></clipPath><clipPath id="8"><path d="M89.1 103.25L566.3 103.25L566.3 103.25L566.3 139.45L566.3 139.45L89.1 139.45z" /></clipPath><clipPath id="9"><path d="M0 0L595 0L595 0L595 842L595 842L0 842z" /></clipPath><clipPath id="10"><path d="M28.9 139.45L89.15 139.45L89.15 139.45L89.15 167.7L89.15 167.7L28.9 167.7z" /></clipPath><clipPath id="11"><path d="M0 0L595 0L595 0L595 842L595 842L0 842z" /></clipPath><clipPath id="12"><path d="M89.1 139.45L566.3 139.45L566.3 139.45L566.3 167.7L566.3 167.7L89.1 167.7z" /></clipPath><clipPath id="13"><path d="M0 0L595 0L595 0L595 842L595 842L0 842z" /></clipPath><clipPath id="14"><path d="M28.9 167.7L89.15 167.7L89.15 167.7L89.15 195.95L89.15 195.95L28.9 195.95z" /></clipPath><clipPath id="15"><path d="M0 0L595 0L595 0L595 842L595 842L0 842z" /></clipPath><clipPath id="16"><path d="M89.1 167.7L566.3 167.7L566.3 167.7L566.3 195.95L566.3 195.95L89.1 195.95z" /></clipPath><clipPath id="17"><path d="M0 0L595 0L595 0L595 842L595 842L0 842z" /></clipPath><clipPath id="18"><path d="M28.9 195.95L89.15 195.95L89.15 195.95L89.15 224.55L89.15 224.55L28.9 224.55z" /></clipPath><clipPath id="19"><path d="M0 0L595 0L595 0L595 842L595 842L0 842z" /></clipPath><clipPath id="20"><path d="M89.1 195.95L566.3 195.95L566.3 195.95L566.3 224.55L566.3 224.55L89.1 224.55z" /></clipPath><clipPath id="21"><path d="M0 0L595 0L595 0L595 842L595 842L0 842z" /></clipPath><clipPath id="22"><path d="M0 0L595 0L595 0L595 842L595 842L0 842z" /></clipPath><clipPath id="23"><path d="M28.9 294.3L89.15 294.3L89.15 294.3L89.15 330.5L89.15 330.5L28.9 330.5z" /></clipPath><clipPath id="24"><path d="M0 0L595 0L595 0L595 842L595 842L0 842z" /></clipPath><clipPath id="25"><path d="M89.1 294.3L238.85 294.3L238.85 294.3L238.85 330.5L238.85 330.5L89.1 330.5z" /></clipPath><clipPath id="26"><path d="M0 0L595 0L595 0L595 842L595 842L0 842z" /></clipPath><clipPath id="27"><path d="M238.8 294.3L566.3 294.3L566.3 294.3L566.3 330.5L566.3 330.5L238.8 330.5z" /></clipPath><clipPath id="28"><path d="M0 0L595 0L595 0L595 842L595 842L0 842z" /></clipPath><clipPath id="29"><path d="M0 0L595 0L595 0L595 842L595 842L0 842z" /></clipPath><clipPath id="30"><path d="M34.95 340.048L84.95 340.048L84.95 340.048L84.95 363.198L84.95 363.198L34.95 363.198z" /></clipPath><clipPath id="31"><path d="M0 0L595 0L595 0L595 842L595 842L0 842z" /></clipPath><clipPath id="32"><path d="M89.1 330.5L238.85 330.5L238.85 330.5L238.85 375.05L238.85 375.05L89.1 375.05z" /></clipPath><clipPath id="33"><path d="M0 0L595 0L595 0L595 842L595 842L0 842z" /></clipPath><clipPath id="34"><path d="M238.8 330.5L566.3 330.5L566.3 330.5L566.3 375.05L566.3 375.05L238.8 375.05z" /></clipPath><clipPath id="35"><path d="M0 0L595 0L595 0L595 842L595 842L0 842z" /></clipPath><clipPath id="36"><path d="M0 0L595 0L595 0L595 842L595 842L0 842z" /></clipPath><clipPath id="37"><path d="M34.95 384.698L84.95 384.698L84.95 384.698L84.95 407.848L84.95 407.848L34.95 407.848z" /></clipPath><clipPath id="38"><path d="M0 0L595 0L595 0L595 842L595 842L0 842z" /></clipPath><clipPath id="39"><path d="M89.1 375.05L238.85 375.05L238.85 375.05L238.85 419.6L238.85 419.6L89.1 419.6z" /></clipPath><clipPath id="40"><path d="M0 0L595 0L595 0L595 842L595 842L0 842z" /></clipPath><clipPath id="41"><path d="M238.8 375.05L566.3 375.05L566.3 375.05L566.3 419.6L566.3 419.6L238.8 419.6z" /></clipPath><clipPath id="42"><path d="M0 0L595 0L595 0L595 842L595 842L0 842z" /></clipPath><clipPath id="43"><path d="M0 0L595 0L595 0L595 842L595 842L0 842z" /></clipPath><clipPath id="44"><path d="M34.95 423.548L84.95 423.548L84.95 423.548L84.95 446.698L84.95 446.698L34.95 446.698z" /></clipPath><clipPath id="45"><path d="M0 0L595 0L595 0L595 842L595 842L0 842z" /></clipPath><clipPath id="46"><path d="M89.1 419.6L238.85 419.6L238.85 419.6L238.85 453.2L238.85 453.2L89.1 453.2z" /></clipPath><clipPath id="47"><path d="M0 0L595 0L595 0L595 842L595 842L0 842z" /></clipPath><clipPath id="48"><path d="M238.8 419.6L566.3 419.6L566.3 419.6L566.3 453.2L566.3 453.2L238.8 453.2z" /></clipPath><clipPath id="49"><path d="M0 0L595 0L595 0L595 842L595 842L0 842z" /></clipPath></defs><g transform="matrix(1.333333 0 0 1.333333 0 0)"><g><g clip-path="url(#1)"><g clip-path="url(#2)"><g clip-path="url(#3)"><g transform="matrix(0.8393296 0 0 0.84 0 -0.8399658)"><g transform="matrix(1 0 0 1 0 0)"><image x="0" y="0" xlink:href="img_11.png" width="716" height="47" /></g></g></g></g><g clip-path="url(#4)"></g><g clip-path="url(#5)"><g clip-path="url(#6)"><path transform="matrix(1 0 0 -1 0 842)" d="M28.9 738.6L89.15 738.6L89.15 738.6L89.15 702.4L89.15 702.4L28.9 702.4z" stroke="none" fill="#EEEEEE" fill-rule="evenodd" /></g></g><g clip-path="url(#7)"><g clip-path="url(#8)"><path transform="matrix(1 0 0 -1 0 842)" d="M89.1 738.6L566.3 738.6L566.3 738.6L566.3 702.4L566.3 702.4L89.1 702.4z" stroke="none" fill="#EEEEEE" fill-rule="evenodd" /></g></g><g clip-path="url(#9)"><g clip-path="url(#10)"></g></g><g clip-path="url(#11)"><g clip-path="url(#12)"></g></g><g clip-path="url(#13)"><g clip-path="url(#14)"></g></g><g clip-path="url(#15)"><g clip-path="url(#16)"></g></g><g clip-path="url(#17)"><g clip-path="url(#18)"></g></g><g clip-path="url(#19)"><g clip-path="url(#20)"></g></g><g clip-path="url(#21)"><path transform="matrix(1 0 0 -1 0 842)" d="M28.78 738.58L566.37 738.58" stroke="#DDDDDD" stroke-width="0.24" fill="none" /><path transform="matrix(1 0 0 -1 0 842)" d="M28.78 702.38L566.37 702.38" stroke="#DDDDDD" stroke-width="0.24" fill="none" /><path transform="matrix(1 0 0 -1 0 842)" d="M28.78 674.13L566.37 674.13" stroke="#DDDDDD" stroke-width="0.24" fill="none" /><path transform="matrix(1 0 0 -1 0 842)" d="M28.78 645.88L566.37 645.88" stroke="#DDDDDD" stroke-width="0.24" fill="none" /><path transform="matrix(1 0 0 -1 0 842)" d="M28.78 617.58L566.37 617.58" stroke="#DDDDDD" stroke-width="0.24" fill="none" /><path transform="matrix(1 0 0 -1 0 842)" d="M28.9 738.7L28.9 617.7" stroke="#DDDDDD" stroke-width="0.24" fill="none" /><path transform="matrix(1 0 0 -1 0 842)" d="M89.1 738.7L89.1 617.7" stroke="#DDDDDD" stroke-width="0.24" fill="none" /><path transform="matrix(1 0 0 -1 0 842)" d="M566.25 738.7L566.25 617.7" stroke="#DDDDDD" stroke-width="0.24" fill="none" /></g><g clip-path="url(#22)"><g clip-path="url(#23)"><path transform="matrix(1 0 0 -1 0 842)" d="M28.9 547.55L89.15 547.55L89.15 547.55L89.15 511.35L89.15 511.35L28.9 511.35z" stroke="none" fill="#EEEEEE" fill-rule="evenodd" /></g></g><g clip-path="url(#24)"><g clip-path="url(#25)"><path transform="matrix(1 0 0 -1 0 842)" d="M89.1 547.55L238.85 547.55L238.85 547.55L238.85 511.35L238.85 511.35L89.1 511.35z" stroke="none" fill="#EEEEEE" fill-rule="evenodd" /></g></g><g clip-path="url(#26)"><g clip-path="url(#27)"><path transform="matrix(1 0 0 -1 0 842)" d="M238.8 547.55L566.3 547.55L566.3 547.55L566.3 511.35L566.3 511.35L238.8 511.35z" stroke="none" fill="#EEEEEE" fill-rule="evenodd" /></g></g><g clip-path="url(#28)"><path transform="matrix(1 0 0 -1 0 842)" d="M46.56 500.96L73.32 500.96C 79.2 500.95 83.95 496.239 83.95 490.375C 83.95 484.561 79.2 479.8 73.32 479.84L73.32 479.84L46.56 479.84C 40.65 479.8 35.95 484.561 35.95 490.375C 35.95 496.239 40.65 500.95 46.56 500.96" stroke="none" fill="#FFCCCC" fill-rule="evenodd" /></g><g clip-path="url(#29)"><g clip-path="url(#30)"></g></g><g clip-path="url(#31)"><g clip-path="url(#32)"></g></g><g clip-path="url(#33)"><g clip-path="url(#34)"></g></g><g clip-path="url(#35)"><path transform="matrix(1 0 0 -1 0 842)" d="M46.56 456.32L73.32 456.32C 79.2 456.3 83.95 451.589 83.95 445.725C 83.95 439.911 79.2 435.15 73.32 435.2L73.32 435.2L46.56 435.2C 40.65 435.15 35.95 439.911 35.95 445.725C 35.95 451.589 40.65 456.3 46.56 456.32" stroke="none" fill="#FFE396" fill-rule="evenodd" /></g><g clip-path="url(#36)"><g clip-path="url(#37)"></g></g><g clip-path="url(#38)"><g clip-path="url(#39)"></g></g><g clip-path="url(#40)"><g clip-path="url(#41)"></g></g><g clip-path="url(#42)"><path transform="matrix(1 0 0 -1 0 842)" d="M46.56 417.44L73.32 417.44C 79.2 417.45 83.95 412.739 83.95 406.875C 83.95 401.061 79.2 396.3 73.32 396.32L73.32 396.32L46.56 396.32C 40.65 396.3 35.95 401.061 35.95 406.875C 35.95 412.739 40.65 417.45 46.56 417.44" stroke="none" fill="#FFF0D6" fill-rule="evenodd" /></g><g clip-path="url(#43)"><g clip-path="url(#44)"></g></g><g clip-path="url(#45)"><g clip-path="url(#46)"></g></g><g clip-path="url(#47)"><g clip-path="url(#48)"></g></g><g clip-path="url(#49)"><path transform="matrix(1 0 0 -1 0 842)" d="M28.78 547.58L566.37 547.58" stroke="#DDDDDD" stroke-width="0.24" fill="none" /><path transform="matrix(1 0 0 -1 0 842)" d="M28.78 511.38L566.37 511.38" stroke="#DDDDDD" stroke-width="0.24" fill="none" /><path transform="matrix(1 0 0 -1 0 842)" d="M28.78 466.83L566.37 466.83" stroke="#DDDDDD" stroke-width="0.24" fill="none" /><path transform="matrix(1 0 0 -1 0 842)" d="M28.78 422.28L566.37 422.28" stroke="#DDDDDD" stroke-width="0.24" fill="none" /><path transform="matrix(1 0 0 -1 0 842)" d="M28.78 388.98L566.37 388.98" stroke="#DDDDDD" stroke-width="0.24" fill="none" /><path transform="matrix(1 0 0 -1 0 842)" d="M28.9 547.7L28.9 389.1" stroke="#DDDDDD" stroke-width="0.24" fill="none" /><path transform="matrix(1 0 0 -1 0 842)" d="M89.1 547.7L89.1 389.1" stroke="#DDDDDD" stroke-width="0.24" fill="none" /><path transform="matrix(1 0 0 -1 0 842)" d="M238.8 547.7L238.8 389.1" stroke="#DDDDDD" stroke-width="0.24" fill="none" /><path transform="matrix(1 0 0 -1 0 842)" d="M566.25 547.7L566.25 389.1" stroke="#DDDDDD" stroke-width="0.24" fill="none" /></g></g></g></g></svg>
