<svg xmlns="http://www.w3.org/2000/svg" xmlns:xlink="http://www.w3.org/1999/xlink" id="body_1" preserveAspectRatio="xMinYMin meet" viewBox="0 0 793 1123"><defs><clipPath id="1"><path d="M0 842L0 0L0 0L595 0L595 0L595 842L595 842L0 842z" /></clipPath><clipPath id="2"><path d="M0 0L595 0L595 0L595 842L595 842L0 842z" /></clipPath><clipPath id="3"><path d="M0 0L595 0L595 0L595 842L595 842L0 842z" /></clipPath><clipPath id="4"><path d="M-0.2 75.75L594.3 75.75L594.3 75.75L594.3 487.05L594.3 487.05L-0.2 487.05z" /></clipPath><clipPath id="5"><path d="M0 0L595 0L595 0L595 842L595 842L0 842z" /></clipPath></defs><g transform="matrix(1.333333 0 0 1.333333 0 0)"><g><g clip-path="url(#1)"><g clip-path="url(#2)"><g transform="matrix(0.7493199 0 0 0.7496415 0 42.59998)"><g transform="matrix(1 0 0 1 0 0)"><image x="0" y="0" xlink:href="img_01.png" width="794" height="1004" /></g></g><path transform="matrix(1 0 0 -1 0 842)" d="M3.6 809L60.96 809L60.96 809L60.96 756.56L60.96 756.56L3.6 756.56z" stroke="none" fill="#FFFFFF" fill-rule="evenodd" /><g transform="matrix(0.3269333 0 0 0.3266087 19.44 29.76001)"><g transform="matrix(1 0 0 1 0 0)"><image x="0" y="0" xlink:href="img_02.png" width="225" height="115" /></g></g><path transform="matrix(1 0 0 -1 0 842)" d="M-1.2 770.84L595.32 770.84L595.32 770.84L595.32 350.36L595.32 350.36L-1.2 350.36z" stroke="none" fill="#FFFFFF" fill-rule="evenodd" /></g><g clip-path="url(#3)"><g clip-path="url(#4)"><g transform="matrix(0.3857556 0 0 0.2849555 6.96 88.67999)"><g transform="matrix(1 0 0 1 0 0)"><image x="0" y="0" xlink:href="img_03.png" width="1244" height="1348" /></g></g></g></g><g clip-path="url(#5)"><path transform="matrix(1 0 0 -1 0 842)" d="M-1.08 344.24C -1.1 353.405 6.295 360.8 15.36 360.8L15.36 360.8L224.04 360.8C 233.105 360.8 240.5 353.405 240.48 344.24L240.48 344.24L240.48 278.24C 240.5 269.095 233.105 261.7 224.04 261.68L224.04 261.68L15.36 261.68C 6.295 261.7 -1.1 269.095 -1.08 278.24L-1.08 278.24L-1.08 344.24" stroke="none" fill="#FFFFFF" fill-rule="evenodd" /><path transform="matrix(1 0 0 -1 0 842)" d="M221.76 369.32L294 369.32L294 369.32L294 336.68L294 336.68L221.76 336.68z" stroke="none" fill="#FFFFFF" fill-rule="evenodd" /><path transform="matrix(1 0 0 -1 0 842)" d="M246.36 799.88L595.2 799.88L595.2 799.88L595.2 742.04L595.2 742.04L246.36 742.04z" stroke="none" fill="#FFFFFF" fill-rule="evenodd" /></g></g></g></g></svg>