<svg xmlns="http://www.w3.org/2000/svg" xmlns:xlink="http://www.w3.org/1999/xlink" id="body_5" preserveAspectRatio="xMinYMin meet" viewBox="0 0 793 1123"><defs><clipPath id="1"><path d="M0 842L0 0L0 0L595 0L595 0L595 842L595 842L0 842z" /></clipPath><clipPath id="2"><path d="M0 0L595 0L595 0L595 842L595 842L0 842z" /></clipPath><clipPath id="3"><path d="M-1638.4 0L2233.35 0L2233.35 0L2233.35 39.40002L2233.35 39.40002L-1638.4 39.40002z" /></clipPath><clipPath id="4"><path d="M0 0L595 0L595 0L595 842L595 842L0 842z" /></clipPath><clipPath id="5"><path d="M0 0L595 0L595 0L595 842L595 842L0 842z" /></clipPath><clipPath id="6"><path d="M-1638.4 75.59998L2233.35 75.59998L2233.35 75.59998L2233.35 99.45001L2233.35 99.45001L-1638.4 99.45001z" /></clipPath><clipPath id="7"><path d="M0 0L595 0L595 0L595 842L595 842L0 842z" /></clipPath><clipPath id="8"><path d="M0 0L595 0L595 0L595 842L595 842L0 842z" /></clipPath><clipPath id="9"><path d="M-1638.4 99.5L2233.35 99.5L2233.35 99.5L2233.35 113.95L2233.35 113.95L-1638.4 113.95z" /></clipPath><clipPath id="10"><path d="M0 0L595 0L595 0L595 842L595 842L0 842z" /></clipPath><clipPath id="11"><path d="M0 0L595 0L595 0L595 842L595 842L0 842z" /></clipPath><clipPath id="12"><path d="M-0.8 276.5L249.3 276.5L249.3 276.5L249.3 822.7L249.3 822.7L-0.8 822.7z" /></clipPath><clipPath id="13"><path d="M0 0L595 0L595 0L595 842L595 842L0 842z" /></clipPath><clipPath id="14"><path d="M-0.8 276.5L249.3 276.5L249.3 276.5L249.3 822.7L249.3 822.7L-0.8 822.7z" /></clipPath><clipPath id="15"><path d="M-1638.4 412.2L1884.7 412.2L1884.7 412.2L1884.7 454.55L1884.7 454.55L-1638.4 454.55z" /></clipPath><clipPath id="16"><path d="M0 276.5L249.3 276.5L249.3 276.5L249.3 822.7L249.3 822.7L0 822.7z" /></clipPath><clipPath id="17"><path d="M0 0L595 0L595 0L595 842L595 842L0 842z" /></clipPath><clipPath id="18"><path d="M247.7 276.5L595.8 276.5L595.8 276.5L595.8 822.7L595.8 822.7L247.7 822.7z" /></clipPath><clipPath id="19"><path d="M0 0L595 0L595 0L595 842L595 842L0 842z" /></clipPath><clipPath id="20"><path d="M247.7 276.5L595.8 276.5L595.8 276.5L595.8 822.7L595.8 822.7L247.7 822.7z" /></clipPath><clipPath id="21"><path d="M-1638.4 489.25L2233.4 489.25L2233.4 489.25L2233.4 531.6L2233.4 531.6L-1638.4 531.6z" /></clipPath><clipPath id="22"><path d="M247.7 276.5L595 276.5L595 276.5L595 822.7L595 822.7L247.7 822.7z" /></clipPath><clipPath id="23"><path d="M0 0L595 0L595 0L595 842L595 842L0 842z" /></clipPath><clipPath id="24"><path d="M352.15 583.55L412.75 583.55L412.75 583.55L412.75 634.8L412.75 634.8L352.15 634.8z" /></clipPath><clipPath id="25"><path d="M0 0L595 0L595 0L595 842L595 842L0 842z" /></clipPath><clipPath id="26"><path d="M294.4 134.25L437.85 134.25L437.85 134.25L437.85 150.8L437.85 150.8L294.4 150.8z" /></clipPath><clipPath id="27"><path d="M0 0L595 0L595 0L595 842L595 842L0 842z" /></clipPath><clipPath id="28"><path d="M414.75 135.2L505.25 135.2L505.25 135.2L505.25 151.55L505.25 151.55L414.75 151.55z" /></clipPath><clipPath id="29"><path d="M0 0L595 0L595 0L595 842L595 842L0 842z" /></clipPath><clipPath id="30"><path d="M0 0L595 0L595 0L595 842L595 842L0 842z" /></clipPath><clipPath id="31"><path d="M44.9 134.15L150.1 134.15L150.1 134.15L150.1 150.7L150.1 150.7L44.9 150.7z" /></clipPath><clipPath id="32"><path d="M0 0L595 0L595 0L595 842L595 842L0 842z" /></clipPath><clipPath id="33"><path d="M0 0L595 0L595 0L595 842L595 842L0 842z" /></clipPath><clipPath id="34"><path d="M158.5 134.35L255.05 134.35L255.05 134.35L255.05 150.7L255.05 150.7L158.5 150.7z" /></clipPath><clipPath id="35"><path d="M0 0L595 0L595 0L595 842L595 842L0 842z" /></clipPath><clipPath id="36"><path d="M292.75 180.65L387.9 180.65L387.9 180.65L387.9 197.2L387.9 197.2L292.75 197.2z" /></clipPath><clipPath id="37"><path d="M0 0L595 0L595 0L595 842L595 842L0 842z" /></clipPath><clipPath id="38"><path d="M386.45 180.8L504.35 180.8L504.35 180.8L504.35 197.15L504.35 197.15L386.45 197.15z" /></clipPath><clipPath id="39"><path d="M0 0L595 0L595 0L595 842L595 842L0 842z" /></clipPath><clipPath id="40"><path d="M0 0L595 0L595 0L595 842L595 842L0 842z" /></clipPath><clipPath id="41"><path d="M44.55 182.2L150.2 182.2L150.2 182.2L150.2 198.75L150.2 198.75L44.55 198.75z" /></clipPath><clipPath id="42"><path d="M0 0L595 0L595 0L595 842L595 842L0 842z" /></clipPath><clipPath id="43"><path d="M151.1 180.85L255.15 180.85L255.15 180.85L255.15 198.65L255.15 198.65L151.1 198.65z" /></clipPath></defs><g transform="matrix(1.333333 0 0 1.333333 0 0)"><g><g clip-path="url(#1)"><g clip-path="url(#2)"><g clip-path="url(#3)"><g transform="matrix(0.8393296 0 0 0.84 0 -0.8399658)"><g transform="matrix(1 0 0 1 0 0)"><image x="0" y="0" xlink:href="img_11.png" width="716" height="47" /></g></g></g></g><g clip-path="url(#4)"><g transform="matrix(0.7487465 0 0 0.748538 28.8 334.92)"><g transform="matrix(1 0 0 1 0 0)"><image x="0" y="0" xlink:href="img_17.png" width="718" height="513" /></g></g></g><g clip-path="url(#5)"><g clip-path="url(#6)"><g transform="matrix(0.672 0 0 0.672 28.8 88.68005)"><g transform="matrix(1 0 0 1 0 0)"><image x="0" y="0" xlink:href="img_18.png" width="5" height="5" /></g></g></g></g><g clip-path="url(#7)"></g><g clip-path="url(#8)"><g clip-path="url(#9)"><g transform="matrix(0.672 0 0 0.672 28.8 103.92)"><g transform="matrix(1 0 0 1 0 0)"><image x="0" y="0" xlink:href="img_19.png" width="5" height="5" /></g></g></g></g><g clip-path="url(#10)"></g><g clip-path="url(#11)"><g clip-path="url(#12)"></g></g><g clip-path="url(#13)"><g clip-path="url(#14)"><g clip-path="url(#15)"><g transform="matrix(0.744 0 0 0.7431579 190.56 412.32)"><g transform="matrix(1 0 0 1 0 0)"><image x="0" y="0" xlink:href="img_20.png" width="75" height="57" /></g></g></g></g></g><g clip-path="url(#16)"></g><g clip-path="url(#17)"><g clip-path="url(#18)"></g></g><g clip-path="url(#19)"><g clip-path="url(#20)"><g clip-path="url(#21)"><g transform="matrix(0.7333333 0 0 0.7303448 276.36 489.36)"><g transform="matrix(1 0 0 1 0 0)"><image x="0" y="0" xlink:href="img_21.png" width="54" height="58" /></g></g></g></g></g><g clip-path="url(#22)"></g><g clip-path="url(#23)"><g clip-path="url(#24)"></g></g><g clip-path="url(#25)"><g clip-path="url(#26)"></g></g><g clip-path="url(#27)"><g clip-path="url(#28)"></g></g><g clip-path="url(#29)"><path transform="matrix(1 0 0 -1 0 842)" d="M281.85 718L514.15 718C 515.5 718 516.55 716.95 516.55 715.6L516.55 715.6L516.55 683.45C 516.55 682.15 515.5 681.05 514.15 681.05L514.15 681.05L281.85 681.05C 280.5 681.05 279.45 682.15 279.45 683.45L279.45 683.45L279.45 715.6C 279.45 716.95 280.5 718 281.85 718M281.85 718.95L514.15 718.95C 516 718.95 517.5 717.45 517.5 715.6L517.5 715.6L517.5 683.45C 517.5 681.6 516 680.1 514.15 680.1L514.15 680.1L281.85 680.1C 280 680.1 278.5 681.6 278.5 683.45L278.5 683.45L278.5 715.6C 278.5 717.45 280 718.95 281.85 718.95z" stroke="none" fill="#71A4E1" fill-rule="evenodd" /></g><g clip-path="url(#30)"><g clip-path="url(#31)"></g></g><g clip-path="url(#32)"><path transform="matrix(1 0 0 -1 0 842)" d="M33.8 718.2L266.1 718.2C 267.45 718.2 268.5 717.15 268.5 715.8L268.5 715.8L268.5 683.65C 268.5 682.35 267.45 681.25 266.1 681.25L266.1 681.25L33.8 681.25C 32.45 681.25 31.4 682.35 31.4 683.65L31.4 683.65L31.4 715.8C 31.4 717.15 32.45 718.2 33.8 718.2M33.8 719.15L266.1 719.15C 267.95 719.15 269.45 717.65 269.45 715.8L269.45 715.8L269.45 683.65C 269.45 681.8 267.95 680.3 266.1 680.3L266.1 680.3L33.8 680.3C 31.95 680.3 30.45 681.8 30.45 683.65L30.45 683.65L30.45 715.8C 30.45 717.65 31.95 719.15 33.8 719.15z" stroke="none" fill="#71A4E1" fill-rule="evenodd" /></g><g clip-path="url(#33)"><g clip-path="url(#34)"></g></g><g clip-path="url(#35)"><g clip-path="url(#36)"></g></g><g clip-path="url(#37)"><g clip-path="url(#38)"></g></g><g clip-path="url(#39)"><path transform="matrix(1 0 0 -1 0 842)" d="M281.75 669.45L514.05 669.45C 515.4 669.45 516.45 668.4 516.45 667.05L516.45 667.05L516.45 634.9C 516.45 633.6 515.4 632.5 514.05 632.5L514.05 632.5L281.75 632.5C 280.4 632.5 279.35 633.6 279.35 634.9L279.35 634.9L279.35 667.05C 279.35 668.4 280.4 669.45 281.75 669.45M281.75 670.4L514.05 670.4C 515.9 670.4 517.4 668.9 517.4 667.05L517.4 667.05L517.4 634.9C 517.4 633.05 515.9 631.55 514.05 631.55L514.05 631.55L281.75 631.55C 279.9 631.55 278.4 633.05 278.4 634.9L278.4 634.9L278.4 667.05C 278.4 668.9 279.9 670.4 281.75 670.4z" stroke="none" fill="#71A4E1" fill-rule="evenodd" /><path transform="matrix(1 0 0 -1 0 842)" d="M33.7 669.7L266 669.7C 267.35 669.7 268.4 668.65 268.4 667.3L268.4 667.3L268.4 635.15C 268.4 633.85 267.35 632.75 266 632.75L266 632.75L33.7 632.75C 32.35 632.75 31.3 633.85 31.3 635.15L31.3 635.15L31.3 667.3C 31.3 668.65 32.35 669.7 33.7 669.7M33.7 670.65L266 670.65C 267.85 670.65 269.35 669.15 269.35 667.3L269.35 667.3L269.35 635.15C 269.35 633.3 267.85 631.8 266 631.8L266 631.8L33.7 631.8C 31.85 631.8 30.35 633.3 30.35 635.15L30.35 635.15L30.35 667.3C 30.35 669.15 31.85 670.65 33.7 670.65z" stroke="none" fill="#71A4E1" fill-rule="evenodd" /></g><g clip-path="url(#40)"><g clip-path="url(#41)"></g></g><g clip-path="url(#42)"><g clip-path="url(#43)"></g></g></g></g></g></svg>