<svg xmlns="http://www.w3.org/2000/svg" xmlns:xlink="http://www.w3.org/1999/xlink" width="16.000000" height="16.000000" viewBox="0 0 16 16" fill="none">
	<desc>
			Created with Pixso.
	</desc>
	<defs/>
	<path id="path" d="M10.7149 5.983L15.009 1.70357L14.9943 4.1287C14.9883 4.32982 15.151 4.50724 15.3521 4.50134L15.6094 4.50134C15.8105 4.4954 15.979 4.37712 15.982 4.17304L15.9938 0.561958C15.9938 0.558983 15.9998 0.36972 15.9998 0.36972C16.0027 0.269196 15.979 0.177483 15.914 0.112411C15.8489 0.0473404 15.7602 0.00597382 15.6567 0.00891113L15.4733 0.0118866L11.8831 2.28882e-05C11.6819 0.00595093 11.5134 0.171616 11.5104 0.375633L11.5104 0.632942C11.5401 0.872498 11.7293 1.01151 11.9304 1.00558L14.2904 1.01151L10.0081 5.27621C9.81288 5.47143 9.81288 5.78781 10.0081 5.983C10.2033 6.18118 10.5197 6.18118 10.7149 5.983ZM5.30283 10.017L1.00574 14.2817L1.02055 11.8683C1.02647 11.6673 0.86377 11.4899 0.662651 11.4957L0.390617 11.4957C0.189499 11.5016 0.0209503 11.6199 0.0179977 11.824L0.00615692 15.4381C0.00615692 15.441 0.000244141 15.6303 0.000244141 15.6303C-0.00273132 15.7309 0.0209732 15.8225 0.0859528 15.8876C0.151024 15.9527 0.239777 15.994 0.343254 15.9911L0.526604 15.9881L4.13175 16C4.33278 15.994 4.50142 15.8285 4.50437 15.6244L4.50437 15.3671C4.47476 15.1275 4.28548 14.9885 4.08434 14.9944L1.72433 14.9885L6.00366 10.7239C6.19888 10.5287 6.19888 10.2122 6.00366 10.017C5.81152 9.81882 5.49803 9.81882 5.30283 10.017ZM15.9939 15.4381L15.985 11.824C15.979 11.6229 15.8134 11.5016 15.6123 11.4957L15.3551 11.4957C15.1539 11.4899 14.9943 11.6673 14.9971 11.8683L15.012 14.2936L10.7149 10.017C10.5197 9.82181 10.2032 9.82181 10.008 10.017C9.81288 10.2122 9.81288 10.5287 10.008 10.7239L14.2874 14.9885L11.9274 14.9944C11.7263 14.9885 11.54 15.1305 11.5074 15.3671L11.5074 15.6244C11.5133 15.8255 11.679 15.9941 11.88 16L15.4615 15.9852L15.6537 15.9911C15.7542 15.9941 15.846 15.9557 15.911 15.8876C15.9761 15.8226 15.9997 15.7309 15.9967 15.6303C15.9967 15.6303 15.9939 15.441 15.9939 15.4381ZM1.7274 1.01151L4.08739 1.00558C4.28841 1.01151 4.47474 0.869522 4.50732 0.632942L4.50732 0.37561C4.5014 0.174484 4.33582 0.00592804 4.1347 0L0.535576 0.0148163L0.343346 0.00886536C0.242729 0.00591278 0.151115 0.0443192 0.0860443 0.112373C0.0209732 0.177444 -0.00273132 0.269066 0.000335693 0.369682C0.000335693 0.369682 0.00624084 0.55896 0.00624084 0.56192L0.0150452 4.17596C0.0180206 4.37701 0.18663 4.49834 0.387665 4.50418L0.659782 4.50418C0.860901 4.51009 1.02056 4.33267 1.01759 4.13155L1.00577 1.71823L5.29998 5.98594C5.49508 6.18115 5.81154 6.18115 6.00673 5.98594C6.20193 5.79073 6.20193 5.47427 6.00673 5.27906L1.7274 1.01151Z" fill-rule="nonzero" fill="#666666"/>
</svg>