<svg width="38.000000" height="26.769897" viewBox="0 0 38 26.7699" fill="none" xmlns="http://www.w3.org/2000/svg" xmlns:xlink="http://www.w3.org/1999/xlink">
	<desc>
			Created with Pixso.
	</desc>
	<path id="docker" d="M20.8608 12.1627L16.9331 12.1627L16.9331 8.64505L20.8608 8.64505L20.8608 12.1627ZM20.8608 0L16.9331 0L16.9331 3.6369L20.8608 3.6369L20.8608 0ZM25.5027 8.64505L21.575 8.64505L21.575 12.1627L25.5027 12.1627L25.5027 8.64505ZM16.219 4.35236L12.2913 4.35236L12.2913 7.9296L16.219 7.9296L16.219 4.35236ZM20.8608 4.35236L16.9331 4.35236L16.9331 7.9296L20.8608 7.9296L20.8608 4.35236ZM37.3454 10.3145C36.5122 9.71823 34.4889 9.53937 33.0011 9.83749C32.8226 8.40659 31.9894 7.15454 30.5611 6.02173L29.728 5.48514L29.1924 6.31985C28.1212 7.98923 27.8236 10.7318 28.9543 12.5204C28.4187 12.8185 27.407 13.1763 26.0978 13.1763L0.151031 13.1763C-0.384567 16.2169 0.508102 20.1519 2.76952 22.8349C4.97142 25.4582 8.30403 26.7699 12.5888 26.7699C21.932 26.7699 28.8948 22.4772 32.1084 14.6072C33.3582 14.6072 36.1552 14.6072 37.5239 11.9242C37.5834 11.805 37.9405 11.1491 38 10.9107L37.3454 10.3145ZM6.93529 8.64505L3.00755 8.64505L3.00755 12.1627L6.93529 12.1627L6.93529 8.64505ZM11.5771 8.64505L7.64941 8.64505L7.64941 12.1627L11.5771 12.1627L11.5771 8.64505ZM16.219 8.64505L12.2913 8.64505L12.2913 12.1627L16.219 12.1627L16.219 8.64505ZM11.5771 4.35236L7.64941 4.35236L7.64941 7.9296L11.5771 7.9296L11.5771 4.35236Z" fill-rule="nonzero" fill="#2A97EA"/>
	<defs/>
</svg>
