<svg width="39.061737" height="39.031754" viewBox="0 0 39.0617 39.0318" fill="none" xmlns="http://www.w3.org/2000/svg" xmlns:xlink="http://www.w3.org/1999/xlink">
	<desc>
			Created with Pixso.
	</desc>
	<path id="path" d="M18.7504 29.9724C18.9315 29.9723 19.0916 30.0303 19.2308 30.1462C19.3699 30.2621 19.4558 30.4092 19.4884 30.5873L19.5004 30.7223L19.5004 34.4721L22.5002 34.4721C22.699 34.4721 22.8904 34.5101 23.0741 34.5862C23.2579 34.6624 23.4201 34.7707 23.5607 34.9114C23.7014 35.052 23.8098 35.2142 23.8859 35.398C23.962 35.5817 24 35.7731 24 35.972L38.249 35.972C38.4433 35.9716 38.6121 36.0369 38.7557 36.1677C38.8992 36.2986 38.9797 36.4607 38.9973 36.6541C39.0148 36.8476 38.9648 37.0216 38.8472 37.1761C38.7295 37.3307 38.5751 37.4253 38.384 37.4599L38.249 37.4719L24 37.4719C24 37.6708 23.962 37.8621 23.8859 38.0458C23.8098 38.2296 23.7014 38.3918 23.5607 38.5324C23.4201 38.6731 23.2579 38.7815 23.0741 38.8576C22.8904 38.9337 22.699 38.9718 22.5002 38.9718L15.0007 38.9718C14.8018 38.9718 14.6104 38.9337 14.4267 38.8576C14.2429 38.7815 14.0807 38.6731 13.9401 38.5324C13.7995 38.3918 13.6911 38.2296 13.615 38.0458C13.5388 37.8621 13.5008 37.6708 13.5008 37.4719L0.751694 37.4719C0.557465 37.4722 0.38858 37.407 0.245041 37.2761C0.101517 37.1453 0.0209656 36.9831 0.00341797 36.7897C-0.0141296 36.5962 0.0359192 36.4222 0.153564 36.2677C0.271194 36.1131 0.425583 36.0186 0.616699 35.984L0.751694 35.972L13.5008 35.972C13.5008 35.7731 13.5388 35.5817 13.615 35.398C13.6911 35.2142 13.7995 35.052 13.9401 34.9114C14.0807 34.7707 14.2429 34.6624 14.4267 34.5862C14.6105 34.5101 14.8018 34.4721 15.0007 34.4721L18.0005 34.4721L18.0005 30.7223C18.0005 30.5152 18.0737 30.3385 18.2201 30.192C18.3666 30.0456 18.5433 29.9724 18.7504 29.9724Z" fill-rule="nonzero" fill="#28A0CC"/>
	<path id="path" d="M15.0007 35.9975L22.5001 35.9975L22.5001 37.4974L15.0007 37.4974L15.0007 35.9975Z" fill-rule="nonzero" fill="#28A0CC"/>
	<path id="path" d="M36.8391 9.00536C37.0759 9.00508 37.3001 9.05791 37.5119 9.16382C37.7236 9.26973 37.9004 9.4175 38.0422 9.60712C38.1839 9.79674 38.2757 10.0081 38.3174 10.2411C38.359 10.4742 38.3463 10.7042 38.279 10.9312L33.3894 27.4301C33.295 27.7489 33.1145 28.0076 32.848 28.2064C32.5815 28.4052 32.282 28.5044 31.9495 28.504L5.67885 28.504C5.32927 28.5041 5.01772 28.3954 4.74419 28.1777C4.47067 27.96 4.29475 27.6808 4.21645 27.3401L0.424713 10.8412C0.373535 10.6186 0.37326 10.3958 0.423859 10.173C0.474472 9.95021 0.570953 9.74945 0.713318 9.57074C0.855667 9.39202 1.02977 9.25309 1.23563 9.15395C1.44147 9.0548 1.65863 9.00527 1.88712 9.00536L36.8391 9.00536ZM13.4933 14.9764L7.50871 14.9764L7.50871 22.4969L8.98911 22.4969L8.98911 19.4671L12.0114 19.4671L12.0114 18.0122L8.98911 18.0122L8.98911 16.4883L13.4933 16.4883L13.4933 14.9764ZM22.5092 14.9764L15.0262 14.9764L15.0262 16.4883L18.0215 16.4883L18.0215 22.4969L19.5214 22.4969L19.5214 16.4883L22.5092 16.4883L22.5092 14.9764ZM27.7723 14.9764L24.0181 14.9764L24.0181 22.4969L25.5149 22.4969L25.5149 19.4881L27.7723 19.4776C28.0704 19.4762 28.3569 19.418 28.632 19.3031C28.907 19.1881 29.1497 19.025 29.3601 18.8137C29.5705 18.6025 29.7326 18.3592 29.8465 18.0837C29.9604 17.8082 30.0174 17.5214 30.0176 17.2233C30.0176 15.9829 29.0127 14.9764 27.7723 14.9764ZM25.5149 16.4883L27.7738 16.4883C27.9867 16.4883 28.1684 16.5636 28.3189 16.7141C28.4695 16.8647 28.5447 17.0464 28.5447 17.2593C28.5447 17.4722 28.4695 17.6539 28.3189 17.8044C28.1684 17.955 27.9867 18.0302 27.7738 18.0302L25.5149 18.0302L25.5149 16.4883Z" fill-rule="nonzero" fill="#28A0CC"/>
	<path id="path" d="M13.7003 0C14.1892 -6.86646e-05 14.6311 0.143917 15.0262 0.431973L15.2107 0.581963L17.666 2.8063C17.7709 2.90133 17.8929 2.96183 18.032 2.98779L18.17 2.99979L32.2645 2.99979C32.5442 2.99962 32.8146 3.04988 33.0756 3.15058C33.3367 3.25128 33.5708 3.39565 33.7779 3.58367C33.9851 3.7717 34.1514 3.99075 34.2768 4.24082C34.4023 4.49089 34.4784 4.75517 34.5053 5.03365L34.5143 5.24963L34.5143 6.77052C34.5146 6.96475 34.4494 7.13363 34.3185 7.27717C34.1877 7.4207 34.0255 7.50124 33.8321 7.51879C33.6387 7.53634 33.4647 7.48629 33.3101 7.36866C33.1556 7.25102 33.061 7.09664 33.0264 6.90551L33.0144 6.77052L33.0144 5.24963C33.0141 5.06881 32.956 4.909 32.8401 4.7702C32.7242 4.6314 32.5773 4.54573 32.3994 4.51318L32.2645 4.49969L18.17 4.49969C17.681 4.49976 17.2391 4.35577 16.844 4.06771L16.6596 3.91772L14.2042 1.69489C14.0994 1.59986 13.9774 1.53936 13.8383 1.5134L13.7003 1.4999L5.28136 1.4999C5.10025 1.49984 4.94014 1.55778 4.80101 1.67372C4.66188 1.78966 4.57602 1.93671 4.54341 2.11485L4.53142 2.24984L4.53142 6.77053C4.53177 6.96475 4.46652 7.13363 4.33566 7.27717C4.2048 7.4207 4.04266 7.50124 3.84923 7.51879C3.65579 7.53634 3.48181 7.48629 3.32726 7.36866C3.1727 7.25102 3.07812 7.09664 3.04352 6.90552L3.03152 6.77053L3.03152 2.24984C3.03152 1.97032 3.08186 1.70018 3.18254 1.43941C3.28323 1.17865 3.42749 0.944778 3.61536 0.737789C3.80321 0.5308 4.02203 0.364594 4.27185 0.23917C4.52165 0.113747 4.78566 0.0375214 5.06387 0.0105057L5.28136 0L13.7003 0Z" fill-rule="nonzero" fill="#28A0CC"/>
	<defs/>
</svg>
