<svg width="40.000000" height="39.000000" viewBox="0 0 40 39" fill="none" xmlns="http://www.w3.org/2000/svg" xmlns:xlink="http://www.w3.org/1999/xlink">
	<desc>
			Created with Pixso.
	</desc>
	<ellipse id="椭圆 1" cx="20.000000" cy="19.500000" rx="20.000000" ry="19.500000" fill="#FFFFFF"/>
	<ellipse id="椭圆 1" cx="20.000000" cy="19.500000" rx="19.500000" ry="19.000000" stroke="#D9D9D9"/>
	<ellipse id="椭圆 1" cx="20.000000" cy="19.500000" rx="17.333332" ry="16.900000" fill="#2A8E84"/>
	<path id="path" d="M22.3148 26.6861C21.7593 26.6861 21.3889 27.0472 21.3889 27.5889C21.3889 28.1306 21.7593 28.4917 22.3148 28.4917C22.8704 28.4917 23.2408 28.1306 23.2408 27.5889C23.2408 27.0472 22.8704 26.6861 22.3148 26.6861ZM17.6852 26.6861C17.1296 26.6861 16.7593 27.0472 16.7593 27.5889C16.7593 28.1306 17.1296 28.4917 17.6852 28.4917C18.2408 28.4917 18.6111 28.1306 18.6111 27.5889C18.6111 27.0472 18.2408 26.6861 17.6852 26.6861ZM28.8889 9.53333L25.5556 9.53333C24.7222 9.53333 23.8889 9.89444 23.3333 10.4361C21.9445 11.7903 20.6482 13.6861 20 14.6792C19.3519 13.6861 18.0556 11.7 16.6667 10.4361C16.1111 9.80417 15.2778 9.53333 14.4445 9.53333L11.1111 9.53333C9.90742 9.53333 8.8889 10.5264 8.8889 11.7L8.8889 27.2278C8.8889 28.4014 9.90742 29.3944 11.1111 29.3944L14.537 29.3944C15 29.3944 15.3704 29.2139 15.6482 28.8528C15.9259 28.4917 16.0185 28.1306 15.8333 27.6792C15.463 26.5056 15.1852 25.3319 14.9074 23.9778C13.8889 18.9222 14.1667 15.8528 14.6296 15.5819C15.1852 15.6722 16.6667 18.3806 17.6852 23.5264C17.6852 23.7069 17.7778 23.7972 17.963 23.8875C19.2593 24.3389 20.8333 24.3389 22.037 23.8875C22.2222 23.7972 22.3148 23.7069 22.3148 23.5264C23.3333 18.3806 24.8148 15.6722 25.2778 15.5819C25.7408 15.8528 26.0185 18.9222 25 23.9778C24.7222 25.2417 24.4445 26.5056 24.0741 27.6792C23.9815 28.0403 23.9815 28.4917 24.2593 28.8528C24.537 29.2139 24.9074 29.3944 25.3704 29.3944L28.7963 29.3944C30 29.3944 31.0185 28.4014 31.0185 27.2278L31.0185 11.7C31.1111 10.5264 30.0926 9.53333 28.8889 9.53333ZM30.1852 27.2278C30.1852 27.95 29.6296 28.4917 28.8889 28.4917L25.463 28.4917C25.3704 28.4917 25.1852 28.4014 25.0926 28.3111C25 28.2208 25 28.0403 25 27.95C25.3704 26.7764 25.6482 25.5125 25.9259 24.1583C26.6667 20.5472 27.037 16.3944 26.1111 15.1306C25.9259 14.8597 25.6482 14.7694 25.463 14.6792L25.2778 14.6792C23.3333 14.6792 21.6667 21.6306 21.3889 23.075C20.463 23.3458 19.3519 23.3458 18.4259 23.075C18.1482 21.6306 16.3889 14.3181 14.3519 14.6792C14.1667 14.6792 13.8889 14.7694 13.7037 15.1306C12.8704 16.3944 13.1482 20.5472 13.8889 24.1583C14.1667 25.5125 14.4445 26.7764 14.8148 27.95C14.8148 28.0403 14.8148 28.2208 14.7222 28.3111C14.6296 28.4014 14.537 28.4917 14.3519 28.4917L10.9259 28.4917C10.1852 28.4917 9.62964 27.95 9.62964 27.2278L9.62964 11.7C9.62964 10.9778 10.1852 10.4361 10.9259 10.4361L14.4445 10.4361C15 10.4361 15.5556 10.7069 16.0185 11.0681C17.7778 12.7833 19.6296 15.7625 19.6296 15.7625C19.7222 15.9431 19.9074 15.9431 20 15.9431C20.1852 15.9431 20.2778 15.8528 20.3704 15.7625C20.3704 15.7625 22.2222 12.7833 23.9815 11.0681C24.4445 10.6167 25 10.4361 25.5556 10.4361L28.8889 10.4361C29.6296 10.4361 30.1852 10.9778 30.1852 11.7L30.1852 27.2278Z" fill-rule="nonzero" fill="#FFFFFF"/>
	<path id="矢量 7" d="M15.2222 28.6722L10.8889 28.9972L9.33334 27.9139L9.33334 10.9055L10.6667 9.8222L14.4445 9.8222L16 10.5805L17.5556 12.2055L19.3333 14.6972L19.7778 15.2389L20.1111 15.6722L21.6667 13.5056L23.1111 11.5555L24.1111 10.5805L25 10.1472L29.1111 10.1472L29.8889 10.3639L30.3333 10.9055L30.5556 12.2055L30.5556 27.3722L30.1111 28.1306L29.5556 28.6722L25 28.6722L24.6667 28.1306L25 27.0472L25.7778 23.9055L26.4444 18.9222L26.2222 16.1055L25.7778 15.4555L25.2222 15.0222L24.6667 15.2389L24.1111 15.8889L23.5556 17.2972L22.5556 20.0055L22.1111 21.6306L21.6667 23.2556L20.8889 23.3639L19.7778 23.5805L18.2222 23.3639L17.5556 20.3305L16.5556 17.5139L15.2222 15.4555L14.6667 15.0222L14 15.2389L13.6667 16.1055L13.3333 17.5139L13.6667 20.6555L14 23.9055L14.6667 27.0472L15.2222 28.4555L15.2222 28.6722Z" fill-rule="evenodd" fill="#FFFFFF"/>
	<defs/>
</svg>
