<svg width="28.521713" height="65.000000" viewBox="0 0 28.5217 65" fill="none" xmlns="http://www.w3.org/2000/svg" xmlns:xlink="http://www.w3.org/1999/xlink">
	<desc>
			Created with Pixso.
	</desc>
	<path id="减去顶层" d="M13.9522 0.078476L13.9469 0.130661L13.9469 0.165329C13.9422 0.199875 13.936 0.234543 13.9337 0.269333L13.9337 0.309341L13.9231 0.378662L13.9231 0.447998C13.9204 0.46933 13.9125 0.496002 13.9072 0.514664L13.9072 0.570663C13.9072 0.58934 13.9019 0.610672 13.8966 0.626663L13.8966 0.680008L13.886 0.765335L13.8621 0.904007L13.8489 0.957336L13.8489 1.00267L13.8409 1.06134L13.8277 1.10933L13.8144 1.16533L13.8038 1.216L13.7932 1.26134L13.7773 1.29866L13.7667 1.34666L13.7561 1.384L13.7428 1.41867L13.7349 1.45866L13.7216 1.496C13.7188 1.50468 13.7012 1.54558 13.7004 1.55467L13.6739 1.61067L13.6607 1.65601L13.6368 1.69867L13.613 1.76266L13.5812 1.82401L13.5547 1.87466L13.5308 1.91733L13.5096 1.96533L13.4884 2.00267L13.4619 2.04266L13.438 2.09334L13.4009 2.12534L13.3903 2.16267L13.3691 2.19467L13.3426 2.23199L13.3188 2.272L13.2843 2.32001L13.2604 2.35466L13.226 2.392L13.2021 2.42934L13.1783 2.464L13.1571 2.50133L13.12 2.49066L13.1067 2.528L13.0723 2.55467L13.0617 2.58667L13.0219 2.61333L12.998 2.664L12.9556 2.69333L12.9424 2.73067L12.9079 2.752L12.8814 2.78934L12.8602 2.82666L12.8231 2.85066L12.7993 2.888L12.7595 2.91733L12.7436 2.95467L12.7065 2.98134L12.68 3.01334L12.6588 3.05067L12.6217 3.08C12.6084 3.09599 12.5872 3.12801 12.5687 3.144C12.5203 3.17723 12.4752 3.21455 12.4335 3.256L12.3752 3.30133C12.3323 3.33649 12.2863 3.37383 12.2427 3.408L12.0465 3.576C11.8954 3.70134 11.7311 3.84 11.5482 3.99733C11.1003 4.392 10.5649 4.90134 9.96854 5.51466L9.92877 5.55467C6.32405 9.30667 0.633392 17.136 0.0343781 29.7707C-0.018631 30.816 -0.00802612 31.832 0.050293 32.8213C0.339188 37.8 1.8924 42.0747 3.83522 45.528C4.60916 46.904 5.44408 48.1573 6.2896 49.2773C9.21046 53.1573 12.1923 55.4587 12.953 56.016C13.5944 57.5131 13.8512 59.5988 13.9522 61.1763L13.9522 0.078476Z" clip-rule="evenodd" fill-rule="evenodd" fill="#39A444" fill-opacity="1.000000"/>
	<path id="减去顶层" d="M13.9522 61.1763C14.0353 62.4733 14.0132 63.4267 14.0132 63.4267L15.7201 64C15.7201 64 15.3729 59.464 15.8606 57.2747C16.0117 56.5893 16.3695 56.0053 16.7856 55.5093C17.5247 54.9794 18.2289 54.4061 18.8981 53.7893C18.9458 53.7387 18.9723 53.6933 19.0147 53.6453C23.0461 49.864 30.5762 40.552 27.9946 25.3813C24.647 10.5547 16.7512 5.68266 15.903 3.81866C14.97 2.504 13.9602 0 13.9602 0L13.9522 0.0784607L13.9522 61.1763L13.9522 61.1763Z" clip-rule="evenodd" fill-rule="evenodd" fill="#1D8934" fill-opacity="1.000000"/>
	<path id="矢量 17" d="M13.1302 63.9428L15.8613 65C15.774 61.2544 16.036 56.6661 16.9522 55.2162C16.2541 53.7663 14.302 48.7399 14.4068 47C14.1013 49.1145 12.8684 53.9475 11.9522 55.2162C12.4758 56.8474 13.4443 57.4181 13.1302 63.9428Z" fill-rule="evenodd" fill="#A1B08D"/>
	<defs/>
</svg>
