<svg width="39.762085" height="27.000000" viewBox="0 0 39.7621 27" fill="none" xmlns="http://www.w3.org/2000/svg" xmlns:xlink="http://www.w3.org/1999/xlink">
	<desc>
			Created with Pixso.
	</desc>
	<path id="mysql" d="M27.179 2.73354C26.9885 2.73354 26.8593 2.75673 26.7251 2.78821L26.7251 2.80974L26.7483 2.80974C26.8378 2.98204 26.9902 3.10796 27.1028 3.26204C27.1923 3.43932 27.2685 3.61658 27.358 3.79221L27.3812 3.76735C27.5369 3.658 27.6131 3.48239 27.6131 3.21565C27.5468 3.13779 27.5369 3.05992 27.4806 2.9837C27.4143 2.8727 27.2685 2.82135 27.179 2.73354ZM9.55946 24.5927L8.02365 24.5927C7.98044 22.1508 7.83133 19.7154 7.57634 17.2865L5.22705 24.5927L4.05905 24.5927L1.73959 17.2865C1.55812 19.7186 1.43385 22.1541 1.39996 24.5927L0 24.5927C0.0911255 21.3356 0.3181 18.2805 0.679276 15.4309L2.58453 15.4309L4.7963 22.1639L7.0412 15.4309L8.85535 15.4309C9.25629 18.7693 9.48657 21.826 9.55946 24.5927ZM16.2146 17.8332C15.5884 21.2213 14.7633 23.6865 13.7428 25.2223C12.9442 26.4085 12.0695 27 11.1201 27C10.8667 27 10.5568 26.9238 10.1824 26.7714L10.1824 25.9529C10.3647 25.9811 10.58 25.996 10.8219 25.996C11.2659 25.996 11.6221 25.8717 11.8938 25.6282C12.2202 25.33 12.3826 24.9953 12.3826 24.6259C12.3826 24.3691 12.255 23.8472 12.0015 23.0619L10.3216 17.8332L11.8292 17.8332L13.0337 21.7431C13.3054 22.6311 13.4197 23.2508 13.3733 23.6037C14.036 21.8409 14.4966 19.9141 14.7567 17.8332L16.2146 17.8332ZM36.6341 24.5927L32.2769 24.5927L32.2769 15.4309L33.7431 15.4309L33.7431 23.4662L36.6341 23.4662L36.6341 24.5927ZM31.1337 24.8164L29.4505 23.988C29.5996 23.8621 29.7437 23.7263 29.8729 23.5738C30.5903 22.7355 30.9465 21.4896 30.9465 19.8412C30.9465 16.8093 29.757 15.2917 27.3762 15.2917C26.2098 15.2917 25.2986 15.6761 24.6425 16.4465C23.9301 17.2881 23.5723 18.5274 23.5723 20.1659C23.5723 21.7763 23.8871 22.9592 24.5233 23.7113C25.1031 24.3906 25.9762 24.7303 27.1459 24.7303C27.5833 24.7303 27.9842 24.6756 28.347 24.5679L30.5423 25.8469L31.1337 24.8164ZM25.6797 22.7587C25.3069 22.1623 25.1214 21.2014 25.1214 19.8826C25.1214 17.5747 25.8238 16.42 27.2254 16.42C27.9594 16.42 28.5011 16.6967 28.8441 17.2484C29.2152 17.8481 29.4008 18.7991 29.4008 20.1029C29.4008 22.429 28.6983 23.5954 27.2967 23.5954C26.5594 23.5954 26.0243 23.3104 25.6797 22.7587ZM22.9328 22.0546C22.9328 22.8333 22.6478 23.4728 22.0779 23.9698C21.508 24.4668 20.7475 24.7153 19.785 24.7153C18.8853 24.7153 18.0222 24.4304 17.1789 23.8621L17.5715 23.0735C18.2972 23.438 18.9516 23.6169 19.5431 23.6169C20.0931 23.6169 20.5255 23.496 20.8403 23.2524C21.1789 22.9972 21.3446 22.6575 21.3373 22.2335C21.3373 21.6868 20.9563 21.2229 20.2637 20.8336C19.6209 20.4807 18.3369 19.7451 18.3369 19.7451C17.6378 19.2365 17.2899 18.6914 17.2899 17.7951C17.2899 17.0495 17.55 16.4531 18.0686 15.9975C18.5904 15.5369 19.2614 15.31 20.0898 15.31C20.938 15.31 21.7134 15.5353 22.4093 15.9892L22.0564 16.7778C21.4946 16.5311 20.9071 16.4041 20.2936 16.3968C19.8247 16.3968 19.4619 16.5094 19.2101 16.7381C18.938 16.9635 18.801 17.2529 18.7992 17.6062C18.7992 18.1496 19.1869 18.6168 19.9026 19.0145C20.5537 19.3707 21.8691 20.1245 21.8691 20.1245C22.5865 20.6298 22.9328 21.1633 22.9328 22.0546ZM38.4764 12.3593C37.5901 12.3361 36.9025 12.4255 36.3276 12.6707C36.162 12.737 35.8969 12.737 35.8737 12.9474C35.9648 13.0352 35.9781 13.1794 36.0559 13.302C36.1885 13.524 36.4171 13.8205 36.6292 13.9763C36.8611 14.1585 37.0931 14.3341 37.3366 14.4899C37.7673 14.7549 38.2561 14.9123 38.6786 15.1791C38.9188 15.3348 39.164 15.532 39.4075 15.6976C39.5285 15.7805 39.6064 15.9296 39.7621 15.9826L39.7621 15.9495C39.6859 15.8501 39.6627 15.7059 39.5881 15.5949C39.4771 15.4839 39.3661 15.3845 39.2568 15.2752C38.9296 14.844 38.5458 14.4713 38.1053 14.1568C37.7508 13.915 36.9754 13.577 36.8296 13.1711L36.8081 13.1479C37.05 13.1264 37.3383 13.0385 37.5702 12.9723C37.9463 12.8729 38.2909 12.8944 38.6802 12.7967C38.8558 12.7519 39.0331 12.6973 39.2104 12.6409L39.2104 12.5415C39.0116 12.3427 38.8625 12.0727 38.657 11.8871C38.0827 11.3851 37.4731 10.9306 36.828 10.5236C36.4801 10.3016 36.0394 10.1591 35.6732 9.97023C35.5407 9.90396 35.3187 9.87083 35.2425 9.75983C35.0437 9.51794 34.9277 9.19653 34.7869 8.90825C34.4614 8.27696 34.1593 7.6347 33.8806 6.98145C33.6818 6.54738 33.5609 6.11497 33.3173 5.71735C32.1742 3.83362 30.9366 2.69212 29.033 1.57547C28.6237 1.34352 28.1333 1.24411 27.6148 1.12152C27.3381 1.10826 27.0614 1.08838 26.7864 1.07678C26.6042 0.998917 26.4285 0.788513 26.2728 0.687439C25.6432 0.289825 24.013 -0.571686 23.5491 0.568161C23.2509 1.28719 23.9915 1.99628 24.2482 2.36076C24.4388 2.61424 24.679 2.90417 24.8115 3.18915C24.8894 3.38133 24.9109 3.57848 24.9888 3.77895C25.1644 4.26604 25.3318 4.80945 25.5637 5.26506C25.6846 5.49699 25.8172 5.74054 25.9729 5.9493C26.0624 6.07024 26.2148 6.12657 26.2496 6.32538C26.0939 6.55069 26.0839 6.87874 25.9945 7.15375C25.5968 8.40791 25.7526 9.95863 26.3159 10.8815C26.4931 11.1565 26.9156 11.7662 27.4806 11.5325C27.9776 11.3337 27.8683 10.7042 28.0107 10.1492C28.0439 10.0166 28.0223 9.92882 28.0903 9.83936L28.0903 9.86421C28.246 10.1757 28.4017 10.4722 28.5442 10.7837C28.8855 11.3271 29.4819 11.8904 29.9806 12.2665C30.2457 12.4653 30.4561 12.8099 30.7875 12.9325L30.7875 12.8994L30.7626 12.8994C30.6914 12.8033 30.5969 12.7569 30.5075 12.679C30.2971 12.4731 30.1038 12.2522 29.9276 12.0163C29.46 11.3774 29.0475 10.7048 28.69 9.9984C28.5078 9.65048 28.3553 9.27606 28.2095 8.93311C28.1433 8.80057 28.1433 8.60176 28.0323 8.53549C27.8666 8.77737 27.623 8.98778 27.5021 9.286C27.2917 9.76314 27.2702 10.3496 27.1906 10.9593C27.1459 10.9709 27.1674 10.9593 27.1459 10.9825C26.7914 10.8964 26.6704 10.5286 26.5379 10.2204C26.2065 9.43346 26.1519 8.16934 26.4385 7.26311C26.5163 7.03116 26.8477 6.29887 26.7151 6.07686C26.6456 5.86646 26.4269 5.74551 26.3059 5.57487C26.15 5.35222 26.0174 5.11641 25.9083 4.86743C25.6432 4.2478 25.5107 3.56192 25.2224 2.94229C25.0899 2.65567 24.8579 2.35579 24.6691 2.09238C24.4586 1.79416 24.2267 1.58376 24.0594 1.23087C24.0047 1.10992 23.9268 0.909454 24.0146 0.776917C24.0378 0.687439 24.0842 0.652649 24.1704 0.627808C24.3162 0.508514 24.7254 0.664246 24.8695 0.730515C25.2787 0.896194 25.6234 1.05193 25.9663 1.28387C26.122 1.39322 26.2894 1.60364 26.4882 1.65831L26.7201 1.65831C27.0747 1.73618 27.4739 1.6815 27.8053 1.77925C28.3934 1.96811 28.9236 2.24313 29.3991 2.54135C30.8903 3.49393 32.0417 4.75638 32.8534 6.32869C32.986 6.58383 33.0439 6.81743 33.1649 7.08252C33.3968 7.62924 33.6835 8.18094 33.9187 8.70944C34.1507 9.23132 34.3743 9.76314 34.7073 10.1956C34.873 10.4275 35.539 10.5484 35.8372 10.6694C36.0576 10.7688 36.4005 10.8599 36.5993 10.9809C36.9804 11.2128 37.3515 11.4779 37.7094 11.733C37.8916 11.8589 38.4433 12.1356 38.4764 12.3593Z" fill-rule="nonzero" fill="#1683C6"/>
	<defs/>
</svg>
