<svg width="40.379150" height="45.000000" viewBox="0 0 40.3792 45" fill="none" xmlns="http://www.w3.org/2000/svg" xmlns:xlink="http://www.w3.org/1999/xlink">
	<desc>
			Created with Pixso.
	</desc>
	<path id="nginx" d="M38.1359 9.57865L22.4329 0.589888C21.0869 -0.196629 19.4044 -0.196629 17.9463 0.589888L2.24329 9.57865C0.897308 10.3652 0 11.8258 0 13.5112L0 31.4888C0 33.0618 0.897308 34.6348 2.24329 35.4213L17.9463 44.4101C19.2923 45.1966 20.9747 45.1966 22.4329 44.4101L38.1359 35.4213C39.4818 34.6348 40.3792 33.1742 40.3792 31.4888L40.3792 13.5112C40.3792 11.9382 39.4818 10.4775 38.1359 9.57865ZM27.5924 32.2753C26.5829 32.2753 25.3491 31.8258 24.564 30.927L14.5814 19.0169L14.5814 30.1404C14.5814 31.3764 13.6841 32.2753 12.4502 32.2753L12.3381 32.2753C11.1043 32.2753 10.207 31.264 10.207 30.1404L10.207 14.8596C10.207 13.736 11.2164 12.7247 12.6746 12.7247C13.7962 12.7247 14.9178 13.1742 15.703 14.073L25.6856 25.9831L25.6856 14.8596C25.6856 13.6236 26.6951 12.7247 27.8167 12.7247L27.9289 12.7247C29.1627 12.7247 30.06 13.736 30.06 14.8596L30.06 30.1404C30.1722 31.3764 29.0506 32.2753 27.5924 32.2753Z" fill-rule="nonzero" fill="#01993C"/>
	<defs/>
</svg>
