<svg width="35.000000" height="70.144363" viewBox="0 0 35 70.1444" fill="none" xmlns="http://www.w3.org/2000/svg" xmlns:xlink="http://www.w3.org/1999/xlink">
	<desc>
			Created with Pixso.
	</desc>
	<path id="path" d="M31.0082 0C30.5838 0.000484467 30.1905 0.111553 29.8284 0.333199C28.7303 0.982063 26.9022 2.82051 24.7236 5.4861L24.2681 6.04728C23.6898 6.76629 23.0912 7.54375 22.475 8.36507C20.3784 11.1686 18.416 14.0631 16.5876 17.0487L16.5233 17.1539L16.3948 17.3644C14.602 20.2944 12.9384 23.2961 11.4039 26.3695C10.1976 28.8024 9.12685 31.2936 8.19157 33.8431C7.92581 34.5768 7.68343 35.2841 7.46149 35.9651C7.28043 36.5467 7.10521 37.1284 6.94167 37.7071C6.55325 39.072 6.21742 40.437 5.9429 41.7932L5.90785 41.9773C5.58038 43.6119 5.35358 45.2604 5.22742 46.9227L5.21281 47.0951C4.39513 45.7828 2.20778 44.5055 2.21071 44.5172C3.77893 46.7912 4.96751 49.0476 5.14273 51.2631C4.3046 51.4355 3.15398 51.1871 1.82521 50.696C3.20946 51.9704 4.2491 52.3211 4.65503 52.4146C3.38176 52.4936 2.05884 53.3704 0.724243 54.3758C2.67503 53.5779 4.25203 53.2652 5.3822 53.5195C3.46257 59.0204 1.6685 64.562 0 70.1444C0.540115 69.9906 0.89444 69.6458 1.063 69.1097C1.38425 68.0312 3.50734 60.9668 6.83653 51.6781L7.12273 50.8802L7.2045 50.658C7.55493 49.6847 7.91998 48.691 8.29671 47.6768L8.55661 46.9841L6.79857 43.4825L8.55661 46.9841C8.90413 46.0575 9.26334 45.1018 9.62837 44.1519L9.78024 43.7544L9.93501 43.3539L10.0547 43.05L9.93501 43.3539L9.78024 43.7544L9.62837 44.1519C9.26334 45.1018 8.90413 46.0575 8.55661 46.9841L8.87201 47.5745L9.14653 47.5452L9.17572 47.4634C9.62254 46.2446 10.0635 45.055 10.5016 43.8976L10.5162 43.8567C10.0627 45.0561 9.61392 46.2583 9.17572 47.4634L9.14653 47.5452L8.95378 48.0801C8.60918 49.03 8.26166 49.9946 7.91414 50.9825L7.89954 51.0263L7.7506 51.4443C7.51697 52.1107 7.31255 52.7098 6.84821 54.0719C7.61627 54.4226 8.23245 55.3462 8.81653 56.3926C8.75793 55.2427 8.30431 54.2792 7.45564 53.5019C11.2404 53.6714 14.5024 52.7157 16.1904 49.9449C16.3423 49.6964 16.4795 49.4392 16.6022 49.1616C15.837 50.1348 14.885 50.547 13.0977 50.4447C15.7319 49.2639 17.0519 48.1327 18.22 46.2563C18.5146 45.778 18.7881 45.2879 19.0406 44.7861C16.7365 47.1536 14.0702 47.8258 11.2579 47.3143L11.1324 47.2939C13.6526 46.9811 17.0023 45.0959 19.1692 42.7694C20.1679 41.6967 21.0732 40.4312 21.9113 38.9522C22.5363 37.8503 23.1204 36.6286 23.6782 35.2753C24.1659 34.0945 24.6331 32.8143 25.0858 31.426C24.3386 31.8086 23.5501 32.0629 22.7203 32.1888C22.5863 32.2121 22.4519 32.2336 22.3173 32.2531C22.4487 32.2327 22.5918 32.2122 22.7203 32.1888C22.8517 32.1655 22.9831 32.1391 23.1116 32.1099L22.7203 32.1888L22.3173 32.2531C24.6594 31.3471 26.1575 29.5963 27.2322 27.4627C26.367 28.052 25.4247 28.465 24.4053 28.7019C24.2397 28.7366 24.0732 28.7668 23.9059 28.7925L23.7804 28.8101L23.9059 28.7925C24.0596 28.7685 24.2095 28.7373 24.3615 28.7048L24.4053 28.7019L24.3615 28.7048L23.7804 28.8101C24.5922 28.4681 25.2873 28.0794 25.883 27.6293C26.3211 27.2883 26.7212 26.9073 27.0833 26.4864C27.3169 26.2088 27.5359 25.9077 27.7404 25.5804L27.9273 25.2764L28.1521 24.8321C28.553 24.0215 28.9112 23.1924 29.2268 22.3448L29.3174 22.0876C29.3991 21.8392 29.4692 21.6171 29.5218 21.4241C29.6006 21.1348 29.6503 20.9039 29.6766 20.7344C29.5899 20.8039 29.4984 20.8662 29.402 20.9214C28.6924 21.3452 27.4746 21.731 26.4934 21.9123L26.2043 21.9444L19.5809 22.6751L19.5459 22.7453L19.321 23.2071L18.6347 24.6334L18.5062 24.9052L18.6347 24.6334C18.8654 24.1482 19.0932 23.6718 19.321 23.2071L19.5459 22.7453C19.5576 22.7189 19.5722 22.7014 19.5809 22.6751L19.3356 22.6956L19.14 22.3098C18.7661 23.0502 18.3982 23.7936 18.0361 24.5398L17.4403 25.7791C16.3343 28.1037 15.2713 30.4478 14.2513 32.8114C13.164 35.3329 12.1118 37.8689 11.0944 40.4194L11.3456 39.7881C12.284 37.45 13.2526 35.1244 14.2513 32.8114C15.2719 30.4471 16.335 28.1049 17.4403 25.7791L18.0361 24.5398C18.3807 23.8267 18.7282 23.1194 19.0815 22.4208L19.14 22.3098C19.6977 21.2049 20.2614 20.1176 20.8308 19.0479C21.4383 17.908 22.0574 16.7944 22.6794 15.713C23.3121 14.6099 23.9662 13.5197 24.6419 12.4424L24.7587 12.2553C25.4128 11.2206 26.0728 10.224 26.7358 9.27112C28.0826 7.31289 29.5642 5.46275 31.1805 3.72072L31.0112 3.90193C30.5439 4.41634 29.1304 6.06773 26.9957 9.34711C29.0516 9.24482 32.2085 8.82393 34.7842 8.38259C35.5494 4.08607 34.0337 2.12194 34.0337 2.12194C34.0337 2.12194 32.7254 0.0175362 31.0082 0ZM26.2043 21.9444C28.1317 21.0559 28.9873 20.2492 29.8226 19.0888C30.0445 18.7673 30.2694 18.4341 30.4913 18.0863C31.1718 17.0253 31.8376 15.8533 32.4333 14.69C33.0087 13.5677 33.5168 12.4541 33.9052 11.4486C34.132 10.8748 34.3267 10.2902 34.4893 9.69494C34.609 9.23605 34.7112 8.79763 34.7842 8.38259C32.2056 8.82101 29.0516 9.24774 26.9957 9.34711C26.294 10.4253 25.6077 11.5155 24.9543 12.6236C24.3586 13.632 23.722 14.7368 23.0561 15.9468C21.8371 18.1567 20.6845 20.4053 19.5809 22.6751L26.2043 21.9444ZM26.4379 21.9181L26.14 21.9649L26.4379 21.9181ZM26.2043 21.9444L26.14 21.9649L26.2043 21.9444ZM18.1733 25.5833L17.8637 26.2468L17.4753 27.0856C16.549 29.1038 15.6525 31.1352 14.7857 33.1797C13.7797 35.549 12.8072 37.9321 11.8683 40.3288C11.4361 41.4337 10.998 42.5648 10.557 43.7281L10.5424 43.769C12.632 38.1147 14.943 32.5556 17.4753 27.0856L17.8637 26.2468L18.1733 25.5833Z" fill-rule="nonzero" fill="url(#paint_linear_7_10_0)"/>
	<defs>
		<linearGradient id="paint_linear_7_10_0" x1="31.714943" y1="-0.000002" x2="0.000000" y2="70.144394" gradientUnits="userSpaceOnUse">
			<stop stop-color="#EB8F1D"/>
			<stop offset="0.288083" stop-color="#D14C28"/>
			<stop offset="0.498078" stop-color="#C42033"/>
			<stop offset="0.751642" stop-color="#792272"/>
		</linearGradient>
	</defs>
</svg>
