<svg width="36.808823" height="38.023651" viewBox="0 0 36.8088 38.0237" fill="none" xmlns="http://www.w3.org/2000/svg" xmlns:xlink="http://www.w3.org/1999/xlink">
	<desc>
			Created with Pixso.
	</desc>
	<path id="path" d="M36.075 21.858C35.471 21.3403 34.6944 21.254 33.9178 21.5128C33.3138 21.6854 32.6235 21.7717 32.0195 21.7717C33.7452 18.9242 35.0395 15.8178 35.9024 12.5389C36.3339 11.072 36.5927 9.51877 36.5927 7.8793C36.7653 6.58496 36.4202 5.29065 35.6436 4.25519C33.4864 1.49396 30.1211 -0.0592346 26.6696 0.0270691L26.4107 0.0270691C24.9438 0.0270691 23.4769 0.285919 22.0963 0.631073L22.01 0.631073C21.1471 0.458496 20.198 0.372223 19.3351 0.372223C17.6956 0.285919 15.9698 0.717377 14.5029 1.58026C12.432 0.80365 10.1022 0.458496 7.85872 0.5448C5.78781 0.5448 3.71689 1.40768 2.24998 2.87457C0.696793 4.51407 -0.0798035 7.01642 0.00648499 10.5542C0.179062 12.1074 0.437927 13.6606 0.783081 15.1275C1.30081 17.371 1.90483 19.5282 2.68143 21.6854C3.28545 23.67 4.32091 25.5684 5.70152 27.1216C6.39182 27.8119 7.34099 28.2433 8.37645 28.3296C9.15305 28.3296 9.84335 27.9845 10.4474 27.4667C10.9651 28.0708 11.6554 28.4159 12.432 28.5885C13.4675 28.8474 14.5029 28.9337 15.5384 28.7611C16.0561 28.6748 16.4876 28.5022 16.919 28.3296C16.919 28.8474 16.919 29.3651 17.0053 29.8828C16.919 31.436 17.1779 32.9029 17.6093 34.3698C17.7819 35.2327 18.2133 36.0093 18.8173 36.6996C20.0254 37.8214 21.6649 38.2528 23.218 37.9076C24.8575 37.6488 26.4107 36.7859 27.3599 35.4916C28.4816 33.9384 28.9994 31.6086 29.0856 27.8982C29.0856 27.7256 29.1719 27.553 29.1719 27.3805L29.4308 27.3805C30.8977 27.4667 32.3646 27.2079 33.6589 26.6902C34.6944 26.2587 35.6436 25.5684 36.3339 24.6192C36.5064 24.2741 36.679 23.9289 36.7653 23.5838C36.8516 22.8935 36.5927 22.2895 36.075 21.858ZM35.5573 23.8427C34.9533 24.6192 34.263 25.137 33.3138 25.4821C32.2783 25.9135 31.1566 26.0861 30.0348 26.0861C29.5171 26.0861 28.9994 25.9998 28.4816 25.9135C28.2228 28.0708 28.0502 30.228 27.6187 32.3852C27.5325 33.4207 27.0147 34.4561 26.3244 35.319C25.4615 36.0956 24.4261 36.6133 23.3043 36.6996C22.01 37.0447 20.7157 36.7859 19.6802 36.0093C19.0762 35.4916 18.6448 34.715 18.2996 33.9384C18.127 33.4207 18.0407 32.9892 17.9545 32.4715C17.8682 31.6949 17.7819 30.9183 17.7819 30.228C17.6956 28.8474 17.6956 27.553 17.6956 26.2587C17.0053 26.8627 16.1424 27.2942 15.2795 27.4667C14.4166 27.6393 13.4675 27.553 12.6046 27.2942C12.3457 27.2079 12.0869 27.1216 11.828 26.949C11.4828 26.8627 11.3103 26.6039 11.1377 26.345C11.0514 26.1724 10.9651 25.9135 11.0514 25.741C11.1377 25.5684 11.224 25.3095 11.3965 25.2233C11.828 24.9644 12.2594 24.7918 12.7772 24.7055C13.3812 24.6192 13.9852 24.4467 14.5892 24.1878C14.9344 23.9289 15.1932 23.5838 15.4521 23.2386L15.4521 23.1523C14.6755 23.1523 13.9852 22.8935 13.2949 22.6346C13.036 22.8935 11.9143 24.1015 10.3611 25.9136C9.84335 26.6039 9.15305 27.0353 8.29016 27.1216C7.51357 27.1216 6.82326 26.7764 6.30553 26.2587C5.0112 24.7918 4.14832 23.066 3.5443 21.254C2.854 19.0105 2.24998 16.8533 1.81854 14.6961C1.47339 13.2292 1.21452 11.8486 1.04195 10.3817C0.86937 7.10269 1.64597 4.9455 2.94029 3.56488C4.2346 2.27057 5.96037 1.58026 7.85872 1.49396C10.1885 1.40768 12.5183 1.83911 14.6755 2.702C16.0561 1.83911 17.6093 1.40768 19.2488 1.40768C20.1117 1.40768 21.0608 1.58026 21.9237 1.75284C22.2689 1.58026 22.7003 1.49396 23.1318 1.40768C24.2535 1.1488 25.289 1.06253 26.4107 0.976227C29.6897 0.889954 32.7961 2.27057 34.867 4.85922C35.3847 5.72211 35.6436 6.84384 35.5573 7.8793C35.471 9.34619 35.2121 10.8131 34.867 12.28C33.9178 15.9041 32.3646 19.3557 30.2937 22.5483C30.38 22.6346 30.4663 22.6346 30.5526 22.7209C31.7606 22.9798 32.9686 22.9798 34.1767 22.6346C34.6081 22.462 35.1258 22.5483 35.5573 22.7209C35.7298 22.8935 35.9024 23.1523 35.9024 23.4112C35.6436 23.4112 35.6436 23.67 35.5573 23.8427Z" fill-rule="nonzero" fill="#333333"/>
	<path id="path" d="M26.497 2.09799L26.2381 2.09799C25.3752 2.09799 24.4261 2.18427 23.5632 2.44312C25.289 3.21973 26.8421 4.51404 28.0502 5.98096C28.7405 6.93011 29.3445 7.8793 29.8622 9.00104C30.0348 9.4325 30.2074 9.77765 30.2937 10.0365C30.2937 10.2091 30.38 10.2954 30.38 10.468L30.38 10.7268C30.4663 12.1074 30.0348 12.9703 30.0348 14.3509C30.0348 15.3001 30.2937 16.4218 30.2937 17.6299C30.4663 18.9242 30.1211 20.2185 29.4308 21.254C29.5171 21.3403 29.6034 21.4266 29.6034 21.5128C31.4154 18.579 32.8823 15.3864 33.7452 12.0211C34.0904 10.6405 34.3492 9.25992 34.3492 7.8793C34.4355 7.10269 34.2629 6.32611 33.9178 5.5495C32.192 3.21973 29.4308 2.01169 26.497 2.09799Z" fill-rule="nonzero" fill="#306092"/>
	<path id="path" d="M19.0762 2.44315C17.523 2.35684 16.0561 2.87457 14.9344 3.82376C13.8989 4.68665 13.2086 5.89468 12.6909 7.10272C12.2594 8.31073 12.0006 9.60507 11.9143 10.8994C12.6046 10.5542 13.2949 10.2954 14.0715 10.1228C14.8481 9.95023 15.711 9.95023 16.4876 10.2091C17.3504 10.5542 17.9545 11.3308 18.127 12.28C19.2488 17.371 17.7819 19.2693 17.2642 20.8225C17.0053 21.3403 16.8327 21.858 16.7464 22.3757C16.8327 22.3757 16.919 22.3757 17.0053 22.2895C17.2642 22.2895 17.6093 22.3757 17.8682 22.462C18.3859 22.7209 18.8173 23.1523 18.9899 23.7563C19.0762 23.9289 19.0762 24.1015 19.0762 24.1878L19.0762 24.4467C18.9899 26.4313 18.9899 28.4159 19.0762 30.4005C19.0762 31.1772 19.1625 31.8675 19.2488 32.644C19.2488 33.0755 19.3351 33.4207 19.5076 33.8521C19.6802 34.4561 20.0254 34.9738 20.5431 35.4053C21.0608 35.8367 21.8374 36.0956 23.218 35.8367C24.0809 35.7504 24.9438 35.319 25.6341 34.715C26.1519 34.0247 26.497 33.2481 26.5833 32.3852C26.9284 30.7457 27.4462 25.9136 27.5325 25.0507C27.5325 24.533 27.6187 23.9289 27.8776 23.4975C28.0502 23.1523 28.3953 22.8935 28.7405 22.7209C28.9131 22.6346 28.9994 22.6346 29.1719 22.5483C28.9994 22.3757 28.9131 22.2032 28.7405 22.0306C28.3091 21.5128 27.9639 20.9088 27.705 20.3048C27.5325 20.046 27.4462 19.7871 27.2736 19.5282C27.0147 19.0968 26.8421 18.6653 26.497 18.1476C25.893 17.0259 25.3752 15.8178 25.0301 14.5235C24.685 13.2292 24.5987 12.0211 25.4615 11.072C26.1518 10.2954 27.4462 9.86392 29.3445 10.1228C29.2582 9.95023 29.2582 9.77765 29.1719 9.60507C28.8268 8.56961 28.2228 7.62042 27.5325 6.84384C25.6341 4.25519 22.614 2.7883 19.4214 2.702L19.0762 2.44315Z" fill-rule="nonzero" fill="#306092"/>
	<path id="path" d="M8.54903 2.52942L7.94501 2.52942C6.39182 2.52942 4.83862 3.13342 3.80318 4.25516C2.68143 5.37692 1.90483 7.27527 2.07741 10.4679C2.24998 11.8485 2.50885 13.2292 2.76772 14.6098C3.19916 16.767 3.80318 18.8379 4.57976 20.9088C5.09749 22.6346 5.96037 24.1878 7.08212 25.5684C7.34099 25.9135 7.77243 26.0861 8.29016 26.0861C8.80789 25.9998 9.23933 25.741 9.58449 25.3095C10.5337 24.1878 11.4828 23.066 12.432 22.1169C10.9651 20.9088 10.2748 19.0105 10.6199 17.1121C10.7062 16.0767 10.7925 15.0412 10.7925 13.9195C10.7925 13.0566 10.7062 12.5388 10.7062 12.1937L10.7062 12.1074C10.7062 10.2953 11.0514 8.48331 11.6554 6.75754C12.0869 5.5495 12.7772 4.42773 13.7263 3.47858C12.2594 2.96085 10.7062 2.702 9.15305 2.61569C8.89418 2.52942 8.7216 2.52942 8.54903 2.52942ZM28.9131 14.2646C28.9994 12.884 29.2582 12.0211 29.2582 11.072C28.8268 10.9857 28.4816 10.9857 28.0502 10.9857C27.3599 10.8994 26.6696 11.1582 26.0656 11.5897C25.6341 12.0211 25.6341 12.9703 25.8067 14.092C26.1518 15.3001 26.5833 16.4218 27.1873 17.4573C27.4462 17.975 27.705 18.4065 27.8776 18.8379C28.0502 19.0968 28.2228 19.4419 28.3091 19.7008C28.3953 19.8734 28.4816 20.1322 28.6542 20.2185C28.9994 19.3556 29.1719 18.4927 29.0856 17.6299C29.172 16.5944 28.9131 15.3864 28.9131 14.2646ZM28.3091 11.676C28.3091 11.7623 28.3091 11.8485 28.2228 11.9348C28.1365 12.0211 28.1365 12.1074 28.0502 12.1937C27.8776 12.3663 27.6188 12.4526 27.4462 12.5388C27.1873 12.5388 27.0147 12.5388 26.8422 12.3663C26.7559 12.28 26.6696 12.28 26.5833 12.1937C26.497 12.1937 26.497 12.1074 26.497 12.0211C26.497 11.9348 26.497 11.8485 26.5833 11.7623L26.7559 11.5897C27.0147 11.4171 27.3599 11.3308 27.6188 11.3308L28.0502 11.3308C28.1365 11.3308 28.2228 11.4171 28.3091 11.4171L28.3091 11.676Z" fill-rule="nonzero" fill="#306092"/>
	<path id="path" d="M17.0053 12.4526C16.919 11.8485 16.5738 11.3308 15.9698 11.072C15.711 10.9857 15.4521 10.9857 15.1932 10.9857C14.8481 10.9857 14.5892 11.072 14.244 11.072C13.64 11.2445 13.036 11.5034 12.432 11.7623C12.2594 11.8485 12.0868 12.0211 11.9143 12.1937C11.9143 12.4526 12.0005 12.9703 12.0005 13.7469C12.0005 14.8687 12.0005 15.9904 11.828 17.0258C11.3965 19.3556 12.9497 21.5128 15.2795 21.9443C15.4521 21.9443 15.5384 21.9443 15.711 22.0306C15.8835 21.5128 16.1424 20.9088 16.2287 20.3048C16.7464 18.7516 18.0407 17.4573 17.0053 12.4526ZM16.4013 12.5388L16.1424 12.7977C15.9698 12.9703 15.711 13.0566 15.4521 12.9703C15.1932 12.884 15.0206 12.7977 14.8481 12.5388C14.7618 12.4526 14.6755 12.3663 14.6755 12.28C14.5029 12.1074 14.5029 12.0211 14.5029 11.9348C14.5029 11.7623 14.6755 11.676 14.8481 11.5897C15.0206 11.5034 15.1932 11.5034 15.2795 11.5034L15.5384 11.5034C15.7972 11.5034 15.9698 11.5897 16.1424 11.7623C16.2287 11.8485 16.315 11.8485 16.4013 11.9348C16.4875 12.0211 16.4875 12.1074 16.4875 12.28C16.4013 12.3663 16.4013 12.4526 16.4013 12.5388ZM29.6034 23.2386C29.4308 23.3249 29.2582 23.3249 29.0856 23.3249C28.9131 23.4112 28.8268 23.4975 28.6542 23.67C28.5679 24.0152 28.4816 24.3604 28.4816 24.7055C28.5679 24.7918 28.6542 24.7918 28.7405 24.7918C29.0856 24.8781 29.5171 24.9644 29.9485 24.9644C30.984 24.9644 31.9332 24.7918 32.8823 24.4467C33.4001 24.1878 33.9178 23.9289 34.3492 23.4975C32.1057 23.9289 30.984 23.8426 30.2074 23.4975C29.9485 23.4112 29.776 23.3249 29.6034 23.2386ZM16.919 23.4112C16.8327 23.4112 16.6601 23.4112 16.4875 23.7563C15.9698 24.3604 15.7972 24.7918 15.2795 25.137C14.5892 25.5684 13.8989 25.8273 13.036 25.9135C12.7771 25.9135 12.5183 25.9998 12.3457 26.1724L12.432 26.2587C12.6046 26.345 12.8634 26.4313 12.9497 26.5176C13.64 26.6902 14.4166 26.7764 15.1932 26.6902C16.2287 26.5176 17.1779 25.9135 17.6956 25.0507C17.8682 24.7918 17.8682 24.5329 17.6956 24.2741C17.6093 24.0152 17.3504 23.7563 17.1779 23.67C17.1779 23.4112 17.0053 23.4112 16.919 23.4112Z" fill-rule="nonzero" fill="#306092"/>
	<defs/>
</svg>
