<svg width="38.420288" height="38.090805" viewBox="0 0 38.4203 38.0908" fill="none" xmlns="http://www.w3.org/2000/svg" xmlns:xlink="http://www.w3.org/1999/xlink">
	<desc>
			Created with Pixso.
	</desc>
	<path id="path" d="M37.3055 18.6714L37.2955 22.2247L21.6051 31.3497L21.6152 27.7965L37.3055 18.6714ZM16.8242 27.7964L16.8141 31.3497L1.02115 22.2248L1.03123 18.6715C6.24486 21.6576 11.5092 24.6992 16.8242 27.7964ZM21.6152 27.7965L21.6051 31.3497C20.2864 32.1167 18.1415 32.1167 16.8141 31.3497L16.8242 27.7964C18.1516 28.5634 20.2964 28.5634 21.6152 27.7965Z" fill-rule="nonzero" fill="#000000"/>
	<path id="path" d="M37.3055 18.6714L37.2955 22.2247L21.6051 31.3497L21.6152 27.7965L37.3055 18.6714ZM16.8242 27.7964L16.8141 31.3497L1.02115 22.2248L1.03123 18.6715C6.24486 21.6576 11.5092 24.6992 16.8242 27.7964ZM21.6152 27.7965L21.6051 31.3497C20.2864 32.1167 18.1415 32.1167 16.8141 31.3497L16.8242 27.7964C18.1516 28.5634 20.2964 28.5634 21.6152 27.7965Z" fill-rule="nonzero" fill="#000000"/>
	<path id="path" d="M38.2898 17.2927C38.2865 18.4771 38.2831 19.6614 38.2797 20.8459C38.2783 21.3452 37.9505 21.8437 37.2955 22.2246L37.3055 18.6713C37.9605 18.2904 38.2884 17.7919 38.2898 17.2927ZM0.0209808 20.8265L0.0310669 17.2732C0.0296478 17.779 0.363281 18.2856 1.03127 18.6716L1.02119 22.2248C0.353149 21.8389 0.0195618 21.3323 0.0209808 20.8265Z" fill-rule="nonzero" fill="#910D06"/>
	<path id="path" d="M37.3055 18.6714L37.2955 22.2247L21.6051 31.3497L21.6152 27.7965L37.3055 18.6714ZM16.8242 27.7964L16.8141 31.3497L1.02115 22.2248L1.03123 18.6715C6.24486 21.6576 11.5092 24.6992 16.8242 27.7964ZM21.6152 27.7965L21.6051 31.3497C20.2864 32.1167 18.1415 32.1167 16.8141 31.3497L16.8242 27.7964C18.1516 28.5634 20.2964 28.5634 21.6152 27.7965Z" fill-rule="nonzero" fill="#910D06"/>
	<path id="path" d="M37.3055 12.492L37.2955 16.0453L21.6051 25.1704L21.6152 21.6171L37.3055 12.492ZM16.8242 21.6171L16.8141 25.1704L1.02115 16.0454L1.03123 12.4922C6.24486 15.4783 11.5092 18.5199 16.8242 21.6171ZM21.6152 21.6171L21.6051 25.1704C20.2864 25.9374 18.1415 25.9373 16.8141 25.1704L16.8242 21.6171C18.1516 22.384 20.2964 22.3841 21.6152 21.6171Z" fill-rule="nonzero" fill="#000000"/>
	<path id="path" d="M37.3055 12.492L37.2955 16.0453L21.6051 25.1704L21.6152 21.6171L37.3055 12.492ZM16.8242 21.6171L16.8141 25.1704L1.02115 16.0454L1.03123 12.4922C6.24486 15.4783 11.5092 18.5199 16.8242 21.6171ZM21.6152 21.6171L21.6051 25.1704C20.2864 25.9374 18.1415 25.9373 16.8141 25.1704L16.8242 21.6171C18.1516 22.384 20.2964 22.3841 21.6152 21.6171Z" fill-rule="nonzero" fill="#000000"/>
	<path id="path" d="M38.2898 11.1133C38.2865 12.2978 38.2831 13.482 38.2797 14.6665C38.2783 15.1658 37.9505 15.6644 37.2955 16.0453L37.3055 12.492C37.9605 12.1111 38.2884 11.6126 38.2898 11.1133ZM0.0209808 14.6471L0.0310669 11.0939C0.0296478 11.5997 0.363281 12.1062 1.03127 12.4922L1.02119 16.0454C0.353149 15.6595 0.0195618 15.1529 0.0209808 14.6471Z" fill-rule="nonzero" fill="#910D06"/>
	<path id="path" d="M37.3055 12.492L37.2955 16.0453L21.6051 25.1704L21.6152 21.6171L37.3055 12.492ZM16.8242 21.6171L16.8141 25.1704L1.02115 16.0454L1.03123 12.4922C6.24486 15.4783 11.5092 18.5199 16.8242 21.6171ZM21.6152 21.6171L21.6051 25.1704C20.2864 25.9374 18.1415 25.9373 16.8141 25.1704L16.8242 21.6171C18.1516 22.384 20.2964 22.3841 21.6152 21.6171Z" fill-rule="nonzero" fill="#910D06"/>
	<path id="path" d="M38.2897 23.4585C38.2865 24.643 38.2831 25.8272 38.2797 27.0117C38.2783 27.511 37.9504 28.0095 37.2954 28.3905L37.3055 24.8372C37.9604 24.4563 38.2884 23.9577 38.2897 23.4585ZM0.0209503 26.9923L0.0310364 23.4391C0.0296173 23.9448 0.363251 24.4514 1.03123 24.8373L1.02116 28.3906C0.353119 28.0047 0.0195312 27.498 0.0209503 26.9923Z" fill-rule="nonzero" fill="#910D06"/>
	<path id="path" d="M38.2897 23.4585C38.2865 24.643 38.2831 25.8272 38.2797 27.0117C38.2783 27.511 37.9504 28.0095 37.2954 28.3905L37.3055 24.8372C37.9604 24.4563 38.2884 23.9577 38.2897 23.4585ZM0.0209503 26.9923L0.0310364 23.4391C0.0296173 23.9448 0.363251 24.4514 1.03123 24.8373L1.02116 28.3906C0.353119 28.0047 0.0195312 27.498 0.0209503 26.9923Z" fill-rule="nonzero" fill="#910D06"/>
	<path id="path" d="M38.2897 23.4585C38.2865 24.643 38.2831 25.8272 38.2797 27.0117C38.2783 27.511 37.9504 28.0095 37.2954 28.3905L37.3055 24.8372C37.9604 24.4563 38.2884 23.9577 38.2897 23.4585ZM0.0209503 26.9923L0.0310364 23.4391C0.0296173 23.9448 0.363251 24.4514 1.03123 24.8373L1.02116 28.3906C0.353119 28.0047 0.0195312 27.498 0.0209503 26.9923Z" fill-rule="nonzero" fill="#910D06"/>
	<path id="path" d="M37.3055 24.8372L37.2954 28.3905L21.6051 37.5156L21.6152 33.9623L37.3055 24.8372ZM16.8241 33.9623L16.8141 37.5156L1.02112 28.3906L1.0312 24.8373L16.8241 33.9623ZM21.6152 33.9623L21.6051 37.5156C20.2863 38.2825 18.1415 38.2825 16.8141 37.5156L16.8241 33.9623C18.1515 34.7293 20.2964 34.7293 21.6152 33.9623Z" fill-rule="nonzero" fill="#910D06"/>
	<path id="path" d="M37.3055 24.8372L37.2954 28.3905L21.6051 37.5156L21.6152 33.9623L37.3055 24.8372ZM16.8241 33.9623L16.8141 37.5156L1.02112 28.3906L1.0312 24.8373L16.8241 33.9623ZM21.6152 33.9623L21.6051 37.5156C20.2863 38.2825 18.1415 38.2825 16.8141 37.5156L16.8241 33.9623C18.1515 34.7293 20.2964 34.7293 21.6152 33.9623Z" fill-rule="nonzero" fill="#910D06"/>
	<path id="path" d="M37.3055 24.8372L37.2954 28.3905L21.6051 37.5155L21.6152 33.9623L37.3055 24.8372ZM16.8241 33.9623L16.8141 37.5155L1.02113 28.3906L1.03122 24.8373L16.8241 33.9623ZM21.6152 33.9623L21.6051 37.5155C20.2863 38.2825 18.1415 38.2825 16.8141 37.5155L16.8241 33.9623C18.1516 34.7293 20.2964 34.7293 21.6152 33.9623Z" fill-rule="nonzero" fill="#910D06"/>
	<path id="path" d="M37.3056 12.4785L37.2955 16.0318L21.6052 25.1568L21.6152 21.6036L37.3056 12.4785ZM16.8242 21.6036L16.8141 25.1568L1.02116 16.0319L1.03125 12.4786L16.8242 21.6036ZM21.6152 21.6036L21.6052 25.1568C20.2864 25.9238 18.1415 25.9238 16.8141 25.1568L16.8242 21.6036C18.1516 22.3706 20.2964 22.3706 21.6152 21.6036Z" fill-rule="nonzero" fill="#910D06"/>
	<path id="path" d="M38.2898 11.0998C38.2865 12.2842 38.2831 13.4685 38.2797 14.653C38.2784 15.1523 37.9505 15.6508 37.2955 16.0318L37.3055 12.4785C37.9605 12.0976 38.2884 11.599 38.2898 11.0998ZM0.0209961 14.6336L0.0310822 11.0803C0.0296631 11.5861 0.363297 12.0927 1.03128 12.4786L1.02121 16.0319C0.353165 15.6459 0.019577 15.1393 0.0209961 14.6336Z" fill-rule="nonzero" fill="#910D06"/>
	<path id="path" d="M37.4986 10.0359L21.3587 0.539993C20.135 -0.179962 18.158 -0.179962 16.9426 0.53981L0.907501 10.0359C-0.308105 10.7558 -0.301651 11.9227 0.921875 12.6427L16.8971 22.0958C18.1205 22.8156 20.5044 22.8586 21.72 22.1386C27.065 18.9733 32.168 16.5099 37.513 13.3445C38.7283 12.6247 38.7219 10.7556 37.4986 10.0359ZM15.9972 3.67165L18.7249 4.55557L21.4344 2.92397L20.5644 5.22658L23.1406 6.27742L19.8752 6.81619L18.758 9.09738L17.61 7.12779L14.3434 7.487L16.899 5.73053L15.9972 3.67165ZM8.01521 11.7347C7.43233 11.3918 7.03954 10.932 6.95218 10.4116C6.75262 9.22173 8.22444 8.16486 10.2395 8.05087C11.3731 7.98674 12.4369 8.23468 13.1865 8.67572C13.7694 9.01868 14.1622 9.47847 14.2495 9.99895C14.4491 11.1887 12.9775 12.2458 10.9622 12.3596C9.82863 12.4237 8.76486 12.1758 8.01521 11.7347ZM19.7299 19.3796L12.6039 15.187L22.2981 13.6525L19.7299 19.3796ZM26.8557 14.4916L20.9722 11.03L26.8174 7.56836L32.701 11.03L26.8557 14.4916Z" fill-rule="nonzero" fill="#CB1715"/>
	<defs/>
</svg>
