<svg width="44.478836" height="32.059296" viewBox="0 0 44.4788 32.0593" fill="none" xmlns="http://www.w3.org/2000/svg" xmlns:xlink="http://www.w3.org/1999/xlink">
	<desc>
			Created with Pixso.
	</desc>
	<path id="path" d="M7.75194 19.8337C12.1205 15.5391 17.2385 12.5617 23.106 10.9016C23.0343 10.5723 22.9561 10.2429 22.891 9.88062C22.4847 7.93451 22.3501 5.96936 22.4871 3.98517C22.5469 2.83203 22.764 1.71005 23.1385 0.619171C23.1906 0.474274 23.2558 0.335938 23.3144 0.197601L23.3926 0.0592957L23.4512 0.0592957C24.5611 0.568024 25.5621 1.24213 26.4543 2.08151C27.0486 2.64151 27.4525 3.31778 27.6659 4.11032C30.4139 3.64783 33.1673 3.6127 35.926 4.00494C36.2495 3.18738 36.7467 2.49792 37.4177 1.93658C38.2308 1.17798 39.145 0.576355 40.1602 0.131744C40.1917 0.115723 40.2242 0.102539 40.2579 0.0922241C40.7074 0.803619 41.1373 4.78223 41.0136 7.33801C40.8958 9.7869 40.3356 12.1275 39.3329 14.3598L41.1178 14.3598L41.1178 14.9197L39.2547 14.9197C39.1076 14.9008 39.0099 14.9623 38.9616 15.1042C38.8769 15.3018 38.7662 15.4928 38.6554 15.7102L41.1178 15.7102L41.1178 16.2832L38.4665 16.2832C38.3706 16.2677 38.2989 16.3028 38.2515 16.3886C37.0053 18.4448 35.4158 20.1794 33.4831 21.5924L33.3985 21.6583L33.6134 21.8954C35.6545 24.1131 37.6891 26.3373 39.7173 28.5681C39.8338 28.7053 39.9814 28.7733 40.1602 28.7723C41.3293 28.7686 42.389 29.1111 43.3392 29.7999C43.7021 30.0312 43.9952 30.332 44.2186 30.7023C44.4909 31.1263 44.5495 31.5786 44.3945 32.0593L39.8084 32.0593C39.6903 32.0518 39.5796 32.0189 39.4762 31.9605C36.9813 30.6431 34.4603 29.3652 31.8871 28.2124C28.7956 26.7841 25.6102 25.6182 22.3308 24.7147C20.4609 24.2145 18.5653 23.8522 16.6438 23.6278L15.5951 23.5092C15.6276 23.753 15.6472 23.9835 15.6797 24.2075C15.8064 25.1839 16.1668 26.0622 16.7611 26.8423C16.8402 26.9984 16.9596 27.0423 17.1194 26.9741C17.6818 26.7847 18.2442 26.7847 18.8066 26.9741C19.1652 27.0753 19.4396 27.2878 19.6298 27.6114C19.8201 27.935 19.8735 28.2802 19.7902 28.6472L16.3116 28.6472C16.2075 28.6437 16.112 28.6129 16.025 28.555C13.9535 27.0767 11.9993 25.454 10.1622 23.6871C10.1062 23.6366 10.041 23.6168 9.96677 23.6278C8.75075 23.9172 7.6973 24.5046 6.80638 25.3901C5.91547 26.2755 5.31648 27.3305 5.00945 28.555C4.78467 29.3557 4.76512 30.1615 4.95081 30.9724L4.95081 31.091C4.95415 31.1129 4.95415 31.1349 4.95081 31.1569L0.0586243 31.1569C0.019455 30.9157 0.0476837 30.683 0.143311 30.4586C0.469025 29.7999 0.794739 29.1412 1.15302 28.4825C2.85988 25.6845 4.81415 23.076 7.01582 20.6571C7.08748 20.5714 7.16565 20.4924 7.25034 20.4002L7.02234 20.084C6.08282 18.8101 5.36842 17.418 4.87915 15.9078C4.36745 14.4293 4.32185 12.9362 4.74236 11.4286C4.98361 10.519 5.41167 9.71042 6.0265 9.00305C6.64136 8.29565 7.37935 7.7626 8.24049 7.40387C9.22604 7.00687 10.2466 6.86194 11.3022 6.96912C11.8494 7.01523 12.3901 7.10745 12.9307 7.1799C13.078 6.86731 13.311 6.64758 13.6296 6.52072C13.9483 6.39389 14.2668 6.39404 14.5854 6.52121C16.2829 6.8959 17.6683 7.77417 18.7414 9.15604C18.7734 9.19748 18.8017 9.24139 18.8261 9.28778C18.4874 9.39316 18.1747 9.51172 17.849 9.5842C16.5116 9.90045 15.1827 9.86752 13.8623 9.48538C13.6954 9.43484 13.5348 9.36899 13.3802 9.28778C13.1584 9.19592 12.9869 9.04538 12.8659 8.83612C12.7449 8.62686 12.6992 8.40195 12.7288 8.16138L12.7288 7.92426C12.3901 7.88474 12.0774 7.83862 11.7191 7.80569C10.6275 7.65176 9.5657 7.77032 8.53365 8.16138C7.06479 8.76804 6.08115 9.83295 5.58269 11.3561C5.14119 12.6078 5.09341 13.8748 5.43938 15.1569C5.90443 16.8704 6.67528 18.4294 7.75194 19.8337ZM32.8512 22.0403C32.6037 22.1984 32.3366 22.3499 32.0956 22.5278C32.0131 22.6049 31.9306 22.6049 31.8481 22.5278C29.2496 21.0072 27.1259 18.9784 25.4771 16.4413C25.4104 16.3297 25.3126 16.2791 25.184 16.2898L23.1906 16.2898C22.7737 16.2898 22.7803 16.2898 22.7737 15.8683C22.7737 15.7168 22.8259 15.6838 22.9692 15.6838L25.0146 15.6838C24.8909 15.4533 24.7801 15.2688 24.6824 15.0712C24.6423 14.9646 24.5663 14.9185 24.4544 14.9329L23.2102 14.9329C22.7737 14.9329 22.7737 14.9329 22.7737 14.4916C22.7737 14.3466 22.8259 14.3005 22.9692 14.3005L24.285 14.3005L23.3079 11.6657C22.0593 11.9957 20.839 12.4107 19.6469 12.9107L20.9498 16.494L20.9042 16.494L20.7478 16.4018L20.2397 16.0593C19.2821 15.4006 18.3245 14.7419 17.3604 14.0832C17.3018 14.0436 17.1976 14.0041 17.152 14.0305C16.7937 14.2017 16.4484 14.3862 16.0836 14.5838L17.3148 16.7904L17.2692 16.7904L17.0868 16.6982C16.3181 16.2898 15.556 15.8814 14.8003 15.4665C14.7048 15.3919 14.6093 15.3919 14.5137 15.4665C14.0316 15.7892 13.5431 16.1252 13.0545 16.415C12.9348 16.4727 12.9066 16.5606 12.9698 16.6785C13.1327 17.2318 13.289 17.7917 13.4454 18.345C13.466 18.4116 13.479 18.4796 13.4845 18.5492L13.3021 18.4306C12.833 18.1013 12.364 17.7719 11.9015 17.436C11.819 17.3533 11.7365 17.3533 11.654 17.436C10.5231 18.2984 9.45917 19.2382 8.46199 20.2552C8.35776 20.3672 8.35776 20.4397 8.46199 20.5517C9.04826 21.2104 9.62804 21.8691 10.2013 22.5278C10.2782 22.624 10.3759 22.6569 10.4944 22.6266C11.1803 22.5304 11.8686 22.5062 12.5594 22.5541C13.3151 22.5541 14.0707 22.6068 14.8394 22.6332C14.9025 21.2747 15.1196 19.942 15.4908 18.6348L16.1423 18.7995C16.253 18.7995 16.2791 18.8851 16.253 18.9905C16.2009 19.1947 16.1423 19.3989 16.0966 19.6097C15.8353 20.5742 15.6768 21.5557 15.6211 22.5541C15.6211 22.6793 15.6211 22.7254 15.7775 22.7386C16.2986 22.7913 16.8262 22.8308 17.3409 22.923C18.6893 23.1602 20.0378 23.3841 21.3732 23.6805C23.4373 24.1595 25.461 24.7743 27.4444 25.5249C30.3471 26.6143 33.183 27.8592 35.952 29.2598C37.1962 29.879 38.4274 30.5377 39.6651 31.17C39.7393 31.2155 39.8197 31.2418 39.9062 31.2491L43.5737 31.2491C43.489 31.1107 43.4304 31.0053 43.3652 30.9066C42.8741 30.283 42.2509 29.8571 41.4956 29.6287C40.9977 29.4602 40.4896 29.4185 39.9713 29.5035C39.7677 29.5464 39.6048 29.4827 39.4827 29.3125C38.4339 28.1597 37.3721 27.007 36.3233 25.8477C36.2437 25.7467 36.1438 25.7181 36.0237 25.7621L33.9 26.3022L33.7046 26.3022L33.7046 26.2561L35.5612 24.998C35.5662 24.976 35.5662 24.954 35.5612 24.9321C35.2094 24.5434 34.8641 24.1548 34.5059 23.7727C34.4407 23.7415 34.3756 23.7415 34.3104 23.7727L32.8252 24.5303L32.6623 24.5961C32.6663 24.5178 32.6967 24.4519 32.7535 24.3985L33.5939 23.0811C33.5939 23.035 33.6525 22.9296 33.6264 22.9033C33.3528 22.5871 33.1053 22.317 32.8512 22.0403ZM32.291 7.46973C32.2389 7.35776 32.2128 7.2919 32.1803 7.2326C31.835 6.4158 31.4833 5.60559 31.1445 4.79538C31.1099 4.65591 31.0231 4.60101 30.8839 4.63071C29.3917 4.70242 27.9238 4.93298 26.4803 5.32236C26.3608 5.35922 26.2457 5.34824 26.1351 5.28943C25.5132 4.9946 25.0159 4.55548 24.6433 3.97202C24.3112 3.43985 24.068 2.86896 23.9137 2.25937C23.829 1.94318 23.7574 1.60065 23.6662 1.24496C23.6662 1.35693 23.6206 1.41623 23.6076 1.48209C23.4045 2.42438 23.2829 3.37732 23.2428 4.34088C23.1729 5.84439 23.2663 7.33746 23.5229 8.8201C23.5427 8.89703 23.5861 8.95633 23.6532 8.99796C24.3046 9.35364 25.0146 9.70276 25.6986 10.0519L25.855 10.1375L25.855 10.1836L23.816 10.3154L24.2003 11.7184L24.1613 11.4417L25.5032 12.0016L24.3632 12.331L25.1905 14.2676C25.1905 14.3071 25.2882 14.3269 25.3338 14.3269L27.2946 14.3269L27.2946 14.9L25.5227 14.9C25.6595 15.1371 25.7768 15.3413 25.8875 15.5587C25.9286 15.654 26.0003 15.6957 26.1025 15.6838L27.3141 15.6838L27.3141 16.2635L26.324 16.2635L26.5585 16.6192C27.9383 18.6818 29.721 20.2869 31.9067 21.4343C31.9849 21.4936 32.063 21.4936 32.1412 21.4343C34.2548 20.1744 35.9919 18.5123 37.3526 16.4479L37.4633 16.2701L36.61 16.2701L36.61 15.697L37.6848 15.697C37.7434 15.697 37.8216 15.697 37.8412 15.6575C37.9845 15.4269 38.1147 15.1832 38.2646 14.9131L36.61 14.9131L36.61 14.3335L38.3884 14.3335C38.5048 14.3502 38.5808 14.3019 38.6163 14.1885C38.7727 13.7867 38.9421 13.3915 39.1049 12.9963L39.1049 12.858L38.2906 12.555L39.2026 12.2717C39.2667 12.2593 39.3145 12.2241 39.3459 12.1663C39.4827 11.7184 39.6065 11.2639 39.7368 10.8028L38.6945 10.6315C39.0263 10.4553 39.3672 10.2993 39.7173 10.1638C39.8277 10.1271 39.8885 10.0503 39.8996 9.93329C40.1137 8.67972 40.2005 7.41721 40.1602 6.14572C40.1081 4.86786 40.0625 3.59653 39.9974 2.31863C39.9974 1.9827 39.9127 1.65994 39.8671 1.30423C39.8345 1.42279 39.7954 1.54794 39.7628 1.67313C39.4832 3.0509 38.8188 4.20145 37.7695 5.12473C37.6744 5.21814 37.5636 5.24448 37.4373 5.2038C36.1134 4.867 34.7693 4.67377 33.405 4.62411C33.2604 4.59436 33.18 4.65363 33.1639 4.80197C32.9099 5.61877 32.6493 6.43558 32.3953 7.25235L32.291 7.46973ZM4.02579 30.4191C3.95523 28.7108 4.42859 27.1738 5.44589 25.8082C6.43668 24.4318 7.73952 23.503 9.35443 23.0218L7.68027 21.105L7.54347 21.3026C6.02385 22.9841 4.61244 24.7538 3.30923 26.6118C2.51431 27.7207 1.79123 28.8757 1.13998 30.0766C1.08136 30.182 1.03577 30.2874 0.964111 30.4257L4.02579 30.4191Z" fill-rule="nonzero" fill="#333333"/>
	<path id="path" d="M32.8512 22.0403C33.1053 22.317 33.3528 22.5871 33.5939 22.8703C33.5939 22.8703 33.5939 23.002 33.5613 23.0482L32.7535 24.3985C32.7139 24.451 32.6944 24.5103 32.6949 24.5764L32.8578 24.5105L34.2844 23.7925C34.3495 23.7612 34.4147 23.7612 34.4798 23.7925C34.8381 24.1745 35.1833 24.5632 35.5351 24.9518C35.5402 24.9738 35.5402 24.9957 35.5351 25.0177L33.6785 26.2758L33.6785 26.3219L33.874 26.3219L36.0107 25.7554C36.1308 25.7115 36.2307 25.7401 36.3103 25.8411C37.3591 27.0004 38.4209 28.1531 39.4697 29.3059C39.5918 29.4761 39.7547 29.5398 39.9583 29.4969C40.4766 29.4118 40.9847 29.4536 41.4826 29.622C42.2379 29.8505 42.8611 30.2764 43.3522 30.8999C43.4173 30.9987 43.476 31.1042 43.5606 31.2425L39.8931 31.2425C39.8067 31.2352 39.7263 31.2089 39.6521 31.1634C38.4144 30.5047 37.1832 29.846 35.939 29.2532C33.1742 27.853 30.3427 26.6081 27.4444 25.5183C25.461 24.7677 23.4373 24.1529 21.3732 23.6739C20.0378 23.3775 18.6893 23.1535 17.3409 22.9164C16.8262 22.8242 16.2986 22.7847 15.7775 22.732C15.6472 22.732 15.6146 22.6727 15.6211 22.5475C15.6542 21.5562 15.7888 20.5791 16.025 19.6163C16.0706 19.4055 16.1292 19.2013 16.1813 18.9971C16.1813 18.8917 16.1813 18.8324 16.0706 18.8061L15.4192 18.6414C15.0479 19.9485 14.8308 21.2813 14.7677 22.6397C13.9991 22.6397 13.2434 22.5739 12.4878 22.5607C11.7916 22.5429 11.1011 22.5978 10.4162 22.7254C10.2977 22.7557 10.2 22.7227 10.1231 22.6266C9.54985 21.9679 8.97009 21.3092 8.3838 20.6505C8.28609 20.5385 8.28609 20.466 8.3838 20.354C9.381 19.3369 10.445 18.3972 11.5758 17.5348C11.6583 17.4521 11.7408 17.4521 11.8233 17.5348C12.2858 17.8707 12.7549 18.1935 13.2239 18.5294L13.4063 18.648C13.4008 18.5784 13.3878 18.5104 13.3672 18.4438C13.2108 17.8905 13.0545 17.3306 12.8916 16.7773C12.8284 16.6594 12.8566 16.5715 12.9763 16.5138C13.4649 16.2042 13.9535 15.8551 14.4355 15.5652C14.5311 15.4907 14.6266 15.4907 14.7222 15.5652C15.4778 15.9802 16.24 16.3886 17.0086 16.797L17.191 16.8893L17.2366 16.8893L16.0576 14.6496C16.4223 14.452 16.7676 14.2676 17.1259 14.0963C17.1715 14.0963 17.2757 14.0963 17.3344 14.149C18.2984 14.8077 19.2886 15.4664 20.2136 16.1251L20.7217 16.4677L20.8781 16.5599L20.9237 16.5599L19.6208 12.9765C20.8129 12.4766 22.0332 12.0616 23.2818 11.7316L24.259 14.3664L22.9691 14.3664C22.8258 14.3664 22.7737 14.4125 22.7737 14.5574C22.7737 14.9987 22.7737 14.9987 23.2102 14.9987L24.4544 14.9987C24.5663 14.9844 24.6423 15.0305 24.6824 15.1371C24.7801 15.3347 24.8908 15.5191 25.0146 15.7497L22.9822 15.7497C22.8389 15.7497 22.7867 15.7497 22.7867 15.9341C22.7867 16.3557 22.7867 16.3557 23.2037 16.3557L25.197 16.3557C25.3257 16.345 25.4234 16.3955 25.4902 16.5072C27.1397 19.0278 29.259 21.0435 31.848 22.5541C31.9327 22.6372 32.0174 22.6372 32.1021 22.5541C32.3366 22.3499 32.6037 22.1984 32.8512 22.0403Z" fill-rule="nonzero" fill="url(#paint_linear_5_100_0)"/>
	<path id="path" d="M32.291 7.46976L32.3692 7.25238C32.6233 6.43558 32.8838 5.61877 33.1379 4.80197C33.154 4.65363 33.2343 4.59436 33.3789 4.62411C34.753 4.68057 36.1057 4.88257 37.4373 5.23013C37.5636 5.27084 37.6744 5.24448 37.7695 5.15109C38.8188 4.22778 39.4832 3.07724 39.7628 1.69946C39.7628 1.57431 39.8215 1.44916 39.854 1.3306L39.9192 1.3306C39.9648 1.66653 40.0365 1.98929 40.0495 2.345C40.1146 3.62289 40.1602 4.8942 40.2123 6.17209C40.2527 7.44354 40.1658 8.70609 39.9518 9.95966C39.9406 10.0766 39.8798 10.1535 39.7694 10.1902C39.4193 10.3257 39.0784 10.4816 38.7466 10.6579L39.7889 10.8292C39.6586 11.2903 39.5349 11.7448 39.3981 12.1927C39.3666 12.2505 39.3188 12.2856 39.2547 12.2981L38.3427 12.5813L39.157 12.8843L39.157 13.0226C38.9942 13.4179 38.8248 13.8131 38.6685 14.2149C38.6329 14.3282 38.5569 14.3765 38.4405 14.3598L36.61 14.3598L36.61 14.9395L38.2646 14.9395C38.1147 15.2096 37.9845 15.4533 37.8412 15.6838C37.8412 15.6838 37.7434 15.7234 37.6848 15.7234L36.61 15.7234L36.61 16.2964L37.4698 16.2964L37.3591 16.4743C35.9984 18.5387 34.2613 20.2008 32.1477 21.4607C32.0695 21.52 31.9914 21.52 31.9132 21.4607C29.7227 20.3084 27.9378 18.6968 26.5585 16.6258L26.324 16.2701L27.3141 16.2701L27.3141 15.6904L26.1025 15.6904C26.0003 15.7023 25.9286 15.6606 25.8875 15.5652C25.7768 15.3479 25.6595 15.1437 25.5228 14.9066L27.3141 14.9066L27.3141 14.3335L25.3534 14.3335C25.3078 14.3335 25.2296 14.3335 25.2101 14.2742L24.3828 12.3376L25.5228 12.0148L24.1808 11.4549L24.2199 11.7316L23.8356 10.3285L25.8745 10.1968L25.8745 10.1507L25.6986 10.0387C25.0472 9.68958 24.3306 9.34048 23.6532 8.98477C23.5862 8.94315 23.5427 8.88388 23.5229 8.80692C23.2663 7.32428 23.1729 5.83121 23.2428 4.3277C23.2918 3.3656 23.4221 2.41486 23.6336 1.47549C23.6336 1.40964 23.6662 1.35034 23.6922 1.23837C23.7834 1.60724 23.8551 1.93661 23.9398 2.25278C24.0941 2.8624 24.3373 3.43326 24.6694 3.96542C25.042 4.54889 25.5392 4.98804 26.1611 5.28284C26.2718 5.34164 26.3868 5.35263 26.5064 5.31577C27.9499 4.92639 29.4177 4.69586 30.91 4.62411C31.0491 4.59442 31.136 4.64932 31.1706 4.78882C31.5093 5.59903 31.8611 6.40924 32.2063 7.22601C32.2129 7.2919 32.2389 7.35776 32.291 7.46976ZM27.4054 8.60272C27.6073 8.3129 27.7767 8.02963 27.9851 7.77933C28.2928 7.41693 28.6815 7.21054 29.1512 7.16016C29.338 7.11679 29.5146 7.14319 29.6811 7.23935C29.8475 7.33551 29.9597 7.47598 30.0176 7.66077C30.0777 7.82544 30.1211 7.99451 30.1478 8.16797C30.2205 8.8974 30.1684 9.61758 29.9915 10.3285C29.9915 10.4603 29.9198 10.4998 29.7896 10.4998L27.679 10.4998L27.679 11.0202L29.8417 11.0202C29.5985 11.9072 29.2511 12.7504 28.7994 13.5496L31.6722 15.3808L30.0632 16.4545L30.3433 16.8893C30.4019 16.8497 30.4475 16.83 30.4866 16.797C30.9491 16.494 31.4181 16.2042 31.8611 15.8748C32.0609 15.6841 32.2606 15.6841 32.4604 15.8748C32.9946 16.2569 33.5483 16.606 34.1085 16.9749L34.3821 16.5335L32.5777 15.4006L35.4179 13.5364C34.8131 12.7885 34.6329 11.9476 34.8772 11.0136L37.2223 11.0136L37.2223 10.5064L35.0661 10.5064C35.0632 10.48 35.0632 10.4537 35.0661 10.4273C35.2149 9.99039 35.4648 9.62399 35.8159 9.32816C36.167 9.03229 36.5685 8.84976 37.0204 8.78058C37.3526 8.72128 37.6718 8.70154 38.0301 8.65543L38.0301 8.15479C37.7825 8.15479 37.548 8.15479 37.32 8.20749C36.6874 8.2406 36.1198 8.45218 35.6173 8.84232C35.1148 9.23242 34.766 9.73221 34.571 10.3417C34.5406 10.4713 34.4602 10.5262 34.33 10.5064L30.4931 10.5064L30.4931 10.2956C30.5517 9.78839 30.6299 9.28119 30.6625 8.7674C30.7033 8.27438 30.6187 7.8045 30.4084 7.35776C30.1816 6.8342 29.7864 6.59485 29.2228 6.63977C28.591 6.67014 28.0655 6.92484 27.6464 7.40387C27.357 7.71198 27.1398 8.06549 26.995 8.46439L27.4054 8.60272Z" fill-rule="nonzero" fill="url(#paint_radial_5_101_0)"/>
	<path id="path" d="M27.4053 8.60272L26.9754 8.43805C27.1203 8.03915 27.3374 7.68564 27.6268 7.37753C28.0581 6.89719 28.5944 6.64908 29.2359 6.63321C29.7994 6.58829 30.1946 6.82761 30.4214 7.3512C30.6317 7.79794 30.7164 8.26782 30.6755 8.76083C30.6755 9.2746 30.5648 9.78183 30.5061 10.289L30.5061 10.4998L34.343 10.4998C34.4732 10.5196 34.5536 10.4647 34.584 10.3351C34.7789 9.73016 35.1254 9.23346 35.6238 8.845C36.1221 8.45657 36.6853 8.24408 37.3135 8.20752C37.5415 8.20752 37.776 8.20752 38.0235 8.15482L38.0235 8.65543C37.6848 8.70154 37.3721 8.72128 37.0138 8.78058C36.562 8.84979 36.1605 9.03232 35.8094 9.32816C35.4583 9.62399 35.2084 9.99042 35.0596 10.4273C35.0567 10.4537 35.0567 10.48 35.0596 10.5064L37.2158 10.5064L37.2158 11.0136L34.8707 11.0136C34.6264 11.9476 34.8066 12.7885 35.4113 13.5364L32.5711 15.4006L34.3756 16.5336L34.102 16.9749C33.5417 16.606 32.988 16.2569 32.4539 15.8748C32.2541 15.6841 32.0543 15.6841 31.8546 15.8748C31.4116 16.2042 30.9426 16.494 30.4801 16.7971C30.441 16.83 30.3954 16.8498 30.3367 16.8893L30.0566 16.4545L31.6656 15.3808L28.7929 13.5496C29.2445 12.7504 29.5919 11.9073 29.8352 11.0202L27.679 11.0202L27.679 10.4998L29.7896 10.4998C29.9198 10.4998 29.9654 10.4603 29.9915 10.3286C30.1684 9.61758 30.2205 8.8974 30.1478 8.168C30.1211 7.99454 30.0777 7.82547 30.0175 7.6608C29.9596 7.47601 29.8475 7.33554 29.681 7.23938C29.5146 7.14322 29.338 7.11679 29.1512 7.16016C28.6815 7.21054 28.2928 7.41693 27.9851 7.77936C27.7767 8.06259 27.6073 8.3129 27.4053 8.60272ZM34.3365 11.0268L30.4279 11.0268L29.6332 13.1742L34.6752 13.1742C34.2751 12.5047 34.1622 11.7889 34.3365 11.0268ZM30.0892 13.7275C30.0892 13.7275 30.0892 13.767 30.1283 13.7736C30.7797 14.182 31.4311 14.597 32.0826 14.9988C32.1434 15.0256 32.2042 15.0256 32.265 14.9988L33.0271 14.4982L34.1671 13.7407L30.0892 13.7275Z" fill-rule="nonzero" fill="#333333"/>
	<path id="path" d="M34.3365 11.0267C34.1581 11.787 34.2667 12.5028 34.6622 13.1741L29.6202 13.1741L30.4149 11.0267L34.3365 11.0267ZM30.0892 13.7274L34.1411 13.7274L33.0011 14.485L32.2389 14.9856C32.1781 15.0124 32.1173 15.0124 32.0565 14.9856C31.4051 14.5838 30.7406 14.1358 30.0892 13.7274Z" fill-rule="nonzero" fill="#FCEC64"/>
	<path id="path" d="M4.0258 30.4191L0.964111 30.4191C1.03577 30.2808 1.08136 30.1754 1.14 30.07C1.79124 28.8691 2.51433 27.7141 3.30923 26.6052C4.61244 24.7472 6.02386 22.9775 7.54349 21.296L7.68028 21.0984L9.35443 23.0152C7.73952 23.4964 6.43668 24.4252 5.44591 25.8016C4.42702 27.1692 3.95366 28.7084 4.0258 30.4191Z" fill-rule="evenodd" fill="url(#paint_linear_5_106_0)"/>
	<defs>
		<linearGradient id="paint_linear_5_100_0" x1="43.588303" y1="30.353210" x2="7.921270" y2="20.235456" gradientUnits="userSpaceOnUse">
			<stop stop-color="#F2CF30"/>
			<stop offset="0.984733" stop-color="#DFC973"/>
			<stop offset="1.000000" stop-color="#D6BC4D" stop-opacity="0.000000"/>
		</linearGradient>
		<radialGradient id="paint_radial_5_101_0" cx="0.000000" cy="0.000000" r="1.000000" gradientUnits="userSpaceOnUse" gradientTransform="translate(40.2219 5.48044) rotate(136.704) scale(16.5981 13.924)">
			<stop stop-color="#FFEF80"/>
			<stop stop-color="#FBEC5B"/>
			<stop offset="0.443379" stop-color="#FCEE72"/>
			<stop offset="0.998472" stop-color="#FEF290"/>
		</radialGradient>
		<linearGradient id="paint_linear_5_106_0" x1="9.354437" y1="22.132549" x2="2.501456" y2="30.419098" gradientUnits="userSpaceOnUse">
			<stop offset="0.012587" stop-color="#E1CD77"/>
			<stop offset="1.000000" stop-color="#E6D590"/>
		</linearGradient>
	</defs>
</svg>
