<?xml version="1.0" standalone="no"?><!DOCTYPE svg PUBLIC "-//W3C//DTD SVG 1.1//EN" "http://www.w3.org/Graphics/SVG/1.1/DTD/svg11.dtd"><svg t="1697005016714" class="icon" viewBox="0 0 1024 1024" version="1.1" xmlns="http://www.w3.org/2000/svg" p-id="4028" xmlns:xlink="http://www.w3.org/1999/xlink" width="16" height="16"><path d="M890.88 989.866667H546.133333c-13.653333 0-25.6-11.946667-25.6-25.6S530.773333 938.666667 546.133333 938.666667h344.746667c22.186667 0 40.96-18.773333 40.96-40.96V126.293333c0-22.186667-18.773333-40.96-40.96-40.96H133.12C110.933333 85.333333 92.16 104.106667 92.16 126.293333v373.76c0 13.653333-11.946667 25.6-25.6 25.6s-25.6-11.946667-25.6-25.6V126.293333c0-51.2 40.96-92.16 92.16-92.16h757.76c51.2 0 92.16 40.96 92.16 92.16v769.706667c0 52.906667-40.96 93.866667-92.16 93.866667z" fill="#f3f3f3" p-id="4029"></path><path d="M322.56 989.866667h-187.733333c-51.2 0-93.866667-42.666667-93.866667-93.866667V703.146667c0-51.2 42.666667-93.866667 93.866667-93.866667h187.733333c51.2 0 93.866667 42.666667 93.866667 93.866667v192.853333c0 51.2-42.666667 93.866667-93.866667 93.866667z m-187.733333-329.386667c-23.893333 0-42.666667 18.773333-42.666667 42.666667v192.853333c0 23.893333 18.773333 42.666667 42.666667 42.666667h187.733333c23.893333 0 42.666667-18.773333 42.666667-42.666667V703.146667c0-23.893333-18.773333-42.666667-42.666667-42.666667h-187.733333zM593.92 459.093333c-6.826667 0-13.653333-1.706667-18.773333-6.826666-10.24-10.24-10.24-25.6 0-35.84L826.026667 167.253333c10.24-10.24 25.6-10.24 35.84 0s10.24 25.6 0 35.84L612.693333 452.266667c-5.12 5.12-11.946667 6.826667-18.773333 6.826666z" fill="#f3f3f3" p-id="4030"></path><path d="M843.093333 435.2c-13.653333 0-25.6-11.946667-25.6-25.6V208.213333H617.813333c-13.653333 0-25.6-11.946667-25.6-25.6s11.946667-25.6 25.6-25.6h226.986667c13.653333 0 25.6 11.946667 25.6 25.6V409.6c-1.706667 13.653333-13.653333 25.6-27.306667 25.6z" fill="#f3f3f3" p-id="4031"></path></svg>