<?xml version="1.0" standalone="no"?><!DOCTYPE svg PUBLIC "-//W3C//DTD SVG 1.1//EN" "http://www.w3.org/Graphics/SVG/1.1/DTD/svg11.dtd"><svg t="1697005240688" class="icon" viewBox="0 0 1024 1024" version="1.1" xmlns="http://www.w3.org/2000/svg" p-id="8529" xmlns:xlink="http://www.w3.org/1999/xlink" width="16" height="16"><path d="M256 85.333333h682.666667v682.666667h-85.333334v85.333333h85.333334c46.933333 0 85.333333-38.4 85.333333-85.333333V85.333333c0-46.933333-38.4-85.333333-85.333333-85.333333H256C209.066667 0 170.666667 38.4 170.666667 85.333333v85.333334h85.333333V85.333333z" fill="#2e2d3c" p-id="8530"></path><path d="M768 170.666667H85.333333C38.4 170.666667 0 209.066667 0 256v682.666667c0 46.933333 38.4 85.333333 85.333333 85.333333h682.666667c46.933333 0 85.333333-38.4 85.333333-85.333333V256c0-46.933333-38.4-85.333333-85.333333-85.333333z m0 768H85.333333V256h682.666667v682.666667z" fill="#2e2d3c" p-id="8531"></path></svg>