<svg version="1.1" id="图层_1" xmlns="http://www.w3.org/2000/svg" xmlns:xlink="http://www.w3.org/1999/xlink" x="0px" y="0px"
     viewBox="0 0 1024 1024" style="enable-background:new 0 0 1024 1024;" xml:space="preserve">
<style type="text/css">
	.st0{fill:#979797;}
</style>
    <g>
	<path class="st0" d="M908.76,890.27c-7.38,0-14.77,0-22.15,0c-19.99,0-39.98,0-59.97,0c-29.68,0-59.35,0-89.03,0
		c-36.06,0-72.12,0-108.18,0c-39.49,0-78.98,0-118.48,0c-40.02,0-80.05,0-120.07,0c-37.17,0-74.34,0-111.52,0
		c-31.54,0-63.07,0-94.61,0c-22.58,0-45.17,0-67.75,0c-10.7,0-21.45-0.26-32.15,0c-0.47,0.01-0.93,0-1.4,0
		c6.39,6.28,12.77,12.55,19.16,18.83c0-6.52,0-13.03,0-19.55c0-17.84,0-35.68,0-53.52c0-26.28,0-52.56,0-78.84
		c0-32.21,0-64.41,0-96.62c0-35.13,0-70.25,0-105.38c0-35.46,0-70.92,0-106.38c0-33.21,0-66.43,0-99.64c0-27.95,0-55.9,0-83.85
		c0-20.19,0-40.38,0-60.57c0-9.51,0.28-19.07,0-28.58c-0.01-0.41,0-0.83,0-1.24c-6.39,6.28-12.77,12.55-19.16,18.83
		c7.38,0,14.77,0,22.15,0c19.99,0,39.98,0,59.97,0c29.68,0,59.35,0,89.03,0c36.06,0,72.12,0,108.18,0c39.49,0,78.98,0,118.48,0
		c40.02,0,80.05,0,120.07,0c37.17,0,74.34,0,111.52,0c31.54,0,63.07,0,94.61,0c22.58,0,45.17,0,67.75,0c10.7,0,21.45,0.26,32.15,0
		c0.47-0.01,0.93,0,1.4,0c-6.39-6.28-12.77-12.55-19.16-18.83c0,6.52,0,13.03,0,19.55c0,17.84,0,35.68,0,53.52
		c0,26.28,0,52.56,0,78.84c0,32.21,0,64.41,0,96.62c0,35.13,0,70.25,0,105.38c0,35.46,0,70.92,0,106.38c0,33.21,0,66.43,0,99.64
		c0,27.95,0,55.9,0,83.85c0,20.19,0,40.38,0,60.57c0,9.52-0.17,19.06,0,28.58c0.01,0.41,0,0.83,0,1.24
		c0,9.85,8.81,19.28,19.16,18.83c10.38-0.46,19.16-8.27,19.16-18.83c0-6.52,0-13.03,0-19.55c0-17.84,0-35.68,0-53.52
		c0-26.28,0-52.56,0-78.84c0-32.21,0-64.41,0-96.62c0-35.13,0-70.25,0-105.38c0-35.46,0-70.92,0-106.38c0-33.21,0-66.43,0-99.64
		c0-27.95,0-55.9,0-83.85c0-20.19,0-40.38,0-60.57c0-9.52,0.17-19.06,0-28.58c-0.01-0.41,0-0.83,0-1.24
		c0-10.18-8.78-18.83-19.16-18.83c-7.38,0-14.77,0-22.15,0c-19.99,0-39.98,0-59.97,0c-29.68,0-59.35,0-89.03,0
		c-36.06,0-72.12,0-108.18,0c-39.49,0-78.98,0-118.48,0c-40.02,0-80.05,0-120.07,0c-37.17,0-74.34,0-111.52,0
		c-31.54,0-63.07,0-94.61,0c-22.58,0-45.17,0-67.75,0c-10.71,0-21.44-0.16-32.15,0c-0.47,0.01-0.93,0-1.4,0
		c-10.36,0-19.16,8.63-19.16,18.83c0,6.52,0,13.03,0,19.55c0,17.84,0,35.68,0,53.52c0,26.28,0,52.56,0,78.84
		c0,32.21,0,64.41,0,96.62c0,35.13,0,70.25,0,105.38c0,35.46,0,70.92,0,106.38c0,33.21,0,66.43,0,99.64c0,27.95,0,55.9,0,83.85
		c0,20.19,0,40.38,0,60.57c0,9.52-0.17,19.06,0,28.58c0.01,0.41,0,0.83,0,1.24c0,10.18,8.78,18.83,19.16,18.83
		c7.38,0,14.77,0,22.15,0c19.99,0,39.98,0,59.97,0c29.68,0,59.35,0,89.03,0c36.06,0,72.12,0,108.18,0c39.49,0,78.98,0,118.48,0
		c40.02,0,80.05,0,120.07,0c37.17,0,74.34,0,111.52,0c31.54,0,63.07,0,94.61,0c22.58,0,45.17,0,67.75,0c10.71,0,21.44,0.16,32.15,0
		c0.47-0.01,0.93,0,1.4,0c10.02,0,19.62-8.66,19.16-18.83C927.45,898.9,919.5,890.27,908.76,890.27z"/>
        <g>
		<path class="st0" d="M336.83,122.74c0,35.29,0,70.58,0,105.86c0,5,0,10,0,15c0,9.85,8.81,19.28,19.16,18.83
			c10.38-0.46,19.16-8.27,19.16-18.83c0-35.29,0-70.58,0-105.86c0-5,0-10,0-15c0-9.85-8.81-19.28-19.16-18.83
			C345.6,104.37,336.83,112.19,336.83,122.74L336.83,122.74z"/>
            <path class="st0" d="M355.25,268.1c-5.9,0-11.61-2.33-16.18-6.62c-5.08-4.78-8-11.29-8-17.87V122.74
			c0-13.11,10.83-23.86,24.65-24.47c6.24-0.28,12.34,2.07,17.16,6.6c5.08,4.78,8,11.29,8,17.87v120.87
			c0,13.11-10.83,23.86-24.65,24.47C355.91,268.1,355.58,268.1,355.25,268.1z M356.7,109.55c-0.15,0-0.31,0-0.46,0.01
			c-7.79,0.34-13.67,6.01-13.67,13.18v120.87c0,3.46,1.66,7.09,4.45,9.71c2.53,2.38,5.62,3.62,8.7,3.48
			c7.79-0.34,13.67-6.01,13.67-13.18V122.74c0-3.46-1.66-7.09-4.45-9.71C362.54,110.78,359.63,109.55,356.7,109.55z"/>
	</g>
        <g>
		<path class="st0" d="M581.38,122.74c0,35.29,0,70.58,0,105.86c0,5,0,10,0,15c0,9.85,8.81,19.28,19.16,18.83
			c10.38-0.46,19.16-8.27,19.16-18.83c0-35.29,0-70.58,0-105.86c0-5,0-10,0-15c0-9.85-8.81-19.28-19.16-18.83
			C590.16,104.37,581.38,112.19,581.38,122.74L581.38,122.74z"/>
            <path class="st0" d="M599.81,268.1c-5.9,0-11.61-2.33-16.18-6.62c-5.08-4.78-8-11.29-8-17.87V122.74
			c0-13.11,10.83-23.86,24.65-24.47c6.25-0.28,12.34,2.07,17.16,6.6c5.08,4.78,8,11.29,8,17.87v120.87
			c0,13.11-10.83,23.86-24.65,24.47C600.46,268.1,600.14,268.1,599.81,268.1z M601.25,109.55c-0.15,0-0.31,0-0.46,0.01
			c-7.79,0.34-13.67,6.01-13.67,13.18v120.87c0,3.46,1.66,7.09,4.45,9.71c2.53,2.38,5.62,3.62,8.7,3.48
			c7.79-0.34,13.67-6.01,13.67-13.18V122.74c0-3.46-1.66-7.09-4.45-9.71C607.09,110.78,604.18,109.55,601.25,109.55z"/>
	</g>
        <path class="st0" d="M83.45,385.14c7.38,0,14.77,0,22.15,0c19.99,0,39.98,0,59.97,0c29.68,0,59.35,0,89.03,0
		c36.06,0,72.12,0,108.18,0c39.49,0,78.98,0,118.48,0c40.02,0,80.05,0,120.07,0c37.17,0,74.34,0,111.52,0c31.54,0,63.07,0,94.61,0
		c22.58,0,45.17,0,67.75,0c10.71,0,21.44,0.16,32.15,0c0.47-0.01,0.93,0,1.4,0c10.02,0,19.62-8.66,19.16-18.83
		c-0.46-10.2-8.42-18.83-19.16-18.83c-7.38,0-14.77,0-22.15,0c-19.99,0-39.98,0-59.97,0c-29.68,0-59.35,0-89.03,0
		c-36.06,0-72.12,0-108.18,0c-39.49,0-78.98,0-118.48,0c-40.02,0-80.05,0-120.07,0c-37.17,0-74.34,0-111.52,0
		c-31.54,0-63.07,0-94.61,0c-22.58,0-45.17,0-67.75,0c-10.71,0-21.44-0.16-32.15,0c-0.47,0.01-0.93,0-1.4,0
		c-10.02,0-19.62,8.66-19.16,18.83C64.75,376.51,72.71,385.14,83.45,385.14L83.45,385.14z"/>
        <g>
		<path class="st0" d="M185.35,516.58c37.19,0,74.38,0,111.56,0c5.26,0,10.52,0,15.78,0c10.02,0,19.62-8.66,19.16-18.83
			c-0.46-10.2-8.42-18.83-19.16-18.83c-37.19,0-74.38,0-111.56,0c-5.26,0-10.52,0-15.78,0c-10.02,0-19.62,8.66-19.16,18.83
			C166.66,507.95,174.61,516.58,185.35,516.58L185.35,516.58z"/>
            <path class="st0" d="M428.34,516.58c37.19,0,74.38,0,111.56,0c5.26,0,10.52,0,15.78,0c10.02,0,19.62-8.66,19.16-18.83
			c-0.46-10.2-8.42-18.83-19.16-18.83c-37.19,0-74.38,0-111.56,0c-5.26,0-10.52,0-15.78,0c-10.02,0-19.62,8.66-19.16,18.83
			C409.64,507.95,417.59,516.58,428.34,516.58L428.34,516.58z"/>
            <path class="st0" d="M671.32,516.58c37.19,0,74.38,0,111.56,0c5.26,0,10.52,0,15.78,0c10.02,0,19.62-8.66,19.16-18.83
			c-0.46-10.2-8.42-18.83-19.16-18.83c-37.19,0-74.38,0-111.56,0c-5.26,0-10.52,0-15.78,0c-10.02,0-19.62,8.66-19.16,18.83
			C652.62,507.95,660.58,516.58,671.32,516.58L671.32,516.58z"/>
	</g>
        <g>
		<path class="st0" d="M185.35,643.35c37.19,0,74.38,0,111.56,0c5.26,0,10.52,0,15.78,0c10.02,0,19.62-8.66,19.16-18.83
			c-0.46-10.2-8.42-18.83-19.16-18.83c-37.19,0-74.38,0-111.56,0c-5.26,0-10.52,0-15.78,0c-10.02,0-19.62,8.66-19.16,18.83
			C166.66,634.73,174.61,643.35,185.35,643.35L185.35,643.35z"/>
            <path class="st0" d="M428.34,643.35c37.19,0,74.38,0,111.56,0c5.26,0,10.52,0,15.78,0c10.02,0,19.62-8.66,19.16-18.83
			c-0.46-10.2-8.42-18.83-19.16-18.83c-37.19,0-74.38,0-111.56,0c-5.26,0-10.52,0-15.78,0c-10.02,0-19.62,8.66-19.16,18.83
			C409.64,634.73,417.59,643.35,428.34,643.35L428.34,643.35z"/>
            <path class="st0" d="M671.32,643.35c37.19,0,74.38,0,111.56,0c5.26,0,10.52,0,15.78,0c10.02,0,19.62-8.66,19.16-18.83
			c-0.46-10.2-8.42-18.83-19.16-18.83c-37.19,0-74.38,0-111.56,0c-5.26,0-10.52,0-15.78,0c-10.02,0-19.62,8.66-19.16,18.83
			C652.62,634.73,660.58,643.35,671.32,643.35L671.32,643.35z"/>
	</g>
        <g>
		<path class="st0" d="M185.35,770.13c37.19,0,74.38,0,111.56,0c5.26,0,10.52,0,15.78,0c10.02,0,19.62-8.66,19.16-18.83
			c-0.46-10.2-8.42-18.83-19.16-18.83c-37.19,0-74.38,0-111.56,0c-5.26,0-10.52,0-15.78,0c-10.02,0-19.62,8.66-19.16,18.83
			C166.66,761.51,174.61,770.13,185.35,770.13L185.35,770.13z"/>
            <path class="st0" d="M428.34,770.13c37.19,0,74.38,0,111.56,0c5.26,0,10.52,0,15.78,0c10.02,0,19.62-8.66,19.16-18.83
			c-0.46-10.2-8.42-18.83-19.16-18.83c-37.19,0-74.38,0-111.56,0c-5.26,0-10.52,0-15.78,0c-10.02,0-19.62,8.66-19.16,18.83
			C409.64,761.51,417.59,770.13,428.34,770.13L428.34,770.13z"/>
            <path class="st0" d="M671.32,770.13c37.19,0,74.38,0,111.56,0c5.26,0,10.52,0,15.78,0c10.02,0,19.62-8.66,19.16-18.83
			c-0.46-10.2-8.42-18.83-19.16-18.83c-37.19,0-74.38,0-111.56,0c-5.26,0-10.52,0-15.78,0c-10.02,0-19.62,8.66-19.16,18.83
			C652.62,761.51,660.58,770.13,671.32,770.13L671.32,770.13z"/>
	</g>
</g>
</svg>
