<svg version="1.1" id="图层_1" xmlns="http://www.w3.org/2000/svg" xmlns:xlink="http://www.w3.org/1999/xlink" x="0px" y="0px"
     viewBox="0 0 1024 1024" style="enable-background:new 0 0 1024 1024;" xml:space="preserve">
<style type="text/css">
	.st0{fill:#040000;}
	.st1{fill:#989898;}
</style>
    <g>
	<path class="st0" d="M247.01,772.65c-5.78-5.85-11.39-11.85-16.8-18.03c-2.71-3.09-5.37-6.23-7.98-9.4
		c-1.16-1.41-2.31-2.83-3.45-4.26c-0.57-0.71-1.14-1.43-1.7-2.15c-1.04-1.32-2.49-3.07-0.6-0.74
		c-10.37-12.68-19.32-26.92-27.57-41.04c-8.31-14.21-16.4-29.09-22.37-44.45c1.66,4.27-0.82-2.03-1.15-2.83
		c-0.78-1.94-1.55-3.88-2.3-5.83c-1.51-3.91-2.95-7.84-4.33-11.79c-2.78-7.95-5.3-15.99-7.55-24.1
		c-4.59-16.46-7.93-33.16-10.5-50.04c-0.7-4.63,0.31,2.65-0.05-0.27c-0.12-0.95-0.24-1.9-0.36-2.86c-0.26-2.15-0.51-4.3-0.74-6.45
		c-0.46-4.32-0.85-8.66-1.16-12.99c-0.64-8.76-0.99-17.55-1.05-26.33c-0.11-15,0.62-30.01,2.19-44.92c0.21-2.03,0.44-4.05,0.69-6.07
		c0.16-1.29,0.94-6.44,0.14-1.33c0.56-3.6,1.03-7.21,1.63-10.8c1.21-7.34,2.62-14.64,4.25-21.9c3.12-13.97,7-27.76,11.62-41.3
		c2.29-6.71,4.76-13.36,7.41-19.93c0.61-1.52,1.13-3.53,2.01-4.9c-0.2,0.31-1.66,3.85-0.41,0.98c0.31-0.72,0.62-1.44,0.93-2.16
		c1.49-3.41,3.02-6.8,4.61-10.16c11.93-25.36,26.59-49.3,43.5-71.64c0.4-0.53,2.06-2.5,0.38-0.51c-1.92,2.28,0.54-0.67,0.76-0.95
		c0.96-1.22,1.92-2.43,2.9-3.63c2.31-2.86,4.66-5.69,7.04-8.48c4.52-5.29,9.18-10.46,13.97-15.51
		c9.58-10.09,19.68-19.68,30.26-28.72c2.5-2.13,5.03-4.24,7.58-6.31c1.35-1.1,2.71-2.19,4.08-3.27c0.61-0.48,1.22-0.95,1.83-1.43
		c1.25-1-3.12,2.36,0.09-0.07c5.56-4.21,11.2-8.31,16.96-12.24c11.56-7.89,23.53-15.16,35.85-21.78c6.19-3.33,12.47-6.49,18.83-9.48
		c3.01-1.42,6.04-2.79,9.09-4.13c0.72-0.32,1.44-0.63,2.16-0.94c0.33-0.14,3.92-1.68,1.13-0.49c-2.44,1.04-0.01,0.01,0.6-0.24
		c1.09-0.45,2.18-0.9,3.27-1.34c13.19-5.31,26.67-9.91,40.36-13.77c13.87-3.91,27.96-7.05,42.18-9.41c3.39-0.56,6.79-1.07,10.2-1.56
		c3.22-0.46-0.75,0.01-1.09,0.14c0.84-0.34,2.11-0.27,3.02-0.38c2.02-0.25,4.04-0.48,6.07-0.7c7.34-0.78,14.7-1.36,22.07-1.74
		c14.9-0.76,29.84-0.69,44.73,0.21c7.35,0.44,14.69,1.09,22.01,1.94c1.81,0.21,3.63,0.5,5.45,0.67c-5.12-0.47,0.01,0.01,1.32,0.2
		c3.8,0.55,7.59,1.16,11.37,1.83c28.42,4.99,56.08,13.22,82.78,24.13c1.22,0.5,2.58,0.39-0.98-0.42c0.67,0.15,1.56,0.67,2.16,0.93
		c1.44,0.62,2.87,1.25,4.3,1.89c3.57,1.6,7.12,3.25,10.64,4.95c6.32,3.05,12.56,6.28,18.71,9.66c12.25,6.75,24.14,14.14,35.61,22.14
		c2.54,1.77,5.06,3.58,7.56,5.41c1.56,1.14,3.11,2.3,4.66,3.47c0.62,0.47,1.23,0.94,1.85,1.41c2.79,2.11-2.88-2.29,0.09,0.07
		c5.45,4.33,10.84,8.73,16.09,13.31c10.49,9.14,20.49,18.84,29.97,29.03c4.74,5.1,9.34,10.32,13.81,15.65
		c2.11,2.52,4.19,5.07,6.23,7.64c0.71,0.9,4.72,5.16,1.16,1.44c1.3,1.36,2.38,3.12,3.51,4.63c8.35,11.19,16.12,22.82,23.25,34.83
		c7.17,12.07,13.69,24.53,19.53,37.29c1.39,3.03,2.68,6.1,4.04,9.14c0.98,2.18-1.29-3.21-0.41-0.98c0.36,0.91,0.75,1.81,1.12,2.72
		c0.74,1.82,1.47,3.64,2.19,5.47c2.58,6.61,4.99,13.29,7.21,20.03c4.48,13.61,8.22,27.46,11.2,41.48c1.5,7.09,2.81,14.22,3.92,21.38
		c0.25,1.6,0.49,3.2,0.72,4.8c0.11,0.74,0.32,1.64,0.34,2.41c-0.08-4.51-0.24-1.78-0.08-0.48c0.48,3.84,0.91,7.69,1.28,11.54
		c1.46,15.18,2.04,30.45,1.76,45.7c-0.16,8.78-0.61,17.55-1.34,26.3c-0.34,4.09-0.75,8.18-1.22,12.26c-0.25,2.14-0.45,4.31-0.8,6.44
		c0.1-0.6,0.54-3.8,0.04-0.43c-0.21,1.42-0.42,2.84-0.63,4.26c-2.6,16.86-6.3,33.54-11.05,49.92c-2.35,8.09-4.96,16.1-7.83,24.02
		c-1.35,3.72-2.75,7.42-4.21,11.1c-0.77,1.94-1.56,3.88-2.36,5.81c-0.33,0.8-1.01,3.14,0.17-0.38c-0.43,1.28-1.12,2.59-1.66,3.83
		c-6.69,15.21-14.35,29.99-22.89,44.24c-4.25,7.09-8.73,14.04-13.42,20.85c-2.21,3.21-4.47,6.38-6.77,9.53
		c-1.22,1.66-2.45,3.32-3.69,4.96c-0.55,0.73-1.08,1.49-1.67,2.18c2.79-3.33-0.21,0.25-0.61,0.75
		c-9.93,12.56-20.62,24.5-31.97,35.79c-6.58,6.55-7.04,18.59,0,25.06c7.09,6.5,18.04,6.99,25.06,0
		c49.92-49.71,86.98-111.92,106.41-179.67c18.79-65.53,20.8-135.57,6.56-202.18c-12.3-57.55-37.49-112.76-72.97-159.71
		c-35.86-47.45-81.09-87.39-133.4-115.89c-53.77-29.3-113.62-46.22-174.73-49.81c-60.75-3.57-122.76,6.45-179.06,29.62
		c-55,22.64-105,56.33-145.82,99.71c-41.13,43.72-72.46,96.06-91.59,152.95c-20.86,62.03-25.83,128.48-16.47,193.11
		c10.16,70.18,39.49,136.59,82.85,192.51c10.08,13,20.91,25.38,32.47,37.08c6.52,6.6,18.61,7.02,25.06,0
		C253.54,790.6,253.97,779.69,247.01,772.65L247.01,772.65z"/>
        <path class="st0" d="M157.95,353.58c6.39,0,12.78,0,19.17,0c17.39,0,34.77,0,52.16,0c25.59,0,51.18,0,76.77,0
		c31.35,0,62.7,0,94.05,0c34.35,0,68.7,0,103.05,0c34.68,0,69.35,0,104.03,0c32.33,0,64.66,0,97,0c27.22,0,54.43,0,81.65,0
		c19.67,0,39.34,0,59.01,0c9.32,0,18.66,0.16,27.98,0c0.4-0.01,0.81,0,1.21,0c9.27,0,18.15-8.15,17.72-17.72
		c-0.43-9.6-7.79-17.72-17.72-17.72c-6.39,0-12.78,0-19.17,0c-17.39,0-34.77,0-52.16,0c-25.59,0-51.18,0-76.77,0
		c-31.35,0-62.7,0-94.05,0c-34.35,0-68.7,0-103.05,0c-34.68,0-69.35,0-104.03,0c-32.33,0-64.66,0-97,0c-27.22,0-54.43,0-81.65,0
		c-19.67,0-39.34,0-59.01,0c-9.32,0-18.66-0.16-27.98,0c-0.4,0.01-0.81,0-1.21,0c-9.27,0-18.15,8.15-17.72,17.72
		C140.66,345.46,148.01,353.58,157.95,353.58L157.95,353.58z"/>
        <path class="st0" d="M140.77,571.29c6.74,0,13.47,0,20.21,0c18.33,0,36.66,0,54.99,0c26.98,0,53.96,0,80.95,0
		c33.06,0,66.11,0,99.17,0c36.22,0,72.43,0,108.65,0c36.56,0,73.12,0,109.68,0c34.09,0,68.18,0,102.27,0c28.7,0,57.39,0,86.09,0
		c20.74,0,41.48,0,62.22,0c9.83,0,19.67,0.16,29.5,0c0.42-0.01,0.85,0,1.27,0c9.77,0,19.13-8.15,18.68-17.72
		c-0.45-9.6-8.21-17.72-18.68-17.72c-6.74,0-13.47,0-20.21,0c-18.33,0-36.66,0-54.99,0c-26.98,0-53.96,0-80.95,0
		c-33.06,0-66.11,0-99.17,0c-36.22,0-72.43,0-108.65,0c-36.56,0-73.12,0-109.68,0c-34.09,0-68.18,0-102.27,0
		c-28.7,0-57.39,0-86.09,0c-20.74,0-41.48,0-62.22,0c-9.83,0-19.67-0.16-29.5,0c-0.42,0.01-0.85,0-1.27,0
		c-9.77,0-19.13,8.15-18.68,17.72C122.54,563.17,130.3,571.29,140.77,571.29L140.77,571.29z"/>
        <path class="st0" d="M385.87,125.83c0,5.42,0,10.84,0,16.26c0,14.66,0,29.32,0,43.98c0,21.79,0,43.57,0,65.36
		c0,26.59,0,53.18,0,79.78c0,28.98,0,57.97,0,86.95c0,29.41,0,58.81,0,88.22c0,27.42,0,54.84,0,82.26c0,23.07,0,46.13,0,69.2
		c0,16.68,0,33.37,0,50.05c0,7.9-0.16,15.82,0,23.71c0.01,0.34,0,0.68,0,1.02c0,9.27,8.15,18.15,17.72,17.72
		c9.6-0.43,17.72-7.79,17.72-17.72c0-5.42,0-10.84,0-16.26c0-14.66,0-29.32,0-43.98c0-21.79,0-43.57,0-65.36
		c0-26.59,0-53.18,0-79.78c0-28.98,0-57.97,0-86.95c0-29.41,0-58.81,0-88.22c0-27.42,0-54.84,0-82.26c0-23.07,0-46.13,0-69.2
		c0-16.68,0-33.37,0-50.05c0-7.9,0.16-15.82,0-23.71c-0.01-0.34,0-0.68,0-1.02c0-9.27-8.15-18.15-17.72-17.72
		C393.99,108.54,385.87,115.9,385.87,125.83L385.87,125.83z"/>
        <path class="st0" d="M611.41,125.97c0,5.42,0,10.84,0,16.26c0,14.66,0,29.31,0,43.97c0,21.78,0,43.56,0,65.34
		c0,26.59,0,53.17,0,79.76c0,28.98,0,57.95,0,86.93c0,29.4,0,58.8,0,88.2c0,27.41,0,54.83,0,82.24c0,23.06,0,46.12,0,69.18
		c0,16.68,0,33.36,0,50.04c0,7.9-0.16,15.81,0,23.71c0.01,0.34,0,0.68,0,1.02c0,9.27,8.15,18.15,17.72,17.72
		c9.6-0.43,17.72-7.79,17.72-17.72c0-5.42,0-10.84,0-16.26c0-14.66,0-29.31,0-43.97c0-21.78,0-43.56,0-65.34
		c0-26.59,0-53.17,0-79.76c0-28.98,0-57.95,0-86.93c0-29.4,0-58.8,0-88.2c0-27.41,0-54.83,0-82.24c0-23.06,0-46.12,0-69.18
		c0-16.68,0-33.36,0-50.04c0-7.9,0.16-15.81,0-23.71c-0.01-0.34,0-0.68,0-1.02c0-9.27-8.15-18.15-17.72-17.72
		C619.53,108.68,611.41,116.03,611.41,125.97L611.41,125.97z"/>
        <path class="st0" d="M114.14,863.59c20.52,0,41.05,0,61.57,0c37.2,0,74.4,0,111.6,0c17.66,0,35.31,0,52.97,0
		c17.34,0,34.67,0,52.01,0c35.01,0,70.03,0,105.04,0c36.9,0,73.8,0,110.7,0c22.56,0,45.12,0,67.67,0c12.23,0,24.46,0,36.68,0
		c35.92,0,71.84,0,107.76,0c27.84,0,55.68,0,83.52,0c1.48,0,2.96,0,4.44,0c9.27,0,18.15-8.15,17.72-17.72
		c-0.43-9.6-7.79-17.72-17.72-17.72c-20.43,0-40.85,0-61.28,0c-37.27,0-74.54,0-111.81,0c-18.27,0-36.55,0-54.82,0
		c-16.74,0-33.47,0-50.21,0c-34.79,0-69.57,0-104.36,0c-37.04,0-74.08,0-111.12,0c-23.07,0-46.13,0-69.2,0c-11.89,0-23.78,0-35.67,0
		c-35.73,0-71.46,0-107.19,0c-27.95,0-55.89,0-83.84,0c-1.49,0-2.98,0-4.46,0c-9.27,0-18.15,8.15-17.72,17.72
		C96.85,855.47,104.21,863.59,114.14,863.59L114.14,863.59z"/>
        <g>
		<path class="st0" d="M345.97,881.24c11.34,0,22.68,0,34.02,0c27.08,0,54.17,0,81.25,0c32.91,0,65.81,0,98.72,0
			c28.34,0,56.68,0,85.02,0c13.85,0,27.73,0.24,41.59,0c0.2,0,0.39,0,0.59,0c18.54,0,36.3-16.3,35.44-35.44
			c-0.86-19.2-15.57-35.44-35.44-35.44c-11.34,0-22.68,0-34.02,0c-27.08,0-54.17,0-81.25,0c-32.91,0-65.81,0-98.72,0
			c-28.34,0-56.68,0-85.02,0c-13.85,0-27.73-0.24-41.59,0c-0.2,0-0.39,0-0.59,0c-18.54,0-36.3,16.3-35.44,35.44
			C311.39,865,326.1,881.24,345.97,881.24L345.97,881.24z"/>
            <path class="st1" d="M672.68,899.07c-4.7,0-9.36-0.03-13.94-0.05c-4.59-0.03-9.17-0.05-13.76-0.05H345.97
			c-28.48,0-51.83-23-53.14-52.37c-0.61-13.51,4.5-26.63,14.38-36.96c10.32-10.8,24.45-16.99,38.76-16.99l0.36,0
			c9.42-0.16,18.89-0.11,28.06-0.05c4.59,0.03,9.17,0.05,13.76,0.05h299.01c28.48,0,51.83,23,53.14,52.37
			c0.6,13.51-4.5,26.64-14.38,36.96c-10.32,10.8-24.45,16.99-38.76,16.99l-0.37,0C682.09,899.04,677.37,899.07,672.68,899.07z
			 M345.97,828.08c-4.55,0-9.59,2.31-13.15,6.04c-1.81,1.89-4.81,5.83-4.59,10.88c0.4,8.97,6.76,18.51,17.74,18.51h299.01
			c4.65,0,9.3,0.03,13.96,0.05c8.99,0.05,18.29,0.1,27.32-0.05c0.28,0,0.54,0,0.79,0l0.11,0c4.55,0,9.59-2.31,13.15-6.04
			c1.81-1.89,4.81-5.83,4.59-10.89c-0.4-8.97-6.76-18.51-17.74-18.51H388.15c-4.65,0-9.3-0.03-13.96-0.05
			c-8.99-0.05-18.29-0.1-27.32,0.05c-0.26,0-0.53,0-0.8,0L345.97,828.08z"/>
	</g>
</g>
</svg>
