<svg version="1.1" id="图层_1" xmlns="http://www.w3.org/2000/svg" xmlns:xlink="http://www.w3.org/1999/xlink" x="0px" y="0px"
     viewBox="0 0 1024 1024" style="enable-background:new 0 0 1024 1024;" xml:space="preserve">
<style type="text/css">
	.st0{fill:#989898;}
	.st1{fill-rule:evenodd;clip-rule:evenodd;fill:#989898;}
</style>
    <g>
	<path class="st0" d="M909.41,826.68c-7.07,0-14.14,0-21.21,0c-19.24,0-38.48,0-57.72,0c-28.46,0-56.91,0-85.37,0
		c-34.72,0-69.44,0-104.15,0c-37.87,0-75.74,0-113.61,0c-38.53,0-77.07,0-115.6,0c-35.64,0-71.29,0-106.93,0
		c-30.25,0-60.5,0-90.75,0c-21.75,0-43.5,0-65.26,0c-10.29,0-20.62-0.28-30.9,0c-0.44,0.01-0.88,0-1.32,0
		c6.17,6.17,12.34,12.34,18.51,18.51c0-5.95,0-11.9,0-17.85c0-16.09,0-32.18,0-48.28c0-23.91,0-47.82,0-71.73
		c0-29.18,0-58.36,0-87.55c0-31.81,0-63.62,0-95.44c0-32.27,0-64.53,0-96.8c0-30.08,0-60.17,0-90.25c0-25.31,0-50.61,0-75.92
		c0-18.29,0-36.58,0-54.87c0-8.62,0.26-17.29,0-25.91c-0.01-0.38,0-0.76,0-1.14c-6.17,6.17-12.34,12.34-18.51,18.51
		c7.07,0,14.14,0,21.21,0c19.24,0,38.48,0,57.72,0c28.46,0,56.91,0,85.37,0c34.72,0,69.44,0,104.15,0c37.87,0,75.74,0,113.61,0
		c38.53,0,77.07,0,115.6,0c35.64,0,71.29,0,106.93,0c30.25,0,60.5,0,90.75,0c21.75,0,43.5,0,65.26,0c10.29,0,20.62,0.28,30.9,0
		c0.44-0.01,0.88,0,1.32,0c-6.17-6.17-12.34-12.34-18.51-18.51c0,5.95,0,11.9,0,17.85c0,16.09,0,32.18,0,48.28
		c0,23.91,0,47.82,0,71.73c0,29.18,0,58.36,0,87.55c0,31.81,0,63.62,0,95.44c0,32.27,0,64.53,0,96.8c0,30.08,0,60.17,0,90.25
		c0,25.31,0,50.61,0,75.92c0,18.29,0,36.58,0,54.87c0,8.63-0.16,17.28,0,25.91c0.01,0.38,0,0.76,0,1.14
		c0,9.68,8.52,18.96,18.51,18.51c10.03-0.45,18.51-8.14,18.51-18.51c0-5.95,0-11.9,0-17.85c0-16.09,0-32.18,0-48.28
		c0-23.91,0-47.82,0-71.73c0-29.18,0-58.36,0-87.55c0-31.81,0-63.62,0-95.44c0-32.27,0-64.53,0-96.8c0-30.08,0-60.17,0-90.25
		c0-25.31,0-50.61,0-75.92c0-18.29,0-36.58,0-54.87c0-8.63,0.16-17.28,0-25.91c-0.01-0.38,0-0.76,0-1.14
		c0-10.01-8.48-18.51-18.51-18.51c-7.07,0-14.14,0-21.21,0c-19.24,0-38.48,0-57.72,0c-28.46,0-56.91,0-85.37,0
		c-34.72,0-69.44,0-104.15,0c-37.87,0-75.74,0-113.61,0c-38.53,0-77.07,0-115.6,0c-35.64,0-71.29,0-106.93,0
		c-30.25,0-60.5,0-90.75,0c-21.75,0-43.5,0-65.26,0c-10.29,0-20.6-0.17-30.9,0c-0.44,0.01-0.88,0-1.32,0
		c-10.01,0-18.51,8.48-18.51,18.51c0,5.95,0,11.9,0,17.85c0,16.09,0,32.18,0,48.28c0,23.91,0,47.82,0,71.73c0,29.18,0,58.36,0,87.55
		c0,31.81,0,63.62,0,95.44c0,32.27,0,64.53,0,96.8c0,30.08,0,60.17,0,90.25c0,25.31,0,50.61,0,75.92c0,18.29,0,36.58,0,54.87
		c0,8.63-0.16,17.28,0,25.91c0.01,0.38,0,0.76,0,1.14c0,10.01,8.48,18.51,18.51,18.51c7.07,0,14.14,0,21.21,0
		c19.24,0,38.48,0,57.72,0c28.46,0,56.91,0,85.37,0c34.72,0,69.44,0,104.15,0c37.87,0,75.74,0,113.61,0c38.53,0,77.07,0,115.6,0
		c35.64,0,71.29,0,106.93,0c30.25,0,60.5,0,90.75,0c21.75,0,43.5,0,65.26,0c10.29,0,20.6,0.17,30.9,0c0.44-0.01,0.88,0,1.32,0
		c9.68,0,18.96-8.52,18.51-18.51C927.48,835.16,919.79,826.68,909.41,826.68z"/>
        <path class="st0" d="M296.94,453.47c16.23,13.95,32.46,27.9,48.68,41.85c25.73,22.12,51.45,44.23,77.18,66.35
		c5.93,5.09,11.85,10.19,17.78,15.28c0-8.73,0-17.46,0-26.18c-16.25,14.97-32.5,29.94-48.74,44.91
		c-25.66,23.64-51.32,47.28-76.98,70.92c-5.97,5.5-11.95,11.01-17.92,16.51c-7.14,6.58-7.16,19.61,0,26.18
		c7.64,7.01,18.57,7.02,26.18,0c16.25-14.97,32.5-29.94,48.74-44.91c25.66-23.64,51.32-47.28,76.98-70.92
		c5.97-5.5,11.95-11.01,17.92-16.51c6.96-6.42,7.37-19.85,0-26.18c-16.23-13.95-32.46-27.9-48.68-41.85
		c-25.73-22.12-51.45-44.23-77.18-66.35c-5.93-5.09-11.85-10.19-17.78-15.28c-7.34-6.31-19.07-7.75-26.18,0
		C290.58,434.21,289.1,446.72,296.94,453.47L296.94,453.47z"/>
        <path class="st0" d="M531.53,691.08c18.05,0,36.1,0,54.15,0c28.64,0,57.28,0,85.93,0c6.68,0,13.35,0,20.03,0
		c9.68,0,18.96-8.52,18.51-18.51c-0.45-10.03-8.14-18.51-18.51-18.51c-18.05,0-36.1,0-54.15,0c-28.64,0-57.28,0-85.93,0
		c-6.68,0-13.35,0-20.03,0c-9.68,0-18.96,8.52-18.51,18.51C513.46,682.59,521.15,691.08,531.53,691.08L531.53,691.08z"/>
        <path class="st1" d="M897.12,364.29H114.4V160.56h782.72V364.29z M208.38,221.65c-22.52,0-40.77,18.26-40.77,40.77
		s18.26,40.77,40.77,40.77s40.77-18.26,40.77-40.77S230.89,221.65,208.38,221.65z M333.12,221.65c-22.52,0-40.77,18.26-40.77,40.77
		s18.26,40.77,40.77,40.77s40.77-18.26,40.77-40.77S355.64,221.65,333.12,221.65z M457.87,221.65c-22.52,0-40.77,18.26-40.77,40.77
		s18.26,40.77,40.77,40.77c22.52,0,40.77-18.26,40.77-40.77S480.39,221.65,457.87,221.65z"/>
</g>
</svg>
