<svg version="1.1" id="图层_1" xmlns="http://www.w3.org/2000/svg" xmlns:xlink="http://www.w3.org/1999/xlink" x="0px" y="0px"
	 viewBox="0 0 1024 1024" style="enable-background:new 0 0 1024 1024;" xml:space="preserve">
<style type="text/css">
	.st0{fill-rule:evenodd;clip-rule:evenodd;fill:#979797;}
</style>
	<g>
	<path class="st0" d="M611.45,887.68c-4.25,23.52-24.72,40.62-48.62,40.61h-99.07c-23.96,0.07-44.49-17.13-48.62-40.73l-12.75-70.73
		c-8.62-3.13-17.08-6.65-25.38-10.55l-58.88,41.09c-19.64,13.72-46.3,11.34-63.2-5.63l-70.14-70.14
		c-16.96-16.94-19.34-43.6-5.63-63.26l41.09-58.88c-3.86-8.31-7.39-16.78-10.55-25.38l-70.73-12.63
		c-23.56-4.2-40.73-24.68-40.73-48.62v-99.13c-0.07-23.96,17.13-44.49,40.73-48.62l70.73-12.63c3.14-8.6,6.58-17.08,10.55-25.38
		l-41.09-58.88c-13.75-19.65-11.38-46.35,5.63-63.26l70.14-70.14c16.93-16.93,43.55-19.3,63.2-5.63l58.88,41.09
		c8.3-3.85,16.78-7.41,25.38-10.55l12.69-70.73c4.2-23.56,24.68-40.73,48.62-40.73h99.19c23.96-0.07,44.49,17.13,48.62,40.73
		l12.63,70.73c8.6,3.14,17.08,6.58,25.38,10.55l58.88-41.09c19.64-13.72,46.3-11.34,63.2,5.63l70.14,70.14
		c16.96,16.94,19.34,43.6,5.63,63.26l-41.09,58.88c3.85,8.3,7.41,16.78,10.55,25.38l70.79,12.63c23.54,4.22,40.68,24.7,40.67,48.62
		v99.19c0.07,23.96-17.13,44.49-40.73,48.62l-70.73,12.69c-3.13,8.62-6.65,17.08-10.55,25.38l41.09,58.88
		c13.75,19.65,11.38,46.35-5.63,63.26l-70.14,70.14c-16.93,16.93-43.55,19.3-63.2,5.63l-58.88-41.09
		c-8.3,3.79-16.84,7.41-25.38,10.55C624.13,816.95,611.45,887.68,611.45,887.68z M471.94,869h82.65l13.22-73.99
		c2.52-14.39,12.82-26.2,26.74-30.65c13.34-4.25,26.29-9.63,38.72-16.07c12.99-6.72,28.64-5.67,40.61,2.73L735.54,794l58.4-58.4
		l-42.99-61.66c-8.34-11.97-9.41-27.56-2.79-40.55c6.46-12.45,11.8-25.49,16.13-38.78c4.49-13.9,16.28-24.18,30.65-26.74
		l73.99-13.28v-82.59l-73.99-13.22c-14.41-2.53-26.22-12.86-30.65-26.8c-4.3-13.33-9.69-26.28-16.13-38.72
		c-6.7-13-5.63-28.65,2.79-40.61l42.99-61.66l-58.4-58.4l-61.66,42.99c-11.97,8.35-27.56,9.42-40.55,2.79
		c-12.48-6.39-25.44-11.79-38.78-16.13c-13.88-4.48-24.16-16.24-26.74-30.59l-13.22-73.99h-82.65l-13.22,73.99
		c-2.54,14.37-12.84,26.15-26.74,30.59c-13.35,4.3-26.32,9.69-38.78,16.13c-12.99,6.68-28.6,5.6-40.55-2.79l-61.66-42.99l-58.4,58.4
		l42.99,61.66c8.36,11.98,9.43,27.6,2.79,40.61c-6.39,12.46-11.78,25.41-16.13,38.72c-4.46,13.9-16.23,24.21-30.59,26.8
		l-74.11,13.22v82.59l74.05,13.28c14.37,2.54,26.15,12.84,30.59,26.74c4.27,13.28,9.66,26.33,16.13,38.78
		c6.7,13,5.63,28.65-2.79,40.61l-42.99,61.66l58.4,58.34l61.66-42.99c11.98-8.32,27.57-9.37,40.55-2.73
		c12.45,6.4,25.49,11.74,38.78,16.07c13.9,4.48,24.19,16.27,26.74,30.65L471.94,869z M368.06,513.26
		c0.03,80.19,65.01,145.2,145.2,145.26c80.21-0.03,145.23-65.05,145.26-145.26c-0.13-80.15-65.11-145.08-145.26-145.14
		c-80.21,0.03-145.23,65.05-145.26,145.26L368.06,513.26z M427.35,513.26c1.25-47.46,40.74-84.93,88.2-83.68
		c45.71,1.2,82.48,37.97,83.68,83.68c-0.01,47.48-38.51,85.96-85.99,85.96c-47.47-0.01-85.95-38.49-85.96-85.96H427.35z"/>
</g>
</svg>
