
<svg data-name="图层 1" xmlns="http://www.w3.org/2000/svg" viewBox="0 0 800.03 797.28"><path d="M120.47 438.12h93.91l-19.28-14.68 19.65 55.72 31.36 88.93 7.25 20.57c2.7 7.65 8.35 13.21 16.63 14.32 7.3 1 16.56-2.4 19.92-9.55l22.58-47.92 54.22-115.08 65.58-139.21L489 170.9c9.14-19.41 19.16-38.63 27.51-58.4.12-.27.25-.54.38-.8l-36.55-4.78 41.72 107 66.5 170.47 15.25 39.09c3.25 8.33 9.83 14.68 19.29 14.68h257.37c10.46 0 20.48-9.2 20-20s-8.79-20-20-20H623.08l19.28 14.69-41.72-107-66.5-170.46-15.25-39.1c-3-7.63-8.12-13.19-16.63-14.33-7.31-1-16.56 2.4-19.93 9.55l-22.57 47.92-54.22 115.08L340 393.72 283.27 514c-9.14 19.41-19.17 38.63-27.52 58.4-.11.27-.25.54-.37.81l36.55 4.79-19.65-55.7-31.36-88.93-7.25-20.56c-3-8.39-10-14.69-19.29-14.69h-93.91c-10.46 0-20.48 9.2-20 20s8.79 20 20 20zm0 440.88h729.07c9.88 0 19.79.18 29.67 0h1.26c10.46 0 20.48-9.2 20-20s-8.79-20-20-20H151.4c-9.88 0-19.79-.18-29.67 0h-1.26c-10.46 0-20.48 9.2-20 20s8.79 20 20 20z" transform="translate(-100.46 -81.79)" style="fill:#4c4c4c"/></svg>
