<svg version="1.1" id="图层_1" xmlns="http://www.w3.org/2000/svg" xmlns:xlink="http://www.w3.org/1999/xlink" x="0px" y="0px"
     viewBox="0 0 1024 1024" style="enable-background:new 0 0 1024 1024;" xml:space="preserve">
<g>
	<path d="M890.86,513.61c0,10.39-0.4,20.77-1.21,31.13c-0.36,4.69-0.81,9.38-1.34,14.06c-0.14,1.27-0.3,2.54-0.45,3.81
		c-0.15,1.27-0.16,5.38,0,0.13c-0.25,2.96-0.68,5.9-1.31,8.81c-3.1,19.44-7.65,38.61-13.62,57.37c-2.87,9.05-6.08,17.99-9.62,26.82
		l-1.39,3.43c-0.52,1.26-1.18,4.79,0,0.12c-0.51,2.09-1.85,4.25-2.71,6.21c-2.08,4.67-4.25,9.31-6.49,13.9
		c-8.49,17.17-18.21,33.71-29.09,49.48c-2.53,3.67-5.13,7.3-7.79,10.89c-1.35,2.02-2.82,3.97-4.4,5.82
		c3.45-3.65,0.61-0.82-0.09,0.08c-0.7,0.9-1.51,1.91-2.27,2.85c-6.14,7.56-12.53,14.9-19.17,22
		c-12.99,13.93-26.96,26.91-41.81,38.85l-2.78,2.27c-0.93,0.7-3.71,3.53-0.08,0.08c-1.55,1.32-3.17,2.56-4.85,3.71
		c-4.24,3.16-8.53,6.23-12.88,9.2c-7.73,5.28-15.63,10.29-23.7,15.03c-8.44,4.94-17.07,9.58-25.89,13.9
		c-4.06,1.97-8.14,3.88-12.24,5.74c-2.14,0.93-4.5,2.4-6.78,2.96c3.83-0.93,2.24-0.93,1.02-0.44l-4.57,1.85
		c-18.11,7.25-36.74,13.13-55.73,17.61c-9.84,2.32-19.76,4.26-29.75,5.82c-2.3,0.36-4.64,0.7-6.92,1.02
		c-2.78,0.4,4.79-0.58,0.5-0.07l-3.81,0.46c-5.1,0.62-10.21,1.12-15.33,1.49c-20.52,1.58-41.14,1.58-61.67,0
		c-4.91-0.37-9.82-0.83-14.71-1.39c-1.93-0.22-4.53-0.07-6.34-0.78c4.2,1.62,1.6,0.22-0.13,0s-3.36-0.49-5.03-0.76
		c-9.99-1.56-19.91-3.5-29.75-5.82c-18.99-4.48-37.62-10.36-55.73-17.61c-1.97-0.62-3.88-1.4-5.71-2.34
		c4.12,2.55,1.12,0.47-0.11-0.06l-3.38-1.48c-4.56-2.03-9.03-4.12-13.42-6.25c-8.8-4.33-17.43-8.96-25.89-13.9
		c-8.08-4.73-15.98-9.74-23.7-15.03c-4.02-2.76-7.98-5.58-11.9-8.47c-1.63-1.2-3.25-2.44-4.87-3.71c-3.42-2.59,3.27,2.6-0.09-0.07
		l-3.8-3.02c-14.84-11.92-28.81-24.89-41.79-38.8c-6.49-6.96-12.73-14.14-18.71-21.56c-1.29-1.6-3.26-3.39-4.15-5.24
		c1.95,4.02,0.87,1.12-0.06-0.1c-0.74-0.97-1.47-1.94-2.2-2.92c-2.91-3.91-5.75-7.86-8.51-11.86
		c-10.88-15.77-20.6-32.31-29.09-49.48c-2.08-4.21-4.09-8.47-6.03-12.77c-0.93-2.06-1.85-4.13-2.73-6.2c-1.74-3.99,1.59,3.91,0-0.11
		c-0.62-1.53-1.25-3.05-1.85-4.57c-3.53-8.82-6.74-17.77-9.62-26.82c-5.97-18.76-10.53-37.93-13.63-57.37
		c-0.4-2.51-0.76-5.02-1.12-7.54c-0.65-4.45,0.52,4.35,0-0.13c-0.15-1.27-0.32-2.53-0.46-3.8c-0.62-5.1-1.11-10.21-1.48-15.33
		c-0.78-9.92-1.18-19.87-1.21-29.83c-0.05-13.78,0.61-27.56,1.98-41.28c0.34-3.42,0.75-6.83,1.17-10.24
		c0.66-5.47-0.38,2.28,0.13-1.02c0.22-1.4,0.41-2.78,0.62-4.22c1.11-7.29,2.43-14.53,3.95-21.74c5.04-23.91,11.77-48.63,22.11-70.86
		c-2.26,4.88,0.81-1.8,1.23-2.78c1.05-2.38,2.12-4.75,3.23-7.11c2.2-4.71,4.49-9.37,6.87-14c4.75-9.2,9.85-18.21,15.31-27.02
		c5.21-8.4,10.73-16.61,16.55-24.61c1.52-2.08,3.07-4.15,4.64-6.2c0.59-0.79,3.03-4.43,0.24-0.33c0.72-1.06,1.59-2.04,2.39-3.03
		c3.2-4.03,6.48-8,9.83-11.9c13.15-15.27,27.43-29.52,42.72-42.64c3.58-3.09,7.21-6.1,10.9-9.02l3.03-2.39
		c3.51-2.78-3.25,2.44,0.32-0.25c2.23-1.67,4.45-3.36,6.71-5c8.16-5.95,16.55-11.59,25.16-16.91c8.81-5.44,17.83-10.54,27.05-15.28
		c4.24-2.18,8.52-4.28,12.83-6.3c2.36-1.1,4.72-2.18,7.1-3.24l2.38-1.05c0.93-0.43,6.33-3.02,1.57-0.7
		c9.27-4.54,19.66-7.75,29.48-10.96c9.63-3.14,19.37-5.92,29.23-8.34c10.39-2.53,20.86-4.63,31.44-6.3
		c2.22-0.35,4.44-0.67,6.66-0.99c4.64-0.69-4.24,0.5,0.43-0.06l4.02-0.49c5.41-0.62,10.82-1.14,16.24-1.56
		c20.86-1.58,41.82-1.52,62.68,0.17c5.12,0.42,10.22,0.93,15.32,1.54c1.28,0.02,2.56,0.18,3.8,0.48c-0.34-0.15-4.51-0.64-1.13-0.16
		c2.93,0.43,5.87,0.85,8.8,1.33c9.76,1.59,19.44,3.54,29.06,5.86c19.16,4.62,37.94,10.67,56.19,18.09l2.28,0.93
		c4.03,1.64-3.87-1.69,0.11,0.06c2.26,0.98,4.53,1.97,6.77,2.98c4.48,2.02,8.92,4.13,13.32,6.32c8.77,4.33,17.37,9.01,25.8,14.05
		c8.04,4.77,15.9,9.83,23.6,15.16c4.01,2.78,7.96,5.63,11.85,8.55l1.94,1.46c1.23,0.93,4.13,2.01,0.1,0.06
		c2.36,1.14,4.64,3.65,6.66,5.3c14.77,12.02,28.65,25.08,41.55,39.08c6.31,6.85,12.38,13.92,18.2,21.2l2.26,2.86
		c2.67,3.36-2.51-3.33,0.08,0.09c1.47,1.94,2.94,3.87,4.38,5.84c2.89,3.92,5.71,7.9,8.45,11.92c10.77,15.84,20.38,32.44,28.75,49.67
		c1.98,4.05,3.88,8.14,5.7,12.25c0.5,1.12,0.99,2.25,1.48,3.38c0.49,1.13,2.61,4.23,0.06,0.1c1.45,2.34,2.24,5.45,3.25,8.01
		c3.48,8.85,6.63,17.81,9.46,26.88c5.85,18.8,10.29,38.01,13.27,57.47c0.19,1.25,0.38,2.51,0.56,3.77c0.23,1.64,1.61,4.47,0,0.12
		c0.8,2.2,0.66,5.28,0.93,7.61c0.51,4.69,0.94,9.38,1.3,14.08c0.74,9.92,1.11,19.88,1.1,29.86c0,9.7,8.52,18.98,18.55,18.54
		c10.02-0.44,18.55-8.15,18.55-18.54c-0.13-83.42-25.41-166.39-73.05-234.99c-47.12-67.73-113.12-120.14-189.78-150.71
		c-79.91-31.95-170.12-37.22-253.5-16.36c-83.8,21.19-158.89,67.99-214.79,133.89c-63.71,75.53-99.22,171.91-98.59,270.9
		c0.54,82.84,26.21,165.33,73.75,233.36c47.29,67.64,113.42,119.91,190.18,150.29c78.4,31.06,166.55,36.46,248.45,16.86
		c79.01-18.91,152.12-62.02,207.15-121.74c55.37-60.1,92.99-136.42,105.1-217.35c3.26-21.19,4.94-42.59,5.04-64.03
		c0-9.7-8.54-18.99-18.55-18.54C899.4,495.53,890.91,503.21,890.86,513.61L890.86,513.61z"/>
    <path d="M849.18,302.81H200.63c-8.81,0-17.62-0.16-26.43,0h-1.12c-9.71,0-19,8.53-18.55,18.54c0.45,10.01,8.14,18.54,18.55,18.54
		h648.59c8.81,0,17.62,0.17,26.43,0h1.09c9.71,0,19-8.53,18.55-18.54C867.28,311.34,859.59,302.81,849.18,302.81z"/>
    <path d="M531.66,896.72V149.87c0-10.11,0.16-20.24,0-30.35v-1.31c0-9.7-8.53-18.98-18.55-18.54c-10.01,0.44-18.55,8.15-18.55,18.54
		v746.86c0,10.11-0.16,20.23,0,30.35v1.31c0,9.7,8.53,18.98,18.55,18.54c10.01-0.44,18.55-8.15,18.55-18.54V896.72z M734.29,849.33
		V205.18c0-8.71,0.16-17.44,0-26.16v-1.14c0-9.7-8.53-18.98-18.55-18.54c-10.01,0.44-18.55,8.15-18.55,18.54v644.14
		c0,8.71-0.17,17.44,0,26.17v1.14c0,9.7,8.52,18.98,18.55,18.54C725.77,867.42,734.29,859.72,734.29,849.33L734.29,849.33z
		 M329.63,849.33V205.18c0-8.71,0.17-17.44,0-26.16v-1.14c0-9.7-8.53-18.98-18.55-18.54c-10.01,0.44-18.55,8.15-18.55,18.54v644.14
		c0,8.71-0.16,17.44,0,26.17v1.13c0,9.7,8.53,18.98,18.55,18.54C321.1,867.41,329.63,859.71,329.63,849.33L329.63,849.33z"/>
    <path d="M906.02,496.24H148.59c-10.2,0-20.47-0.17-30.69,0h-1.33c-9.7,0-18.99,8.53-18.55,18.54c0.45,10.01,8.15,18.54,18.55,18.54
		H874c10.2,0,20.47,0.18,30.69,0h1.33c9.7,0,19-8.52,18.55-18.54C924.11,504.76,916.42,496.24,906.02,496.24z M849.18,689.68H200.63
		c-8.81,0-17.62-0.17-26.43,0h-1.12c-9.71,0-19,8.53-18.55,18.54c0.45,10.01,8.14,18.54,18.55,18.54h648.59
		c8.81,0,17.62,0.16,26.43,0h1.09c9.71,0,19-8.53,18.55-18.54C867.28,698.2,859.59,689.68,849.18,689.68z"/>
</g>
</svg>
