<svg version="1.1" id="图层_1" xmlns="http://www.w3.org/2000/svg" xmlns:xlink="http://www.w3.org/1999/xlink" x="0px" y="0px"
     viewBox="0 0 1024 1024" style="enable-background:new 0 0 1024 1024;" xml:space="preserve">
<style type="text/css">
	.st0{fill:#979797;}
</style>
    <g>
	<rect x="487.44" y="150.04" class="st0" width="95.61" height="94.89"/>
        <rect x="142.43" y="396.93" class="st0" width="95.61" height="94.89"/>
        <rect x="257.43" y="396.75" class="st0" width="95.61" height="94.89"/>
        <rect x="487.44" y="396.75" class="st0" width="95.61" height="94.89"/>
        <rect x="372.44" y="396.75" class="st0" width="95.61" height="94.89"/>
        <rect x="257.43" y="272.08" class="st0" width="95.61" height="94.89"/>
        <rect x="487.44" y="272.08" class="st0" width="95.61" height="94.89"/>
        <rect x="372.44" y="272.08" class="st0" width="95.61" height="94.89"/>
        <rect x="602.44" y="397.98" class="st0" width="95.61" height="94.89"/>
        <path class="st0" d="M108,514.98h567.63c0,0,33.5-2.33,53.69-16.69c0,0-48.46-82.94,16.7-184.11c0,0,67.16,47.71,70.85,114.08
		c0,0,74.58-16.99,111.13,27.02c0,0-26.86,106.56-128.36,97.4c0,0-86.53,336.86-433.11,319.09S108,514.98,108,514.98z"/>
</g>
</svg>
