<svg version="1.1" id="图层_1" xmlns="http://www.w3.org/2000/svg" xmlns:xlink="http://www.w3.org/1999/xlink" x="0px" y="0px"
	 viewBox="0 0 1024 1024" style="enable-background:new 0 0 1024 1024;" xml:space="preserve">
<style type="text/css">
	.st0{fill-rule:evenodd;clip-rule:evenodd;fill:#989898;}
</style>
	<g>
	<path class="st0" d="M667.55,179.97v116.8h51.88v-116.8c-0.02-16.17-4.49-32.03-12.93-45.83c-5.7-9.17-13.16-17.13-21.94-23.42
		c-12.6-8.84-27.59-13.64-42.99-13.76H174.73c-15.4-0.06-30.43,4.75-42.93,13.76c-8.83,6.23-16.3,14.2-21.94,23.42
		c-5.38,8.64-9.15,18.18-11.15,28.16c-1.19,5.81-1.79,11.73-1.78,17.67v664.05c0.02,16.17,4.49,32.03,12.93,45.83
		c5.7,9.17,13.16,17.13,21.94,23.42c12.58,8.84,27.55,13.63,42.93,13.76h466.85c15.42,0.07,30.47-4.75,42.99-13.76
		c8.83-6.23,16.3-14.2,21.94-23.42c5.38-8.64,9.16-18.18,11.15-28.16c1.19-5.75,1.78-11.62,1.78-17.67v-82.41h-51.88v82.41
		c0.22,10.97-6.06,21.04-16.01,25.67c-3.14,1.37-6.54,2.05-9.96,2.02H174.73c-6.99,0.05-13.67-2.91-18.32-8.12
		c-5-5.27-7.73-12.3-7.59-19.57V179.97c-0.22-10.96,6.06-21.01,16.01-25.61c3.12-1.38,6.49-2.09,9.9-2.08h466.85
		c7.01-0.07,13.71,2.89,18.38,8.12C664.96,165.68,667.69,172.71,667.55,179.97z M838.31,484.31L735.97,375.04
		c-10.27-11.02-10.27-28.11,0-39.13c9-10.13,24.52-11.05,34.65-2.05c0.72,0.64,1.41,1.33,2.05,2.05l146.68,156.53
		c10.27,11.02,10.27,28.11,0,39.13L772.67,688.09c-8.99,10.15-24.5,11.1-34.65,2.11c-0.75-0.66-1.45-1.36-2.11-2.11
		c-10.27-11.02-10.27-28.11,0-39.13l102.51-109.27H372.82v-55.38h465.55H838.31z"/>
</g>
</svg>
