<svg version="1.1" id="图层_1" xmlns="http://www.w3.org/2000/svg" xmlns:xlink="http://www.w3.org/1999/xlink" x="0px" y="0px"
     viewBox="0 0 1024 1024" style="enable-background:new 0 0 1024 1024;" xml:space="preserve">
<style type="text/css">
	.st0{fill:#999999;}
</style>
    <g>
	<path class="st0" d="M887.97,253.15c-0.01,1.71-0.23,3.4-0.28,5.1c-0.07,2.28,1.14-6.15,0.25-2.23c-0.24,1.05-0.42,2.1-0.67,3.15
		c-0.42,1.69-0.97,3.34-1.52,4.99c-0.74,2.2-2.39,3.41,0.79-1.76c-0.51,0.84-0.84,1.88-1.28,2.76c-1.74,3.52-3.88,6.73-6.08,9.96
		c-1.68,2.46,3.63-4.48,0.86-1.14c-0.65,0.78-1.29,1.58-1.95,2.35c-1.46,1.7-2.99,3.34-4.56,4.94c-3.28,3.33-6.81,6.34-10.38,9.34
		c-1.93,1.62,4.21-3.15,0.51-0.41c-0.99,0.73-1.96,1.47-2.96,2.19c-2.31,1.67-4.67,3.28-7.06,4.84c-9.73,6.35-20,11.84-30.5,16.76
		c-2.79,1.31-5.61,2.56-8.43,3.81c-1.18,0.52-3.38,1.05,1.51-0.64c-0.74,0.26-1.49,0.63-2.2,0.93c-1.68,0.7-3.36,1.38-5.05,2.06
		c-6.44,2.57-12.95,4.98-19.5,7.24c-14.28,4.93-28.79,9.19-43.41,12.94c-16.36,4.2-32.87,7.77-49.48,10.84
		c-8.69,1.61-17.41,3.08-26.15,4.42c-4.34,0.67-8.7,1.39-13.06,1.91c4.73-0.56-1.67,0.22-2.97,0.39c-2.51,0.33-5.02,0.64-7.53,0.95
		c-79.54,9.71-160.45,10.51-240.2,2.96c-9.41-0.89-18.81-1.91-28.2-3.06c-2.23-0.27-4.46-0.56-6.69-0.85
		c-1.3-0.17-7.7-0.95-2.97-0.39c-4.63-0.55-9.26-1.32-13.87-2.03c-17.36-2.68-34.65-5.86-51.82-9.65
		c-29.37-6.48-58.5-14.67-86.47-25.89c-1.5-0.6-2.99-1.21-4.48-1.83c-0.72-0.3-1.46-0.67-2.2-0.93c4.89,1.69,2.69,1.16,1.51,0.64
		c-3.17-1.4-6.33-2.81-9.46-4.29c-5.42-2.57-10.78-5.29-16.03-8.2c-4.85-2.69-9.62-5.55-14.26-8.61c-2.11-1.39-4.2-2.83-6.25-4.31
		c-0.99-0.72-1.97-1.46-2.96-2.19c-3.88-2.88,3.14,2.61,0.16,0.13c-3.57-2.98-7.06-6.02-10.33-9.35c-1.47-1.5-2.9-3.05-4.28-4.65
		c-0.66-0.77-1.3-1.57-1.95-2.35c-2.87-3.45,2.94,4.21,0.43,0.55c-2.13-3.11-4.15-6.27-5.8-9.67c-0.38-0.79-0.67-1.71-1.13-2.46
		c3.18,5.17,1.53,3.96,0.79,1.76c-0.62-1.86-1.22-3.71-1.67-5.62c-0.2-0.84-0.33-1.68-0.52-2.52c-0.88-3.92,0.32,4.51,0.25,2.23
		c-0.05-1.81-0.29-3.6-0.28-5.43c0.01-1.71,0.22-3.4,0.32-5.1c-0.42,7.09-0.36,2.38,0.38-0.6c0.42-1.7,0.98-3.33,1.52-4.99
		c0.14-0.42,0.34-0.82,0.46-1.24c0.75-2.5-1.39,3.23-1.26,2.99c0.56-0.95,0.93-2.07,1.43-3.07c1.71-3.41,3.82-6.5,5.93-9.66
		c1.32-1.98-3.59,4.42-0.86,1.14c0.65-0.78,1.29-1.58,1.95-2.35c1.55-1.8,3.17-3.54,4.84-5.23c3.31-3.33,6.87-6.32,10.45-9.33
		c1.79-1.51-3.82,2.91-1.93,1.51c0.49-0.36,0.96-0.74,1.44-1.1c0.98-0.74,1.97-1.47,2.97-2.19c2.19-1.58,4.42-3.1,6.68-4.57
		c4.68-3.05,9.48-5.9,14.37-8.58c5.29-2.9,10.68-5.62,16.13-8.18c2.79-1.31,5.61-2.56,8.43-3.81c3.05-1.35-1.22,0.55-1.51,0.64
		c0.74-0.24,1.48-0.62,2.2-0.93c1.87-0.78,3.74-1.54,5.62-2.28c13.3-5.29,26.88-9.87,40.59-13.94
		c32.15-9.54,65.07-16.34,98.18-21.39c2.17-0.33,4.34-0.65,6.51-0.97c1.09-0.16,2.18-0.32,3.28-0.47c0.65-0.09,4.17-0.59,1.46-0.21
		c-2.71,0.38,0.84-0.11,1.48-0.2c1.11-0.15,2.22-0.29,3.33-0.44c2.51-0.32,5.03-0.64,7.54-0.94c9.4-1.14,18.82-2.14,28.25-3.02
		c19.94-1.85,39.93-3.14,59.94-3.91c40.68-1.56,81.47-1.02,122.09,1.72c19.41,1.31,38.79,3.13,58.11,5.52
		c1.95,0.24,3.9,0.49,5.85,0.74c1.11,0.14,2.22,0.29,3.33,0.44c3.85,0.51,0.36,0.02-0.35-0.05c4.9,0.5,9.81,1.4,14.68,2.16
		c8.71,1.35,17.41,2.83,26.08,4.45c31.32,5.85,62.42,13.43,92.56,23.92c6.52,2.27,13,4.68,19.41,7.27c1.49,0.6,2.98,1.22,4.47,1.83
		c4.55,1.87-3.77-1.68,0.68,0.28c2.99,1.32,5.97,2.66,8.92,4.06c10.43,4.93,20.63,10.44,30.29,16.81c2.11,1.39,4.2,2.83,6.25,4.31
		c0.99,0.72,1.97,1.45,2.96,2.19c3.94,2.94-3.55-2.96,0.18,0.15c3.56,2.96,7.03,6.03,10.26,9.36c1.46,1.51,2.88,3.06,4.25,4.66
		c0.66,0.77,1.28,1.58,1.94,2.35c2.36,2.79-3.15-4.48-0.66-0.84c2.19,3.21,4.26,6.46,5.95,9.98c0.4,0.84,1.89,4.36,0.23,0.34
		c-1.66-4-0.24-0.51,0.07,0.36c0.58,1.64,1.08,3.3,1.49,4.99c0.73,3.02,0.71,7.1,0.31,0.29
		C887.76,249.54,887.96,251.32,887.97,253.15c0.07,10.61,9.14,20.78,19.98,20.29c10.76-0.49,20.06-8.92,19.98-20.29
		c-0.32-46.11-44.44-76.46-81.07-94.2c-61.14-29.62-129.03-43.11-195.82-51.55c-82.03-10.37-165.59-11.21-247.86-3.15
		c-68.54,6.72-138.79,18.43-202.77,45.28c-24.37,10.23-47.66,22.2-68.04,39.4c-14.8,12.49-28.23,29.49-32.4,48.98
		c-9.88,46.11,27.65,80.76,63.54,101.18c54.66,31.1,118.58,45.86,179.97,55.39c82.45,12.8,166.42,15.88,249.62,10.07
		c71.78-5.01,144.99-15.62,213.05-40.17c25.13-9.06,50.36-19.9,72.42-35.31c16.84-11.76,33.76-26.56,42.34-45.87
		c4.28-9.64,6.95-19.37,7.02-30.05c0.07-10.61-9.24-20.78-19.98-20.29C897.06,233.35,888.05,241.77,887.97,253.15z"/>
        <path class="st0" d="M112.87,505.48c16.57,5.91,33.48,10.93,50.36,15.82c43.04,12.47,86.64,23.01,130.56,31.77
		c61.9,12.35,124.6,21.25,187.54,25.67c68.37,4.8,137.32,4.23,205.35-4.63c72.16-9.4,142.8-27.47,208.76-59.14
		c7.62-3.66,15.15-7.51,22.6-11.54c9.24-4.99,12.86-18.8,7.17-27.76c-6.06-9.54-17.46-12.62-27.34-7.28
		c-7.86,4.25-15.81,8.3-23.87,12.14c-3.6,1.72-7.22,3.39-10.86,5.03c-1.93,0.87-3.86,1.71-5.79,2.57c-3.27,1.44,0.4-0.18,0.9-0.37
		c-1.31,0.51-2.6,1.1-3.89,1.64c-16.03,6.7-32.37,12.64-48.92,17.89c-33,10.47-66.83,18.17-100.97,23.62
		c-4.19,0.67-8.38,1.3-12.58,1.91c-0.93,0.13-1.87,0.26-2.8,0.4c-3.05,0.44,5.12-0.67,0.41-0.05c-2.34,0.31-4.67,0.61-7.01,0.91
		c-8.64,1.08-17.3,2.03-25.97,2.85c-17.04,1.61-34.13,2.73-51.24,3.41c-34.1,1.36-68.27,0.97-102.35-0.83
		c-32.33-1.71-64.59-4.69-96.71-8.76c-3.78-0.48-7.56-0.98-11.33-1.48c-0.8-0.11-3.66-0.48-0.47-0.06c3.62,0.47-0.56-0.08-1.08-0.15
		c-2.06-0.29-4.13-0.58-6.19-0.88c-7.32-1.05-14.62-2.16-21.93-3.32c-14.4-2.29-28.76-4.78-43.09-7.47
		c-46.14-8.67-91.94-19.32-137.17-32.03c-20.4-5.73-40.41-12.55-60.67-18.71c-0.27-0.08-0.53-0.19-0.8-0.28
		c-9.88-3.52-22.3,3.99-24.58,14.17C96.37,491.86,102.3,501.71,112.87,505.48L112.87,505.48z"/>
        <path class="st0" d="M112.87,681.75c16.57,5.91,33.48,10.93,50.36,15.82c43.04,12.47,86.64,23.01,130.56,31.77
		c61.9,12.35,124.6,21.25,187.54,25.67c68.37,4.8,137.32,4.23,205.35-4.63c72.16-9.4,142.8-27.47,208.76-59.14
		c7.62-3.66,15.15-7.51,22.6-11.54c9.24-4.99,12.86-18.8,7.17-27.76c-6.06-9.54-17.46-12.62-27.34-7.28
		c-7.86,4.25-15.81,8.3-23.87,12.14c-3.6,1.72-7.22,3.39-10.86,5.03c-1.93,0.87-3.86,1.71-5.79,2.57c-3.27,1.44,0.4-0.18,0.9-0.37
		c-1.31,0.51-2.6,1.1-3.89,1.64c-16.03,6.7-32.37,12.64-48.92,17.89c-33,10.47-66.83,18.17-100.97,23.62
		c-4.19,0.67-8.38,1.3-12.58,1.91c-0.93,0.13-1.87,0.26-2.8,0.4c-3.05,0.44,5.12-0.67,0.41-0.05c-2.34,0.31-4.67,0.61-7.01,0.91
		c-8.64,1.08-17.3,2.03-25.97,2.85c-17.04,1.61-34.13,2.73-51.24,3.41c-34.1,1.36-68.27,0.97-102.35-0.83
		c-32.33-1.71-64.59-4.69-96.71-8.76c-3.78-0.48-7.56-0.98-11.33-1.48c-0.8-0.11-3.66-0.48-0.47-0.06c3.62,0.47-0.56-0.08-1.08-0.15
		c-2.06-0.29-4.13-0.58-6.19-0.88c-7.32-1.05-14.62-2.16-21.93-3.32c-14.4-2.29-28.76-4.78-43.09-7.47
		c-46.14-8.67-91.94-19.32-137.17-32.03c-20.4-5.73-40.41-12.55-60.67-18.71c-0.27-0.08-0.53-0.19-0.8-0.28
		c-9.88-3.52-22.3,3.99-24.58,14.17C96.37,668.13,102.3,677.98,112.87,681.75L112.87,681.75z"/>
        <path class="st0" d="M98.2,253.15c0,9.78,0,19.56,0,29.34c0,25.18,0,50.35,0,75.53c0,34.61,0,69.21,0,103.82
		c0,38.24,0,76.48,0,114.73c0,35.56,0,71.11,0,106.67c0,27.07,0,54.14,0,81.21c0,12.6-0.44,25.3,0,37.9
		c0.33,9.37,5.45,15.82,12.9,20.04c5.57,3.16,11.24,6.15,16.94,9.07c25.58,13.1,52,24.59,78.74,34.98
		c38.9,15.12,78.83,27.57,119.38,37.25c51.78,12.35,104.76,20.26,157.88,23.15c61.03,3.32,122.32-0.52,182.5-11.36
		c67.48-12.16,132.93-34.13,194.71-64.17c16.65-8.1,33.01-16.81,49.04-26.1c6.4-3.71,12.88-6.92,15.93-14.25
		c1.07-2.57,1.56-5.09,1.72-7.89c0.02-0.3-0.01-0.6,0-0.9c0.14-4.27,0-8.58,0-12.85c0-20.81,0-41.62,0-62.44
		c0-32.19,0-64.38,0-96.56c0-37.77,0-75.54,0-113.31c0-37.03,0-74.07,0-111.1c0-30.49,0-60.98,0-91.47c0-18.03,0-36.06,0-54.08
		c0-2.4,0-4.8,0-7.19c0-10.61-9.19-20.78-19.98-20.29c-10.83,0.49-19.98,8.91-19.98,20.29c0,18.25,0,36.5,0,54.76
		c0,43.83,0,87.65,0,131.48c0,53,0,106.01,0,159.01c0,45.78,0,91.57,0,137.35c0,22.1-0.8,44.37,0,66.46c0.01,0.31,0,0.62,0,0.93
		c3.3-5.84,6.6-11.68,9.9-17.52c-18.79,11.15-38,21.55-57.65,31.07c-9.35,4.53-18.79,8.85-28.3,13c-3.62,1.58-1.13,0.49-0.36,0.16
		c-1.14,0.48-2.28,0.97-3.42,1.44c-2.28,0.95-4.55,1.9-6.84,2.83c-5.1,2.08-10.22,4.1-15.36,6.06
		c-36.63,13.97-74.35,24.96-112.71,32.83c-9.02,1.85-18.08,3.53-27.16,5.04c-4.35,0.72-8.7,1.41-13.06,2.05
		c-2.17,0.32-4.33,0.62-6.5,0.93c-3,0.43,3.45-0.44,0.45-0.07c-1.35,0.17-2.7,0.35-4.05,0.52c-17.74,2.24-35.56,3.84-53.42,4.81
		c-33.84,1.84-67.79,1.43-101.59-1.08c-15.92-1.18-31.8-2.83-47.63-4.92c-0.92-0.12-1.84-0.26-2.77-0.37
		c0.49,0.06,4.76,0.67,1.18,0.15c-1.83-0.26-3.66-0.52-5.48-0.79c-3.85-0.57-7.69-1.16-11.53-1.78c-7.31-1.18-14.62-2.45-21.9-3.81
		c-27.52-5.15-54.8-11.61-81.74-19.3c-23.14-6.6-46.03-14.11-68.59-22.52c-9.62-3.58-19.19-7.33-28.69-11.25
		c-2.09-0.86-4.17-1.73-6.25-2.61c-1.01-0.43-2.03-0.86-3.04-1.29c-3.53-1.49,4.93,2.14,0.69,0.29c-3.97-1.73-7.94-3.47-11.88-5.25
		c-17.51-7.9-34.28-16.96-51.32-25.78c-0.23-0.12-0.45-0.26-0.67-0.4c3.3,5.84,6.6,11.68,9.9,17.52c0-18.25,0-36.5,0-54.76
		c0-43.83,0-87.65,0-131.48c0-53,0-106.01,0-159.01c0-45.78,0-91.57,0-137.35c0-22.13,0.5-44.33,0-66.46c-0.01-0.31,0-0.62,0-0.93
		c0-10.61-9.19-20.78-19.98-20.29C107.36,233.35,98.2,241.77,98.2,253.15L98.2,253.15z"/>
</g>
</svg>
