<svg version="1.1" id="图层_1" xmlns="http://www.w3.org/2000/svg" xmlns:xlink="http://www.w3.org/1999/xlink" x="0px" y="0px"
     viewBox="0 0 1024 1024" style="enable-background:new 0 0 1024 1024;" xml:space="preserve">
<style type="text/css">
	.st0{fill-rule:evenodd;clip-rule:evenodd;fill:#979797;}
	.st1{fill:#979797;}
</style>
    <g>
	<path class="st0" d="M903.85,793.43c0.53-2.66,0.61-5.39,0.24-8.07c-0.7-2.51-2.15-4.74-4.15-6.38c-1.05-0.83-2.16-1.58-3.32-2.24
		c-5.37-1.93-10.03-5.48-13.39-10.16c-3.44-4.81-5.25-10.64-5.13-16.59c-0.07-6.36,2.08-12.54,6.06-17.44
		c3.8-4.89,8.89-8.59,14.66-10.66c1.5-0.56,2.93-1.73,4.3-3.49c1.42-1.79,1.96-4.23,1.56-7.37c-0.77-5.51-2.22-10.9-4.3-16.04
		c-1.58-4.43-4.08-8.46-7.33-11.81c-1.44-1.46-3.35-2.34-5.38-2.49c-1.88-0.25-3.78,0.14-5.43,1.1c-5.63,2.61-11.82,3.71-17.99,3.19
		c-6.16-0.32-11.99-2.94-16.37-7.37c-4.27-4.16-7.09-9.64-8.02-15.59c-0.95-5.76-0.18-11.68,2.2-16.99c0.52-1.21,0.9-2.48,1.12-3.79
		c0.39-1.67,0.09-3.44-0.83-4.88c-1.6-2.55-3.62-4.81-5.96-6.68c-2.49-2.03-5.23-3.7-8.16-4.98c-2.9-1.29-5.91-2.33-8.99-3.09
		c-2.77-0.7-5.6-1.07-8.46-1.1c-1.66,0-3.27,0.8-4.84,2.34c-1.38,1.35-2.53,2.91-3.42,4.63c-2.06,5.58-5.74,10.37-10.56,13.75
		c-4.99,3.63-10.98,5.55-17.11,5.48c-5.95,0.12-11.75-1.91-16.37-5.73c-4.37-3.48-7.8-8.04-9.97-13.25
		c-0.64-1.81-1.64-3.47-2.93-4.88c-1.46-1.6-3.53-2.45-5.67-2.34c-5.87,0.44-11.65,1.75-17.16,3.89c-3.26,1.27-6.38,2.91-9.29,4.88
		c-2.58,1.64-4.63,4.01-5.91,6.82c-0.57,1.21-0.72,2.58-0.44,3.89c0.24,1.32,0.57,2.61,0.98,3.89c0.2,1.15,0.39,2.99,0.68,5.58
		c0.62,6.15-0.04,12.36-1.96,18.23c-0.93,3.1-2.59,5.92-4.84,8.22c-4.32,4.33-9.89,7.12-15.89,7.97c-5.85,0.85-11.81,0.13-17.3-2.09
		c-1.49-0.53-3.03-0.91-4.59-1.15c-1.52-0.15-3.04,0.26-4.3,1.15c-2.04,1.32-3.77,3.07-5.08,5.13c-1.56,2.32-2.95,4.88-4.15,7.67
		c-1.21,2.79-2.19,5.67-2.93,8.62c-0.68,2.63-1.04,5.35-1.08,8.07c0,2.24,0.49,4.43,1.66,6.58c1.08,2.14,2.44,3.49,4.15,3.99
		c5.69,2.35,10.78,5.98,14.91,10.61c4.34,4.54,6.73,10.65,6.65,16.99c0,2.19-0.26,4.32-0.78,6.38c-1.01,3.85-2.97,7.44-5.87,10.76
		c-4.05,4.81-9.16,8.56-14.91,10.96c-1.04,0.4-1.94,0.93-2.69,1.59c-1.53,1.39-2.49,3.47-2.88,6.23c-0.34,2.83-0.16,5.7,0.54,8.47
		c1.43,6.77,4.12,13.19,7.92,18.93c1.3,2.3,3.29,4.11,5.67,5.18c2.45,1.1,5.2,1.3,7.77,0.55c3.85-1.25,7.84-1.99,11.88-2.19
		c3.55-0.16,7.1,0.17,10.56,1c3.59,0.78,6.86,2.66,9.38,5.38c3.98,4.1,6.47,9.46,7.04,15.19c0.54,4.99-0.27,10.04-2.35,14.6
		c-1.23,2.26-1.93,4.79-2.05,7.37c0.05,1.66,0.57,3.27,1.52,4.63c1.62,2.16,3.59,4.03,5.82,5.53c2.59,1.89,5.47,3.49,8.7,4.88
		s6.5,2.59,9.73,3.49c2.83,0.86,5.75,1.33,8.7,1.39c2.2,0,4.25-0.5,6.11-1.49c1.9-1.08,3.37-2.81,4.15-4.88
		c2.18-5.78,5.86-10.84,10.66-14.65c4.77-4.07,10.79-6.29,17.01-6.28c6.45,0,12.12,2.09,17.01,6.28c4.89,4.18,8.36,9.17,10.41,14.94
		h0.29c0.66,1.61,1.7,3.04,3.03,4.13c1.47,1.3,3.03,1.99,4.69,1.99c5.97-0.33,11.83-1.75,17.3-4.18c2.88-1.35,5.47-2.79,7.92-4.33
		c1.99-1.23,3.76-2.8,5.23-4.63c2.35-3.23,2.67-7.55,0.83-11.11c-2.37-5.31-3.22-11.2-2.44-16.99c0.76-6.03,3.48-11.62,7.72-15.89
		c0.98-1.06,2.04-1.98,3.18-2.74c1.27-0.83,2.66-1.49,4.15-1.99c2.78-0.91,5.65-1.51,8.55-1.79c2.82-0.29,5.66-0.21,8.46,0.25
		c2.79,0.5,5.08,1,6.94,1.54c1.76,0.7,3.63,1.09,5.52,1.15c2.06-0.1,4.06-0.68,5.87-1.69c2.44-1.32,4.52-3.24,6.06-5.58
		C900.11,806.29,902.65,800.03,903.85,793.43z M798.91,805.69c-7.46,3.17-15.47,4.78-23.56,4.73c-15.95,0.15-31.28-6.26-42.52-17.78
		c-5.42-5.58-9.77-12.16-12.81-19.38c-3.17-7.42-4.78-15.42-4.74-23.51c0-8.37,1.56-16.19,4.74-23.56
		c9.5-22.5,31.3-37.02,55.33-36.86c6.13,0,11.99,0.83,17.6,2.49c2.02,0.66,4.01,1.41,5.96,2.24c14.38,6.07,25.89,17.59,32.11,32.13
		c3.13,7.37,4.69,15.19,4.69,23.56c0,8.32-1.56,16.19-4.69,23.51c-3.06,7.23-7.44,13.81-12.9,19.38
		C812.75,798.16,806.29,802.55,798.91,805.69z"/>
        <path class="st1" d="M835.89,533.2c0-13.68,0-27.36,0-41.04c0-32.86,0-65.71,0-98.57c0-39.76,0-79.51,0-119.27
		c0-34.38,0-68.76,0-103.13c0-16.7,0.43-33.47,0-50.17c-0.01-0.24,0-0.48,0-0.71c0-10.81-8.99-20.01-19.63-20.01
		c-6,0-12.01,0-18.01,0c-16.34,0-32.68,0-49.02,0c-24.17,0-48.33,0-72.5,0c-29.48,0-58.97,0-88.45,0c-32.13,0-64.26,0-96.39,0
		c-32.6,0-65.19,0-97.79,0c-30.4,0-60.8,0-91.2,0c-25.69,0-51.39,0-77.08,0c-18.48,0-36.96,0-55.44,0c-8.75,0-17.52-0.18-26.27,0
		c-0.38,0.01-0.75,0-1.13,0c-10.61,0-19.63,9.17-19.63,20.01c0,7.03,0,14.06,0,21.1c0,19.14,0,38.27,0,57.41
		c0,28.16,0,56.32,0,84.48c0,34.5,0,69.01,0,103.51c0,37.8,0,75.6,0,113.4c0,38.16,0,76.31,0,114.47c0,35.43,0,70.85,0,106.28
		c0,30.08,0,60.16,0,90.23c0,21.63,0,43.25,0,64.88c0,10.23-0.18,20.48,0,30.71c0.01,0.43,0,0.87,0,1.31
		c0,10.81,8.99,20.01,19.63,20.01c14.39,0,28.79,0,43.18,0c34.56,0,69.13,0,103.69,0c41.64,0,83.29,0,124.93,0
		c36.16,0,72.32,0,108.47,0c17.56,0,35.2,0.47,52.76,0c0.25-0.01,0.5,0,0.75,0c10.27,0,20.1-9.2,19.63-20.01
		c-0.48-10.84-8.62-20.01-19.63-20.01c-14.39,0-28.79,0-43.18,0c-34.56,0-69.13,0-103.69,0c-41.64,0-83.29,0-124.93,0
		c-36.16,0-72.32,0-108.47,0c-17.53,0-35.24-0.75-52.76,0c-0.25,0.01-0.5,0-0.75,0c6.54,6.67,13.09,13.34,19.63,20.01
		c0-7.03,0-14.06,0-21.1c0-19.14,0-38.27,0-57.41c0-28.16,0-56.32,0-84.48c0-34.5,0-69.01,0-103.51c0-37.8,0-75.6,0-113.4
		c0-38.16,0-76.31,0-114.47c0-35.43,0-70.85,0-106.28c0-30.08,0-60.16,0-90.23c0-21.63,0-43.25,0-64.88c0-10.22,0.29-20.49,0-30.71
		c-0.01-0.43,0-0.87,0-1.31c-6.54,6.67-13.09,13.34-19.63,20.01c6,0,12.01,0,18.01,0c16.34,0,32.68,0,49.02,0
		c24.17,0,48.33,0,72.5,0c29.48,0,58.97,0,88.45,0c32.13,0,64.26,0,96.39,0c32.6,0,65.19,0,97.79,0c30.4,0,60.8,0,91.2,0
		c25.69,0,51.39,0,77.08,0c18.48,0,36.96,0,55.44,0c8.74,0,17.53,0.29,26.27,0c0.37-0.01,0.75,0,1.13,0
		c-6.54-6.67-13.09-13.34-19.63-20.01c0,13.68,0,27.36,0,41.04c0,32.86,0,65.71,0,98.57c0,39.76,0,79.51,0,119.27
		c0,34.38,0,68.76,0,103.13c0,16.7-0.43,33.47,0,50.17c0.01,0.24,0,0.48,0,0.71c0,10.46,9.03,20.49,19.63,20.01
		C826.89,552.72,835.89,544.42,835.89,533.2L835.89,533.2z"/>
        <path class="st1" d="M237.37,300.29c15.32,0,30.65,0,45.97,0c36.8,0,73.6,0,110.41,0c44.53,0,89.05,0,133.58,0
		c38.5,0,76.99,0,115.49,0c18.69,0,37.45,0.47,56.14,0c0.26-0.01,0.53,0,0.79,0c10.27,0,20.1-9.2,19.63-20.01
		c-0.48-10.84-8.62-20.01-19.63-20.01c-15.32,0-30.65,0-45.97,0c-36.8,0-73.6,0-110.41,0c-44.53,0-89.05,0-133.58,0
		c-38.5,0-76.99,0-115.49,0c-18.69,0-37.45-0.47-56.14,0c-0.26,0.01-0.53,0-0.79,0c-10.27,0-20.1,9.2-19.63,20.01
		C218.21,291.12,226.36,300.29,237.37,300.29L237.37,300.29z"/>
        <path class="st1" d="M235.74,491.12c15.32,0,30.65,0,45.97,0c36.8,0,73.6,0,110.41,0c44.53,0,89.05,0,133.58,0
		c38.5,0,76.99,0,115.49,0c18.69,0,37.45,0.47,56.14,0c0.26-0.01,0.53,0,0.79,0c10.27,0,20.1-9.2,19.63-20.01
		c-0.48-10.84-8.62-20.01-19.63-20.01c-15.32,0-30.65,0-45.97,0c-36.8,0-73.6,0-110.41,0c-44.53,0-89.05,0-133.58,0
		c-38.5,0-76.99,0-115.49,0c-18.69,0-37.45-0.47-56.14,0c-0.26,0.01-0.53,0-0.79,0c-10.27,0-20.1,9.2-19.63,20.01
		C216.59,481.96,224.74,491.12,235.74,491.12L235.74,491.12z"/>
        <path class="st1" d="M237.21,681.96c32.54,0,65.08,0,97.62,0c51.81,0,103.61,0,155.42,0c11.81,0,23.63,0,35.44,0
		c11.03,0,21.6-9.2,21.09-20.01c-0.51-10.84-9.27-20.01-21.09-20.01c-32.54,0-65.08,0-97.62,0c-51.81,0-103.61,0-155.42,0
		c-11.81,0-23.63,0-35.44,0c-11.03,0-21.6,9.2-21.09,20.01C216.63,672.8,225.38,681.96,237.21,681.96L237.21,681.96z"/>
</g>
</svg>
