
<svg version="1.1" id="图层_1" xmlns="http://www.w3.org/2000/svg" x="0" y="0" viewBox="0 0 1024 1024" style="enable-background:new 0 0 1024 1024" xml:space="preserve"><style>.st4{fill:#989898}</style><path class="st4" d="M204.59 366.31h696.74c9.44 0 18.93.28 28.37 0 .41-.01.81 0 1.22 0l-19.29-25.32c-3.2 15.92-6.39 31.83-9.59 47.75-7.61 37.87-15.22 75.75-22.82 113.62L851.53 640.2l-23.94 119.16c-3.86 19.23-8.63 38.51-11.63 57.9-.04.27-.11.54-.16.81 6.43-4.89 12.86-9.79 19.29-14.68l-19.41.12c-17.61.11-35.22.22-52.83.32l-78.57.48c-31.81.2-63.63.39-95.44.59-34.84.21-69.69.43-104.53.64-35.17.22-70.34.43-105.52.65l-98.41.6-83.54.51c-19.92.12-39.84.24-59.76.37-9.42.06-18.9-.17-28.32.17-.41.01-.81.01-1.22.01l19.29 25.32c3.22-15.99 6.45-31.98 9.67-47.97 7.74-38.39 15.47-76.77 23.21-115.16 9.32-46.26 18.65-92.52 27.97-138.78l24.27-120.39c3.92-19.46 8.07-38.88 11.77-58.39.05-.28.11-.57.17-.85 2.06-10.23-2.93-22.09-13.97-24.6-9.95-2.27-22.39 3-24.6 13.97-3.22 15.99-6.45 31.98-9.67 47.97-7.74 38.39-15.47 76.77-23.21 115.16-9.32 46.26-18.65 92.52-27.97 138.78L100.2 763.3c-3.92 19.46-8.07 38.88-11.77 58.39-.05.28-.11.57-.17.85-2.52 12.52 5.56 25.4 19.29 25.32l19.41-.12c17.61-.11 35.22-.22 52.83-.32l78.57-.48c31.81-.2 63.63-.39 95.44-.59 34.84-.21 69.69-.43 104.53-.64 35.17-.22 70.34-.43 105.52-.65l98.41-.6 83.54-.51c19.92-.12 39.84-.24 59.76-.37 9.43-.06 18.89.11 28.32-.17.41-.01.81-.01 1.22-.01 8.27-.05 17.57-6.13 19.29-14.68 3.2-15.92 6.39-31.83 9.59-47.75 7.61-37.87 15.22-75.75 22.82-113.62l27.69-137.84 23.94-119.16c3.88-19.29 7.99-38.56 11.63-57.9.05-.27.11-.54.16-.81 2.53-12.59-5.56-25.32-19.29-25.32H234.19c-9.45 0-18.92-.17-28.37 0-.41.01-.81 0-1.22 0-10.46 0-20.48 9.2-20 20 .48 10.83 8.78 19.99 19.99 19.99z"/><path class="st4" d="M843.1 202.06H506.04c-15.49 0-31.18-.71-46.66 0-.22.01-.45 0-.67 0 4.71 1.95 9.43 3.91 14.14 5.86-16.52-15.97-33.04-31.94-49.56-47.92-26.74-25.86-53.49-51.71-80.23-77.57-6.51-6.29-12.86-12.82-19.56-18.91-8.29-7.55-17.24-6.43-27.32-6.43H192.71c-27.9 0-55.84-.44-83.74 0-.48.01-.96 0-1.44 0-10.81 0-20 9.16-20 20v717.67c0 9.73-.18 19.47 0 29.2.01.43 0 .85 0 1.28 0 10.46 9.2 20.48 20 20 10.84-.49 20-8.79 20-20V107.57c0-9.72.3-19.48 0-29.2-.01-.42 0-.85 0-1.28l-20 20h201.24c-4.71-1.95-9.43-3.91-14.14-5.86 29.4 28.43 58.8 56.85 88.2 85.28 17.03 16.47 34.06 32.93 51.09 49.4 3.45 3.33 6.82 6.78 10.36 10.01 5.52 5.05 11.32 6.14 18.06 6.14h277.83c33.8 0 67.64.56 101.44 0 .5-.01.99 0 1.49 0 10.46 0 20.48-9.2 20-20-.48-10.83-8.79-20-20-20z"/></svg>
