
<svg id="图层_1" data-name="图层 1" xmlns="http://www.w3.org/2000/svg" viewBox="0 0 770.44 891.85"><defs><style>.cls-3{fill:#989898}</style></defs><path class="cls-3" d="m510.92 65.74 36 16.51 85.91 39.45 104.36 47.93 89.9 41.29c14.6 6.7 29.07 14.25 44 20.2l.63.29-9.91-17.27v228.19c0 5.31 0 10.53-.38 15.83s-.87 10.56-1.49 15.82c-.21 1.79-.44 3.58-.66 5.37-.47 3.75.86-6.16.31-2.34-.14 1-.29 2.06-.44 3.1q-.92 6.3-2 12.58a510 510 0 0 1-15.87 65.18q-6.21 19.82-14 39.1c-.68 1.69-1.37 3.37-2.07 5.06-.34.81-1.62 3.85-.14.35s0-.09-.33.75q-2.31 5.39-4.74 10.71-4.85 10.62-10.17 21-11.43 22.29-25 43.38-7.12 11-14.82 21.67c-2.73 3.78-5.57 7.48-8.36 11.22-.75 1 2.92-3.74.55-.72l-1.95 2.48q-2.31 2.93-4.66 5.8a494.49 494.49 0 0 1-39.28 42.72q-10.92 10.54-22.46 20.43-6.15 5.28-12.49 10.36c-1.9 1.52-3.83 3-5.73 4.53-1.71 1.36 1.72-1.31 1.62-1.25-.51.34-1 .76-1.47 1.13l-3.94 3a541.63 541.63 0 0 1-56.73 37.13q-15.57 8.88-31.69 16.77-8.32 4.08-16.77 7.91-4.3 1.95-8.63 3.83c-1.34.59-2.69 1.16-4 1.74-2.08.91 1.31-.58 1.39-.58-.85 0-2.56 1.07-3.41 1.42q-17.91 7.4-36.21 13.73h10.63c-6.45-1.83-12.8-4.09-19.1-6.37q-11-4-21.82-8.49c-1-.4-1.92-.82-2.89-1.21s5.7 2.43 2.56 1.08l-1.76-.75q-3.37-1.44-6.73-2.94-7.41-3.29-14.74-6.76a631 631 0 0 1-68.6-38q-19.46-12.4-37.92-26.27a622.38 622.38 0 0 1-4.34-3.3c-3.16-2.41 3.34 2.62.79.61l-2.53-2q-4.75-3.75-9.41-7.58-9.73-8-19.08-16.46a516.4 516.4 0 0 1-37.23-37.1q-9-9.94-17.36-20.36c-1.42-1.76-2.82-3.53-4.22-5.31-2.37-3 1.33 1.75.56.73s-1.71-2.23-2.55-3.35q-4.16-5.51-8.15-11.13a452 452 0 0 1-30.42-49.31Q214.4 624 208.25 610.2c-.95-2.11-1.86-4.24-2.78-6.36-1.44-3.31 1.57 3.83.2.49-.59-1.45-1.19-2.89-1.77-4.33q-2.86-7.12-5.49-14.34a453.73 453.73 0 0 1-17.8-62.76q-1.71-8.22-3.12-16.48-.72-4.2-1.37-8.4c-.2-1.31-.39-2.61-.58-3.92-.1-.65-.19-1.31-.28-2-.4-2.71.06.36.17 1.37-1.36-12-2.72-23.89-3.45-35.92-1.12-18.57-.47-37.28-.47-55.86V225l-9.91 17.27 36.72-17.55 88.18-42.13 106.71-51 92.3-44.1c14.93-7.14 30.35-13.68 45-21.48.21-.12.43-.21.65-.31 9.46-4.53 12.69-18.81 7.17-27.37-6.27-9.72-17.24-12-27.36-7.17l-36.76 17.58L386 90.88l-106.71 51L187 186c-14.93 7.13-30.35 13.68-44.95 21.48l-.65.31c-6.2 3-9.9 10.68-9.9 17.27v155.05c0 22.24-.12 44.48 0 66.71.1 18.23 2.5 36.61 5 54.63a465.91 465.91 0 0 0 65.34 181.94 501.07 501.07 0 0 0 71.48 89.84 585 585 0 0 0 79.84 66.2 625 625 0 0 0 72 43 661.39 661.39 0 0 0 60.61 27.16c9.35 3.64 18.84 7.34 28.52 10 .48.13 1 .31 1.45.42 8.74 2 17.09-2.21 25.14-5.21q9.52-3.54 18.95-7.39a645.58 645.58 0 0 0 71.34-33.92 548.92 548.92 0 0 0 110.09-80.72 517.91 517.91 0 0 0 75.38-90.27c18.87-28.6 34.41-59.06 47.49-90.7a524.17 524.17 0 0 0 24.8-76 518.34 518.34 0 0 0 10.78-59.94c1-8.22 1.91-16.52 2.09-24.81.28-13 0-26.07 0-39.1V214.14c0-6.5-3.68-14.41-9.9-17.27l-36-16.52-85.9-39.44L665.64 93l-89.91-41.31c-14.66-6.73-29.28-13.56-44-20.2l-.63-.29c-9.49-4.36-22-3-27.36 7.17-4.64 8.8-2.97 22.71 7.18 27.37z" transform="translate(-131.45 -28.75)"/><path class="cls-3" d="m325.59 496.16 52.09 43.21 83 68.83 19 15.73c8.39 7 20 8.13 28.28 0l81.91-80 129.52-126.62 29.73-29c7.5-7.33 7.9-21 0-28.29-8.06-7.4-20.29-7.81-28.28 0l-81.91 80L509.34 566.6l-29.73 29h28.28l-52.08-43.21-83-68.83-19-15.74c-8-6.67-20.51-8.46-28.28 0-6.77 7.37-8.6 21.15 0 28.29z" transform="translate(-131.45 -28.75)"/></svg>
