
<svg xmlns="http://www.w3.org/2000/svg" viewBox="0 0 1024 1024" style="enable-background:new 0 0 1024 1024" xml:space="preserve"><path d="M417.72 388.06H121.01c-1.07 0-2.14.02-3.22 0-.48-.01-1.15-.04-1.48-.03-4.49.08 4.2 1.34 0 0-.25-.08-3.82-.95-3.77-1.13.05-.22 4.22 2.21.1-.2-.28-.16-2.19-1.34-2.16-1.39.15-.24 3.48 3.17.14-.17-.6-.6-1.18-1.23-1.73-1.88 1.78 2.39 2.06 2.71.84.96-.12-.22-1.99-3.33-1.88-3.38.35-.16 1.48 4.53.2-.11-.09-.32-.63-2.58-.59-2.58.12.88.24 1.77.35 2.65-.08-.91-.12-1.82-.12-2.73v-.63c-.02-1.6 0-3.2 0-4.8V84.53c0-1.8-.01-3.6 0-5.4 0-.33-.01-.66 0-1 .01-.48.04-1.14.03-1.48-.08-4.5-1.34 4.2 0 0 .05-.15.97-3.81 1.13-3.77.23.06-2.21 4.22.2.1 2.39-4.09.07.07-.17-.14-.1-.09 2.48-2.59 2.65-2.77 2.87-3.1-3.73 1.99 0 0 .82-.44 2.1-.98 2.8-1.59 1.76-1.54-4.49 1.19-.57.29.25-.06 3.83-1.05 3.84-.96-3.11.36-3.54.44-1.3.26.46-.02.92-.03 1.38-.03.82-.02 1.64 0 2.45 0h261.24c12.08 0 24.19-.23 36.27 0 .04 0 2.79.03 2.8.12.03.4-5.15-1.27-1.35-.09.25.08 3.82.95 3.77 1.13-.05.22-4.22-2.21-.1.2 4.09 2.39-.07.07.14-.17.09-.1 2.59 2.48 2.77 2.65 2.9 2.72-1.9-3.5 0 0 .12.22 1.98 3.33 1.88 3.38-.35.16-1.48-4.53-.2.11.11.43.21.85.32 1.28.42 2.18.39 1.73-.09-1.35.08.01.12 2.74.12 2.74v.73c.03 4.59 0 9.19 0 13.78v157.88c0 42.17.24 84.36 0 126.53 0 .35.01.69 0 1.04-.01.47-.03 1.26-.03 1.44.08 4.49 1.34-4.2 0 0-.08.25-.95 3.82-1.13 3.77-.22-.05 2.21-4.22-.2-.1-2.39 4.09-.07-.07.17.14.04.04-1.51 1.66-1.73 1.88-3.34 3.34-.01-.06.14.17.08.13-3.07 1.88-3.29 2.02-3.58 2.3 4.18-.96 0 0-.25.06-3.83 1.05-3.84.96.88-.12 1.77-.24 2.65-.35-.9.09-1.81.13-2.72.13-10.45.23-20.49 9.03-20 20 .48 10.63 8.79 20.25 20 20 27.72-.62 49.52-22.5 50-50.21.07-4.03 0-8.06 0-12.08V121.41c0-14.28.21-28.57 0-42.85-.33-23.09-16.02-44.7-39.29-49.33-6.25-1.24-12.12-1.2-18.37-1.2H119.95c-17.54 0-32.91 7.29-43.28 21.57-6.96 9.59-8.98 20.95-8.98 32.48v290.84c0 10.23 1.29 19.97 6.2 29.25 8.85 16.72 26.91 25.83 45.35 25.89 45 .16 90.01 0 135.01 0h163.48c10.46 0 20.48-9.2 20-20-.49-10.84-8.8-20-20.01-20zm496.28 0H617.29c-1.07 0-2.14.02-3.22 0-.48-.01-1.15-.04-1.48-.03-4.49.08 4.2 1.34 0 0-.25-.08-3.82-.95-3.77-1.13.05-.22 4.22 2.21.1-.2-.28-.16-2.19-1.34-2.16-1.39.15-.24 3.48 3.17.14-.17-.6-.6-1.18-1.23-1.73-1.88 1.78 2.39 2.06 2.71.84.96-.12-.22-1.99-3.33-1.88-3.38.35-.16 1.48 4.53.2-.11-.09-.32-.63-2.58-.59-2.58.12.88.24 1.77.35 2.65-.08-.91-.12-1.82-.12-2.73v-.63c-.02-1.6 0-3.2 0-4.8V84.53c0-1.8-.01-3.6 0-5.4 0-.33-.01-.66 0-1 .01-.48.04-1.14.03-1.48-.08-4.5-1.34 4.2 0 0 .05-.15.97-3.81 1.13-3.77.23.06-2.21 4.22.2.1 2.39-4.09.07.07-.17-.14-.1-.09 2.48-2.59 2.65-2.77 2.87-3.1-3.73 1.99 0 0 .82-.44 2.1-.98 2.8-1.59 1.76-1.54-4.49 1.19-.57.29.25-.06 3.83-1.05 3.84-.96-3.11.36-3.54.44-1.3.26.46-.02.92-.03 1.38-.03.82-.02 1.64 0 2.45 0h261.24c12.08 0 24.19-.23 36.27 0 .04 0 2.79.03 2.8.12.03.4-5.15-1.27-1.35-.09.25.08 3.82.95 3.77 1.13-.05.22-4.22-2.21-.1.2 4.09 2.39-.07.07.14-.17.09-.1 2.59 2.48 2.77 2.65 2.9 2.72-1.9-3.5 0 0 .12.22 1.98 3.33 1.88 3.38-.35.16-1.48-4.53-.2.11.11.43.21.85.32 1.28.42 2.18.39 1.73-.09-1.35.08.01.12 2.74.12 2.74v.73c.03 4.59 0 9.19 0 13.78v157.88c0 42.17.24 84.36 0 126.53 0 .35.01.69 0 1.04-.01.47-.03 1.26-.03 1.44.08 4.49 1.34-4.2 0 0-.08.25-.95 3.82-1.13 3.77-.22-.05 2.21-4.22-.2-.1-2.39 4.09-.07-.07.17.14.04.04-1.51 1.66-1.73 1.88-3.34 3.34-.01-.06.14.17.08.13-3.07 1.88-3.29 2.02-3.58 2.3 4.18-.96 0 0-.25.06-3.83 1.05-3.84.96.89-.12 1.77-.24 2.65-.35-.9.09-1.81.13-2.72.13-10.45.23-20.49 9.03-20 20 .48 10.63 8.79 20.25 20 20 27.72-.62 49.52-22.5 50-50.21.07-4.03 0-8.06 0-12.08V121.41c0-14.28.21-28.57 0-42.85-.33-23.09-16.02-44.7-39.29-49.33-6.25-1.24-12.12-1.2-18.37-1.2H616.23c-17.54 0-32.91 7.29-43.28 21.57-6.96 9.59-8.98 20.95-8.98 32.48v290.84c0 10.23 1.29 19.97 6.2 29.25 8.85 16.72 26.91 25.83 45.35 25.89 45 .16 90.01 0 135.01 0h163.48c10.46 0 20.48-9.2 20-20-.5-10.84-8.8-20-20.01-20zM417.72 882.77H121.01c-1.07 0-2.14.02-3.22 0-.48-.01-1.15-.04-1.48-.03-4.49.08 4.2 1.34 0 0-.25-.08-3.82-.95-3.77-1.13.05-.22 4.22 2.21.1-.2-.28-.16-2.19-1.34-2.16-1.39.15-.24 3.48 3.17.14-.17-.6-.6-1.18-1.23-1.73-1.88 1.78 2.39 2.06 2.71.84.96-.12-.22-1.99-3.33-1.88-3.38.35-.16 1.48 4.53.2-.11-.09-.32-.63-2.58-.59-2.58.12.88.24 1.77.35 2.65-.08-.91-.12-1.82-.12-2.73v-.63c-.02-1.6 0-3.2 0-4.8V579.24c0-1.8-.01-3.6 0-5.4 0-.33-.01-.66 0-1 .01-.48.04-1.14.03-1.48-.08-4.5-1.34 4.2 0 0 .05-.15.97-3.81 1.13-3.77.23.06-2.21 4.22.2.1 2.39-4.09.07.07-.17-.14-.1-.09 2.48-2.59 2.65-2.77 2.87-3.1-3.73 1.99 0 0 .82-.44 2.1-.98 2.8-1.59 1.76-1.54-4.49 1.19-.57.29.25-.06 3.83-1.05 3.84-.96-3.11.36-3.54.44-1.3.26.46-.02.92-.03 1.38-.03.82-.02 1.64 0 2.45 0h261.24c12.08 0 24.19-.23 36.27 0 .04 0 2.79.03 2.8.12.03.4-5.15-1.27-1.35-.09.25.08 3.82.95 3.77 1.13-.05.22-4.22-2.21-.1.2 4.09 2.39-.07.07.14-.17.09-.1 2.59 2.48 2.77 2.65 2.9 2.72-1.9-3.5 0 0 .12.22 1.98 3.33 1.88 3.38-.35.16-1.48-4.53-.2.11.11.43.21.85.32 1.28.42 2.18.39 1.73-.09-1.35.08.01.12 2.74.12 2.73v.73c.03 4.59 0 9.19 0 13.78v157.88c0 42.17.24 84.36 0 126.53 0 .35.01.69 0 1.04-.01.47-.03 1.26-.03 1.44.08 4.49 1.34-4.2 0 0-.08.25-.95 3.82-1.13 3.77-.22-.05 2.21-4.22-.2-.1-2.39 4.09-.07-.07.17.14.04.04-1.51 1.66-1.73 1.88-3.34 3.34-.01-.06.14.17.08.13-3.07 1.88-3.29 2.02-3.58 2.3 4.18-.96 0 0-.25.06-3.83 1.05-3.84.96.88-.12 1.77-.24 2.65-.35-.9.1-1.81.14-2.72.14-10.45.23-20.49 9.03-20 20 .48 10.63 8.79 20.25 20 20 27.72-.62 49.52-22.5 50-50.21.07-4.03 0-8.06 0-12.08V616.12c0-14.28.21-28.57 0-42.85-.33-23.09-16.02-44.7-39.29-49.33-6.25-1.24-12.12-1.2-18.37-1.2H119.95c-17.54 0-32.91 7.29-43.28 21.57-6.96 9.59-8.98 20.95-8.98 32.48v290.84c0 10.23 1.29 19.97 6.2 29.25 8.85 16.72 26.91 25.83 45.35 25.89 45 .16 90.01 0 135.01 0h163.48c10.46 0 20.48-9.2 20-20-.49-10.83-8.8-20-20.01-20zm496.28 0H617.29c-1.07 0-2.14.02-3.22 0-.48-.01-1.15-.04-1.48-.03-4.49.08 4.2 1.34 0 0-.25-.08-3.82-.95-3.77-1.13.05-.22 4.22 2.21.1-.2-.28-.16-2.19-1.34-2.16-1.39.15-.24 3.48 3.17.14-.17-.6-.6-1.18-1.23-1.73-1.88 1.78 2.39 2.06 2.71.84.96-.12-.22-1.99-3.33-1.88-3.38.35-.16 1.48 4.53.2-.11-.09-.32-.63-2.58-.59-2.58.12.88.24 1.77.35 2.65-.08-.91-.12-1.82-.12-2.73v-.63c-.02-1.6 0-3.2 0-4.8V579.24c0-1.8-.01-3.6 0-5.4 0-.33-.01-.66 0-1 .01-.48.04-1.14.03-1.48-.08-4.5-1.34 4.2 0 0 .05-.15.97-3.81 1.13-3.77.23.06-2.21 4.22.2.1 2.39-4.09.07.07-.17-.14-.1-.09 2.48-2.59 2.65-2.77 2.87-3.1-3.73 1.99 0 0 .82-.44 2.1-.98 2.8-1.59 1.76-1.54-4.49 1.19-.57.29.25-.06 3.83-1.05 3.84-.96-3.11.36-3.54.44-1.3.26.46-.02.92-.03 1.38-.03.82-.02 1.64 0 2.45 0h261.24c12.08 0 24.19-.23 36.27 0 .04 0 2.79.03 2.8.12.03.4-5.15-1.27-1.35-.09.25.08 3.82.95 3.77 1.13-.05.22-4.22-2.21-.1.2 4.09 2.39-.07.07.14-.17.09-.1 2.59 2.48 2.77 2.65 2.9 2.72-1.9-3.5 0 0 .12.22 1.98 3.33 1.88 3.38-.35.16-1.48-4.53-.2.11.11.43.21.85.32 1.28.42 2.18.39 1.73-.09-1.35.08.01.12 2.74.12 2.73v.73c.03 4.59 0 9.19 0 13.78v157.88c0 42.17.24 84.36 0 126.53 0 .35.01.69 0 1.04-.01.47-.03 1.26-.03 1.44.08 4.49 1.34-4.2 0 0-.08.25-.95 3.82-1.13 3.77-.22-.05 2.21-4.22-.2-.1-2.39 4.09-.07-.07.17.14.04.04-1.51 1.66-1.73 1.88-3.34 3.34-.01-.06.14.17.08.13-3.07 1.88-3.29 2.02-3.58 2.3 4.18-.96 0 0-.25.06-3.83 1.05-3.84.96.89-.12 1.77-.24 2.65-.35-.9.1-1.81.14-2.72.14-10.45.23-20.49 9.03-20 20 .48 10.63 8.79 20.25 20 20 27.72-.62 49.52-22.5 50-50.21.07-4.03 0-8.06 0-12.08V616.12c0-14.28.21-28.57 0-42.85-.33-23.09-16.02-44.7-39.29-49.33-6.25-1.24-12.12-1.2-18.37-1.2H616.23c-17.54 0-32.91 7.29-43.28 21.57-6.96 9.59-8.98 20.95-8.98 32.48v290.84c0 10.23 1.29 19.97 6.2 29.25 8.85 16.72 26.91 25.83 45.35 25.89 45 .16 90.01 0 135.01 0h163.48c10.46 0 20.48-9.2 20-20-.5-10.83-8.8-20-20.01-20z" style="fill:#979797"/></svg>
