<svg version="1.1" id="图层_1" xmlns="http://www.w3.org/2000/svg" xmlns:xlink="http://www.w3.org/1999/xlink" x="0px" y="0px"
     viewBox="0 0 1024 1024" style="enable-background:new 0 0 1024 1024;" xml:space="preserve">
<style type="text/css">
	.st0{fill:#989898;}
</style>
    <g>
	<path class="st0" d="M130.45,589.74c13.25-15.32,26.51-30.64,39.76-45.96c31.59-36.52,63.18-73.04,94.78-109.56
		c38.17-44.13,76.34-88.25,114.51-132.38c32.99-38.14,65.98-76.27,98.97-114.41c16.01-18.51,32.79-36.59,48.15-55.66
		c0.22-0.27,0.46-0.53,0.69-0.8c-9,0-18,0-26.99,0c13.17,15.35,26.35,30.7,39.52,46.05c31.42,36.6,62.83,73.2,94.25,109.8
		c38.08,44.36,76.16,88.73,114.24,133.09c32.91,38.34,65.82,76.68,98.73,115.02c15.93,18.56,31.37,37.72,47.87,55.76
		c0.24,0.26,0.46,0.53,0.68,0.8c6.56,7.64,20.36,7.28,26.99,0c7.41-8.14,6.99-19.07,0-27.22c-13.17-15.35-26.35-30.7-39.52-46.05
		c-31.42-36.6-62.83-73.2-94.25-109.8c-38.08-44.36-76.16-88.73-114.24-133.09c-32.91-38.34-65.82-76.68-98.73-115.02
		c-15.93-18.56-31.37-37.72-47.87-55.76c-0.24-0.26-0.46-0.53-0.68-0.8c-6.43-7.5-20.57-7.43-26.99,0
		c-13.25,15.32-26.51,30.64-39.76,45.96c-31.59,36.52-63.18,73.04-94.78,109.56c-38.17,44.13-76.34,88.25-114.51,132.38
		c-32.99,38.14-65.98,76.27-98.97,114.41c-16.05,18.55-32.27,36.96-48.15,55.66c-0.23,0.27-0.46,0.53-0.69,0.8
		c-6.56,7.58-7.95,19.86,0,27.22C110.65,596.4,123.44,597.84,130.45,589.74L130.45,589.74z"/>
        <path class="st0" d="M207.49,578.93c0,10.93,0,21.87,0,32.8c0,26.26,0,52.52,0,78.78c0,31.78,0,63.55,0,95.32
		c0,27.48,0,54.96,0,82.44c0,13.35-0.38,26.77,0,40.12c0.01,0.19,0,0.38,0,0.57c0,10.41,8.75,19.25,19.09,19.25
		c20.52,0,41.05,0,61.57,0c32.7,0,65.41,0,98.11,0c7.49,0,14.99,0,22.48,0c10.32,0,19.09-8.82,19.09-19.25c0-23.75,0-47.51,0-71.26
		c0-37.7,0-75.4,0-113.1c0-8.72,0-17.44,0-26.16c-6.36,6.42-12.73,12.83-19.09,19.25c20.52,0,41.05,0,61.57,0
		c32.7,0,65.41,0,98.11,0c7.49,0,14.99,0,22.48,0c-6.36-6.42-12.73-12.83-19.09-19.25c0,23.75,0,47.51,0,71.26
		c0,37.7,0,75.4,0,113.1c0,8.72,0,17.44,0,26.16c0,10.41,8.75,19.25,19.09,19.25c23.56,0,47.11,0,70.67,0c37.39,0,74.77,0,112.16,0
		c8.65,0,17.3,0,25.95,0c10.32,0,19.09-8.82,19.09-19.25c0-37.01,0-74.03,0-111.04c0-58.91,0-117.82,0-176.73
		c0-13.41,0-26.81,0-40.22c0-10.07-8.78-19.71-19.09-19.25c-10.34,0.47-19.09,8.46-19.09,19.25c0,37.01,0,74.03,0,111.04
		c0,58.91,0,117.82,0,176.73c0,13.41,0,26.81,0,40.22c6.36-6.42,12.73-12.83,19.09-19.25c-23.56,0-47.11,0-70.67,0
		c-37.39,0-74.77,0-112.16,0c-8.65,0-17.3,0-25.95,0c6.36,6.42,12.73,12.83,19.09,19.25c0-23.75,0-47.51,0-71.26
		c0-37.7,0-75.4,0-113.1c0-8.72,0-17.44,0-26.16c0-10.41-8.75-19.25-19.09-19.25c-20.52,0-41.05,0-61.57,0c-32.7,0-65.41,0-98.11,0
		c-7.49,0-14.99,0-22.48,0c-10.32,0-19.09,8.82-19.09,19.25c0,23.75,0,47.51,0,71.26c0,37.7,0,75.4,0,113.1c0,8.72,0,17.44,0,26.16
		c6.36-6.42,12.73-12.83,19.09-19.25c-20.52,0-41.05,0-61.57,0c-32.7,0-65.41,0-98.11,0c-7.49,0-14.99,0-22.48,0
		c6.36,6.42,12.73,12.83,19.09,19.25c0-10.93,0-21.87,0-32.8c0-26.26,0-52.52,0-78.78c0-31.77,0-63.55,0-95.32
		c0-27.48,0-54.96,0-82.44c0-13.35,0.38-26.77,0-40.12c-0.01-0.19,0-0.38,0-0.57c0-10.07-8.78-19.71-19.09-19.25
		C216.23,560.15,207.49,568.14,207.49,578.93L207.49,578.93z"/>
        <path class="st0" d="M669.18,167.57c31.26,0,62.51,0,93.77,0c4.38,0,8.75,0,13.13,0c-6.36-6.42-12.73-12.83-19.09-19.25
		c0,41.39,0,82.77,0,124.16c0,5.89,0,11.79,0,17.68c0,10.07,8.78,19.71,19.09,19.25c10.34-0.47,19.09-8.46,19.09-19.25
		c0-41.39,0-82.77,0-124.16c0-5.89,0-11.79,0-17.68c0-10.41-8.75-19.25-19.09-19.25c-31.26,0-62.51,0-93.77,0
		c-4.38,0-8.75,0-13.13,0c-9.98,0-19.55,8.85-19.09,19.25C650.55,158.75,658.47,167.57,669.18,167.57L669.18,167.57z"/>
</g>
</svg>
