<svg version="1.1" id="图层_1" xmlns="http://www.w3.org/2000/svg" xmlns:xlink="http://www.w3.org/1999/xlink" x="0px" y="0px"
	 viewBox="0 0 1024 1024" style="enable-background:new 0 0 1024 1024;" xml:space="preserve">
<style type="text/css">
	.st0{fill:#989898;}
</style>
<g>
	<path class="st0" d="M506.72,132.36c11.13,5.11,22.26,10.22,33.39,15.33c26.58,12.21,53.17,24.42,79.75,36.62
		c32.3,14.83,64.59,29.66,96.89,44.5c27.82,12.78,55.64,25.55,83.46,38.33c13.55,6.22,26.99,13.23,40.84,18.76
		c0.2,0.08,0.39,0.18,0.59,0.27c-3.07-5.34-6.13-10.69-9.2-16.03c0,15.42,0,30.84,0,46.27c0,31.11,0,62.23,0,93.34
		c0,24.08,0,48.16,0,72.24c0,4.93-0.01,9.78-0.35,14.7c-0.34,4.9-0.81,9.8-1.39,14.68c-0.19,1.66-0.41,3.32-0.62,4.99
		c-0.44,3.48,0.8-5.71,0.29-2.17c-0.14,0.96-0.27,1.92-0.41,2.88c-0.57,3.9-1.19,7.8-1.86,11.68c-3.55,20.47-8.52,40.69-14.74,60.51
		c-3.84,12.27-8.17,24.38-12.98,36.3c-0.63,1.57-1.27,3.13-1.92,4.69c-0.31,0.75-1.5,3.58-0.13,0.33c1.4-3.32,0.03-0.08-0.31,0.7
		c-1.43,3.33-2.9,6.65-4.41,9.94c-3,6.57-6.15,13.07-9.44,19.5c-7.07,13.8-14.83,27.24-23.24,40.27
		c-4.41,6.82-8.99,13.53-13.75,20.11c-2.54,3.51-5.17,6.95-7.77,10.42c-0.7,0.93,2.71-3.47,0.52-0.68c-0.6,0.77-1.21,1.54-1.82,2.31
		c-1.43,1.8-2.87,3.6-4.32,5.38c-11.36,13.92-23.55,27.17-36.47,39.66c-6.76,6.53-13.71,12.86-20.85,18.97
		c-3.81,3.27-7.68,6.47-11.6,9.61c-1.77,1.42-3.56,2.8-5.33,4.21c-1.58,1.26,1.6-1.22,1.51-1.16c-0.47,0.31-0.91,0.7-1.36,1.04
		c-1.22,0.93-2.44,1.85-3.66,2.77c-16.8,12.59-34.43,24.08-52.67,34.47c-9.64,5.49-19.46,10.68-29.42,15.56
		c-5.15,2.53-10.35,4.98-15.58,7.35c-2.66,1.21-5.33,2.39-8.01,3.56c-1.25,0.54-2.5,1.07-3.75,1.61c-1.94,0.84,1.21-0.54,1.29-0.54
		c-0.79,0-2.38,0.99-3.17,1.32c-11.08,4.58-22.3,8.81-33.62,12.75c3.29,0,6.58,0,9.87,0c-5.99-1.7-11.88-3.79-17.73-5.92
		c-6.81-2.47-13.56-5.11-20.26-7.88c-0.9-0.37-1.79-0.75-2.68-1.12c-0.8-0.33,5.29,2.25,2.38,1c-0.54-0.23-1.09-0.46-1.63-0.7
		c-2.09-0.9-4.18-1.81-6.26-2.73c-4.59-2.03-9.15-4.13-13.68-6.28c-21.93-10.41-43.22-22.18-63.69-35.23
		c-12.04-7.68-23.79-15.81-35.2-24.39c-1.35-1.01-2.69-2.04-4.03-3.06c-2.94-2.24,3.1,2.43,0.73,0.57
		c-0.78-0.62-1.57-1.23-2.35-1.84c-2.94-2.31-5.85-4.66-8.73-7.04c-6.02-4.96-11.93-10.05-17.72-15.28
		c-12.06-10.9-23.59-22.4-34.47-34.48c-5.54-6.15-10.92-12.45-16.12-18.9c-1.32-1.64-2.62-3.28-3.92-4.93
		c-2.2-2.79,1.23,1.62,0.52,0.68c-0.79-1.04-1.58-2.07-2.37-3.11c-2.57-3.41-5.09-6.85-7.56-10.33
		c-10.38-14.64-19.83-29.93-28.25-45.77c-4.38-8.24-8.47-16.63-12.28-25.14c-0.88-1.96-1.73-3.94-2.58-5.91
		c-1.33-3.07,1.47,3.56,0.19,0.45c-0.55-1.34-1.1-2.68-1.65-4.02c-1.78-4.41-3.48-8.84-5.1-13.31
		c-6.91-18.99-12.41-38.49-16.52-58.27c-1.06-5.08-2.02-10.18-2.9-15.3c-0.44-2.6-0.87-5.2-1.27-7.8c-0.19-1.21-0.37-2.42-0.54-3.63
		c-0.09-0.61-0.17-1.22-0.26-1.83c-0.37-2.52,0.06,0.33,0.16,1.27c-1.26-11.11-2.53-22.18-3.2-33.35
		c-1.05-17.23-0.44-34.6-0.44-51.86c0-31.19,0-62.38,0-93.57c0-22.31,0-44.61,0-66.92c0-1.18,0-2.36,0-3.53
		c-3.07,5.34-6.13,10.69-9.2,16.03c11.36-5.43,22.72-10.86,34.08-16.29c27.29-13.04,54.58-26.08,81.87-39.12
		c33.02-15.78,66.05-31.56,99.07-47.34c28.56-13.65,57.13-27.3,85.69-40.95c13.86-6.62,28.18-12.7,41.73-19.94
		c0.2-0.1,0.4-0.19,0.6-0.29c8.79-4.2,11.78-17.46,6.66-25.4c-5.82-9.03-16.01-11.15-25.4-6.66c-11.36,5.43-22.72,10.86-34.08,16.29
		c-27.29,13.04-54.58,26.08-81.87,39.12c-33.02,15.78-66.05,31.56-99.07,47.34c-28.56,13.65-57.13,27.3-85.69,40.95
		c-13.86,6.62-28.18,12.7-41.73,19.94c-0.2,0.1-0.4,0.19-0.6,0.29c-5.76,2.75-9.2,9.92-9.2,16.03c0,16.44,0,32.87,0,49.31
		c0,31.55,0,63.1,0,94.65c0,20.64-0.11,41.29,0,61.93c0.09,16.92,2.32,33.99,4.64,50.72c2.9,20.92,7.24,41.64,13.13,61.92
		c10.9,37.52,26.93,73.78,47.53,106.98c18.74,30.21,41.23,58.27,66.37,83.41c22.71,22.71,47.75,43.14,74.12,61.46
		c21.33,14.82,43.69,28.14,66.81,39.96c18.3,9.35,37.11,17.76,56.26,25.21c8.68,3.38,17.5,6.82,26.48,9.32
		c0.45,0.12,0.89,0.29,1.34,0.4c8.12,1.82,15.87-2.06,23.34-4.84c5.9-2.2,11.77-4.48,17.6-6.86c22.66-9.24,44.85-19.56,66.22-31.5
		c36.92-20.62,71.53-45.81,102.21-74.93c26.43-25.09,49.91-53.4,69.98-83.81c17.52-26.55,31.95-54.82,44.09-84.2
		c9.46-22.89,17.17-46.52,23.03-70.59c4.46-18.34,7.73-36.91,10.01-55.65c0.93-7.63,1.78-15.34,1.94-23.03
		c0.26-12.09,0.01-24.21,0.01-36.3c0-30.64,0-61.28,0-91.92c0-26.42,0-52.83,0-79.25c0-4.17,0-8.35,0-12.52
		c0-6.04-3.42-13.38-9.2-16.03c-11.13-5.11-22.26-10.22-33.39-15.33c-26.58-12.21-53.17-24.42-79.75-36.62
		c-32.3-14.83-64.59-29.66-96.89-44.5c-27.82-12.78-55.64-25.55-83.46-38.33c-13.61-6.25-27.19-12.59-40.84-18.76
		c-0.2-0.09-0.39-0.18-0.59-0.27c-8.81-4.04-20.41-2.8-25.4,6.66C495.74,115.12,497.29,128.03,506.72,132.36z"/>
	<path class="st0" d="M334.66,531.95c16.12,13.37,32.24,26.75,48.36,40.12c25.67,21.3,51.35,42.6,77.02,63.9
		c5.87,4.87,11.74,9.74,17.61,14.61c7.79,6.46,18.53,7.55,26.26,0c25.35-24.76,50.69-49.52,76.04-74.28
		c40.1-39.18,80.21-78.36,120.31-117.54c9.2-8.99,18.4-17.98,27.6-26.97c6.96-6.8,7.33-19.53,0-26.26c-7.48-6.87-18.83-7.25-26.26,0
		c-25.35,24.76-50.69,49.52-76.04,74.28c-40.1,39.18-80.21,78.36-120.31,117.54c-9.2,8.99-18.4,17.98-27.6,26.97
		c8.75,0,17.51,0,26.26,0c-16.12-13.37-32.24-26.75-48.36-40.12c-25.67-21.3-51.35-42.6-77.02-63.9
		c-5.87-4.87-11.74-9.74-17.61-14.61c-7.46-6.19-19.05-7.86-26.26,0C328.37,512.54,326.67,525.33,334.66,531.95L334.66,531.95z"/>
</g>
</svg>
