
<svg version="1.1" id="图层_1" xmlns="http://www.w3.org/2000/svg" xmlns:xlink="http://www.w3.org/1999/xlink" x="0px" y="0px"
	 viewBox="0 0 1024 1024" style="enable-background:new 0 0 1024 1024;" xml:space="preserve">
<g>
	<path d="M487.95,434.12l-41.53,155.75h-36.9l-26.55-101.56c-1.41-5.5-2.25-11.23-2.51-17.19h-0.4c-0.67,6.97-1.61,12.7-2.82,17.19
		l-27.15,101.56h-38.31l-41.53-155.75h36.4l23.13,105.58c1,4.63,1.71,10.46,2.11,17.5h0.7c0.33-5.5,1.37-11.5,3.12-18l28.96-105.08
		h35.29L426.3,540.5c1.07,4.22,1.91,9.72,2.51,16.49h0.5c0.27-5.83,1.04-11.53,2.31-17.09l22.62-105.78L487.95,434.12L487.95,434.12
		z"/>
	<path d="M635.25,589.87h-36.2l-11.66-35.7h-56.61l-11.46,35.7h-36l57.01-155.75h39.01L635.25,589.87z M579.55,528.54l-17.7-54
		c-1.14-3.42-1.94-7.94-2.41-13.58h-0.91c-0.4,4.56-1.31,8.95-2.71,13.17l-17.8,54.4L579.55,528.54L579.55,528.54z"/>
	<path d="M743.75,461.27h-55.61v40.02h51.18v27.15h-51.18v61.44h-33.18V434.12h88.79V461.27z"/>
</g>
<path d="M157,233c0,11.12,0,22.24,0,33.36c0,27.66,0,55.31,0,82.97c0,35.64,0,71.27,0,106.91c0,35.06,0,70.13,0,105.19
	c0,25.94,0,51.87,0,77.81c0,6.89,0,13.78,0,20.67c0,3.41-0.2,6.89,0.85,10.18c4.11,12.9,11.55,25.6,18.21,37.28
	c14.24,24.99,31.27,48.46,50.08,70.2c25.69,29.7,55.53,55.81,88.14,77.7c40.33,27.06,85.54,47.11,132.39,59.77
	c13.22,3.57,26.59,6.55,40.07,8.97c8.24,1.48,18.05,4.39,26.21,2.28c5.2-1.34,10.32-3.19,15.4-4.89
	c26.78-8.96,53.03-19.57,78.75-31.21c36.6-16.56,72.09-35.74,105.49-58.09c38.54-25.79,74.94-55.7,104.97-91.18
	c15.71-18.56,30-38.46,41.63-59.85c3.47-6.38,7.72-13.11,7.89-20.51c0.04-1.61,0-3.22,0-4.83c0-18.68,0-37.37,0-56.05
	c0-31.82,0-63.65,0-95.47c0-36.45,0-72.91,0-109.36c0-32.57,0-65.14,0-97.71c0-20.18,0-40.36,0-60.54c0-2.79,0-5.57,0-8.36
	c0-8.27-5.77-15.49-13.57-17.83c-19.1-5.71-38.19-11.42-57.29-17.13c-11.56-3.46-23.4,6.03-23.4,17.83c0,21.72,0,43.43,0,65.15
	c7.8-5.94,15.6-11.89,23.4-17.83c-20.2-5.12-40.4-10.24-60.61-15.36c4.52,5.94,9.05,11.89,13.57,17.83c0-24.27,0-48.53,0-72.8
	c0-7.89-5.72-15.94-13.57-17.83c-25.58-6.14-51.15-12.28-76.73-18.41c-3.66-0.88-7.31-1.75-10.97-2.63
	c-11.62-2.79-23.4,5.5-23.4,17.83c0,21.06,0,42.12,0,63.18c7.8-5.94,15.6-11.89,23.4-17.83c-18.05-5.1-36.09-10.2-54.14-15.3
	c4.52,5.94,9.05,11.89,13.57,17.83c0-24.25,0-48.5,0-72.75c0-8.54-5.81-15.18-13.57-17.83c-22.67-7.75-45.35-15.49-68.02-23.24
	c-3.37-1.15-6.76-2.58-10.21-3.49c-5.6-1.47-9.59-0.31-14.49,1.45c-12.81,4.58-25.62,9.16-38.43,13.74
	c-10.8,3.86-21.6,7.72-32.4,11.59c-7.75,2.77-13.57,9.26-13.57,17.83c0,24.25,0,48.5,0,72.75c4.52-5.94,9.05-11.89,13.57-17.83
	c-17.06,5.1-34.13,10.2-51.19,15.3c7.8,5.94,15.6,11.89,23.4,17.83c-0.17-20.41-0.34-40.81-0.52-61.22
	c-0.11-12.6-11.68-20.26-23.4-17.83c-25.56,5.31-51.12,10.63-76.68,15.94c-3.71,0.77-7.41,1.54-11.12,2.31
	c-8.21,1.71-13.16,10.05-13.57,17.83c-1.29,24.53-2.59,49.05-3.88,73.58c4.52-5.94,9.05-11.89,13.57-17.83
	c-18.1,5.1-36.2,10.2-54.3,15.3c7.8,5.94,15.6,11.89,23.4,17.83c-1.29-18.87-2.59-37.74-3.88-56.62
	c-0.84-12.26-11.11-20.66-23.4-17.83c-19.37,4.47-38.73,8.94-58.1,13.4c-9.43,2.18-15.9,13.52-12.91,22.74
	c3.19,9.86,12.64,15.24,22.74,12.91c19.37-4.47,38.73-8.94,58.1-13.4c-7.8-5.94-15.6-11.89-23.4-17.83
	c1.29,18.87,2.59,37.74,3.88,56.62c0.81,11.77,11.18,21.27,23.4,17.83c18.1-5.1,36.2-10.2,54.3-15.3
	c8.17-2.3,13.14-9.61,13.57-17.83c1.29-24.53,2.59-49.05,3.88-73.58c-4.52,5.94-9.05,11.89-13.57,17.83
	c25.56-5.31,51.12-10.63,76.68-15.94c3.71-0.77,7.41-1.54,11.12-2.31c-7.8-5.94-15.6-11.89-23.4-17.83
	c0.17,20.41,0.34,40.81,0.52,61.22c0.1,11.77,11.76,21.31,23.4,17.83c17.06-5.1,34.13-10.2,51.19-15.3
	c7.81-2.34,13.57-9.58,13.57-17.83c0-24.25,0-48.5,0-72.75c-4.52,5.94-9.05,11.89-13.57,17.83c21.87-7.82,43.75-15.65,65.62-23.47
	c3.18-1.14,6.37-2.28,9.55-3.42c-3.28,0-6.55,0-9.83,0c22.88,7.82,45.75,15.63,68.63,23.45c3.3,1.13,6.61,2.26,9.91,3.39
	c-4.52-5.94-9.05-11.89-13.57-17.83c0,24.25,0,48.5,0,72.75c0,8.16,5.75,15.62,13.57,17.83c18.05,5.1,36.09,10.2,54.14,15.3
	c11.58,3.27,23.4-5.89,23.4-17.83c0-21.06,0-42.12,0-63.18c-7.8,5.94-15.6,11.89-23.4,17.83c25.58,6.14,51.15,12.28,76.73,18.41
	c3.66,0.88,7.31,1.75,10.97,2.63c-4.52-5.94-9.05-11.89-13.57-17.83c0,24.27,0,48.53,0,72.8c0,7.98,5.73,15.84,13.57,17.83
	c20.2,5.12,40.4,10.24,60.61,15.36c11.61,2.94,23.4-5.62,23.4-17.83c0-21.72,0-43.43,0-65.15c-7.8,5.94-15.6,11.89-23.4,17.83
	c19.1,5.71,38.19,11.42,57.29,17.13c-4.52-5.94-9.05-11.89-13.57-17.83c0,14.41,0,28.82,0,43.23c0,34.44,0,68.88,0,103.32
	c0,41.8,0,83.6,0,125.39c0,35.99,0,71.98,0,107.96c0,17.45-0.7,35.06,0,52.51c0.01,0.25,0,0.5,0,0.75c0.84-3.11,1.68-6.22,2.52-9.33
	c-8.43,16.98-18.44,33.14-29.74,48.36c-0.69,0.93-1.38,1.85-2.08,2.77c-1.04,1.38-3.29,2.72,0.07-0.08
	c-1.64,1.37-2.96,3.76-4.31,5.43c-2.91,3.59-5.88,7.12-8.91,10.6c-6.31,7.23-12.89,14.23-19.7,21c-12.97,12.9-26.75,24.97-41.1,36.3
	c-0.89,0.7-1.78,1.4-2.67,2.1c-3.2,2.52,3.41-2.59,0.16-0.13c-1.8,1.36-3.59,2.73-5.39,4.08c-3.89,2.9-7.82,5.76-11.78,8.56
	c-7.21,5.1-14.53,10.05-21.95,14.84c-27.58,17.8-56.48,33.52-86.18,47.48c-6.65,3.12-13.33,6.16-20.06,9.1
	c-2.78,1.22-5.58,2.41-8.37,3.61c-3.06,1.31,4.5-1.88,1.45-0.61c-0.73,0.31-1.46,0.61-2.2,0.92c-1.67,0.7-3.35,1.39-5.03,2.08
	c-10.2,4.17-20.48,8.14-30.84,11.89c-10.47,3.78-21.02,7.49-31.73,10.53c3.28,0,6.55,0,9.83,0c-26.9-4-53.47-10.09-79.3-18.61
	c-5.99-1.97-11.94-4.08-17.83-6.31c-2.7-1.02-5.38-2.07-8.06-3.14c-1.32-0.53-2.64-1.08-3.97-1.61c-0.67-0.27-3.21-1.08-0.6-0.24
	c2.86,0.92-0.77-0.33-1.13-0.49c-10.79-4.65-21.39-9.74-31.76-15.27c-19-10.13-37.22-21.71-54.44-34.64
	c-0.96-0.72-1.91-1.45-2.86-2.17c-2.15-1.62,3.43,2.69-0.28-0.22c-1.98-1.55-3.94-3.12-5.9-4.7c-3.82-3.1-7.58-6.27-11.29-9.51
	c-7.09-6.18-13.97-12.6-20.64-19.24c-11.93-11.88-23.15-24.47-33.6-37.66c-0.64-0.81-1.28-1.63-1.92-2.45
	c-2.28-2.9,1.43,1.87,0.77,1.01c-1.14-1.5-2.29-3-3.41-4.51c-2.17-2.91-4.31-5.85-6.41-8.81c-3.86-5.45-7.59-10.99-11.18-16.61
	c-9.29-14.55-17.86-29.71-24.8-45.54c-0.19-0.42-0.37-0.85-0.55-1.27c-1.25-2.84,1.8,4.39,1.29,3.06c-0.19-0.49-0.36-1.07-0.62-1.52
	c-0.07-0.12-0.14-0.58-0.26-0.65c0.08,0.05,0.38,6.67,0.65,4.43c0.51-4.12,0-8.63,0-12.77c0-22.3,0-44.61,0-66.91
	c0-33.73,0-67.46,0-101.19c0-36.29,0-72.58,0-108.87c0-30.42,0-60.84,0-91.26c0-16.02,0-32.04,0-48.06c0-0.72,0-1.44,0-2.16
	c0-9.67-8.5-18.94-18.49-18.49C165.47,214.96,157,222.63,157,233z"/>
</svg>
