
<svg version="1.1" id="图层_1" xmlns="http://www.w3.org/2000/svg" xmlns:xlink="http://www.w3.org/1999/xlink" x="0px" y="0px"
	 viewBox="0 0 1024 1024" style="enable-background:new 0 0 1024 1024;" xml:space="preserve">
<g>
	<path d="M246.38,799.72c-5.95-6.02-11.72-12.19-17.28-18.55c-2.79-3.18-5.52-6.41-8.21-9.67c-1.19-1.45-2.38-2.91-3.55-4.38
		c-0.59-0.73-1.17-1.47-1.75-2.21c-1.07-1.36-2.56-3.16-0.62-0.76c-10.67-13.05-19.88-27.69-28.36-42.22
		c-8.55-14.62-16.87-29.93-23.01-45.73c1.71,4.39-0.84-2.09-1.18-2.91c-0.8-2-1.59-3.99-2.37-6c-1.55-4.02-3.03-8.07-4.45-12.13
		c-2.86-8.18-5.45-16.45-7.77-24.79c-4.72-16.93-8.16-34.11-10.8-51.48c-0.72-4.76,0.32,2.73-0.05-0.28
		c-0.12-0.98-0.25-1.95-0.37-2.94c-0.27-2.21-0.52-4.42-0.76-6.64c-0.47-4.44-0.87-8.91-1.19-13.36
		c-0.66-9.01-1.02-18.06-1.08-27.09c-0.11-15.43,0.64-30.87,2.25-46.21c0.22-2.09,0.45-4.17,0.71-6.24
		c0.16-1.33,0.97-6.63,0.14-1.37c0.58-3.7,1.06-7.42,1.68-11.11c1.24-7.55,2.7-15.06,4.37-22.53c3.21-14.37,7.2-28.56,11.95-42.49
		c2.36-6.9,4.9-13.74,7.62-20.5c0.63-1.56,1.16-3.63,2.07-5.04c-0.21,0.32-1.71,3.96-0.42,1.01c0.32-0.74,0.64-1.48,0.96-2.22
		c1.53-3.51,3.11-7,4.74-10.45c12.27-26.09,27.36-50.72,44.75-73.7c0.41-0.55,2.12-2.57,0.39-0.52c-1.98,2.35,0.56-0.69,0.78-0.98
		c0.99-1.26,1.98-2.5,2.98-3.73c2.38-2.94,4.79-5.85,7.24-8.72c4.65-5.44,9.44-10.76,14.37-15.96
		c9.86-10.38,20.25-20.25,31.13-29.55c2.57-2.19,5.17-4.36,7.8-6.49c1.39-1.13,2.79-2.25,4.2-3.36c0.63-0.49,1.26-0.98,1.88-1.47
		c1.29-1.03-3.21,2.43,0.09-0.07c5.72-4.33,11.52-8.55,17.45-12.59c11.89-8.12,24.21-15.6,36.88-22.41
		c6.37-3.43,12.83-6.68,19.37-9.75c3.1-1.46,6.21-2.87,9.35-4.25c0.74-0.33,1.48-0.65,2.22-0.97c0.34-0.14,4.03-1.73,1.16-0.5
		c-2.51,1.07-0.01,0.01,0.62-0.25c1.12-0.46,2.24-0.93,3.36-1.38c13.57-5.46,27.44-10.2,41.52-14.17
		c14.27-4.02,28.76-7.25,43.39-9.68c3.49-0.58,6.99-1.1,10.49-1.6c3.31-0.47-0.77,0.01-1.12,0.14c0.86-0.35,2.17-0.28,3.11-0.39
		c2.08-0.26,4.16-0.49,6.24-0.72c7.55-0.8,15.12-1.4,22.71-1.79c15.33-0.78,30.7-0.71,46.02,0.22c7.56,0.45,15.11,1.12,22.64,2
		c1.86,0.22,3.73,0.51,5.61,0.69c-5.27-0.48,0.01,0.01,1.36,0.21c3.91,0.57,7.81,1.19,11.7,1.88c29.24,5.13,57.69,13.6,85.16,24.82
		c1.26,0.51,2.65,0.4-1.01-0.43c0.69,0.15,1.6,0.69,2.22,0.96c1.48,0.64,2.95,1.29,4.42,1.94c3.67,1.65,7.32,3.34,10.95,5.09
		c6.5,3.14,12.92,6.46,19.25,9.94c12.6,6.94,24.83,14.55,36.64,22.78c2.61,1.82,5.21,3.68,7.78,5.57c1.6,1.17,3.2,2.37,4.79,3.57
		c0.64,0.48,1.27,0.97,1.9,1.45c2.87,2.17-2.96-2.36,0.09,0.07c5.61,4.45,11.15,8.98,16.55,13.69c10.79,9.4,21.08,19.38,30.83,29.87
		c4.88,5.25,9.61,10.62,14.21,16.1c2.17,2.59,4.31,5.22,6.41,7.86c0.73,0.93,4.86,5.31,1.19,1.48c1.34,1.4,2.45,3.21,3.61,4.76
		c8.59,11.51,16.58,23.48,23.92,35.83c7.38,12.42,14.08,25.24,20.09,38.36c1.43,3.12,2.76,6.28,4.16,9.4
		c1.01,2.24-1.33-3.3-0.42-1.01c0.37,0.94,0.77,1.86,1.15,2.8c0.76,1.87,1.51,3.74,2.25,5.63c2.65,6.8,5.13,13.67,7.42,20.61
		c4.61,14,8.46,28.25,11.52,42.67c1.54,7.29,2.89,14.63,4.03,22c0.26,1.65,0.5,3.29,0.74,4.94c0.11,0.76,0.33,1.69,0.35,2.48
		c-0.08-4.64-0.25-1.83-0.08-0.49c0.49,3.95,0.94,7.91,1.32,11.87c1.5,15.62,2.1,31.33,1.81,47.02c-0.16,9.03-0.63,18.06-1.38,27.06
		c-0.35,4.21-0.77,8.42-1.26,12.61c-0.26,2.2-0.46,4.43-0.82,6.63c0.1-0.62,0.56-3.91,0.04-0.44c-0.22,1.46-0.43,2.92-0.65,4.38
		c-2.67,17.35-6.48,34.51-11.37,51.36c-2.42,8.32-5.1,16.56-8.06,24.71c-1.39,3.83-2.83,7.63-4.33,11.42c-0.79,2-1.6,3.99-2.43,5.98
		c-0.34,0.82-1.04,3.23,0.17-0.39c-0.44,1.32-1.15,2.66-1.71,3.94c-6.88,15.65-14.76,30.85-23.55,45.51
		c-4.37,7.29-8.98,14.44-13.81,21.45c-2.27,3.3-4.6,6.56-6.96,9.8c-1.26,1.71-2.52,3.42-3.8,5.1c-0.57,0.75-1.11,1.53-1.72,2.24
		c2.87-3.43-0.22,0.26-0.63,0.77c-10.22,12.92-21.21,25.21-32.89,36.82c-6.77,6.74-7.24,19.13,0,25.78c7.29,6.69,18.56,7.19,25.78,0
		c51.36-51.14,89.48-115.14,109.47-184.84c19.33-67.42,21.4-139.47,6.75-208c-12.65-59.21-38.57-116.01-75.07-164.31
		c-36.89-48.82-83.42-89.91-137.24-119.23c-55.32-30.14-116.89-47.55-179.76-51.24c-62.5-3.67-126.29,6.64-184.21,30.47
		c-56.58,23.29-108.02,57.95-150.02,102.58c-42.31,44.98-74.55,98.83-94.23,157.35c-21.46,63.82-26.57,132.18-16.94,198.67
		c10.45,72.2,40.63,140.52,85.23,198.05c10.37,13.37,21.51,26.11,33.4,38.15c6.71,6.79,19.15,7.22,25.78,0
		C253.1,818.19,253.54,806.96,246.38,799.72L246.38,799.72z"/>
	<path d="M154.76,368.59c6.57,0,13.15,0,19.72,0c17.89,0,35.77,0,53.66,0c26.33,0,52.65,0,78.98,0c32.25,0,64.5,0,96.76,0
		c35.34,0,70.68,0,106.02,0c35.68,0,71.35,0,107.02,0c33.26,0,66.52,0,99.79,0c28,0,56,0,84,0c20.24,0,40.47,0,60.71,0
		c9.59,0,19.2,0.16,28.79,0c0.41-0.01,0.83,0,1.24,0c9.54,0,18.67-8.38,18.23-18.23c-0.44-9.88-8.01-18.23-18.23-18.23
		c-6.57,0-13.15,0-19.72,0c-17.89,0-35.77,0-53.66,0c-26.33,0-52.65,0-78.98,0c-32.25,0-64.5,0-96.76,0c-35.34,0-70.68,0-106.02,0
		c-35.68,0-71.35,0-107.02,0c-33.26,0-66.52,0-99.79,0c-28,0-56,0-84,0c-20.24,0-40.47,0-60.71,0c-9.59,0-19.2-0.16-28.79,0
		c-0.41,0.01-0.83,0-1.24,0c-9.54,0-18.67,8.38-18.23,18.23C136.97,360.23,144.53,368.59,154.76,368.59L154.76,368.59z"/>
	<path d="M137.09,592.56c6.93,0,13.86,0,20.79,0c18.86,0,37.72,0,56.57,0c27.76,0,55.51,0,83.28,0c34.01,0,68.01,0,102.02,0
		c37.26,0,74.51,0,111.78,0c37.61,0,75.22,0,112.84,0c35.07,0,70.14,0,105.21,0c29.53,0,59.04,0,88.57,0c21.34,0,42.67,0,64.01,0
		c10.11,0,20.24,0.16,30.35,0c0.43-0.01,0.87,0,1.31,0c10.05,0,19.68-8.38,19.22-18.23c-0.46-9.88-8.45-18.23-19.22-18.23
		c-6.93,0-13.86,0-20.79,0c-18.86,0-37.72,0-56.57,0c-27.76,0-55.51,0-83.28,0c-34.01,0-68.01,0-102.02,0c-37.26,0-74.51,0-111.78,0
		c-37.61,0-75.22,0-112.84,0c-35.07,0-70.14,0-105.21,0c-29.53,0-59.04,0-88.57,0c-21.34,0-42.67,0-64.01,0
		c-10.11,0-20.24-0.16-30.35,0c-0.43,0.01-0.87,0-1.31,0c-10.05,0-19.68,8.38-19.22,18.23
		C118.33,584.21,126.31,592.56,137.09,592.56L137.09,592.56z"/>
	<path d="M389.24,134.28c0,5.58,0,11.15,0,16.73c0,15.08,0,30.16,0,45.25c0,22.42,0,44.82,0,67.24c0,27.36,0,54.71,0,82.08
		c0,29.81,0,59.64,0,89.45c0,30.26,0,60.5,0,90.76c0,28.21,0,56.42,0,84.63c0,23.73,0,47.46,0,71.19c0,17.16,0,34.33,0,51.49
		c0,8.13-0.16,16.28,0,24.39c0.01,0.35,0,0.7,0,1.05c0,9.54,8.38,18.67,18.23,18.23c9.88-0.44,18.23-8.01,18.23-18.23
		c0-5.58,0-11.15,0-16.73c0-15.08,0-30.16,0-45.25c0-22.42,0-44.82,0-67.24c0-27.36,0-54.71,0-82.08c0-29.81,0-59.64,0-89.45
		c0-30.26,0-60.5,0-90.76c0-28.21,0-56.42,0-84.63c0-23.73,0-47.46,0-71.19c0-17.16,0-34.33,0-51.49c0-8.13,0.16-16.28,0-24.39
		c-0.01-0.35,0-0.7,0-1.05c0-9.54-8.38-18.67-18.23-18.23C397.59,116.49,389.24,124.06,389.24,134.28L389.24,134.28z"/>
	<path d="M621.27,134.42c0,5.58,0,11.15,0,16.73c0,15.08,0,30.15,0,45.24c0,22.41,0,44.81,0,67.22c0,27.36,0,54.7,0,82.06
		c0,29.81,0,59.62,0,89.43c0,30.25,0,60.49,0,90.74c0,28.2,0,56.41,0,84.61c0,23.72,0,47.45,0,71.17c0,17.16,0,34.32,0,51.48
		c0,8.13-0.16,16.27,0,24.39c0.01,0.35,0,0.7,0,1.05c0,9.54,8.38,18.67,18.23,18.23c9.88-0.44,18.23-8.01,18.23-18.23
		c0-5.58,0-11.15,0-16.73c0-15.08,0-30.15,0-45.24c0-22.41,0-44.81,0-67.22c0-27.36,0-54.7,0-82.06c0-29.81,0-59.62,0-89.43
		c0-30.25,0-60.49,0-90.74c0-28.2,0-56.41,0-84.61c0-23.72,0-47.45,0-71.17c0-17.16,0-34.32,0-51.48c0-8.13,0.16-16.27,0-24.39
		c-0.01-0.35,0-0.7,0-1.05c0-9.54-8.38-18.67-18.23-18.23C629.63,116.64,621.27,124.2,621.27,134.42L621.27,134.42z"/>
	<path d="M109.69,893.28c21.11,0,42.23,0,63.34,0c38.27,0,76.54,0,114.81,0c18.17,0,36.33,0,54.49,0c17.84,0,35.67,0,53.51,0
		c36.02,0,72.05,0,108.06,0c37.96,0,75.92,0,113.89,0c23.21,0,46.42,0,69.62,0c12.58,0,25.16,0,37.74,0c36.95,0,73.91,0,110.86,0
		c28.64,0,57.28,0,85.92,0c1.52,0,3.05,0,4.57,0c9.54,0,18.67-8.38,18.23-18.23c-0.44-9.88-8.01-18.23-18.23-18.23
		c-21.02,0-42.03,0-63.04,0c-38.34,0-76.69,0-115.03,0c-18.8,0-37.6,0-56.4,0c-17.22,0-34.43,0-51.66,0c-35.79,0-71.57,0-107.36,0
		c-38.11,0-76.21,0-114.32,0c-23.73,0-47.46,0-71.19,0c-12.23,0-24.46,0-36.7,0c-36.76,0-73.52,0-110.28,0c-28.75,0-57.5,0-86.25,0
		c-1.53,0-3.07,0-4.59,0c-9.54,0-18.67,8.38-18.23,18.23C91.9,884.92,99.47,893.28,109.69,893.28L109.69,893.28z"/>
	<g>
		<path d="M348.19,911.43c11.67,0,23.33,0,35,0c27.86,0,55.73,0,83.59,0c33.86,0,67.7,0,101.56,0c29.16,0,58.31,0,87.47,0
			c14.25,0,28.53,0.25,42.79,0c0.21,0,0.4,0,0.61,0c19.07,0,37.34-16.77,36.46-36.46c-0.88-19.75-16.02-36.46-36.46-36.46
			c-11.67,0-23.33,0-35,0c-27.86,0-55.73,0-83.59,0c-33.86,0-67.7,0-101.56,0c-29.16,0-58.31,0-87.47,0c-14.25,0-28.53-0.25-42.79,0
			c-0.21,0-0.4,0-0.61,0c-19.07,0-37.34,16.77-36.46,36.46C312.62,894.73,327.75,911.43,348.19,911.43L348.19,911.43z"/>
		<path d="M684.31,929.78c-4.84,0-9.63-0.03-14.34-0.05c-4.72-0.03-9.43-0.05-14.16-0.05H348.19c-29.3,0-53.32-23.66-54.67-53.88
			c-0.63-13.9,4.63-27.4,14.79-38.02c10.62-11.11,25.15-17.48,39.88-17.48h0.37c9.69-0.16,19.43-0.11,28.87-0.05
			c4.72,0.03,9.43,0.05,14.16,0.05H699.2c29.3,0,53.32,23.66,54.67,53.88c0.62,13.9-4.63,27.41-14.79,38.02
			c-10.62,11.11-25.15,17.48-39.88,17.48h-0.38C693.99,929.75,689.13,929.78,684.31,929.78z M348.19,856.74
			c-4.68,0-9.87,2.38-13.53,6.21c-1.86,1.94-4.95,6-4.72,11.19c0.41,9.23,6.95,19.04,18.25,19.04h307.62
			c4.78,0,9.57,0.03,14.36,0.05c9.25,0.05,18.82,0.1,28.11-0.05c0.29,0,0.56,0,0.81,0h0.11c4.68,0,9.87-2.38,13.53-6.21
			c1.86-1.94,4.95-6,4.72-11.2c-0.41-9.23-6.95-19.04-18.25-19.04H391.59c-4.78,0-9.57-0.03-14.36-0.05
			c-9.25-0.05-18.82-0.1-28.11,0.05c-0.27,0-0.55,0-0.82,0L348.19,856.74z"/>
	</g>
</g>
</svg>
