<svg version="1.1" id="图层_1" xmlns="http://www.w3.org/2000/svg" xmlns:xlink="http://www.w3.org/1999/xlink" x="0px" y="0px"
	 viewBox="0 0 1024 1024" style="enable-background:new 0 0 1024 1024;" xml:space="preserve">
<style type="text/css">
	.st0{fill:#979797;}
</style>
<g>
	<path class="st0" d="M907.71,868.84c-7.05,0-14.09,0-21.14,0c-19.18,0-38.35,0-57.53,0c-28.36,0-56.73,0-85.09,0
		c-34.61,0-69.22,0-103.83,0c-37.92,0-75.84,0-113.75,0c-38.43,0-76.86,0-115.3,0c-35.69,0-71.38,0-107.07,0
		c-30.16,0-60.32,0-90.48,0c-21.69,0-43.38,0-65.07,0c-10.26,0-20.57-0.26-30.83,0c-0.44,0.01-0.88,0-1.32,0
		c6.18,6.33,12.36,12.65,18.54,18.98c0-6.7,0-13.4,0-20.1c0-18.23,0-36.47,0-54.7c0-26.97,0-53.94,0-80.9c0-32.9,0-65.81,0-98.71
		c0-36.04,0-72.08,0-108.12c0-36.38,0-72.76,0-109.13c0-33.92,0-67.83,0-101.75c0-28.66,0-57.31,0-85.97c0-20.6,0-41.2,0-61.79
		c0-9.71,0.29-19.47,0-29.18c-0.01-0.42,0-0.85,0-1.28c-6.18,6.33-12.36,12.65-18.54,18.98c7.05,0,14.09,0,21.14,0
		c19.18,0,38.35,0,57.53,0c28.36,0,56.73,0,85.09,0c34.61,0,69.22,0,103.83,0c37.92,0,75.84,0,113.75,0c38.43,0,76.86,0,115.3,0
		c35.69,0,71.38,0,107.07,0c30.16,0,60.32,0,90.48,0c21.69,0,43.38,0,65.07,0c10.26,0,20.57,0.26,30.83,0c0.44-0.01,0.88,0,1.32,0
		c-6.18-6.33-12.36-12.65-18.54-18.98c0,6.7,0,13.4,0,20.1c0,18.23,0,36.47,0,54.7c0,26.97,0,53.94,0,80.9c0,32.9,0,65.81,0,98.71
		c0,36.04,0,72.08,0,108.12c0,36.38,0,72.76,0,109.13c0,33.92,0,67.83,0,101.75c0,28.66,0,57.31,0,85.97c0,20.6,0,41.2,0,61.79
		c0,9.72-0.17,19.46,0,29.18c0.01,0.43,0,0.85,0,1.28c0,9.93,8.53,19.44,18.54,18.98c10.05-0.46,18.54-8.34,18.54-18.98
		c0-6.7,0-13.4,0-20.1c0-18.23,0-36.47,0-54.7c0-26.97,0-53.94,0-80.9c0-32.9,0-65.81,0-98.71c0-36.04,0-72.08,0-108.12
		c0-36.38,0-72.76,0-109.13c0-33.92,0-67.83,0-101.75c0-28.66,0-57.31,0-85.97c0-20.6,0-41.2,0-61.79c0-9.72,0.17-19.46,0-29.18
		c-0.01-0.43,0-0.85,0-1.28c0-10.26-8.5-18.98-18.54-18.98c-7.05,0-14.09,0-21.14,0c-19.18,0-38.35,0-57.53,0
		c-28.36,0-56.73,0-85.09,0c-34.61,0-69.22,0-103.83,0c-37.92,0-75.84,0-113.75,0c-38.43,0-76.86,0-115.3,0
		c-35.69,0-71.38,0-107.07,0c-30.16,0-60.32,0-90.48,0c-21.69,0-43.38,0-65.07,0c-10.27,0-20.56-0.16-30.83,0
		c-0.44,0.01-0.88,0-1.32,0c-10.02,0-18.54,8.7-18.54,18.98c0,6.7,0,13.4,0,20.1c0,18.23,0,36.47,0,54.7c0,26.97,0,53.94,0,80.9
		c0,32.9,0,65.81,0,98.71c0,36.04,0,72.08,0,108.12c0,36.38,0,72.76,0,109.13c0,33.92,0,67.83,0,101.75c0,28.66,0,57.31,0,85.97
		c0,20.6,0,41.2,0,61.79c0,9.72-0.17,19.46,0,29.18c0.01,0.43,0,0.85,0,1.28c0,10.26,8.5,18.98,18.54,18.98c7.05,0,14.09,0,21.14,0
		c19.18,0,38.35,0,57.53,0c28.36,0,56.73,0,85.09,0c34.61,0,69.22,0,103.83,0c37.92,0,75.84,0,113.75,0c38.43,0,76.86,0,115.3,0
		c35.69,0,71.38,0,107.07,0c30.16,0,60.32,0,90.48,0c21.69,0,43.38,0,65.07,0c10.27,0,20.56,0.16,30.83,0c0.44-0.01,0.88,0,1.32,0
		c9.7,0,18.99-8.73,18.54-18.98C925.8,877.54,918.11,868.84,907.71,868.84z"/>
	<path class="st0" d="M291.78,232.89c14.6,0,29.2,0,43.8,0c35.05,0,70.1,0,105.14,0c42.22,0,84.44,0,126.65,0c36.5,0,73,0,109.49,0
		c17.78,0,35.64,0.47,53.42,0c0.25-0.01,0.49,0,0.74,0c9.7,0,18.99-8.73,18.54-18.98c-0.45-10.28-8.15-18.98-18.54-18.98
		c-14.6,0-29.2,0-43.8,0c-35.05,0-70.1,0-105.14,0c-42.22,0-84.44,0-126.65,0c-36.5,0-73,0-109.49,0c-17.78,0-35.64-0.47-53.42,0
		c-0.25,0.01-0.49,0-0.74,0c-9.7,0-18.99,8.73-18.54,18.98C273.69,224.19,281.39,232.89,291.78,232.89L291.78,232.89z"/>
	<path class="st0" d="M291.78,328.34c14.6,0,29.2,0,43.8,0c35.05,0,70.1,0,105.14,0c42.22,0,84.44,0,126.65,0c36.5,0,73,0,109.49,0
		c17.78,0,35.64,0.47,53.42,0c0.25-0.01,0.49,0,0.74,0c9.7,0,18.99-8.73,18.54-18.98c-0.45-10.28-8.15-18.98-18.54-18.98
		c-14.6,0-29.2,0-43.8,0c-35.05,0-70.1,0-105.14,0c-42.22,0-84.44,0-126.65,0c-36.5,0-73,0-109.49,0c-17.78,0-35.64-0.47-53.42,0
		c-0.25,0.01-0.49,0-0.74,0c-9.7,0-18.99,8.73-18.54,18.98C273.69,319.64,281.39,328.34,291.78,328.34L291.78,328.34z"/>
	<path class="st0" d="M106.94,608.7c25.12,18.37,50.25,36.75,75.37,55.12c39.72,29.05,79.44,58.09,119.15,87.14
		c9.12,6.67,18.25,13.34,27.37,20.02c7.79,5.69,21.19,1.76,25.37-6.81c4.77-9.8,9.55-19.59,14.32-29.39
		c11.46-23.53,22.93-47.07,34.4-70.6c13.88-28.49,27.76-56.97,41.63-85.46c12.01-24.65,24.02-49.31,36.03-73.96
		c5.84-11.99,12.3-23.85,17.59-36.11c0.08-0.18,0.18-0.36,0.26-0.54c-10.67,0-21.35,0-32.02,0c12.29,25.58,24.58,51.17,36.87,76.75
		c19.49,40.58,38.98,81.15,58.47,121.73c4.46,9.29,8.93,18.59,13.39,27.88c2.82,5.87,9.84,9.4,16.01,9.4
		c7.02,0,12.09-3.82,16.01-9.4c13.51-19.23,27.02-38.45,40.53-57.68c21.52-30.62,43.03-61.25,64.55-91.87
		c4.92-7,9.83-14,14.75-20.99c-9.71,1.28-19.41,2.56-29.12,3.84c22.19,27.94,44.37,55.88,66.56,83.82
		c5.59,7.05,9.4,13.52,19.78,13.96c3.88,0.16,7.8,0,11.68,0c20.99,0,41.97,0,62.96,0c16.29,0,32.58,0,48.87,0
		c9.7,0,18.99-8.73,18.54-18.98c-0.45-10.28-8.15-18.98-18.54-18.98c-36.07,0-72.14,0-108.21,0c-5.1,0-10.2,0-15.3,0
		c4.37,1.85,8.74,3.71,13.11,5.56c-21.36-26.91-42.73-53.81-64.1-80.72c-3.04-3.83-6.09-7.67-9.13-11.5
		c-3.62-4.55-10.24-5.95-15.58-5.22c-6.08,0.84-10.03,4.06-13.55,9.06c-13.51,19.23-27.02,38.45-40.53,57.68
		c-21.52,30.62-43.03,61.25-64.55,91.87c-4.92,7-9.83,14-14.75,20.99c10.67,0,21.35,0,32.02,0c-12.29-25.58-24.58-51.17-36.87-76.75
		c-19.49-40.58-38.98-81.15-58.47-121.73c-4.46-9.29-8.93-18.59-13.39-27.88c-5.98-12.45-26.01-12.34-32.02,0
		c-4.77,9.8-9.55,19.59-14.32,29.39c-11.47,23.53-22.93,47.07-34.4,70.6c-13.88,28.49-27.76,56.97-41.63,85.46
		c-12.01,24.65-24.02,49.31-36.03,73.96c-5.84,11.99-12.32,23.84-17.59,36.11c-0.08,0.18-0.18,0.36-0.26,0.54
		c8.46-2.27,16.91-4.54,25.37-6.81c-25.12-18.37-50.25-36.75-75.37-55.12c-39.72-29.05-79.44-58.09-119.15-87.14
		c-9.12-6.67-18.25-13.34-27.37-20.02c-7.92-5.79-20.98-1.69-25.37,6.81C95.24,592.52,98.49,602.52,106.94,608.7L106.94,608.7z"/>
</g>
</svg>
