<?xml version="1.0" standalone="no"?><!DOCTYPE svg PUBLIC "-//W3C//DTD SVG 1.1//EN" "http://www.w3.org/Graphics/SVG/1.1/DTD/svg11.dtd"><svg t="1697004735068" class="icon" viewBox="0 0 1024 1024" version="1.1" xmlns="http://www.w3.org/2000/svg" p-id="4411" xmlns:xlink="http://www.w3.org/1999/xlink" width="200" height="200"><path d="M593.93437 0.033128H184.081665A149.588772 149.588772 0 0 0 31.413399 146.30911V877.689023a149.588772 149.588772 0 0 0 152.668266 146.275983h534.43225A149.588772 149.588772 0 0 0 871.2755 877.689023V257.357544z" fill="#ee0b2d" p-id="4412"></path><path d="M201.065543 510.296013h407.146483a38.167067 38.167067 0 1 0 0-76.334133H201.065543a38.167067 38.167067 0 1 0 0 76.334133z" fill="#FFFFFF" p-id="4413"></path><path d="M514.380766 637.535121H193.040194a39.240224 39.240224 0 0 0 0 76.334134h321.340572a39.240224 39.240224 0 0 0 0-76.334134z" fill="#FFFFFF" p-id="4414"></path><path d="M745.249526 256.937613h125.979315L594.121006 0.033128v116.647514a145.94937 145.94937 0 0 0 151.12852 140.256971z" fill="#ef3e7f" p-id="4415"></path><path d="M511.441249 870.223582a25.429158 25.429158 0 0 0-6.765556 11.664752l-28.928584 110.115253a25.429158 25.429158 0 0 0 32.334691 30.701626l118.653851-37.747136a25.475817 25.475817 0 0 0 10.171664-6.11233l285.179842-281.307144-114.594518-118.793829z" fill="#ef3e7f" p-id="4416"></path><path d="M965.853304 528.25973a79.32031 79.32031 0 0 0-107.315713 2.472928l-12.64459 12.411295 113.334724 111.981613 13.62443-15.257494a79.32031 79.32031 0 0 0-6.998851-111.608342z" fill="#ef3e7f" p-id="4417"></path></svg>