<svg width="60.000000" height="26.000000" viewBox="0 0 60 26" fill="none" xmlns="http://www.w3.org/2000/svg" xmlns:xlink="http://www.w3.org/1999/xlink">
	<desc>
			Created with Pixso.
	</desc>
	<defs>
		<linearGradient id="paint_linear_31_338_0" x1="0.000000" y1="13.000000" x2="60.000000" y2="13.000000" gradientUnits="userSpaceOnUse">
			<stop stop-color="#E8A833"/>
			<stop offset="1.000000" stop-color="#B48A52"/>
		</linearGradient>
	</defs>
	<path id="抵扣卷" d="M6.89453 1.69922C10.2669 1.72526 14.1016 1.44531 18.3984 0.859375L18.9453 2.32422C17.0703 2.5 15.3451 2.64648 13.7695 2.76367C13.7826 4.15039 13.8444 5.80729 13.9551 7.73438L19.1992 7.73438L19.1992 9.14062L14.043 9.14062C14.3229 12.6302 14.987 15.0326 16.0352 16.3477C16.569 16.9727 17.0052 17.2852 17.3438 17.2852C17.5911 17.2852 17.7539 17.0638 17.832 16.6211C17.9622 15.8789 18.0664 14.974 18.1445 13.9062C18.6654 14.1406 19.1341 14.3164 19.5508 14.4336C19.4336 15.5924 19.3034 16.5234 19.1602 17.2266C18.9388 18.3854 18.4049 18.9648 17.5586 18.9648C16.5951 18.9648 15.6836 18.3789 14.8242 17.207C13.6198 15.5013 12.8743 12.8125 12.5879 9.14062L8.37891 9.14062L8.37891 16.0352C9.68099 15.306 10.8919 14.6094 12.0117 13.9453C12.1029 14.5443 12.2005 15.0456 12.3047 15.4492C10.612 16.3737 9.29688 17.1354 8.35938 17.7344C7.95573 17.9948 7.58464 18.2812 7.24609 18.5938L6.23047 17.3438C6.69922 16.888 6.92057 16.2956 6.89453 15.5664L6.89453 1.69922ZM0 10.5859C0.826823 10.2474 1.64714 9.89583 2.46094 9.53125L2.46094 5.05859L0.136719 5.05859L0.136719 3.69141L2.46094 3.69141L2.46094 0.0976562L3.92578 0.0976562L3.92578 3.69141L6.13281 3.69141L6.13281 5.05859L3.92578 5.05859L3.92578 8.85742C4.61589 8.53841 5.29948 8.20964 5.97656 7.87109C6.01562 8.47005 6.06771 8.99089 6.13281 9.43359C5.4362 9.76562 4.70052 10.1172 3.92578 10.4883L3.92578 16.9531C3.92578 18.4115 3.34635 19.1406 2.1875 19.1406C1.69271 19.1406 1.09375 19.1341 0.390625 19.1211C0.338542 18.6523 0.260417 18.1315 0.15625 17.5586C0.833333 17.6107 1.34115 17.6367 1.67969 17.6367C2.20052 17.6367 2.46094 17.3503 2.46094 16.7773L2.46094 11.1914C1.73828 11.5495 0.983073 11.9206 0.195312 12.3047L0 10.5859ZM12.2852 2.86133C10.8398 2.94596 9.53776 3.0013 8.37891 3.02734L8.37891 7.73438L12.5 7.73438C12.4089 6.27604 12.3372 4.65169 12.2852 2.86133ZM10.7617 17.1094L11.7578 16.3086C12.474 16.9596 13.1771 17.6823 13.8672 18.4766L12.7539 19.3945C12.168 18.6263 11.5039 17.8646 10.7617 17.1094ZM28.2617 2.07031L38.1445 2.07031L38.1445 18.9844L36.6211 18.9844L36.6211 17.3438L29.7852 17.3438L29.7852 18.9844L28.2617 18.9844L28.2617 2.07031ZM36.6211 3.53516L29.7852 3.53516L29.7852 15.918L36.6211 15.918L36.6211 3.53516ZM19.9609 10.625C20.9701 10.3776 22.0052 10.1139 23.0664 9.83398L23.0664 5.44922L20.2344 5.44922L20.2344 4.02344L23.0664 4.02344L23.0664 0.253906L24.5898 0.253906L24.5898 4.02344L27.3242 4.02344L27.3242 5.44922L24.5898 5.44922L24.5898 9.43359C25.4557 9.19922 26.3411 8.95833 27.2461 8.71094C27.2591 9.36198 27.2721 9.8763 27.2852 10.2539C26.3802 10.5078 25.4818 10.7617 24.5898 11.0156L24.5898 16.8164C24.5898 18.2357 23.9583 18.9518 22.6953 18.9648C22.1094 18.9779 21.3802 18.9779 20.5078 18.9648C20.4297 18.418 20.332 17.8776 20.2148 17.3438C20.9831 17.4089 21.6406 17.4414 22.1875 17.4414C22.7734 17.4414 23.0664 17.0964 23.0664 16.4062L23.0664 11.4551C22.0898 11.7285 21.1263 12.0052 20.1758 12.2852L19.9609 10.625ZM40.1367 7.40234L46.2891 7.40234C46.7188 6.78385 47.0996 6.1263 47.4316 5.42969L41.2695 5.42969L41.2695 4.08203L48.0078 4.08203C48.4896 2.85807 48.8737 1.4974 49.1602 0L50.7812 0.332031C50.4427 1.67969 50.0684 2.92969 49.6582 4.08203L58.1836 4.08203L58.1836 5.42969L49.1504 5.42969C48.8639 6.11328 48.5286 6.77083 48.1445 7.40234L59.1797 7.40234L59.1797 8.75L53.7695 8.75C55.2083 10.3971 57.1159 11.4648 59.4922 11.9531C59.1146 12.4349 58.7305 12.9557 58.3398 13.5156C56.8359 12.9948 55.5078 12.2591 54.3555 11.3086C54.3164 12.0443 54.2643 12.8385 54.1992 13.6914C54.069 15.2669 53.2487 16.0612 51.7383 16.0742C51.1263 16.0872 50.332 16.0677 49.3555 16.0156C49.3034 15.5208 49.2057 15 49.0625 14.4531C50.026 14.5833 50.7812 14.6484 51.3281 14.6484C52.2266 14.6615 52.7018 14.2773 52.7539 13.4961C52.793 13.1445 52.819 12.7539 52.832 12.3242L46.1719 12.3242L46.1719 16.25C46.1719 17.0833 46.582 17.5 47.4023 17.5L53.6328 17.5C54.7005 17.5 55.332 17.194 55.5273 16.582C55.6966 16.0482 55.8333 15.3451 55.9375 14.4727C56.3281 14.6549 56.8294 14.8438 57.4414 15.0391C57.2591 15.8984 57.0833 16.6016 56.9141 17.1484C56.5625 18.2943 55.6055 18.8672 54.043 18.8672L47.1875 18.8672C45.4948 18.8672 44.6484 18.0404 44.6484 16.3867L44.6484 11.4648C43.5547 12.3828 42.3112 13.2096 40.918 13.9453C40.5664 13.5156 40.1758 13.0859 39.7461 12.6562C41.9727 11.6406 43.7988 10.3385 45.2246 8.75L40.1367 8.75L40.1367 7.40234ZM45.1562 11.0156L54.0234 11.0156C53.2878 10.3516 52.6302 9.59635 52.0508 8.75L47.2363 8.75C46.6309 9.55729 45.9375 10.3125 45.1562 11.0156ZM52.8711 3.125C53.7435 2.22656 54.5052 1.28255 55.1562 0.292969L56.5234 1.13281C55.7682 2.1224 54.9479 3.07943 54.0625 4.00391L52.8711 3.125ZM42.5391 1.21094L43.6523 0.3125C44.5768 1.19792 45.4167 2.04427 46.1719 2.85156L44.9219 3.88672C44.1927 3.0013 43.3984 2.10938 42.5391 1.21094Z" fill-rule="evenodd" fill="url(#paint_linear_31_338_0)"/>
</svg>
