<svg width="148.688477" height="19.986404" viewBox="0 0 148.688 19.9864" fill="none" xmlns="http://www.w3.org/2000/svg" xmlns:xlink="http://www.w3.org/1999/xlink">
	<desc>
			Created with Pixso.
	</desc>
	<defs>
		<linearGradient id="paint_linear_30_318_0" x1="30.529297" y1="9.380493" x2="128.749115" y2="9.380493" gradientUnits="userSpaceOnUse">
			<stop stop-color="#E8A833"/>
			<stop offset="0.551519" stop-color="#EBC874"/>
			<stop offset="1.000000" stop-color="#AE7222"/>
		</linearGradient>
		<linearGradient id="paint_linear_30_310_0" x1="11.001105" y1="6.865067" x2="11.001105" y2="19.986408" gradientUnits="userSpaceOnUse">
			<stop stop-color="#E8A936"/>
			<stop offset="0.496183" stop-color="#E9C571"/>
			<stop offset="1.000000" stop-color="#B17726"/>
		</linearGradient>
		<linearGradient id="paint_linear_30_311_0" x1="3.972592" y1="0.000000" x2="3.972592" y2="5.492838" gradientUnits="userSpaceOnUse">
			<stop stop-color="#E8A936"/>
			<stop offset="0.496183" stop-color="#E9C571"/>
			<stop offset="1.000000" stop-color="#B17726"/>
		</linearGradient>
		<linearGradient id="paint_linear_30_312_0" x1="10.999620" y1="0.000000" x2="10.999620" y2="5.492838" gradientUnits="userSpaceOnUse">
			<stop stop-color="#E8A936"/>
			<stop offset="0.496183" stop-color="#E9C571"/>
			<stop offset="1.000000" stop-color="#B17726"/>
		</linearGradient>
		<linearGradient id="paint_linear_30_313_0" x1="4.743430" y1="6.866165" x2="4.743430" y2="17.734381" gradientUnits="userSpaceOnUse">
			<stop stop-color="#E8A936"/>
			<stop offset="0.496183" stop-color="#E9C571"/>
			<stop offset="1.000000" stop-color="#B17726"/>
		</linearGradient>
		<linearGradient id="paint_linear_30_314_0" x1="18.059828" y1="0.000000" x2="18.059828" y2="5.492838" gradientUnits="userSpaceOnUse">
			<stop stop-color="#E8A936"/>
			<stop offset="0.496183" stop-color="#E9C571"/>
			<stop offset="1.000000" stop-color="#B17726"/>
		</linearGradient>
		<linearGradient id="paint_linear_30_315_0" x1="17.327003" y1="6.866180" x2="17.327003" y2="17.643738" gradientUnits="userSpaceOnUse">
			<stop stop-color="#E8A936"/>
			<stop offset="0.496183" stop-color="#E9C571"/>
			<stop offset="1.000000" stop-color="#B17726"/>
		</linearGradient>
	</defs>
	<path id="矢量 526" d="M39.7285 0.0421143C37.751 3.04016 34.1475 5.61829 30.5293 7.03918C31.0078 7.47864 31.5303 8.13782 31.8086 8.62122C34.8115 7.25891 37.7314 5.2179 39.9092 2.76184C42.5508 5.68176 45.251 7.27844 48.1514 8.64075C48.3711 8.05969 48.8887 7.42004 49.3477 7.01965C46.3691 5.81848 43.4688 4.29993 40.9492 1.48254C41.1104 1.25793 41.2715 1.05774 41.4082 0.838013L39.7285 0.0421143ZM136.149 5.26184C135.969 4.68079 135.51 3.82141 135.051 3.09875L133.947 3.09875C133.469 4.00208 132.888 4.79797 132.331 5.41809C131.97 5.19836 131.188 4.77844 130.729 4.62219C131.828 3.51868 132.731 1.81946 133.249 0.120239L135.07 0.462036C134.929 0.901489 134.768 1.32141 134.567 1.76086L139.65 1.76086L139.65 3.09875L136.872 3.09875C137.248 3.66028 137.57 4.26086 137.731 4.70032L136.149 5.26184ZM143.469 0.462036C143.352 0.901489 143.19 1.32141 143.01 1.76086L148.688 1.76086L148.688 3.09875L145.471 3.09875C145.891 3.64075 146.291 4.20227 146.491 4.62219L144.948 5.3009C144.709 4.71985 144.108 3.84094 143.527 3.09875L142.39 3.09875C142.028 3.71887 141.647 4.2804 141.228 4.73938C140.91 4.50012 140.129 4.0802 139.709 3.89954C140.607 3.0011 141.291 1.56067 141.672 0.139771L143.469 0.462036ZM97.8096 5.12024C96.6475 7.21985 95.2314 9.33899 93.7715 11.0822L97.4287 10.462C97.3506 10.9406 97.3506 11.6388 97.3701 12.0001C92.5312 12.9425 91.7891 13.1622 91.3496 13.421C91.2715 13.0792 90.9883 12.2784 90.7881 11.8585C91.252 11.7413 91.7109 11.2579 92.3115 10.5206C92.6484 10.1398 93.332 9.26086 94.0889 8.09875C91.9502 8.38196 91.4912 8.47961 91.1885 8.64075C91.1104 8.27942 90.8076 7.42004 90.6318 6.98059C90.9688 6.90247 91.3105 6.41907 91.75 5.75989C92.1699 5.12024 93.5518 2.58118 94.2695 0.217896L95.9297 0.999146C95.1289 3.0011 94.0303 5.06165 92.8877 6.76086L95.0898 6.56067C95.5488 5.81848 95.9688 5.04211 96.3496 4.24133L97.8096 5.12024ZM117.512 8.7384C116.75 8.95813 115.969 9.15833 115.231 9.35852L115.231 5.86243L117.609 5.86243L117.609 4.13879L115.231 4.13879L115.231 0.24231L113.41 0.24231L113.41 4.13879L110.852 4.13879L110.852 5.86243L113.41 5.86243L113.41 9.84192C112.351 10.1202 111.389 10.34 110.607 10.5206L111.11 12.298C111.828 12.1222 112.59 11.9025 113.41 11.6779L113.41 16.3605C113.41 16.6583 113.308 16.7413 113.029 16.7609C112.79 16.7609 111.931 16.7609 111.052 16.7413C111.291 17.2003 111.55 17.962 111.608 18.421C112.971 18.421 113.869 18.382 114.45 18.0792C115.012 17.8204 115.231 17.3419 115.231 16.38L115.231 11.1798C116.071 10.9406 116.911 10.6818 117.731 10.4425L117.512 8.7384ZM105.471 15.5011L108.991 15.5011L108.991 17.2198L100.891 17.2198L100.891 18.6212L99.1279 18.6212L99.1279 7.63977C98.7715 8.11829 98.4102 8.60168 98.0293 9.02161C97.8486 8.58215 97.4678 7.78137 97.1699 7.34192C98.708 5.52063 100.09 2.60071 100.729 0.320435L102.531 0.838013C102.209 1.79993 101.789 2.8009 101.33 3.80188L104.367 3.80188C104.172 3.04016 103.61 1.85852 103.088 0.979614L104.65 0.339966C105.231 1.19934 105.832 2.32239 106.071 3.07922L104.47 3.80188L108.728 3.80188L108.728 5.48157L105.471 5.48157L105.471 7.63977L108.229 7.63977L108.229 9.31946L105.471 9.31946L105.471 11.5021L108.269 11.5021L108.269 13.1622L105.471 13.1622L105.471 15.5011ZM63.3076 0.501099L63.3076 15.7599L68.6885 15.7599L68.6885 17.6007L51.1104 17.6007L51.1104 15.7599L56.4912 15.7599L56.4912 0.481567L58.3906 0.481567L58.3906 15.7599L61.4082 15.7599L61.4082 0.501099L63.3076 0.501099ZM124.528 16.5021C123.889 16.5021 123.791 16.3605 123.791 15.4816L123.791 9.88098L128.972 9.09973L128.688 7.38098L123.791 8.11829L123.791 3.09875C125.231 2.74231 126.608 2.36145 127.751 1.87805L126.149 0.481567C124.25 1.34094 120.91 2.09778 117.951 2.56165C118.171 2.96204 118.449 3.64075 118.527 4.0802C119.611 3.91907 120.769 3.71887 121.931 3.49915L121.931 8.38196L117.888 9.00208L118.19 10.7404L121.931 10.1788L121.931 15.4816C121.931 17.6398 122.429 18.2599 124.25 18.2599L126.73 18.2599C128.41 18.2599 128.85 17.2198 129.05 14.1388C128.552 14.0411 127.79 13.6993 127.37 13.3624C127.268 15.9015 127.17 16.5021 126.569 16.5021L124.528 16.5021ZM76.0078 3.69934C75.1875 3.0011 73.5908 1.90247 72.4678 1.14075L71.2275 2.32239C72.3701 3.13782 73.9473 4.33899 74.7285 5.06165L76.0078 3.69934ZM87.5703 1.36047L77.5312 1.36047L77.5312 3.09875L87.5703 3.09875L87.5703 1.36047ZM139.128 5.74036C138.947 5.33997 138.752 4.92004 138.552 4.55872L140.188 4.2218C140.51 4.68079 140.808 5.26184 140.988 5.74036L148.229 5.74036L148.229 9.11926L146.35 9.11926L146.35 7.20032L133.552 7.20032L133.552 9.11926L131.77 9.11926L131.77 5.74036L139.128 5.74036ZM53.1904 4.59778C54.1914 6.87805 55.3877 9.88098 55.9102 11.6779L54.0498 12.3615C53.5908 10.5206 52.4678 7.43958 51.4912 5.13977L53.1904 4.59778ZM63.5518 11.7023C64.6113 9.88098 65.9688 6.96106 66.7109 4.66125L68.4102 5.48157C67.4678 7.8595 66.1689 10.6183 65.0898 12.4982L63.5518 11.7023ZM100.891 7.63977L103.752 7.63977L103.752 5.48157L100.891 5.48157L100.891 7.63977ZM41.0273 11.7804L46.5889 11.7804L46.5889 10.1202L41.0273 10.1202L41.0273 5.74036L39.0693 5.74036L39.0693 16.3214L35.71 16.3214L35.71 9.15833L33.8887 9.15833L33.8887 16.3214L31.5107 16.3214L31.5107 18.0206L48.4102 18.0206L48.4102 16.3214L41.0273 16.3214L41.0273 11.7804ZM77.5312 14.6222C78.1709 14.3585 79.1084 14.2413 86.1689 13.6017C86.4473 14.1388 86.7109 14.6613 86.9111 15.1007L88.5713 14.2218C87.8291 12.7179 86.2715 10.1593 85.0898 8.27942L83.5273 9.00208C84.0889 9.90051 84.709 10.9601 85.29 12.0001L79.5088 12.4396C80.4902 11.0382 81.4912 9.26086 82.2676 7.56165L88.9277 7.56165L88.9277 5.83801L76.208 5.83801L76.208 7.56165L80.0117 7.56165C79.2891 9.40247 78.2686 11.1603 77.9072 11.6583C77.5312 12.2589 77.1895 12.6788 76.8086 12.7814C77.0479 13.2599 77.3701 14.2218 77.4873 14.6222C77.4873 14.5782 77.5117 14.5392 77.5312 14.5001L77.5312 14.6222ZM75.1875 7.07825L70.7686 7.07825L70.7686 8.80188L73.3711 8.80188L73.3711 14.798C72.5117 15.1984 71.5498 15.9991 70.6514 16.9611L71.9111 18.7189C72.8486 17.4786 73.8105 16.2579 74.4502 16.2579C74.8701 16.2579 75.5684 16.9025 76.3691 17.3615C77.751 18.1818 79.3916 18.421 81.8281 18.421C83.9912 18.421 87.292 18.3185 88.6689 18.2208C88.708 17.6788 89.0107 16.7218 89.25 16.1798C87.1895 16.4386 84.0498 16.6193 81.9111 16.6193C79.709 16.6193 78.0098 16.5021 76.6719 15.6818C76.0078 15.2814 75.5684 14.9396 75.1875 14.7198L75.1875 7.07825ZM145.788 12.42L135.91 12.42L135.91 13.6017L146.848 13.6017L146.848 18.5577L145.012 18.5577L145.012 17.9816L135.91 17.9816L135.91 18.6017L134.03 18.6017L134.03 8.24036L145.788 8.24036L145.788 12.42ZM100.891 11.5021L103.752 11.5021L103.752 9.31946L100.891 9.31946L100.891 11.5021ZM143.991 11.0382L143.991 9.64172L135.91 9.64172L135.91 11.0382L143.991 11.0382ZM103.752 13.1622L100.891 13.1622L100.891 15.5011L103.752 15.5011L103.752 13.1622ZM97.8877 15.7599C95.5293 16.38 93.0293 17.0001 91.1299 17.5177L90.8076 15.7404C92.5508 15.3986 95.1484 14.7784 97.7119 14.1779L97.8877 15.7599ZM145.012 16.5607L145.012 14.9982L135.91 14.9982L135.91 16.5607L145.012 16.5607Z" fill-rule="evenodd" fill="url(#paint_linear_30_318_0)"/>
	<path id="path" d="M7.1283 6.86507L11.001 19.9864L14.8739 6.86507L7.1283 6.86507Z" fill-rule="evenodd" fill="url(#paint_linear_30_310_0)"/>
	<path id="path" d="M7.94519 0L3.48401 0L0 5.49284L5.67603 5.49284L7.94519 0Z" fill-rule="evenodd" fill="url(#paint_linear_30_311_0)"/>
	<path id="path" d="M14.7968 5.4921L12.5272 0L9.47119 0L7.20251 5.49284L14.7968 5.4921Z" fill-rule="evenodd" fill="url(#paint_linear_30_312_0)"/>
	<path id="path" d="M0.321533 6.86617L4.16357 11.5878C4.17273 11.5837 9.16528 17.7344 9.16528 17.7344L5.63647 6.86617L0.321533 6.86617Z" fill-rule="evenodd" fill="url(#paint_linear_30_313_0)"/>
	<path id="path" d="M14.0542 0L16.3236 5.4921L22.0654 5.49284L18.5159 0L14.0542 0Z" fill-rule="evenodd" fill="url(#paint_linear_30_314_0)"/>
	<path id="path" d="M12.9188 17.6437L19.5948 9.4921C19.5825 9.48634 21.7352 6.8662 21.7352 6.8662L16.3619 6.86618L12.9188 17.6437Z" fill-rule="evenodd" fill="url(#paint_linear_30_315_0)"/>
</svg>
