<svg width="124.530029" height="14.007568" viewBox="0 0 124.53 14.0076" fill="none" xmlns="http://www.w3.org/2000/svg" xmlns:xlink="http://www.w3.org/1999/xlink">
	<desc>
			Created with Pixso.
	</desc>
	<defs>
		<linearGradient id="paint_linear_30_330_0" x1="62.265015" y1="0.000000" x2="62.265015" y2="14.007568" gradientUnits="userSpaceOnUse">
			<stop stop-color="#E8A936"/>
			<stop offset="0.519084" stop-color="#E9C672"/>
			<stop offset="1.000000" stop-color="#B27727"/>
		</linearGradient>
	</defs>
	<path id="矢量 530" d="M0 5.2478C2.71362 4.18213 5.41626 2.24854 6.89941 0L8.15918 0.596924C8.05664 0.761719 7.93579 0.911865 7.81494 1.08032C9.70459 3.19336 11.8799 4.33228 14.1138 5.23315C13.7695 5.53345 13.3813 6.01318 13.2166 6.44897C11.0413 5.42725 9.01611 4.22974 7.03491 2.03979C5.40161 3.88184 3.21167 5.4126 0.959473 6.43433C0.750732 6.07178 0.358887 5.57739 0 5.2478ZM79.2151 3.91479C79.0796 3.479 78.7354 2.83447 78.3911 2.29248L77.5635 2.29248C77.2046 2.96997 76.7688 3.56689 76.3513 4.03198C76.0803 3.86719 75.4944 3.55225 75.1501 3.43506C75.9741 2.60742 76.6516 1.33301 77.0398 0.0585938L78.4058 0.314941C78.2996 0.644531 78.1787 0.959473 78.0286 1.28906L81.8408 1.28906L81.8408 2.29248L79.7571 2.29248C80.0391 2.71362 80.2808 3.16406 80.4016 3.49365L79.2151 3.91479ZM84.7046 0.314941C84.6167 0.644531 84.4958 0.959473 84.3604 1.28906L88.6194 1.28906L88.6194 2.29248L86.2061 2.29248C86.521 2.69897 86.8213 3.12012 86.9714 3.43506L85.8142 3.94409C85.6348 3.5083 85.1843 2.84912 84.7485 2.29248L83.8953 2.29248C83.6243 2.75757 83.3386 3.17871 83.0237 3.52295C82.7856 3.34351 82.1997 3.02856 81.8848 2.89307C82.5586 2.21924 83.0713 1.13892 83.3569 0.0732422L84.7046 0.314941ZM103.876 4.53003L103.876 5.81909L102.151 5.81909L102.151 7.4231L103.77 7.4231L103.77 8.71216L102.151 8.71216L102.151 12.2827C102.151 13.0334 102.015 13.4399 101.492 13.6633C100.994 13.8721 100.184 13.905 99.0747 13.905C99.0308 13.4985 98.8513 12.8979 98.6719 12.5098C99.4812 12.5391 100.291 12.5391 100.514 12.5244C100.756 12.5244 100.829 12.4622 100.829 12.2534L100.829 8.71216L95.7166 8.71216L95.7166 7.4231L100.829 7.4231L100.829 5.81909L95.4456 5.81909L95.4456 4.53003L99.0601 4.53003L99.0601 2.87842L96.2988 2.87842L96.2988 1.61865L99.0601 1.61865L99.0601 0.117188L100.378 0.117188L100.378 1.61865L103.217 1.61865L103.217 2.87842L100.378 2.87842L100.378 4.53003L103.876 4.53003ZM50.4602 3.80859C49.5886 5.3833 48.5266 6.97266 47.4316 8.28003L50.1746 7.81494C50.1355 8.0542 50.1224 8.3667 50.1224 8.62872C50.1224 8.75977 50.1257 8.87817 50.1306 8.96851C46.5015 9.67529 45.9448 9.84009 45.6152 10.0342C45.5566 9.77783 45.3442 9.17725 45.1941 8.8623C45.542 8.77441 45.8862 8.41187 46.3367 7.85889C46.5894 7.57324 47.1021 6.91406 47.6697 6.04248C46.0657 6.25488 45.7214 6.32812 45.4944 6.44897C45.4358 6.17798 45.2087 5.53345 45.0769 5.20386C45.3296 5.14526 45.5859 4.78271 45.9155 4.28833C46.2305 3.80859 47.2668 1.9043 47.8052 0.131836L49.0503 0.717773C48.4497 2.21924 47.6257 3.76465 46.7688 5.03906L48.4204 4.88892C48.7646 4.33228 49.0796 3.75 49.3652 3.14941L50.4602 3.80859ZM93.9917 7.5293L95.3247 7.1228L95.4309 8.41187C94.9658 8.58032 94.4714 8.72681 93.9917 8.89526L93.9917 13.905L92.655 13.905L92.655 9.2981C91.8896 9.55444 91.1719 9.77783 90.542 9.95728L90.2563 8.54736C90.9009 8.39722 91.7542 8.15918 92.655 7.90283L92.655 4.45312L91.6809 4.45312C91.5308 5.354 91.3367 6.17798 91.1389 6.83716C90.9009 6.67236 90.3918 6.40503 90.0916 6.28418C90.542 5.05371 90.78 3.12012 90.9155 1.27441L92.0398 1.4978C91.9958 2.03979 91.9336 2.57812 91.875 3.12012L92.655 3.12012L92.655 0.131836L93.9917 0.131836L93.9917 3.12012L95.2808 3.12012L95.2808 4.45312L93.9917 4.45312L93.9917 7.5293ZM63.5266 6.9873C64.0796 6.83716 64.6655 6.68701 65.2368 6.52222L65.4016 7.80029C64.7864 7.97974 64.1565 8.17383 63.5266 8.35327L63.5266 12.2534C63.5266 12.9749 63.3618 13.3337 62.9407 13.5278C62.5049 13.7549 61.8311 13.7842 60.8093 13.7842C60.7654 13.4399 60.5713 12.8687 60.3918 12.5244C61.051 12.5391 61.6956 12.5391 61.875 12.5391C62.0837 12.5244 62.1606 12.4622 62.1606 12.2388L62.1606 8.72681C61.5454 8.89526 60.9741 9.06006 60.4358 9.19189L60.0586 7.85889C60.6445 7.72339 61.366 7.55859 62.1606 7.34985L62.1606 4.36523L60.2417 4.36523L60.2417 3.07251L62.1606 3.07251L62.1606 0.150146L63.5266 0.150146L63.5266 3.07251L65.3101 3.07251L65.3101 4.36523L63.5266 4.36523L63.5266 6.9873ZM108.977 5.14526C109.486 5.59204 111.134 7.34985 111.482 7.75269L110.654 9.0271C110.31 8.48877 109.574 7.48169 108.977 6.70532L108.977 13.8867L107.611 13.8867L107.611 7.07886C107.069 8.74512 106.366 10.3345 105.615 11.3232C105.45 10.9021 105.077 10.2722 104.821 9.89868C105.824 8.68286 106.816 6.43433 107.311 4.48242L105.256 4.48242L105.256 3.19336L107.611 3.19336L107.611 0.150146L108.977 0.150146L108.977 3.19336L110.852 3.19336L110.852 4.48242L108.977 4.48242L108.977 5.14526ZM56.2061 11.5942L58.8464 11.5942L58.8464 12.8833L52.771 12.8833L52.771 13.9343L51.449 13.9343L51.449 5.69824C51.1816 6.05713 50.9106 6.41968 50.625 6.73462C50.4895 6.40503 50.2039 5.80444 49.9805 5.47485C51.134 4.10889 52.1704 1.91895 52.6501 0.20874L54.0015 0.596924C53.7598 1.31836 53.4448 2.06909 53.1006 2.81982L55.3784 2.81982C55.2319 2.24854 54.8108 1.3623 54.4189 0.703125L55.5908 0.223389C56.0266 0.86792 56.4771 1.71021 56.6565 2.27783L55.4553 2.81982L58.6487 2.81982L58.6487 4.07959L56.2061 4.07959L56.2061 5.69824L58.2751 5.69824L58.2751 6.95801L56.2061 6.95801L56.2061 8.59497L58.3044 8.59497L58.3044 9.84009L56.2061 9.84009L56.2061 11.5942ZM24.5837 0.344238L24.5837 11.7883L28.6194 11.7883L28.6194 13.1689L15.4358 13.1689L15.4358 11.7883L19.4714 11.7883L19.4714 0.32959L20.896 0.32959L20.896 11.7883L23.1592 11.7883L23.1592 0.344238L24.5837 0.344238ZM69.9463 11.5796C69.9463 12.2388 70.0195 12.345 70.4993 12.345L72.03 12.345C72.4805 12.345 72.5537 11.8945 72.6306 9.99023C72.9456 10.2429 73.5168 10.4993 73.8904 10.5725C73.7402 12.8833 73.4106 13.6633 72.1509 13.6633L70.2905 13.6633C68.9246 13.6633 68.551 13.1982 68.551 11.5796L68.551 7.60254L65.7458 8.02368L65.5188 6.71997L68.551 6.25488L68.551 2.59277C67.6794 2.75757 66.8115 2.90771 65.9985 3.02856C65.9399 2.69897 65.7312 2.18994 65.5664 1.88965C67.7856 1.54175 70.2905 0.974121 71.7151 0.32959L72.9163 1.37695C72.0593 1.7395 71.0266 2.02515 69.9463 2.29248L69.9463 6.05713L73.6194 5.50415L73.8318 6.79321L69.9463 7.37915L69.9463 11.5796ZM31.4539 0.823975C32.2961 1.39526 33.4937 2.21924 34.1089 2.74292L33.1494 3.76465C32.5635 3.22266 31.3806 2.32178 30.5237 1.71021L31.4539 0.823975ZM35.2515 0.98877L42.7808 0.98877L42.7808 2.29248L35.2515 2.29248L35.2515 0.98877ZM117.422 1.45386L117.645 1.39526L118.531 1.67725C118.066 5.18921 117.015 7.91748 115.562 9.97192C116.444 11.0522 117.554 11.9824 118.982 12.8101C118.605 13.0774 118.169 13.5571 117.99 13.9783C116.624 13.092 115.529 12.1619 114.646 11.1145C113.58 12.2974 112.306 13.2129 110.911 13.8867C110.731 13.5278 110.339 12.9895 110.054 12.7185C111.464 12.1326 112.742 11.2024 113.804 9.95728C112.606 8.08228 111.899 5.80444 111.376 2.83447L111.526 2.80518L110.94 2.80518L110.94 1.46851L117.18 1.46851L117.18 1.45386L117.422 1.45386ZM114.705 8.77441C115.77 7.16675 116.565 5.17456 117.001 2.80518L112.694 2.80518C113.13 5.26245 113.745 7.18506 114.705 8.77441ZM124.53 4.30298C124.53 5.02441 123.959 5.5481 123.27 5.5481C122.582 5.5481 122.01 5.02441 122.01 4.30298C122.01 3.55225 122.582 3.04321 123.27 3.04321C123.959 3.04321 124.53 3.55225 124.53 4.30298ZM81.449 4.27368C81.3135 3.97339 81.167 3.65845 81.0168 3.38745L82.2437 3.13477C82.4854 3.479 82.7087 3.91479 82.8442 4.27368L88.2751 4.27368L88.2751 6.80786L86.8652 6.80786L86.8652 5.36865L77.2668 5.36865L77.2668 6.80786L75.9302 6.80786L75.9302 4.27368L81.449 4.27368ZM16.9958 3.41675C17.7466 5.12695 18.6438 7.37915 19.0356 8.72681L17.6404 9.2395C17.2961 7.85889 16.4539 5.5481 15.7214 3.82324L16.9958 3.41675ZM24.7668 8.74512C25.5615 7.37915 26.5796 5.18921 27.1362 3.46436L28.4106 4.07959C27.7039 5.86304 26.7297 7.93213 25.9204 9.34204L24.7668 8.74512ZM52.771 5.69824L54.917 5.69824L54.917 4.07959L52.771 4.07959L52.771 5.69824ZM12.0447 8.80371L7.87354 8.80371L7.87354 12.2095L13.4106 12.2095L13.4106 13.4839L0.736084 13.4839L0.736084 12.2095L2.51953 12.2095L2.51953 6.83716L3.8855 6.83716L3.8855 12.2095L6.40503 12.2095L6.40503 4.27368L7.87354 4.27368L7.87354 7.55859L12.0447 7.55859L12.0447 8.80371ZM41.7297 10.1697C36.4343 10.6494 35.7312 10.7373 35.2515 10.9351L35.2515 10.8435C35.2368 10.8728 35.2185 10.9021 35.2185 10.9351C35.1306 10.6348 34.8889 9.91333 34.7095 9.55444C34.9951 9.47754 35.2515 9.1626 35.5334 8.71216C35.8044 8.33862 36.5698 7.02026 37.1118 5.63965L34.259 5.63965L34.259 4.34692L43.7988 4.34692L43.7988 5.63965L38.8037 5.63965C38.2214 6.91406 37.4707 8.24707 36.7346 9.2981L41.0706 8.96851C40.6348 8.18848 40.1697 7.3938 39.7485 6.71997L40.9204 6.17798C41.8066 7.58789 42.9749 9.50684 43.5315 10.6348L42.2864 11.2939C42.1362 10.9644 41.9385 10.5725 41.7297 10.1697ZM30.1794 5.2771L33.4937 5.2771L33.4937 11.0083C33.7793 11.1731 34.1089 11.4294 34.6069 11.7297C35.6104 12.345 36.8848 12.4329 38.5364 12.4329C40.1404 12.4329 42.4951 12.2974 44.0405 12.1033C43.8611 12.5098 43.634 13.2275 43.6047 13.634C42.572 13.7073 40.0964 13.7842 38.4741 13.7842C36.6467 13.7842 35.4163 13.6047 34.3799 12.9895C33.7793 12.6453 33.2556 12.1619 32.9407 12.1619C32.4609 12.1619 31.7395 13.0774 31.0364 14.0076L30.0916 12.6892C30.7654 11.9678 31.4868 11.3672 32.1313 11.0669L32.1313 6.56982L30.1794 6.56982L30.1794 5.2771ZM86.4441 9.28345L79.0356 9.28345L79.0356 10.1697L87.2388 10.1697L87.2388 13.8867L85.8618 13.8867L85.8618 13.4546L79.0356 13.4546L79.0356 13.9197L77.6257 13.9197L77.6257 6.14868L86.4441 6.14868L86.4441 9.28345ZM52.771 8.59497L54.917 8.59497L54.917 6.95801L52.771 6.95801L52.771 8.59497ZM85.0964 8.24707L85.0964 7.19971L79.0356 7.19971L79.0356 8.24707L85.0964 8.24707ZM98.1299 11.9824C97.8149 11.3232 97.0496 10.3052 96.3757 9.59839L97.3938 8.95386C98.0859 9.62769 98.866 10.6018 99.2102 11.2646L98.1299 11.9824ZM54.917 9.84009L52.771 9.84009L52.771 11.5942L54.917 11.5942L54.917 9.84009ZM124.53 11.5649C124.53 12.2827 123.959 12.8101 123.27 12.8101C122.582 12.8101 122.01 12.2827 122.01 11.5649C122.01 10.8142 122.582 10.3052 123.27 10.3052C123.959 10.3052 124.53 10.8142 124.53 11.5649ZM50.5188 11.7883C48.75 12.2534 46.875 12.7185 45.4504 13.1067L45.2087 11.7737C46.5161 11.5173 48.4644 11.0522 50.387 10.6018L50.5188 11.7883ZM85.8618 12.3889L85.8618 11.217L79.0356 11.217L79.0356 12.3889L85.8618 12.3889Z" fill-rule="evenodd" fill="url(#paint_linear_30_330_0)"/>
</svg>
