<svg width="119.376465" height="16.258301" viewBox="0 0 119.376 16.2583" fill="none" xmlns="http://www.w3.org/2000/svg" xmlns:xlink="http://www.w3.org/1999/xlink">
	<desc>
			Created with Pixso.
	</desc>
	<defs>
		<linearGradient id="paint_linear_30_227_0" x1="71.540527" y1="0.000000" x2="71.540527" y2="15.437500" gradientUnits="userSpaceOnUse">
			<stop stop-color="#E7A734"/>
			<stop offset="1.000000" stop-color="#B58B51"/>
		</linearGradient>
	</defs>
	<path id="企业运维托管" d="M76.8765 8.95312C75.689 9.0885 74.6005 9.2135 73.6108 9.32812Q74.9702 7.35938 77.1577 3.46875L76.0327 2.96875C75.6212 3.80725 75.2333 4.57031 74.8687 5.25781Q73.7124 5.28125 73.1577 5.28125Q74.3765 3.23438 75.689 0.4375L74.4702 0C73.7098 1.98962 72.8296 3.78125 71.8296 5.375L72.1265 6.35938C72.7098 6.30725 73.4572 6.25 74.3687 6.1875C73.4312 7.86975 72.6681 8.98438 72.0796 9.53125L72.314 10.6875Q73.8921 10.4062 76.7515 10.0781C76.7827 9.8385 76.8243 9.4635 76.8765 8.95312ZM107.298 2.9375C107.767 3.47913 108.199 4.01038 108.595 4.53125L109.517 3.82812C109.1 3.35413 108.658 2.89062 108.189 2.4375L111.939 2.4375L111.939 1.46875L107.353 1.46875C107.66 1.00525 107.944 0.515625 108.205 0L106.861 0C106.09 1.4375 105.095 2.63025 103.876 3.57812C104.189 3.9115 104.449 4.20312 104.658 4.45312C105.392 3.86975 106.059 3.19788 106.658 2.4375L108.001 2.4375L107.298 2.9375ZM114.47 2.92188Q115.22 3.78125 115.736 4.51562L116.658 3.8125C116.277 3.35413 115.85 2.89587 115.376 2.4375L119.376 2.4375L119.376 1.46875L114.384 1.46875C114.634 1.00525 114.871 0.515625 115.095 0L113.751 0Q113.017 1.79688 111.923 3.01562C112.33 3.29688 112.647 3.55212 112.876 3.78125C113.21 3.36975 113.527 2.92188 113.83 2.4375L115.15 2.4375L114.47 2.92188ZM79.7671 0.03125Q78.4077 3.59375 76.3765 6.39062C76.6993 6.75525 76.9598 7.099 77.1577 7.42188C77.4702 6.96875 77.7931 6.46619 78.1265 5.91406L78.1265 15.4062L79.314 15.4062L79.314 14.3438L87.2515 14.3438L87.2515 13.2812L83.6421 13.2812L83.6421 10.8594L86.939 10.8594L86.939 9.79688L83.6421 9.79688L83.6421 7.4375L86.939 7.4375L86.939 6.375L83.6421 6.375L83.6421 4.01562L87.064 4.01562L87.064 2.95312L79.7437 2.95312C80.1447 2.17188 80.5536 1.32812 80.9702 0.421875L79.7671 0.03125ZM82.8921 0.0625L81.9233 0.671875C82.4962 1.45312 82.9702 2.17712 83.3452 2.84375L84.3765 2.1875C83.9911 1.53125 83.4962 0.822876 82.8921 0.0625ZM87.8765 8.4375C88.6837 8.26562 89.5067 8.07812 90.3452 7.875L90.3452 4.15625L88.064 4.15625L88.064 3.09375L90.3452 3.09375L90.3452 0.125L91.5483 0.125L91.5483 3.09375L93.064 3.09375L93.064 4.15625L91.5483 4.15625L91.5483 7.57812C92.0223 7.45837 92.5015 7.33337 92.9858 7.20312Q92.939 7.96875 92.939 8.4375C92.4911 8.54163 92.0275 8.65369 91.5483 8.77344L91.5483 13.1562C91.5483 14.5 90.9286 15.1719 89.689 15.1719Q89.1108 15.1719 88.2358 15.1562C88.1942 14.7709 88.1265 14.3541 88.0327 13.9062Q88.9546 13.9688 89.4858 13.9688C90.0587 13.9688 90.3452 13.6666 90.3452 13.0625L90.3452 9.08594C89.59 9.28381 88.7983 9.5 87.9702 9.73438L87.8765 8.4375ZM57.6108 0.171875C58.413 1.14062 59.2046 2.14062 59.9858 3.17188L58.8765 3.92188C58.1786 2.88025 57.439 1.85938 56.6577 0.859375L57.6108 0.171875ZM32.814 0.21875L32.5015 0.640625Q34.939 3.85938 39.4233 5.64062Q39.0796 6.14062 38.564 6.98438Q34.2983 4.84375 31.689 1.60938Q29.2358 4.78125 24.6108 7.35938Q24.2046 6.76562 23.7046 6.07812Q28.4702 3.90625 31.1265 0.21875L32.814 0.21875ZM44.939 13.25L39.9233 13.25L39.9233 14.4062L55.3608 14.4062L55.3608 13.25L50.2983 13.25L50.2983 0.34375L48.9858 0.34375L48.9858 13.25L46.2515 13.25L46.2515 0.34375L44.939 0.34375L44.939 13.25ZM93.4077 7.39062L96.4702 7.03906L96.4702 2.76562Q95.1108 2.96094 93.7515 3.14062C93.6681 2.75525 93.5536 2.349 93.4077 1.92188Q97.814 1.51562 101.783 0.671875L102.142 1.875C100.668 2.125 99.1942 2.35938 97.7202 2.57812L97.7202 6.89062L103.048 6.26562L103.158 7.45312L97.7202 8.09375L97.7202 12.7656C97.7202 13.4323 98.1005 13.7656 98.8608 13.7656L100.673 13.7656Q101.108 13.7656 101.385 13.5568Q101.756 13.2775 101.845 12.625Q101.986 11.5938 102.033 10.2812Q102.58 10.5156 103.345 10.75Q103.173 12.4219 103.017 13.2344Q102.883 14.0183 102.42 14.4479Q101.859 14.9688 100.814 14.9688L98.6577 14.9688C97.1993 14.9688 96.4702 14.2656 96.4702 12.8594L96.4702 8.24219L93.5796 8.57812L93.4077 7.39062ZM61.4702 1L70.2202 1L70.2202 2.1875L61.4702 2.1875L61.4702 1ZM111.197 4.60938L104.517 4.60938L104.517 7.04688L105.72 7.04688L105.72 5.625L117.517 5.625L117.517 7.03125L118.72 7.03125L118.72 4.60938L112.548 4.60938Q112.175 3.89062 111.729 3.22083Q111.67 3.13342 111.611 3.04688L110.533 3.51562C110.793 3.91663 111.015 4.28125 111.197 4.60938ZM44.2202 9.8125Q43.0171 6.42188 41.7358 3.40625L40.5952 3.90625Q41.8921 7.09375 42.939 10.3906L44.2202 9.8125ZM53.4858 3.54688Q52.4233 6.64062 50.8608 9.95312L51.9858 10.4688Q53.2983 7.78125 54.7515 4.04688L53.4858 3.54688ZM82.4546 6.375L79.314 6.375L79.314 4.01562L82.4546 4.01562L82.4546 6.375ZM24.5483 13.625L26.6577 13.625L26.6577 7.5625L27.9546 7.5625L27.9546 13.625L31.189 13.625L31.189 4.89062L32.4858 4.89062L32.4858 8.34375L37.2515 8.34375L37.2515 9.48438L32.4858 9.48438L32.4858 13.625L38.7358 13.625L38.7358 14.7812L24.5483 14.7812L24.5483 13.625ZM66.4233 7.875L67.4077 7.25C68.5848 8.79163 69.6265 10.276 70.5327 11.7031L69.4077 12.4688C69.1733 12.0729 68.9337 11.6771 68.689 11.2812C65.7306 11.4688 63.6108 11.6459 62.3296 11.8125C61.9755 11.8646 61.6056 11.9531 61.2202 12.0781L60.6421 10.9531C61.0483 10.6719 61.3868 10.3385 61.6577 9.95312C62.3661 8.88025 63.064 7.63538 63.7515 6.21875L60.4233 6.21875L60.4233 5.03125L71.1265 5.03125L71.1265 6.21875L65.2358 6.21875C64.3348 7.875 63.465 9.32812 62.6265 10.5781C64.2098 10.4844 66.0093 10.3698 68.0249 10.2344C67.5093 9.4375 66.9755 8.651 66.4233 7.875ZM62.5171 13.7188L67.0952 13.8125L71.4077 13.6406C71.2306 14.0677 71.064 14.4844 70.9077 14.8906L66.2515 14.9219L62.2515 14.875C60.5952 14.8334 59.3505 14.2291 58.5171 13.0625Q57.5483 13.8906 56.5483 15.1094L55.8765 13.7812Q55.9155 13.7344 57.9546 12L57.9546 6.67188L55.9546 6.67188L55.9546 5.51562L59.2046 5.51562L59.2046 12.2188Q59.5881 12.6937 60.0724 13.0184L60.0725 13.0184L60.0726 13.0186Q61.0779 13.6924 62.5171 13.7188ZM115.908 6.78125L106.283 6.78125L106.283 15.4375L107.486 15.4375L107.486 14.8281L116.033 14.8281L116.033 15.4219L117.22 15.4219L117.22 11.3438L107.486 11.3438L107.486 10.1562L114.72 10.1562L114.72 10.5469L115.908 10.5469L115.908 6.78125ZM82.4546 9.79688L79.314 9.79688L79.314 7.4375L82.4546 7.4375L82.4546 9.79688ZM107.486 7.71875L114.72 7.71875L114.72 9.21875L107.486 9.21875L107.486 7.71875ZM82.4546 13.2812L79.314 13.2812L79.314 10.8594L82.4546 10.8594L82.4546 13.2812ZM77.3452 12.1094Q74.4077 12.75 71.9233 13.1875L72.2202 14.3594Q74.189 13.9688 77.2983 13.3125Q77.2983 12.75 77.3452 12.1094ZM107.486 12.2812L116.033 12.2812L116.033 13.8125L107.486 13.8125L107.486 12.2812Z" fill-rule="evenodd" fill="url(#paint_linear_30_227_0)"/>
	<path id="path" d="M5.82825 5.81104L8.99414 16.2583L12.1604 5.81104L5.82825 5.81104Z" fill-rule="evenodd" fill="#4E4E4E"/>
	<path id="path" d="M6.49524 0.344971L2.84814 0.344971L0 4.71838L4.64026 4.71838L6.49524 0.344971Z" fill-rule="evenodd" fill="#4E4E4E"/>
	<path id="path" d="M12.0977 4.71777L10.2424 0.344971L7.74414 0.344971L5.8894 4.71838L12.0977 4.71777Z" fill-rule="evenodd" fill="#4E4E4E"/>
	<path id="path" d="M0.264526 5.81177L3.4054 9.57117C3.41296 9.56787 7.49438 14.4651 7.49438 14.4651L4.6095 5.81177L0.264526 5.81177Z" fill-rule="evenodd" fill="#4E4E4E"/>
	<path id="path" d="M11.4908 0.344971L13.3462 4.71777L18.04 4.71838L15.1382 0.344971L11.4908 0.344971Z" fill-rule="evenodd" fill="#4E4E4E"/>
	<path id="path" d="M10.5623 14.3928L16.02 7.90247C16.0099 7.89783 17.7698 5.81165 17.7698 5.81165L13.377 5.81165L10.5623 14.3928Z" fill-rule="evenodd" fill="#4E4E4E"/>
</svg>
