<svg width="77.911377" height="14.022217" viewBox="0 0 77.9114 14.0222" fill="none" xmlns="http://www.w3.org/2000/svg" xmlns:xlink="http://www.w3.org/1999/xlink">
	<desc>
			Created with Pixso.
	</desc>
	<defs>
		<linearGradient id="paint_linear_30_287_0" x1="38.955688" y1="0.000000" x2="38.955688" y2="14.022217" gradientUnits="userSpaceOnUse">
			<stop stop-color="#E8A936"/>
			<stop offset="0.519084" stop-color="#E9C672"/>
			<stop offset="1.000000" stop-color="#B27727"/>
		</linearGradient>
	</defs>
	<path id="企业版特权:" d="M6.89941 0C5.41626 2.24854 2.71362 4.18213 0 5.2478C0.358887 5.57739 0.750732 6.07178 0.959473 6.43433C3.21167 5.4126 5.40161 3.88184 7.03491 2.03979C9.01611 4.22974 11.0413 5.42725 13.2166 6.44897C13.3813 6.01318 13.7695 5.53345 14.1138 5.23315C11.8799 4.33228 9.70459 3.19336 7.81494 1.08032C7.93579 0.911865 8.05664 0.761719 8.15918 0.596924L6.89941 0ZM32.3401 5.39795L36.1487 5.39795L36.1487 4.16748L34.9658 4.16748L34.9658 0.117188L33.7061 0.117188L33.7061 4.16748L32.3401 4.16748L32.3401 0.479736L31.0657 0.479736L31.0657 6.31348C31.0657 8.50342 30.9448 11.25 30 13.1067C30.3149 13.2898 30.78 13.7073 31.0071 13.9636C31.8604 12.5098 32.1753 10.5432 32.2815 8.59497L34.0503 8.59497L34.0503 13.8867L35.3101 13.8867L35.3101 7.34985L32.3254 7.34985C32.3401 6.9873 32.3401 6.64307 32.3401 6.29883L32.3401 5.39795ZM58.8757 4.53003L58.8757 5.81909L57.1509 5.81909L57.1509 7.4231L58.7695 7.4231L58.7695 8.71216L57.1509 8.71216L57.1509 12.2827C57.1509 13.0334 57.0154 13.4399 56.4917 13.6633C55.9937 13.8721 55.1843 13.905 54.0747 13.905C54.0308 13.4985 53.8513 12.8979 53.6719 12.5098C54.4812 12.5391 55.2905 12.5391 55.5139 12.5244C55.7556 12.5244 55.8289 12.4622 55.8289 12.2534L55.8289 8.71216L50.7166 8.71216L50.7166 7.4231L55.8289 7.4231L55.8289 5.81909L50.4456 5.81909L50.4456 4.53003L54.0601 4.53003L54.0601 2.87842L51.2988 2.87842L51.2988 1.61865L54.0601 1.61865L54.0601 0.117188L55.3784 0.117188L55.3784 1.61865L58.2166 1.61865L58.2166 2.87842L55.3784 2.87842L55.3784 4.53003L58.8757 4.53003ZM48.9917 7.5293L50.3247 7.1228L50.4309 8.41187C49.9658 8.58032 49.4714 8.72681 48.9917 8.89526L48.9917 13.905L47.655 13.905L47.655 9.2981C46.8896 9.55444 46.1719 9.77783 45.542 9.95728L45.2563 8.54736C45.9009 8.39722 46.7542 8.15918 47.655 7.90283L47.655 4.45312L46.6809 4.45312C46.5308 5.354 46.3367 6.17798 46.1389 6.83716C45.9009 6.67236 45.3918 6.40503 45.0916 6.28418C45.542 5.05371 45.78 3.12012 45.9155 1.27441L47.0398 1.4978C46.9958 2.03979 46.9336 2.57812 46.875 3.12012L47.655 3.12012L47.655 0.131836L48.9917 0.131836L48.9917 3.12012L50.2808 3.12012L50.2808 4.45312L48.9917 4.45312L48.9917 7.5293ZM66.4819 7.75269C66.134 7.34985 64.4861 5.59204 63.9771 5.14526L63.9771 4.48242L65.8521 4.48242L65.8521 3.19336L63.9771 3.19336L63.9771 0.150146L62.6111 0.150146L62.6111 3.19336L60.2563 3.19336L60.2563 4.48242L62.3108 4.48242C61.8164 6.43433 60.824 8.68286 59.8206 9.89868C60.0769 10.2722 60.4504 10.9021 60.6152 11.3232C61.366 10.3345 62.0691 8.74512 62.6111 7.07886L62.6111 13.8867L63.9771 13.8867L63.9771 6.70532C64.574 7.48169 65.3101 8.48877 65.6543 9.0271L66.4819 7.75269ZM42.6892 4.33228L42.4512 4.37988L38.0566 4.37988L38.0566 2.21924C40.0195 2.06909 42.1509 1.81274 43.7549 1.45386L42.9163 0.252686C41.3708 0.629883 38.8953 0.944824 36.72 1.09497L36.72 6.16333C36.72 8.33862 36.5845 11.2793 35.4749 13.2275C35.8044 13.407 36.3318 13.7842 36.5845 14.0222C37.8735 11.8652 38.0566 8.68286 38.0566 6.16333L38.0566 5.63965L38.1445 5.63965C38.5364 7.54395 39.104 9.25415 39.8987 10.6787C39.1516 11.6382 38.28 12.3596 37.2913 12.8247C37.5769 13.0774 37.9358 13.6047 38.1152 13.9636C39.0894 13.4399 39.9316 12.7625 40.6787 11.8945C41.3269 12.7478 42.0886 13.4399 42.9895 13.9636C43.2019 13.5901 43.6194 13.0774 43.9343 12.8394C42.9749 12.345 42.1655 11.6528 41.4917 10.7849C42.4951 9.19189 43.1836 7.13745 43.5168 4.54468L42.6892 4.33228ZM24.5837 0.344238L24.5837 11.7883L28.6194 11.7883L28.6194 13.1689L15.4358 13.1689L15.4358 11.7883L19.4714 11.7883L19.4714 0.32959L20.896 0.32959L20.896 11.7883L23.1592 11.7883L23.1592 0.344238L24.5837 0.344238ZM72.6453 1.39526L72.4219 1.45386L72.1802 1.45386L72.1802 1.46851L65.9399 1.46851L65.9399 2.80518L66.5259 2.80518L66.3757 2.83447C66.8994 5.80444 67.6062 8.08228 68.8037 9.95728C67.7417 11.2024 66.4636 12.1326 65.0537 12.7185C65.3394 12.9895 65.7312 13.5278 65.9106 13.8867C67.3059 13.2129 68.5803 12.2974 69.646 11.1145C70.5286 12.1619 71.6235 13.092 72.9895 13.9783C73.1689 13.5571 73.6047 13.0774 73.9819 12.8101C72.5537 11.9824 71.4441 11.0522 70.5615 9.97192C72.0154 7.91748 73.0664 5.18921 73.5315 1.67725L72.6453 1.39526ZM72.0007 2.80518C71.5649 5.17456 70.7703 7.16675 69.7046 8.77441C68.7451 7.18506 68.1299 5.26245 67.6941 2.80518L72.0007 2.80518ZM16.9958 3.41675C17.7466 5.12695 18.6438 7.37915 19.0356 8.72681L17.6404 9.2395C17.2961 7.85889 16.4539 5.5481 15.7214 3.82324L16.9958 3.41675ZM24.7668 8.74512C25.5615 7.37915 26.5796 5.18921 27.1362 3.46436L28.4106 4.07959C27.7039 5.86304 26.7297 7.93213 25.9204 9.34204L24.7668 8.74512ZM7.87354 8.80371L12.0447 8.80371L12.0447 7.55859L7.87354 7.55859L7.87354 4.27368L6.40503 4.27368L6.40503 12.2095L3.8855 12.2095L3.8855 6.83716L2.51953 6.83716L2.51953 12.2095L0.736084 12.2095L0.736084 13.4839L13.4106 13.4839L13.4106 12.2095L7.87354 12.2095L7.87354 8.80371ZM77.9114 5.81909C77.9114 6.50757 77.3987 7.02026 76.7542 7.02026C76.1096 7.02026 75.6006 6.50757 75.6006 5.81909C75.6006 5.1123 76.1096 4.58862 76.7542 4.58862C77.3987 4.58862 77.9114 5.1123 77.9114 5.81909ZM42.0593 5.63965C41.759 7.1228 41.2939 8.43018 40.6641 9.53979C40.0342 8.38257 39.5691 7.06421 39.2395 5.63965L42.0593 5.63965ZM53.1299 11.9824C52.8149 11.3232 52.0496 10.3052 51.3757 9.59839L52.3938 8.95386C53.0859 9.62769 53.866 10.6018 54.2102 11.2646L53.1299 11.9824ZM77.9114 11.7151C77.9114 12.4182 77.3987 12.9126 76.7542 12.9126C76.1096 12.9126 75.6006 12.4182 75.6006 11.7151C75.6006 11.0083 76.1096 10.4846 76.7542 10.4846C77.3987 10.4846 77.9114 11.0083 77.9114 11.7151Z" fill-rule="evenodd" fill="url(#paint_linear_30_287_0)"/>
</svg>
