<svg width="112.591431" height="15.234375" viewBox="0 0 112.591 15.2344" fill="none" xmlns="http://www.w3.org/2000/svg" xmlns:xlink="http://www.w3.org/1999/xlink">
	<desc>
			Created with Pixso.
	</desc>
	<defs>
		<linearGradient id="paint_linear_30_225_0" x1="60.782146" y1="4.847299" x2="60.782146" y2="12.464489" gradientUnits="userSpaceOnUse">
			<stop stop-color="#E8A833"/>
			<stop offset="1.000000" stop-color="#B48A52"/>
		</linearGradient>
	</defs>
	<path id="Linux企业版" d="M102.029 15.0156L100.935 15.0156L100.935 9.09375L99.2086 9.09375C99.1565 11.5885 98.7217 13.6354 97.9039 15.2344C97.6748 14.9427 97.3727 14.6406 96.9977 14.3281Q98.1227 12.375 98.1227 8.39062L98.1227 0.40625L99.2164 0.40625L99.2164 4.67188L100.841 4.67188L100.841 0L101.935 0L101.935 4.67188L103.248 4.67188L103.248 5.64062L99.2164 5.64062L99.2164 8.125L102.029 8.125L102.029 15.0156ZM73.9664 0.015625L73.6539 0.4375Q76.0914 3.65625 80.5758 5.4375C80.3467 5.77087 80.0602 6.21875 79.7164 6.78125Q75.4508 4.64062 72.8414 1.40625Q70.3883 4.57812 65.7633 7.15625C65.4924 6.76038 65.1904 6.33337 64.8571 5.875C68.0342 4.42712 70.5081 2.474 72.2789 0.015625L73.9664 0.015625ZM81.0758 13.0469L86.0914 13.0469L86.0914 0.140625L87.4039 0.140625L87.4039 13.0469L90.1383 13.0469L90.1383 0.140625L91.4508 0.140625L91.4508 13.0469L96.5133 13.0469L96.5133 14.2031L81.0758 14.2031L81.0758 13.0469ZM103.966 1.10938C107.008 1.05725 109.623 0.838501 111.81 0.453125L112.232 1.60938C109.284 1.94275 106.894 2.125 105.06 2.15625L105.06 4.73438L111.654 4.73438L111.654 5.67188Q111.029 9.42188 109.263 11.6875Q110.404 12.8828 112.591 13.875C112.216 14.3021 111.899 14.6875 111.638 15.0312C110.289 14.2084 109.245 13.3906 108.505 12.5781C107.646 13.4688 106.461 14.349 104.951 15.2188C104.732 14.8541 104.477 14.4844 104.185 14.1094C105.753 13.349 106.961 12.5391 107.81 11.6797C106.774 10.2266 106.104 8.25525 105.802 5.76562L105.06 5.76562L105.06 8.15625Q105.06 12.5 103.045 15.2344C102.795 14.8698 102.534 14.5365 102.263 14.2344Q103.263 12.6562 103.623 11.1875C103.852 10.2396 103.966 8.95312 103.966 7.32812L103.966 1.10938ZM33.8727 1.47656Q33.8727 1.24915 33.9596 1.06213Q34.028 0.915039 34.15 0.792969C34.335 0.608032 34.5627 0.515625 34.8336 0.515625C35.1096 0.515625 35.3428 0.606812 35.5328 0.789062Q35.6537 0.905029 35.7234 1.04626Q35.818 1.23804 35.818 1.47656C35.818 1.74744 35.7229 1.97266 35.5328 2.15234C35.3428 2.33203 35.1096 2.42188 34.8336 2.42188C34.5576 2.42188 34.3284 2.33203 34.1461 2.15234Q34.0352 2.04297 33.9692 1.91113Q33.8727 1.71802 33.8727 1.47656ZM32.4274 13.1641L26.0446 13.1641L26.0446 1.0625L27.6071 1.0625L27.6071 11.7812L32.4274 11.7812L32.4274 13.1641ZM82.8883 3.20312Q84.1696 6.21875 85.3727 9.60938L84.0914 10.1875Q83.0446 6.89062 81.7477 3.70312L82.8883 3.20312ZM92.0133 9.75Q93.5758 6.4375 94.6383 3.34375L95.9039 3.84375Q94.4508 7.57812 93.1383 10.2656L92.0133 9.75ZM45.6227 13.1641L44.0992 13.1641L44.0992 8.25Q44.0992 6.51245 43.2717 5.90808Q42.8304 5.58594 42.1539 5.58594Q41.6262 5.58594 41.197 5.79163Q40.8065 5.97864 40.4977 6.33594Q40.3615 6.49341 40.2539 6.66858Q39.8492 7.32715 39.8492 8.23438L39.8492 13.1641L38.318 13.1641L38.318 4.52344L39.8492 4.52344L39.8492 5.95312L39.8805 5.95312Q40.3918 5.09827 41.1451 4.69092Q41.8306 4.32031 42.7164 4.32031C43.6643 4.32031 44.3857 4.62366 44.8805 5.23047Q45.6227 6.14062 45.6227 7.88281L45.6227 13.1641ZM34.0524 13.1641L34.0524 4.52344L35.5836 4.52344L35.5836 13.1641L34.0524 13.1641ZM55.3102 13.1641L53.7711 13.1641L53.7711 11.8047L53.7399 11.8047Q53.3109 12.5776 52.6544 12.9681Q51.9839 13.3672 51.0758 13.3672Q49.8124 13.3672 49.069 12.7455Q48.0055 11.8563 48.0055 9.69531L48.0055 4.52344L49.5211 4.52344L49.5211 9.46875Q49.5211 11.1287 50.3223 11.7421Q50.7919 12.1016 51.5367 12.1016Q52.0902 12.1016 52.5265 11.8754Q52.8784 11.6929 53.1539 11.3633Q53.2649 11.2305 53.356 11.0852L53.356 11.0852Q53.7711 10.4226 53.7711 9.5L53.7711 4.52344L55.3102 4.52344L55.3102 13.1641ZM64.5758 4.52344L61.6852 8.875L64.5367 13.1641L62.7555 13.1641L61.1071 10.4141C61.0186 10.2682 60.8936 10.0443 60.7321 9.74219L60.7008 9.74219C60.6956 9.77344 60.5654 9.99744 60.3102 10.4141L58.6305 13.1641L56.8727 13.1641L59.8102 8.92188L57.0055 4.52344L58.7867 4.52344L60.4039 7.41406C60.5029 7.59119 60.6227 7.82031 60.7633 8.10156L60.7946 8.10156L62.8961 4.52344L64.5758 4.52344ZM65.7008 13.4219L67.8102 13.4219L67.8102 7.35938L69.1071 7.35938L69.1071 13.4219L72.3414 13.4219L72.3414 4.6875L73.6383 4.6875L73.6383 8.14062L78.4039 8.14062L78.4039 9.28125L73.6383 9.28125L73.6383 13.4219L79.8883 13.4219L79.8883 14.5781L65.7008 14.5781L65.7008 13.4219ZM110.466 5.76562L106.896 5.76562C107.156 7.80725 107.714 9.48181 108.568 10.7891Q109.927 8.92969 110.466 5.76562Z" fill-rule="evenodd" fill="url(#paint_linear_30_225_0)"/>
	<path id="path" d="M5.82715 5.6687L8.99353 15.1458L12.1602 5.6687L5.82715 5.6687Z" fill-rule="evenodd" fill="#A88B56"/>
	<path id="path" d="M6.49622 0.709595L2.84863 0.709595L0 4.67688L4.64087 4.67688L6.49622 0.709595Z" fill-rule="evenodd" fill="#A88B56"/>
	<path id="path" d="M12.0975 4.67639L10.2419 0.709595L7.74329 0.709595L5.88831 4.67688L12.0975 4.67639Z" fill-rule="evenodd" fill="#A88B56"/>
	<path id="path" d="M0.263916 5.66882L3.40527 9.0791C3.41272 9.07617 7.49487 13.5186 7.49487 13.5186L4.60962 5.66882L0.263916 5.66882Z" fill-rule="evenodd" fill="#A88B56"/>
	<path id="path" d="M11.49 0.709595L13.3456 4.67639L18.0402 4.67688L15.1379 0.709595L11.49 0.709595Z" fill-rule="evenodd" fill="#A88B56"/>
	<path id="path" d="M10.5625 13.453L16.021 7.56531C16.011 7.56116 17.771 5.6687 17.771 5.6687L13.3777 5.6687L10.5625 13.453Z" fill-rule="evenodd" fill="#A88B56"/>
</svg>
