<svg width="141.588013" height="20.865479" viewBox="0 0 141.588 20.8655" fill="none" xmlns="http://www.w3.org/2000/svg" xmlns:xlink="http://www.w3.org/1999/xlink">
	<desc>
			Created with Pixso.
	</desc>
	<defs>
		<linearGradient id="paint_linear_30_253_0" x1="11.001167" y1="7.757690" x2="11.001167" y2="20.865372" gradientUnits="userSpaceOnUse">
			<stop stop-color="#E8A936"/>
			<stop offset="0.496183" stop-color="#E9C571"/>
			<stop offset="1.000000" stop-color="#B17726"/>
		</linearGradient>
		<linearGradient id="paint_linear_30_252_0" x1="3.972591" y1="0.899780" x2="3.972591" y2="6.386898" gradientUnits="userSpaceOnUse">
			<stop stop-color="#E8A936"/>
			<stop offset="0.496183" stop-color="#E9C571"/>
			<stop offset="1.000000" stop-color="#B17726"/>
		</linearGradient>
		<linearGradient id="paint_linear_30_251_0" x1="10.999559" y1="0.899658" x2="10.999559" y2="6.386776" gradientUnits="userSpaceOnUse">
			<stop stop-color="#E8A936"/>
			<stop offset="0.496183" stop-color="#E9C571"/>
			<stop offset="1.000000" stop-color="#B17726"/>
		</linearGradient>
		<linearGradient id="paint_linear_30_250_0" x1="4.743490" y1="7.758789" x2="4.743490" y2="18.615688" gradientUnits="userSpaceOnUse">
			<stop stop-color="#E8A936"/>
			<stop offset="0.496183" stop-color="#E9C571"/>
			<stop offset="1.000000" stop-color="#B17726"/>
		</linearGradient>
		<linearGradient id="paint_linear_30_249_0" x1="18.059828" y1="0.899780" x2="18.059828" y2="6.386898" gradientUnits="userSpaceOnUse">
			<stop stop-color="#E8A936"/>
			<stop offset="0.496183" stop-color="#E9C571"/>
			<stop offset="1.000000" stop-color="#B17726"/>
		</linearGradient>
		<linearGradient id="paint_linear_30_248_0" x1="17.327003" y1="7.758789" x2="17.327003" y2="18.525131" gradientUnits="userSpaceOnUse">
			<stop stop-color="#E8A936"/>
			<stop offset="0.496183" stop-color="#E9C571"/>
			<stop offset="1.000000" stop-color="#B17726"/>
		</linearGradient>
		<linearGradient id="paint_linear_30_247_0" x1="32.027710" y1="9.348145" x2="141.587982" y2="9.348145" gradientUnits="userSpaceOnUse">
			<stop stop-color="#E8A833"/>
			<stop offset="1.000000" stop-color="#B48A52"/>
		</linearGradient>
	</defs>
	<path id="path" d="M7.12836 7.75769L11.001 20.8654L14.874 7.75769L7.12836 7.75769Z" fill-rule="evenodd" fill="url(#paint_linear_30_253_0)"/>
	<path id="path" d="M7.94519 0.89978L3.48395 0.89978L0 6.38684L5.67609 6.38684L7.94519 0.89978Z" fill-rule="evenodd" fill="url(#paint_linear_30_252_0)"/>
	<path id="path" d="M14.7967 6.38599L12.5272 0.899658L9.47119 0.899658L7.20245 6.38672L14.7967 6.38599Z" fill-rule="evenodd" fill="url(#paint_linear_30_251_0)"/>
	<path id="path" d="M0.321594 7.75879L4.16357 12.4755C4.17279 12.4714 9.16541 18.6157 9.16541 18.6157L5.63654 7.75879L0.321594 7.75879Z" fill-rule="evenodd" fill="url(#paint_linear_30_250_0)"/>
	<path id="path" d="M14.0542 0.89978L16.3237 6.38611L22.0654 6.38684L18.5158 0.89978L14.0542 0.89978Z" fill-rule="evenodd" fill="url(#paint_linear_30_249_0)"/>
	<path id="path" d="M12.9188 18.5251L19.5948 10.382C19.5826 10.3762 21.7352 7.75879 21.7352 7.75879L16.3619 7.75879L12.9188 18.5251Z" fill-rule="evenodd" fill="url(#paint_linear_30_248_0)"/>
	<path id="Linux企业版" d="M83.0089 6.99707C86.6271 5.57617 90.2306 2.99805 92.2081 0L93.8878 0.795898C93.7511 1.01562 93.59 1.21582 93.4288 1.44043C95.9484 4.25781 98.8488 5.77637 101.827 6.97754C101.368 7.37793 100.851 8.01758 100.631 8.59863C97.7306 7.23633 95.0304 5.63965 92.3888 2.71973C90.2111 5.17578 87.2911 7.2168 84.2882 8.5791C84.0099 8.0957 83.4874 7.43652 83.0089 6.99707ZM131.207 7.19727L126.129 7.19727L126.129 8.39844C126.129 8.85742 126.129 9.31641 126.109 9.7998L130.089 9.7998L130.089 18.5156L128.409 18.5156L128.409 11.46L126.051 11.46C125.909 14.0576 125.489 16.6797 124.352 18.6182C124.049 18.2764 123.429 17.7197 123.009 17.4756C124.269 15 124.43 11.3379 124.43 8.41797L124.43 0.639648L126.129 0.639648L126.129 5.55664L127.95 5.55664L127.95 0.15625L129.63 0.15625L129.63 5.55664L131.207 5.55664L131.207 7.19727ZM139.61 5.83984L139.928 5.77637L141.031 6.05957C140.587 9.5166 139.669 12.2559 138.331 14.3799C139.23 15.5371 140.309 16.46 141.588 17.1191C141.168 17.4365 140.611 18.1201 140.328 18.6182C139.127 17.9199 138.111 16.9971 137.247 15.8594C136.251 17.0166 135.128 17.9199 133.829 18.6182C133.59 18.1396 133.111 17.4365 132.731 17.0996C134.049 16.4795 135.211 15.5176 136.207 14.2383C135.148 12.3389 134.391 10.0586 133.868 7.51953L133.751 7.51953L133.751 8.21777C133.751 11.5771 133.507 15.8203 131.788 18.6963C131.451 18.3789 130.748 17.876 130.309 17.6367C131.788 15.0391 131.969 11.1182 131.969 8.21777L131.969 1.45996C134.869 1.25977 138.17 0.839844 140.231 0.336914L141.349 1.93848C139.21 2.41699 136.368 2.75879 133.751 2.95898L133.751 5.83984L139.61 5.83984ZM115.787 0.458984L115.787 15.7178L121.168 15.7178L121.168 17.5586L103.59 17.5586L103.59 15.7178L108.971 15.7178L108.971 0.439453L110.87 0.439453L110.87 15.7178L113.888 15.7178L113.888 0.458984L115.787 0.458984ZM45.5896 2.53906C45.5896 3.33984 44.95 3.89648 44.1101 3.89648C43.2703 3.89648 42.6501 3.33984 42.6501 2.53906C42.6501 1.71875 43.2703 1.17676 44.1101 1.17676C44.95 1.17676 45.5896 1.71875 45.5896 2.53906ZM40.5677 16.958L32.0277 16.958L32.0277 2.23633L34.347 2.23633L34.347 15L40.5677 15L40.5677 16.958ZM105.67 4.55566C106.671 6.83594 107.867 9.83887 108.39 11.6357L106.529 12.3193C106.07 10.4785 104.947 7.39746 103.971 5.09766L105.67 4.55566ZM116.031 11.6602C117.091 9.83887 118.448 6.91895 119.191 4.61914L120.89 5.43945C119.947 7.81738 118.649 10.5762 117.569 12.4561L116.031 11.6602ZM50.9878 16.958L48.7075 16.958L48.7075 5.95703L50.5874 5.95703L50.7681 7.47559L50.8315 7.47559C51.8472 6.49902 52.9702 5.67871 54.4692 5.67871C56.8081 5.67871 57.8481 7.23633 57.8481 10.0391L57.8481 16.958L55.5483 16.958L55.5483 10.3174C55.5483 8.41797 54.9868 7.65625 53.688 7.65625C52.6675 7.65625 51.9692 8.17871 50.9878 9.16016L50.9878 16.958ZM99.0685 11.7383L93.507 11.7383L93.507 16.2793L100.89 16.2793L100.89 17.9785L83.9904 17.9785L83.9904 16.2793L86.3683 16.2793L86.3683 9.11621L88.1896 9.11621L88.1896 16.2793L91.549 16.2793L91.549 5.69824L93.507 5.69824L93.507 10.0781L99.0685 10.0781L99.0685 11.7383ZM45.2478 16.958L42.9675 16.958L42.9675 5.95703L45.2478 5.95703L45.2478 16.958ZM68.0088 15.2979C67.0078 16.46 65.9287 17.2168 64.4102 17.2168C62.0713 17.2168 61.0508 15.6787 61.0508 12.876L61.0508 5.95703L63.3506 5.95703L63.3506 12.5977C63.3506 14.4971 63.8877 15.2393 65.1914 15.2393C66.207 15.2393 66.9102 14.7559 67.8281 13.5986L67.8281 5.95703L70.1279 5.95703L70.1279 16.958L68.248 16.958L68.0674 15.2979L68.0088 15.2979ZM74.569 16.958L72.1471 16.958L75.7115 11.2158L72.4108 5.95703L74.8912 5.95703L76.2096 8.17871C76.527 8.7793 76.8883 9.39941 77.2496 10.0195L77.3278 10.0195C77.6305 9.39941 77.9479 8.7793 78.2506 8.17871L79.4078 5.95703L81.8102 5.95703L78.5094 11.4795L82.0494 16.958L79.5494 16.958L78.109 14.6387C77.7477 13.9795 77.3668 13.2959 76.9713 12.6758L76.8688 12.6758C76.527 13.2959 76.1901 13.96 75.8483 14.6387L74.569 16.958ZM137.228 12.7197C138.068 11.2402 138.688 9.49707 139.088 7.51953L135.328 7.51953C135.768 9.41895 136.388 11.1768 137.228 12.7197Z" fill-rule="evenodd" fill="url(#paint_linear_30_247_0)"/>
</svg>
