<svg width="141.588623" height="19.986328" viewBox="0 0 141.589 19.9863" fill="none" xmlns="http://www.w3.org/2000/svg" xmlns:xlink="http://www.w3.org/1999/xlink">
	<desc>
			Created with Pixso.
	</desc>
	<defs>
		<linearGradient id="paint_linear_30_284_0" x1="11.001166" y1="6.864990" x2="11.001166" y2="19.986332" gradientUnits="userSpaceOnUse">
			<stop stop-color="#E8A936"/>
			<stop offset="0.496183" stop-color="#E9C571"/>
			<stop offset="1.000000" stop-color="#B17726"/>
		</linearGradient>
		<linearGradient id="paint_linear_30_283_0" x1="3.972592" y1="0.000000" x2="3.972592" y2="5.492838" gradientUnits="userSpaceOnUse">
			<stop stop-color="#E8A936"/>
			<stop offset="0.496183" stop-color="#E9C571"/>
			<stop offset="1.000000" stop-color="#B17726"/>
		</linearGradient>
		<linearGradient id="paint_linear_30_282_0" x1="10.999559" y1="0.000000" x2="10.999559" y2="5.492838" gradientUnits="userSpaceOnUse">
			<stop stop-color="#E8A936"/>
			<stop offset="0.496183" stop-color="#E9C571"/>
			<stop offset="1.000000" stop-color="#B17726"/>
		</linearGradient>
		<linearGradient id="paint_linear_30_281_0" x1="4.743491" y1="6.866089" x2="4.743491" y2="17.734304" gradientUnits="userSpaceOnUse">
			<stop stop-color="#E8A936"/>
			<stop offset="0.496183" stop-color="#E9C571"/>
			<stop offset="1.000000" stop-color="#B17726"/>
		</linearGradient>
		<linearGradient id="paint_linear_30_280_0" x1="18.059828" y1="0.000000" x2="18.059828" y2="5.492838" gradientUnits="userSpaceOnUse">
			<stop stop-color="#E8A936"/>
			<stop offset="0.496183" stop-color="#E9C571"/>
			<stop offset="1.000000" stop-color="#B17726"/>
		</linearGradient>
		<linearGradient id="paint_linear_30_279_0" x1="17.327003" y1="6.866211" x2="17.327003" y2="17.643768" gradientUnits="userSpaceOnUse">
			<stop stop-color="#E8A936"/>
			<stop offset="0.496183" stop-color="#E9C571"/>
			<stop offset="1.000000" stop-color="#B17726"/>
		</linearGradient>
		<linearGradient id="paint_linear_30_278_0" x1="32.028320" y1="9.472412" x2="141.588593" y2="9.472412" gradientUnits="userSpaceOnUse">
			<stop stop-color="#E8A833"/>
			<stop offset="1.000000" stop-color="#B48A52"/>
		</linearGradient>
	</defs>
	<path id="path" d="M7.12836 6.86499L11.001 19.9863L14.874 6.86499L7.12836 6.86499Z" fill-rule="evenodd" fill="url(#paint_linear_30_284_0)"/>
	<path id="path" d="M7.94519 0L3.48395 0L0 5.4928L5.67609 5.4928L7.94519 0Z" fill-rule="evenodd" fill="url(#paint_linear_30_283_0)"/>
	<path id="path" d="M14.7967 5.49207L12.5272 0L9.47119 0L7.20245 5.4928L14.7967 5.49207Z" fill-rule="evenodd" fill="url(#paint_linear_30_282_0)"/>
	<path id="path" d="M0.321594 6.86609L4.16357 11.5876C4.17279 11.5836 9.16541 17.7343 9.16541 17.7343L5.63654 6.86609L0.321594 6.86609Z" fill-rule="evenodd" fill="url(#paint_linear_30_281_0)"/>
	<path id="path" d="M14.0542 0L16.3237 5.49207L22.0654 5.4928L18.5158 0L14.0542 0Z" fill-rule="evenodd" fill="url(#paint_linear_30_280_0)"/>
	<path id="path" d="M12.9188 17.6438L19.5948 9.49219C19.5826 9.48633 21.7352 6.86621 21.7352 6.86621L16.3619 6.86621L12.9188 17.6438Z" fill-rule="evenodd" fill="url(#paint_linear_30_279_0)"/>
	<path id="Linux专业版" d="M131.208 7.24341L126.13 7.24341L126.13 8.44458C126.13 8.90356 126.13 9.36255 126.11 9.84595L130.09 9.84595L130.09 18.5618L128.41 18.5618L128.41 11.5061L126.052 11.5061C125.91 14.1038 125.49 16.7258 124.352 18.6643C124.05 18.3225 123.429 17.7659 123.01 17.5217C124.269 15.0461 124.43 11.384 124.43 8.46411L124.43 0.685791L126.13 0.685791L126.13 5.60278L127.951 5.60278L127.951 0.202393L129.631 0.202393L129.631 5.60278L131.208 5.60278L131.208 7.24341ZM100.969 6.10571L100.969 7.88306L90.4119 7.88306C90.1921 8.58618 89.9675 9.24536 89.7917 9.88501L98.0095 9.88501L98.3318 9.78247L99.7283 10.6223C98.3513 12.1018 96.4714 13.9622 94.6892 15.6663C95.8708 16.1252 96.95 16.6038 97.7312 17.0432L96.6277 18.6643C94.6501 17.4631 90.5681 15.8665 87.4675 15.0022L88.488 13.6057C89.8113 13.9426 91.3103 14.4065 92.7898 14.9436C93.9519 13.845 95.1921 12.6438 96.2078 11.6233L87.1306 11.6233C87.531 10.5637 87.9705 9.28442 88.4294 7.88306L83.5515 7.88306L83.5515 6.10571L88.991 6.10571C89.1912 5.42212 89.4109 4.72388 89.6111 4.04517L85.1482 4.04517L85.1482 2.26294L90.0896 2.26294C90.2703 1.5647 90.4509 0.885986 90.6121 0.246338L92.5896 0.246338C92.4089 0.885986 92.2283 1.58423 92.0281 2.26294L99.5281 2.26294L99.5281 4.04517L91.5496 4.04517C91.3298 4.72388 91.1296 5.42212 90.9294 6.10571L100.969 6.10571ZM139.611 5.88599L139.928 5.82251L141.032 6.10571C140.588 9.56274 139.67 12.302 138.332 14.426C139.23 15.5833 140.309 16.5061 141.589 17.1653C141.169 17.4827 140.612 18.1663 140.329 18.6643C139.128 17.9661 138.112 17.0432 137.248 15.9055C136.252 17.0627 135.129 17.9661 133.83 18.6643C133.591 18.1858 133.112 17.4827 132.731 17.1458C134.05 16.5256 135.212 15.5637 136.208 14.2844C135.148 12.385 134.391 10.1047 133.869 7.56567L133.752 7.56567L133.752 8.26392C133.752 11.6233 133.508 15.8665 131.789 18.7424C131.452 18.425 130.749 17.9221 130.309 17.6829C131.789 15.0852 131.969 11.1643 131.969 8.26392L131.969 1.5061C134.87 1.30591 138.171 0.885986 140.231 0.383057L141.349 1.98462C139.211 2.46313 136.369 2.80493 133.752 3.00513L133.752 5.88599L139.611 5.88599ZM115.788 0.505127L115.788 15.7639L121.169 15.7639L121.169 17.6047L103.591 17.6047L103.591 15.7639L108.971 15.7639L108.971 0.485596L110.871 0.485596L110.871 15.7639L113.888 15.7639L113.888 0.505127L115.788 0.505127ZM45.5902 2.58521C45.5902 3.38599 44.9506 3.94263 44.1107 3.94263C43.2709 3.94263 42.6508 3.38599 42.6508 2.58521C42.6508 1.76489 43.2709 1.2229 44.1107 1.2229C44.9506 1.2229 45.5902 1.76489 45.5902 2.58521ZM40.5684 17.0042L32.0283 17.0042L32.0283 2.28247L34.3477 2.28247L34.3477 15.0461L40.5684 15.0461L40.5684 17.0042ZM105.671 4.60181C106.672 6.88208 107.868 9.88501 108.39 11.6819L106.53 12.3655C106.071 10.5247 104.948 7.4436 103.971 5.1438L105.671 4.60181ZM116.032 11.7063C117.092 9.88501 118.449 6.96509 119.191 4.66528L120.89 5.4856C119.948 7.86353 118.649 10.6223 117.57 12.5022L116.032 11.7063ZM50.9884 17.0042L48.7081 17.0042L48.7081 6.00317L50.588 6.00317L50.7687 7.52173L50.8322 7.52173C51.8478 6.54517 52.9708 5.72485 54.4698 5.72485C56.8087 5.72485 57.8488 7.28247 57.8488 10.0852L57.8488 17.0042L55.549 17.0042L55.549 10.3635C55.549 8.46411 54.9874 7.70239 53.6886 7.70239C52.6681 7.70239 51.9698 8.22485 50.9884 9.2063L50.9884 17.0042ZM45.2484 17.0042L42.9681 17.0042L42.9681 6.00317L45.2484 6.00317L45.2484 17.0042ZM68.0094 15.344C67.0084 16.5061 65.9293 17.2629 64.4108 17.2629C62.0719 17.2629 61.0514 15.7249 61.0514 12.9221L61.0514 6.00317L63.3512 6.00317L63.3512 12.6438C63.3512 14.5432 63.8883 15.2854 65.192 15.2854C66.2076 15.2854 66.9108 14.802 67.8287 13.6448L67.8287 6.00317L70.1285 6.00317L70.1285 17.0042L68.2487 17.0042L68.068 15.344L68.0094 15.344ZM74.5696 17.0042L72.1477 17.0042L75.7122 11.262L72.4114 6.00317L74.8918 6.00317L76.2102 8.22485C76.5276 8.82544 76.8889 9.44556 77.2502 10.0657L77.3284 10.0657C77.6311 9.44556 77.9485 8.82544 78.2512 8.22485L79.4084 6.00317L81.8108 6.00317L78.51 11.5256L82.05 17.0042L79.55 17.0042L78.1096 14.6848C77.7483 14.0256 77.3674 13.342 76.9719 12.7219L76.8694 12.7219C76.5276 13.342 76.1907 14.0061 75.8489 14.6848L74.5696 17.0042ZM137.228 12.7659C138.068 11.2864 138.688 9.54321 139.089 7.56567L135.329 7.56567C135.768 9.46509 136.388 11.2229 137.228 12.7659Z" fill-rule="evenodd" fill="url(#paint_linear_30_278_0)"/>
</svg>
