<svg width="18.000000" height="18.000000" viewBox="0 0 18 18" fill="none" xmlns="http://www.w3.org/2000/svg" xmlns:xlink="http://www.w3.org/1999/xlink">
	<desc>
			Created with Pixso.
	</desc>
	<defs/>
	<path id="【提示】" d="M9 15.0002C9.81073 15.0002 10.5965 14.8424 11.3354 14.5284C12.0493 14.2269 12.6913 13.7942 13.2428 13.2428C13.7943 12.6914 14.227 12.0493 14.5284 11.3354C14.8409 10.5966 15.0002 9.81079 15.0002 9C15.0002 8.18921 14.8425 7.40344 14.5284 6.66455C14.227 5.95068 13.7943 5.30859 13.2428 4.7572C12.6913 4.20581 12.0493 3.77307 11.3354 3.47156C10.5965 3.15906 9.81073 2.99976 9 2.99976C8.18927 2.99976 7.4035 3.15759 6.66461 3.47156C5.95068 3.77307 5.30865 4.20581 4.7572 4.7572C4.20575 5.30859 3.77307 5.95068 3.47156 6.66455C3.15912 7.40344 2.99976 8.18921 2.99976 9C2.99976 9.81079 3.15753 10.5966 3.47156 11.3354C3.77307 12.0493 4.20575 12.6914 4.7572 13.2428C5.30865 13.7942 5.95068 14.2269 6.66461 14.5284C7.4035 14.8409 8.18927 15.0002 9 15.0002ZM9 16C5.13367 16 2 12.8663 2 9C2 5.13367 5.13367 2 9 2C12.8663 2 16 5.13367 16 9C16 12.8663 12.8663 16 9 16ZM9.48584 12.5071L9.48584 7.50195C9.48584 7.22693 9.26245 7.00354 8.98749 7.00354C8.71259 7.00354 8.4892 7.22693 8.4892 7.50195L8.4892 12.5071C8.4892 12.782 8.71259 13.0054 8.98749 13.0054C9.26245 13.0054 9.48584 12.782 9.48584 12.5071ZM8.98749 6.00378C9.26245 6.00378 9.48584 5.7804 9.48584 5.50549C9.48584 5.23047 9.26245 5.00708 8.98749 5.00708C8.71259 5.00708 8.4892 5.23047 8.4892 5.50549C8.4892 5.7804 8.71259 6.00378 8.98749 6.00378Z" fill-rule="nonzero" fill="#F0AD4E"/>
</svg>
