<svg width="145.431519" height="40.000000" viewBox="0 0 145.432 40" fill="none" xmlns="http://www.w3.org/2000/svg" xmlns:xlink="http://www.w3.org/1999/xlink">
	<desc>
			Created with Pixso.
	</desc>
	<defs>
		<linearGradient id="paint_linear_30_234_0" x1="72.025330" y1="12.593750" x2="72.025330" y2="27.312500" gradientUnits="userSpaceOnUse">
			<stop stop-color="#E8AA36"/>
			<stop offset="0.465649" stop-color="#E9C571"/>
			<stop offset="1.000000" stop-color="#AF7323"/>
		</linearGradient>
	</defs>
	<path id="矩形 456 (边框)" d="M145.432 4C145.432 1.79089 143.641 0 141.432 0L4 0C1.79083 0 0 1.79089 0 4L0 36C0 38.2091 1.79083 40 4 40L141.432 40C143.641 40 145.432 38.2091 145.432 36L145.432 4ZM143.932 4C143.932 2.61926 142.812 1.5 141.432 1.5L4 1.5C2.61926 1.5 1.5 2.61926 1.5 4L1.5 36C1.5 37.3807 2.61926 38.5 4 38.5L141.432 38.5C142.812 38.5 143.932 37.3807 143.932 36L143.932 4Z" fill-rule="evenodd" fill="#FFB95A"/>
	<path id="查看更多特权" d="M83.7109 14L83.9218 13.9531L84.6874 14.4336C82.6718 17.9688 78.0156 20.1133 73.871 20.9766C73.7773 20.6562 73.5195 20.1602 73.3124 19.9023C75.0898 19.5859 76.9765 19.0078 78.6718 18.1914C78.1445 17.7109 77.4413 17.1992 76.8007 16.832L77.664 16.2227C78.3359 16.6094 79.1367 17.1523 79.7109 17.6641C80.9765 16.9297 82.0781 16.0625 82.8632 15.0703L78.3515 15.0703C77.3281 15.9219 76.0781 16.7031 74.6406 17.3594C74.4648 17.0898 74.0976 16.7188 73.8398 16.5273C76.3828 15.457 78.289 13.9023 79.3124 12.5938L80.6093 12.8633C80.3046 13.2461 79.9531 13.6172 79.5663 14L83.7109 14ZM103.266 18.5742L103.266 17.457L99.3906 17.457L99.3906 15.4414L102.527 15.4414L102.527 14.3359L99.3906 14.3359L99.3906 12.6094L98.2578 12.6094L98.2578 14.3359L95.1523 14.3359L95.1523 15.4414L98.2578 15.4414L98.2578 17.457L94.2578 17.457L94.2578 18.5742L100.191 18.5742L100.191 20.4805L94.496 20.4805L94.496 21.5859L100.191 21.5859L100.191 25.7422C100.191 25.9844 100.113 26.0312 99.871 26.0469C99.6015 26.0625 98.7538 26.0625 97.7929 26.0312C97.9531 26.3672 98.1132 26.8789 98.1601 27.2148C99.3593 27.2148 100.176 27.1992 100.687 27.0078C101.184 26.8164 101.312 26.4648 101.312 25.7617L101.312 21.5859L103.184 21.5859L103.184 20.4805L101.312 20.4805L101.312 18.5742L103.266 18.5742ZM108.609 17.7617C109.121 18.2734 110.91 20.3047 111.297 20.7695L110.559 21.8398C110.191 21.2461 109.297 20 108.609 19.1211L108.609 27.2148L107.441 27.2148L107.441 19.2305C106.816 21.2148 105.937 23.168 105.055 24.3359C104.91 23.9844 104.594 23.4727 104.352 23.168C105.473 21.8242 106.594 19.3125 107.137 17.1055L104.801 17.1055L104.801 15.9844L107.441 15.9844L107.441 12.6094L108.609 12.6094L108.609 15.9844L110.734 15.9844L110.734 17.1055L108.609 17.1055L108.609 17.7617ZM39.0546 15.6953L39.0546 14.6406L32.5429 14.6406L32.5429 12.625L31.3749 12.625L31.3749 14.6406L24.9609 14.6406L24.9609 15.6953L30.0781 15.6953C28.7187 17.1992 26.5742 18.543 24.6249 19.2148C24.8632 19.4414 25.2148 19.8867 25.4062 20.1602C27.5663 19.2969 29.9374 17.6484 31.3749 15.7773L31.3749 19.0234L32.5429 19.0234L32.5429 15.7617C34.0156 17.5859 36.3671 19.2148 38.5742 20.0312C38.7538 19.7422 39.1054 19.2812 39.3593 19.0703C37.3437 18.4492 35.1992 17.1367 33.8085 15.6953L39.0546 15.6953ZM94.1288 20.0977L92.5742 20.5742L92.5742 17.0234L94.0624 17.0234L94.0624 15.8867L92.5742 15.8867L92.5742 12.625L91.4257 12.625L91.4257 15.8867L90.3828 15.8867C90.4804 15.2812 90.5429 14.6562 90.6093 14.0156L89.6015 13.8398C89.457 15.8242 89.1679 17.9023 88.6718 19.2305C88.9296 19.3281 89.3749 19.5664 89.5859 19.7266C89.8398 18.9922 90.0624 18.0469 90.2226 17.0234L91.4257 17.0234L91.4257 20.9297C90.414 21.2148 89.5038 21.4883 88.8007 21.6797L89.0546 22.8633C89.7421 22.6562 90.5585 22.3984 91.4257 22.1133L91.4257 27.2148L92.5742 27.2148L92.5742 21.7422L94.2226 21.1836L94.1288 20.0977ZM55.0078 17.5859L55.0078 18.5742L46.1288 18.5742C45.9218 18.9453 45.7109 19.3281 45.4726 19.6797L53.4413 19.6797L53.4413 27.2656L52.2734 27.2656L52.2734 26.6406L45.3281 26.6406L45.3281 27.2656L44.1913 27.2656L44.1913 21.3281C43.3749 22.2227 42.4335 23.0234 41.3437 23.6797C41.1835 23.4062 40.832 22.9766 40.6093 22.7695C42.3984 21.7266 43.7773 20.2383 44.7695 18.5742L40.9921 18.5742L40.9921 17.5859L45.3281 17.5859C45.5195 17.1992 45.7109 16.8008 45.8554 16.418L42.1601 16.418L42.1601 15.457L46.207 15.457C46.3359 15.0898 46.4492 14.7188 46.5429 14.3359C45.0546 14.418 43.5507 14.4492 42.1757 14.4492C42.1601 14.1758 42.0468 13.793 41.9374 13.5352C45.8085 13.5039 50.6406 13.2461 53.1679 12.7344L53.9218 13.6016C52.3203 13.9375 50.1445 14.1445 47.8554 14.2734C47.7421 14.6719 47.6171 15.0547 47.4882 15.457L54.0781 15.457L54.0781 16.418L47.1523 16.418C46.9921 16.8008 46.8163 17.1992 46.6249 17.5859L55.0078 17.5859ZM69.9023 22.0312L69.9023 15.8867L64.7031 15.8867L64.7031 14.543L70.9101 14.543L70.9101 13.4727L57.0898 13.4727L57.0898 14.543L63.4882 14.543L63.4882 15.8867L58.5429 15.8867L58.5429 22.0312L63.2968 22.0312C63.1054 22.8008 62.7343 23.5195 61.9999 24.1445C61.246 23.6484 60.6093 22.9922 60.0624 22.1602L59.0703 22.5586C59.6171 23.4883 60.2734 24.2227 61.039 24.8164C60.0624 25.375 58.7031 25.8242 56.8007 26.1914C57.0546 26.4648 57.3749 26.9609 57.5038 27.2305C59.5859 26.8008 61.0703 26.207 62.1445 25.5039C64.3203 26.6562 67.2304 27.0078 70.9296 27.168C70.9921 26.7852 71.2148 26.2891 71.4257 26C67.871 25.9023 65.121 25.6641 63.1054 24.7539C63.9023 23.9375 64.3359 23.0234 64.5273 22.0312L69.9023 22.0312ZM117.969 14.0781L118.176 14.0312L118.91 14.2734C118.383 18.0312 117.215 20.9453 115.617 23.1211C116.594 24.3359 117.824 25.3594 119.426 26.3359C119.121 26.5586 118.754 26.9609 118.574 27.3125C117.039 26.3203 115.824 25.2656 114.848 24.0625C113.633 25.457 112.191 26.4961 110.625 27.2148C110.48 26.9102 110.144 26.4492 109.887 26.2227C111.457 25.5859 112.91 24.543 114.129 23.1055C112.734 21.0234 111.922 18.5117 111.344 15.2305L110.785 15.2305L110.785 14.0781L117.969 14.0781ZM114.879 22.1289C116.144 20.3203 117.105 18.0156 117.617 15.2305L112.449 15.2305C112.961 18.0781 113.695 20.2891 114.879 22.1289ZM59.6796 16.8789L63.4882 16.8789L63.4882 18.4805L59.6796 18.4805L59.6796 16.8789ZM68.7343 16.8789L68.7343 18.4805L64.7031 18.4805L64.7031 16.8789L68.7343 16.8789ZM86.0156 19.6016L86.2578 19.5352L87.0546 20.0312C84.832 24.7344 79.3749 26.5938 73.7421 27.2656C73.664 26.9297 73.4726 26.3984 73.2656 26.1133C75.9687 25.8555 78.6562 25.2969 80.8945 24.2578C80.3671 23.7422 79.6484 23.1367 79.0234 22.6562L79.9999 22.0977C80.6406 22.5586 81.4062 23.1836 81.9843 23.7109C83.3437 22.9297 84.4804 21.9375 85.2812 20.6875L80.9609 20.6875C79.6328 21.7617 77.9843 22.7344 75.9843 23.5195C75.8398 23.2656 75.5038 22.832 75.2304 22.6406C78.4648 21.4727 80.7343 19.6953 81.9023 18.1289L83.2148 18.4141C82.8945 18.8164 82.5585 19.2148 82.1601 19.6016L86.0156 19.6016ZM59.6796 21.0391L59.6796 19.4258L63.4882 19.4258L63.4882 20.0625C63.4882 20.3828 63.4882 20.7188 63.457 21.0391L59.6796 21.0391ZM68.7343 21.0391L64.6718 21.0391C64.6874 20.7344 64.7031 20.3984 64.7031 20.0781L64.7031 19.4258L68.7343 19.4258L68.7343 21.0391ZM27.5663 19.5039L27.5663 24.6875L36.3984 24.6875L36.3984 19.5039L27.5663 19.5039ZM35.1835 21.6797L28.7343 21.6797L28.7343 20.3516L35.1835 20.3516L35.1835 21.6797ZM45.3281 21.7266L52.2734 21.7266L52.2734 20.625L45.3281 20.625L45.3281 21.7266ZM95.3281 22.5938C96.0976 23.375 96.9453 24.4492 97.2812 25.1836L98.207 24.5742C97.8398 23.8398 96.9765 22.7852 96.207 22.0312L95.3281 22.5938ZM35.1835 23.8398L28.7343 23.8398L28.7343 22.5117L35.1835 22.5117L35.1835 23.8398ZM45.3281 23.6641L52.2734 23.6641L52.2734 22.543L45.3281 22.543L45.3281 23.6641ZM45.3281 24.4961L45.3281 25.6797L52.2734 25.6797L52.2734 24.4961L45.3281 24.4961ZM25.2304 26.7188L38.832 26.7188L38.832 25.6484L25.2304 25.6484L25.2304 26.7188Z" fill-rule="evenodd" fill="url(#paint_linear_30_234_0)"/>
</svg>
